<svg xmlns="http://www.w3.org/2000/svg" viewBox="0 0 1024 1536" width="100" height="100">
  <path d="M 552 225 L 551 226 L 551 237 L 552 238 L 552 253 L 553 254 L 553 268 L 554 269 L 554 274 L 553 275 L 551 275 L 550 276 L 546 276 L 545 277 L 542 277 L 541 278 L 538 278 L 537 279 L 535 279 L 534 280 L 531 280 L 530 281 L 528 281 L 527 282 L 525 282 L 524 283 L 522 281 L 522 280 L 521 279 L 521 277 L 520 276 L 520 275 L 519 274 L 519 272 L 518 271 L 518 270 L 517 269 L 517 267 L 516 266 L 516 265 L 515 264 L 515 263 L 514 262 L 514 260 L 513 259 L 513 258 L 512 257 L 512 256 L 511 255 L 511 254 L 510 253 L 510 251 L 509 250 L 509 249 L 508 248 L 508 247 L 507 246 L 507 244 L 506 243 L 506 242 L 505 241 L 505 240 L 504 239 L 504 238 L 503 238 L 502 237 L 501 237 L 500 238 L 500 244 L 501 245 L 501 247 L 502 248 L 502 250 L 503 251 L 503 253 L 504 254 L 504 256 L 505 257 L 505 258 L 506 259 L 506 261 L 507 262 L 507 264 L 508 265 L 508 266 L 509 267 L 509 269 L 510 270 L 510 272 L 511 273 L 511 274 L 512 275 L 512 277 L 513 278 L 513 280 L 514 281 L 514 283 L 515 284 L 515 285 L 516 286 L 514 288 L 513 288 L 512 289 L 511 289 L 510 290 L 509 290 L 508 291 L 507 291 L 506 292 L 505 292 L 503 294 L 502 294 L 501 295 L 500 295 L 498 297 L 497 297 L 495 299 L 494 299 L 492 301 L 491 301 L 490 302 L 489 302 L 486 299 L 486 298 L 483 295 L 483 294 L 479 290 L 479 289 L 475 285 L 475 284 L 472 281 L 472 280 L 468 276 L 468 275 L 464 271 L 464 270 L 458 264 L 455 264 L 455 268 L 457 270 L 457 271 L 458 272 L 458 273 L 460 275 L 460 276 L 462 278 L 462 279 L 465 282 L 465 283 L 467 285 L 467 286 L 469 288 L 469 289 L 471 291 L 471 292 L 474 295 L 474 296 L 476 298 L 476 299 L 478 301 L 478 302 L 481 305 L 481 306 L 482 307 L 482 308 L 481 309 L 480 309 L 476 313 L 475 313 L 468 320 L 467 320 L 457 330 L 435 308 L 434 308 L 423 297 L 422 297 L 421 296 L 420 296 L 418 298 L 418 299 L 419 300 L 419 301 L 424 306 L 424 307 L 434 317 L 434 318 L 451 335 L 451 337 L 443 345 L 443 346 L 438 351 L 438 352 L 433 357 L 433 358 L 430 361 L 430 362 L 429 363 L 428 362 L 427 362 L 424 359 L 423 359 L 420 356 L 419 356 L 415 352 L 414 352 L 412 350 L 411 350 L 408 347 L 407 347 L 404 344 L 403 344 L 400 341 L 399 341 L 396 338 L 395 338 L 393 336 L 392 336 L 390 334 L 389 334 L 388 333 L 386 333 L 385 334 L 385 336 L 386 337 L 386 338 L 390 342 L 391 342 L 397 348 L 398 348 L 403 353 L 404 353 L 409 358 L 410 358 L 415 363 L 416 363 L 420 367 L 421 367 L 424 370 L 422 372 L 422 373 L 419 376 L 419 377 L 417 379 L 417 380 L 415 382 L 415 383 L 413 385 L 413 386 L 411 388 L 411 389 L 409 391 L 409 392 L 407 394 L 407 395 L 406 396 L 406 397 L 405 398 L 403 398 L 402 397 L 401 397 L 399 395 L 398 395 L 397 394 L 396 394 L 394 392 L 393 392 L 392 391 L 391 391 L 389 389 L 388 389 L 387 388 L 386 388 L 384 386 L 383 386 L 382 385 L 381 385 L 380 384 L 379 384 L 378 383 L 377 383 L 375 381 L 374 381 L 373 380 L 372 380 L 370 378 L 369 378 L 368 377 L 367 377 L 366 376 L 365 376 L 363 374 L 362 374 L 361 373 L 359 373 L 357 375 L 358 376 L 358 377 L 361 380 L 362 380 L 364 382 L 365 382 L 368 385 L 369 385 L 371 387 L 372 387 L 374 389 L 375 389 L 377 391 L 378 391 L 380 393 L 381 393 L 383 395 L 384 395 L 386 397 L 387 397 L 389 399 L 390 399 L 392 401 L 393 401 L 394 402 L 395 402 L 397 404 L 398 404 L 400 406 L 400 407 L 398 409 L 398 410 L 396 412 L 396 413 L 395 414 L 395 415 L 394 416 L 394 417 L 392 419 L 392 420 L 391 421 L 391 422 L 390 423 L 390 424 L 389 425 L 389 426 L 387 428 L 387 429 L 386 430 L 386 431 L 385 432 L 385 433 L 384 434 L 384 435 L 383 436 L 383 437 L 382 438 L 381 438 L 379 436 L 378 436 L 377 435 L 376 435 L 375 434 L 374 434 L 373 433 L 372 433 L 371 432 L 370 432 L 369 431 L 368 431 L 367 430 L 366 430 L 365 429 L 364 429 L 363 428 L 362 428 L 361 427 L 360 427 L 359 426 L 358 426 L 357 425 L 356 425 L 355 424 L 354 424 L 353 423 L 352 423 L 351 422 L 350 422 L 349 421 L 348 421 L 347 420 L 346 420 L 345 419 L 344 419 L 343 418 L 342 418 L 341 417 L 340 417 L 339 416 L 338 416 L 337 415 L 335 415 L 334 416 L 334 419 L 336 421 L 337 421 L 339 423 L 340 423 L 342 425 L 343 425 L 344 426 L 345 426 L 347 428 L 348 428 L 349 429 L 350 429 L 351 430 L 352 430 L 354 432 L 355 432 L 356 433 L 357 433 L 359 435 L 360 435 L 361 436 L 362 436 L 363 437 L 364 437 L 366 439 L 367 439 L 368 440 L 369 440 L 370 441 L 371 441 L 372 442 L 373 442 L 375 444 L 376 444 L 378 446 L 377 447 L 377 448 L 376 449 L 376 450 L 375 451 L 375 452 L 374 453 L 374 454 L 373 455 L 373 456 L 372 457 L 372 458 L 371 459 L 371 460 L 370 461 L 370 462 L 369 463 L 369 464 L 368 465 L 368 466 L 367 467 L 367 468 L 366 469 L 366 470 L 365 471 L 365 472 L 364 473 L 364 474 L 363 475 L 363 476 L 362 477 L 361 476 L 360 476 L 359 475 L 357 475 L 356 474 L 355 474 L 354 473 L 353 473 L 352 472 L 350 472 L 349 471 L 348 471 L 347 470 L 345 470 L 344 469 L 343 469 L 342 468 L 341 468 L 340 467 L 338 467 L 337 466 L 336 466 L 335 465 L 333 465 L 332 464 L 331 464 L 330 463 L 329 463 L 328 462 L 326 462 L 325 461 L 324 461 L 323 460 L 321 460 L 320 459 L 318 459 L 317 458 L 313 458 L 312 459 L 312 460 L 313 461 L 313 462 L 314 462 L 316 464 L 317 464 L 318 465 L 319 465 L 320 466 L 321 466 L 322 467 L 323 467 L 324 468 L 325 468 L 326 469 L 327 469 L 328 470 L 329 470 L 330 471 L 331 471 L 332 472 L 333 472 L 334 473 L 335 473 L 336 474 L 337 474 L 338 475 L 339 475 L 340 476 L 341 476 L 342 477 L 344 477 L 345 478 L 346 478 L 347 479 L 348 479 L 349 480 L 350 480 L 351 481 L 352 481 L 353 482 L 354 482 L 355 483 L 356 483 L 357 484 L 358 484 L 359 485 L 358 486 L 358 487 L 357 488 L 357 490 L 356 491 L 356 492 L 355 493 L 355 494 L 354 495 L 354 496 L 353 497 L 353 499 L 352 500 L 352 501 L 351 502 L 351 503 L 350 504 L 350 505 L 349 506 L 349 508 L 348 509 L 348 510 L 347 511 L 347 512 L 346 513 L 346 515 L 344 517 L 342 517 L 341 516 L 339 516 L 338 515 L 336 515 L 335 514 L 334 514 L 333 513 L 331 513 L 330 512 L 328 512 L 327 511 L 325 511 L 324 510 L 322 510 L 321 509 L 319 509 L 318 508 L 316 508 L 315 507 L 313 507 L 312 506 L 310 506 L 309 505 L 307 505 L 306 504 L 304 504 L 303 503 L 301 503 L 300 502 L 294 502 L 294 505 L 296 507 L 297 507 L 298 508 L 300 508 L 301 509 L 302 509 L 303 510 L 304 510 L 305 511 L 307 511 L 308 512 L 309 512 L 310 513 L 311 513 L 312 514 L 314 514 L 315 515 L 316 515 L 317 516 L 319 516 L 320 517 L 321 517 L 322 518 L 324 518 L 325 519 L 326 519 L 327 520 L 329 520 L 330 521 L 331 521 L 332 522 L 334 522 L 335 523 L 336 523 L 337 524 L 339 524 L 341 526 L 341 528 L 340 529 L 340 530 L 339 531 L 339 533 L 338 534 L 338 536 L 337 537 L 337 538 L 336 539 L 336 541 L 335 542 L 335 544 L 334 545 L 334 546 L 333 547 L 333 549 L 332 550 L 332 552 L 331 553 L 331 554 L 330 555 L 330 557 L 329 558 L 329 559 L 328 560 L 327 560 L 326 559 L 324 559 L 323 558 L 320 558 L 319 557 L 317 557 L 316 556 L 313 556 L 312 555 L 310 555 L 309 554 L 306 554 L 305 553 L 302 553 L 301 552 L 299 552 L 298 551 L 295 551 L 294 550 L 291 550 L 290 549 L 287 549 L 286 548 L 283 548 L 282 547 L 278 547 L 277 548 L 277 550 L 279 552 L 280 552 L 281 553 L 283 553 L 284 554 L 286 554 L 287 555 L 289 555 L 290 556 L 292 556 L 293 557 L 294 557 L 295 558 L 297 558 L 298 559 L 300 559 L 301 560 L 303 560 L 304 561 L 306 561 L 307 562 L 309 562 L 310 563 L 313 563 L 314 564 L 316 564 L 317 565 L 318 565 L 319 566 L 322 566 L 323 567 L 325 567 L 326 568 L 326 569 L 325 570 L 325 572 L 324 573 L 324 575 L 323 576 L 323 578 L 322 579 L 322 581 L 321 582 L 321 584 L 320 585 L 320 587 L 319 588 L 319 591 L 318 592 L 318 594 L 317 595 L 317 597 L 316 598 L 316 600 L 315 601 L 315 602 L 314 603 L 313 603 L 312 602 L 309 602 L 308 601 L 305 601 L 304 600 L 301 600 L 300 599 L 297 599 L 296 598 L 293 598 L 292 597 L 288 597 L 287 596 L 284 596 L 283 595 L 280 595 L 279 594 L 276 594 L 275 593 L 271 593 L 270 592 L 264 592 L 264 593 L 263 594 L 264 595 L 264 596 L 265 596 L 266 597 L 268 597 L 269 598 L 271 598 L 272 599 L 274 599 L 275 600 L 277 600 L 278 601 L 280 601 L 281 602 L 283 602 L 284 603 L 287 603 L 288 604 L 290 604 L 291 605 L 293 605 L 294 606 L 297 606 L 298 607 L 300 607 L 301 608 L 303 608 L 304 609 L 307 609 L 308 610 L 311 610 L 312 611 L 312 613 L 311 614 L 311 616 L 310 617 L 310 620 L 309 621 L 309 624 L 308 625 L 308 628 L 307 629 L 307 632 L 306 633 L 306 635 L 305 636 L 305 639 L 304 640 L 304 643 L 303 644 L 303 645 L 302 646 L 298 646 L 297 645 L 293 645 L 292 644 L 288 644 L 287 643 L 283 643 L 282 642 L 278 642 L 277 641 L 273 641 L 272 640 L 268 640 L 267 639 L 262 639 L 261 638 L 257 638 L 256 637 L 253 637 L 251 639 L 251 640 L 253 642 L 255 642 L 256 643 L 258 643 L 259 644 L 261 644 L 262 645 L 265 645 L 266 646 L 268 646 L 269 647 L 272 647 L 273 648 L 276 648 L 277 649 L 280 649 L 281 650 L 284 650 L 285 651 L 288 651 L 289 652 L 292 652 L 293 653 L 296 653 L 297 654 L 299 654 L 300 655 L 300 658 L 299 659 L 299 662 L 298 663 L 298 667 L 297 668 L 297 671 L 296 672 L 296 676 L 295 677 L 295 680 L 294 681 L 294 685 L 293 686 L 293 689 L 292 690 L 287 690 L 286 689 L 281 689 L 280 688 L 275 688 L 274 687 L 268 687 L 267 686 L 262 686 L 261 685 L 255 685 L 254 684 L 248 684 L 247 683 L 241 683 L 241 684 L 240 685 L 240 686 L 242 688 L 244 688 L 245 689 L 248 689 L 249 690 L 253 690 L 254 691 L 257 691 L 258 692 L 262 692 L 263 693 L 266 693 L 267 694 L 271 694 L 272 695 L 276 695 L 277 696 L 281 696 L 282 697 L 285 697 L 286 698 L 289 698 L 290 699 L 290 704 L 289 705 L 289 709 L 288 710 L 288 714 L 287 715 L 287 720 L 286 721 L 286 725 L 285 726 L 285 733 L 284 734 L 277 734 L 276 733 L 270 733 L 269 732 L 261 732 L 260 731 L 253 731 L 252 730 L 244 730 L 243 729 L 234 729 L 233 730 L 233 733 L 234 733 L 235 734 L 238 734 L 239 735 L 243 735 L 244 736 L 248 736 L 249 737 L 254 737 L 255 738 L 259 738 L 260 739 L 265 739 L 266 740 L 271 740 L 272 741 L 277 741 L 278 742 L 282 742 L 283 743 L 283 746 L 282 747 L 282 751 L 281 752 L 281 758 L 280 759 L 280 767 L 279 768 L 279 777 L 278 778 L 267 778 L 266 777 L 253 777 L 252 776 L 239 776 L 238 775 L 228 775 L 226 777 L 226 778 L 228 780 L 231 780 L 232 781 L 237 781 L 238 782 L 244 782 L 245 783 L 252 783 L 253 784 L 260 784 L 261 785 L 268 785 L 269 786 L 276 786 L 277 787 L 277 795 L 276 796 L 276 807 L 275 808 L 275 820 L 273 822 L 222 822 L 221 823 L 221 825 L 222 826 L 224 826 L 225 827 L 234 827 L 235 828 L 247 828 L 248 829 L 262 829 L 263 830 L 273 830 L 274 831 L 274 834 L 273 835 L 273 866 L 272 867 L 271 866 L 269 866 L 268 867 L 250 867 L 249 868 L 234 868 L 233 869 L 224 869 L 223 870 L 221 870 L 220 871 L 220 873 L 221 874 L 224 874 L 225 875 L 226 875 L 227 874 L 228 875 L 268 875 L 269 874 L 270 874 L 271 875 L 272 874 L 273 875 L 273 882 L 274 883 L 274 901 L 275 902 L 275 909 L 274 910 L 272 910 L 271 911 L 265 911 L 264 912 L 258 912 L 257 913 L 251 913 L 250 914 L 244 914 L 243 915 L 237 915 L 236 916 L 231 916 L 230 917 L 226 917 L 225 918 L 224 918 L 223 919 L 223 921 L 224 922 L 236 922 L 237 921 L 250 921 L 251 920 L 261 920 L 262 919 L 270 919 L 271 918 L 276 918 L 277 919 L 277 927 L 278 928 L 278 936 L 279 937 L 279 943 L 280 944 L 280 949 L 281 950 L 281 952 L 279 954 L 276 954 L 275 955 L 271 955 L 270 956 L 267 956 L 266 957 L 263 957 L 262 958 L 259 958 L 258 959 L 255 959 L 254 960 L 250 960 L 249 961 L 246 961 L 245 962 L 242 962 L 241 963 L 238 963 L 237 964 L 235 964 L 234 965 L 233 965 L 232 966 L 231 966 L 231 968 L 233 970 L 235 970 L 236 969 L 242 969 L 243 968 L 248 968 L 249 967 L 254 967 L 255 966 L 259 966 L 260 965 L 264 965 L 265 964 L 270 964 L 271 963 L 275 963 L 276 962 L 280 962 L 281 961 L 282 961 L 283 962 L 283 965 L 284 966 L 284 970 L 285 971 L 285 975 L 286 976 L 286 979 L 287 980 L 287 983 L 288 984 L 288 987 L 289 988 L 289 991 L 290 992 L 290 994 L 291 995 L 290 996 L 289 996 L 288 997 L 286 997 L 285 998 L 283 998 L 282 999 L 280 999 L 279 1000 L 277 1000 L 276 1001 L 274 1001 L 273 1002 L 271 1002 L 270 1003 L 269 1003 L 268 1004 L 266 1004 L 265 1005 L 263 1005 L 262 1006 L 260 1006 L 259 1007 L 257 1007 L 256 1008 L 255 1008 L 254 1009 L 252 1009 L 251 1010 L 249 1010 L 248 1011 L 247 1011 L 246 1012 L 245 1012 L 244 1013 L 243 1013 L 242 1014 L 242 1015 L 244 1017 L 247 1017 L 248 1016 L 251 1016 L 252 1015 L 255 1015 L 256 1014 L 259 1014 L 260 1013 L 263 1013 L 264 1012 L 266 1012 L 267 1011 L 270 1011 L 271 1010 L 273 1010 L 274 1009 L 276 1009 L 277 1008 L 279 1008 L 280 1007 L 283 1007 L 284 1006 L 286 1006 L 287 1005 L 289 1005 L 290 1004 L 293 1004 L 294 1005 L 294 1007 L 295 1008 L 295 1010 L 296 1011 L 296 1013 L 297 1014 L 297 1016 L 298 1017 L 298 1019 L 299 1020 L 299 1022 L 300 1023 L 300 1025 L 301 1026 L 301 1028 L 302 1029 L 302 1030 L 303 1031 L 303 1033 L 304 1034 L 304 1036 L 303 1037 L 302 1037 L 301 1038 L 300 1038 L 299 1039 L 298 1039 L 297 1040 L 296 1040 L 295 1041 L 293 1041 L 292 1042 L 291 1042 L 290 1043 L 289 1043 L 288 1044 L 287 1044 L 286 1045 L 285 1045 L 284 1046 L 283 1046 L 282 1047 L 281 1047 L 280 1048 L 279 1048 L 278 1049 L 277 1049 L 276 1050 L 275 1050 L 274 1051 L 273 1051 L 272 1052 L 271 1052 L 270 1053 L 269 1053 L 268 1054 L 267 1054 L 266 1055 L 265 1055 L 264 1056 L 263 1056 L 262 1057 L 261 1057 L 259 1059 L 259 1062 L 260 1063 L 261 1063 L 262 1062 L 264 1062 L 265 1061 L 267 1061 L 268 1060 L 270 1060 L 271 1059 L 272 1059 L 273 1058 L 275 1058 L 276 1057 L 277 1057 L 278 1056 L 280 1056 L 281 1055 L 282 1055 L 283 1054 L 285 1054 L 286 1053 L 287 1053 L 288 1052 L 289 1052 L 290 1051 L 292 1051 L 293 1050 L 294 1050 L 295 1049 L 296 1049 L 297 1048 L 299 1048 L 300 1047 L 301 1047 L 302 1046 L 303 1046 L 304 1045 L 305 1045 L 306 1044 L 307 1044 L 308 1045 L 308 1046 L 309 1047 L 309 1048 L 310 1049 L 310 1050 L 311 1051 L 311 1052 L 312 1053 L 312 1054 L 313 1055 L 313 1057 L 314 1058 L 314 1059 L 315 1060 L 315 1061 L 316 1062 L 316 1063 L 317 1064 L 317 1065 L 318 1066 L 318 1067 L 319 1068 L 319 1069 L 320 1070 L 320 1071 L 321 1072 L 321 1073 L 322 1074 L 322 1075 L 320 1077 L 319 1077 L 317 1079 L 316 1079 L 315 1080 L 314 1080 L 312 1082 L 311 1082 L 310 1083 L 309 1083 L 307 1085 L 306 1085 L 304 1087 L 303 1087 L 301 1089 L 300 1089 L 299 1090 L 298 1090 L 296 1092 L 295 1092 L 293 1094 L 292 1094 L 290 1096 L 289 1096 L 288 1097 L 287 1097 L 284 1100 L 283 1100 L 279 1104 L 280 1105 L 280 1106 L 284 1106 L 285 1105 L 286 1105 L 287 1104 L 288 1104 L 289 1103 L 290 1103 L 291 1102 L 292 1102 L 293 1101 L 294 1101 L 295 1100 L 296 1100 L 297 1099 L 298 1099 L 300 1097 L 301 1097 L 302 1096 L 303 1096 L 304 1095 L 305 1095 L 306 1094 L 307 1094 L 308 1093 L 309 1093 L 311 1091 L 312 1091 L 313 1090 L 314 1090 L 315 1089 L 316 1089 L 318 1087 L 319 1087 L 320 1086 L 321 1086 L 322 1085 L 323 1085 L 324 1084 L 325 1084 L 326 1083 L 328 1085 L 328 1086 L 329 1087 L 329 1088 L 330 1089 L 330 1090 L 332 1092 L 332 1093 L 333 1094 L 333 1095 L 334 1096 L 334 1097 L 336 1099 L 336 1100 L 338 1102 L 338 1103 L 339 1104 L 339 1105 L 341 1107 L 341 1108 L 342 1109 L 342 1110 L 343 1111 L 343 1112 L 338 1117 L 337 1117 L 334 1120 L 333 1120 L 328 1125 L 327 1125 L 323 1129 L 322 1129 L 317 1134 L 316 1134 L 309 1141 L 308 1141 L 306 1143 L 306 1144 L 305 1145 L 305 1148 L 308 1148 L 309 1147 L 310 1147 L 312 1145 L 313 1145 L 315 1143 L 316 1143 L 319 1140 L 320 1140 L 323 1137 L 324 1137 L 327 1134 L 328 1134 L 330 1132 L 331 1132 L 334 1129 L 335 1129 L 337 1127 L 338 1127 L 341 1124 L 342 1124 L 344 1122 L 345 1122 L 348 1119 L 350 1121 L 350 1122 L 353 1125 L 353 1126 L 356 1129 L 356 1130 L 359 1133 L 359 1134 L 362 1137 L 362 1138 L 367 1143 L 367 1144 L 369 1146 L 369 1147 L 340 1176 L 340 1177 L 335 1182 L 335 1185 L 336 1186 L 338 1186 L 340 1184 L 341 1184 L 346 1179 L 347 1179 L 355 1171 L 356 1171 L 366 1161 L 367 1161 L 375 1153 L 376 1153 L 397 1174 L 398 1174 L 399 1175 L 399 1176 L 398 1177 L 398 1178 L 395 1181 L 395 1182 L 393 1184 L 393 1185 L 391 1187 L 391 1188 L 388 1191 L 388 1192 L 386 1194 L 386 1195 L 384 1197 L 384 1198 L 381 1201 L 381 1202 L 380 1203 L 380 1204 L 377 1207 L 377 1208 L 375 1210 L 375 1211 L 374 1212 L 374 1213 L 372 1215 L 372 1219 L 373 1220 L 374 1220 L 375 1219 L 376 1219 L 378 1217 L 378 1216 L 383 1211 L 383 1210 L 387 1206 L 387 1205 L 390 1202 L 390 1201 L 394 1197 L 394 1196 L 397 1193 L 397 1192 L 401 1188 L 401 1187 L 404 1184 L 404 1183 L 406 1181 L 409 1184 L 410 1184 L 413 1187 L 414 1187 L 416 1189 L 417 1189 L 420 1192 L 421 1192 L 422 1193 L 423 1193 L 425 1195 L 426 1195 L 428 1197 L 429 1197 L 430 1198 L 431 1198 L 433 1200 L 432 1201 L 432 1202 L 431 1203 L 431 1205 L 430 1206 L 430 1207 L 429 1208 L 429 1209 L 428 1210 L 428 1211 L 427 1212 L 427 1214 L 426 1215 L 426 1216 L 425 1217 L 425 1218 L 424 1219 L 424 1220 L 423 1221 L 423 1223 L 422 1224 L 422 1225 L 421 1226 L 421 1227 L 420 1228 L 420 1229 L 419 1230 L 419 1232 L 418 1233 L 418 1234 L 417 1235 L 417 1236 L 416 1237 L 416 1239 L 415 1240 L 415 1242 L 414 1243 L 414 1248 L 417 1248 L 418 1247 L 418 1246 L 420 1244 L 420 1243 L 421 1242 L 421 1241 L 422 1240 L 422 1239 L 423 1238 L 423 1237 L 424 1236 L 424 1235 L 425 1234 L 425 1233 L 426 1232 L 426 1231 L 427 1230 L 427 1229 L 429 1227 L 429 1226 L 430 1225 L 430 1224 L 431 1223 L 431 1222 L 432 1221 L 432 1220 L 433 1219 L 433 1218 L 434 1217 L 434 1216 L 435 1215 L 435 1214 L 436 1213 L 436 1212 L 437 1211 L 437 1210 L 438 1209 L 438 1208 L 439 1207 L 439 1206 L 441 1204 L 442 1204 L 443 1205 L 444 1205 L 445 1206 L 446 1206 L 447 1207 L 448 1207 L 449 1208 L 450 1208 L 451 1209 L 452 1209 L 453 1210 L 455 1210 L 456 1211 L 457 1211 L 458 1212 L 460 1212 L 461 1213 L 462 1213 L 463 1214 L 465 1214 L 466 1215 L 468 1215 L 469 1216 L 470 1216 L 471 1217 L 471 1218 L 470 1219 L 470 1222 L 469 1223 L 469 1226 L 468 1227 L 468 1231 L 467 1232 L 467 1235 L 466 1236 L 466 1240 L 465 1241 L 465 1244 L 464 1245 L 464 1249 L 463 1250 L 463 1254 L 462 1255 L 462 1258 L 461 1259 L 461 1266 L 462 1267 L 464 1267 L 465 1266 L 465 1265 L 466 1264 L 466 1262 L 467 1261 L 467 1259 L 468 1258 L 468 1255 L 469 1254 L 469 1252 L 470 1251 L 470 1248 L 471 1247 L 471 1245 L 472 1244 L 472 1242 L 473 1241 L 473 1238 L 474 1237 L 474 1234 L 475 1233 L 475 1231 L 476 1230 L 476 1227 L 477 1226 L 477 1224 L 478 1223 L 478 1219 L 479 1218 L 480 1218 L 481 1219 L 484 1219 L 485 1220 L 488 1220 L 489 1221 L 493 1221 L 494 1222 L 499 1222 L 500 1223 L 506 1223 L 507 1224 L 509 1224 L 510 1225 L 510 1271 L 511 1272 L 511 1274 L 512 1275 L 514 1275 L 516 1273 L 516 1262 L 517 1261 L 517 1246 L 518 1245 L 518 1226 L 520 1224 L 534 1224 L 535 1223 L 547 1223 L 548 1222 L 550 1222 L 551 1223 L 551 1225 L 552 1226 L 552 1229 L 553 1230 L 553 1233 L 554 1234 L 554 1237 L 555 1238 L 555 1241 L 556 1242 L 556 1245 L 557 1246 L 557 1249 L 558 1250 L 558 1253 L 559 1254 L 559 1257 L 560 1258 L 560 1261 L 561 1262 L 561 1265 L 562 1266 L 562 1268 L 563 1269 L 563 1270 L 564 1271 L 567 1271 L 567 1263 L 566 1262 L 566 1257 L 565 1256 L 565 1251 L 564 1250 L 564 1246 L 563 1245 L 563 1240 L 562 1239 L 562 1235 L 561 1234 L 561 1230 L 560 1229 L 560 1225 L 559 1224 L 559 1221 L 560 1220 L 562 1220 L 563 1219 L 566 1219 L 567 1218 L 569 1218 L 570 1217 L 572 1217 L 573 1216 L 575 1216 L 576 1215 L 578 1215 L 579 1214 L 581 1214 L 582 1213 L 583 1213 L 584 1212 L 586 1212 L 587 1211 L 589 1211 L 590 1212 L 590 1213 L 591 1214 L 591 1215 L 592 1216 L 592 1217 L 593 1218 L 593 1219 L 594 1220 L 594 1221 L 595 1222 L 595 1223 L 596 1224 L 596 1225 L 597 1226 L 597 1227 L 599 1229 L 599 1230 L 600 1231 L 600 1232 L 601 1233 L 601 1234 L 602 1235 L 602 1236 L 603 1237 L 603 1238 L 604 1239 L 604 1240 L 605 1241 L 605 1242 L 606 1243 L 606 1244 L 607 1245 L 607 1246 L 608 1247 L 608 1248 L 610 1250 L 610 1251 L 611 1252 L 611 1253 L 613 1255 L 615 1255 L 616 1254 L 616 1250 L 615 1249 L 615 1248 L 614 1247 L 614 1245 L 613 1244 L 613 1243 L 612 1242 L 612 1241 L 611 1240 L 611 1239 L 610 1238 L 610 1236 L 609 1235 L 609 1234 L 608 1233 L 608 1232 L 607 1231 L 607 1230 L 606 1229 L 606 1227 L 605 1226 L 605 1225 L 604 1224 L 604 1223 L 603 1222 L 603 1221 L 602 1220 L 602 1219 L 601 1218 L 601 1216 L 600 1215 L 600 1214 L 599 1213 L 599 1212 L 598 1211 L 598 1210 L 597 1209 L 597 1207 L 598 1206 L 599 1206 L 600 1205 L 601 1205 L 603 1203 L 604 1203 L 605 1202 L 606 1202 L 608 1200 L 609 1200 L 611 1198 L 612 1198 L 613 1197 L 614 1197 L 617 1194 L 618 1194 L 620 1192 L 621 1192 L 623 1190 L 624 1190 L 627 1193 L 627 1194 L 631 1198 L 631 1199 L 636 1204 L 636 1205 L 640 1209 L 640 1210 L 645 1215 L 645 1216 L 651 1222 L 651 1223 L 656 1228 L 658 1228 L 659 1227 L 659 1224 L 658 1223 L 658 1222 L 656 1220 L 656 1219 L 654 1217 L 654 1216 L 651 1213 L 651 1212 L 649 1210 L 649 1209 L 646 1206 L 646 1205 L 643 1202 L 643 1201 L 640 1198 L 640 1197 L 638 1195 L 638 1194 L 635 1191 L 635 1190 L 632 1187 L 632 1186 L 631 1185 L 642 1174 L 643 1174 L 647 1170 L 647 1169 L 654 1162 L 656 1164 L 657 1164 L 661 1168 L 662 1168 L 666 1172 L 667 1172 L 671 1176 L 672 1176 L 677 1181 L 678 1181 L 681 1184 L 682 1184 L 686 1188 L 687 1188 L 690 1191 L 692 1191 L 693 1192 L 694 1192 L 695 1191 L 695 1188 L 684 1177 L 683 1177 L 674 1168 L 673 1168 L 664 1159 L 663 1159 L 660 1156 L 660 1155 L 663 1152 L 663 1151 L 666 1148 L 666 1147 L 668 1145 L 668 1144 L 670 1142 L 670 1141 L 673 1138 L 673 1137 L 674 1136 L 674 1135 L 676 1133 L 676 1132 L 678 1130 L 678 1129 L 679 1128 L 680 1128 L 682 1130 L 683 1130 L 684 1131 L 685 1131 L 686 1132 L 687 1132 L 689 1134 L 690 1134 L 691 1135 L 692 1135 L 693 1136 L 694 1136 L 695 1137 L 696 1137 L 698 1139 L 699 1139 L 700 1140 L 701 1140 L 702 1141 L 703 1141 L 705 1143 L 706 1143 L 707 1144 L 708 1144 L 709 1145 L 710 1145 L 711 1146 L 712 1146 L 713 1147 L 714 1147 L 715 1148 L 716 1148 L 718 1150 L 719 1150 L 720 1151 L 723 1151 L 724 1150 L 724 1148 L 720 1144 L 719 1144 L 717 1142 L 716 1142 L 714 1140 L 713 1140 L 711 1138 L 710 1138 L 708 1136 L 707 1136 L 705 1134 L 704 1134 L 702 1132 L 701 1132 L 700 1131 L 699 1131 L 697 1129 L 696 1129 L 694 1127 L 693 1127 L 691 1125 L 690 1125 L 689 1124 L 688 1124 L 686 1122 L 685 1122 L 683 1120 L 684 1119 L 684 1118 L 685 1117 L 685 1116 L 686 1115 L 686 1114 L 687 1113 L 687 1112 L 688 1111 L 688 1110 L 689 1109 L 689 1108 L 690 1107 L 690 1106 L 691 1105 L 691 1104 L 692 1103 L 692 1102 L 693 1101 L 693 1099 L 694 1098 L 694 1097 L 695 1096 L 695 1095 L 696 1094 L 696 1092 L 697 1091 L 698 1091 L 699 1092 L 700 1092 L 701 1093 L 703 1093 L 704 1094 L 706 1094 L 707 1095 L 708 1095 L 709 1096 L 711 1096 L 712 1097 L 714 1097 L 715 1098 L 717 1098 L 718 1099 L 720 1099 L 721 1100 L 723 1100 L 724 1101 L 726 1101 L 727 1102 L 729 1102 L 730 1103 L 731 1103 L 732 1104 L 734 1104 L 735 1105 L 738 1105 L 739 1106 L 741 1106 L 742 1107 L 744 1107 L 746 1105 L 746 1104 L 744 1102 L 743 1102 L 742 1101 L 741 1101 L 740 1100 L 739 1100 L 738 1099 L 737 1099 L 736 1098 L 735 1098 L 734 1097 L 732 1097 L 731 1096 L 730 1096 L 729 1095 L 728 1095 L 727 1094 L 725 1094 L 724 1093 L 723 1093 L 722 1092 L 720 1092 L 719 1091 L 718 1091 L 717 1090 L 716 1090 L 715 1089 L 713 1089 L 712 1088 L 711 1088 L 710 1087 L 708 1087 L 707 1086 L 706 1086 L 705 1085 L 704 1085 L 703 1084 L 701 1084 L 700 1083 L 700 1082 L 701 1081 L 701 1079 L 702 1078 L 702 1076 L 703 1075 L 703 1073 L 704 1072 L 704 1070 L 705 1069 L 705 1066 L 706 1065 L 706 1063 L 707 1062 L 707 1059 L 708 1058 L 708 1055 L 709 1054 L 709 1052 L 710 1051 L 712 1051 L 713 1052 L 717 1052 L 718 1053 L 721 1053 L 722 1054 L 726 1054 L 727 1055 L 731 1055 L 732 1056 L 735 1056 L 736 1057 L 741 1057 L 742 1058 L 745 1058 L 746 1059 L 751 1059 L 752 1060 L 760 1060 L 761 1059 L 761 1057 L 760 1056 L 759 1056 L 758 1055 L 756 1055 L 755 1054 L 752 1054 L 751 1053 L 748 1053 L 747 1052 L 745 1052 L 744 1051 L 741 1051 L 740 1050 L 737 1050 L 736 1049 L 733 1049 L 732 1048 L 730 1048 L 729 1047 L 726 1047 L 725 1046 L 722 1046 L 721 1045 L 718 1045 L 717 1044 L 714 1044 L 713 1043 L 712 1043 L 711 1042 L 711 1041 L 712 1040 L 712 1035 L 713 1034 L 713 1030 L 714 1029 L 714 1024 L 715 1023 L 715 1017 L 716 1016 L 716 1011 L 717 1010 L 727 1010 L 728 1011 L 745 1011 L 746 1012 L 768 1012 L 770 1010 L 770 1009 L 769 1008 L 768 1008 L 767 1007 L 762 1007 L 761 1006 L 754 1006 L 753 1005 L 745 1005 L 744 1004 L 736 1004 L 735 1003 L 728 1003 L 727 1002 L 718 1002 L 717 1001 L 717 980 L 718 979 L 718 970 L 717 969 L 719 967 L 731 967 L 732 966 L 746 966 L 747 965 L 758 965 L 759 964 L 768 964 L 769 963 L 770 963 L 771 962 L 771 960 L 770 959 L 765 959 L 764 958 L 762 958 L 761 959 L 718 959 L 717 958 L 717 951 L 716 950 L 716 942 L 715 941 L 715 934 L 714 933 L 714 927 L 713 926 L 714 925 L 716 925 L 717 924 L 722 924 L 723 923 L 727 923 L 728 922 L 733 922 L 734 921 L 738 921 L 739 920 L 743 920 L 744 919 L 748 919 L 749 918 L 752 918 L 753 917 L 757 917 L 758 916 L 761 916 L 762 915 L 763 915 L 765 913 L 765 912 L 764 911 L 754 911 L 753 912 L 746 912 L 745 913 L 738 913 L 737 914 L 731 914 L 730 915 L 724 915 L 723 916 L 717 916 L 716 917 L 712 917 L 711 916 L 711 911 L 710 910 L 710 906 L 709 905 L 709 901 L 708 900 L 708 896 L 707 895 L 707 892 L 706 891 L 706 887 L 705 886 L 705 884 L 706 883 L 708 883 L 709 882 L 711 882 L 712 881 L 714 881 L 715 880 L 717 880 L 718 879 L 720 879 L 721 878 L 723 878 L 724 877 L 727 877 L 728 876 L 730 876 L 731 875 L 733 875 L 734 874 L 736 874 L 737 873 L 738 873 L 739 872 L 741 872 L 742 871 L 744 871 L 745 870 L 747 870 L 748 869 L 749 869 L 750 868 L 751 868 L 753 866 L 753 865 L 752 864 L 746 864 L 745 865 L 742 865 L 741 866 L 738 866 L 737 867 L 734 867 L 733 868 L 730 868 L 729 869 L 726 869 L 725 870 L 722 870 L 721 871 L 718 871 L 717 872 L 715 872 L 714 873 L 711 873 L 710 874 L 707 874 L 706 875 L 702 875 L 701 874 L 701 871 L 700 870 L 700 868 L 699 867 L 699 865 L 698 864 L 698 862 L 697 861 L 697 859 L 696 858 L 696 856 L 695 855 L 695 853 L 694 852 L 694 851 L 693 850 L 693 848 L 692 847 L 692 845 L 691 844 L 691 843 L 692 842 L 694 842 L 695 841 L 696 841 L 697 840 L 698 840 L 699 839 L 701 839 L 702 838 L 703 838 L 704 837 L 705 837 L 706 836 L 708 836 L 709 835 L 710 835 L 711 834 L 712 834 L 713 833 L 715 833 L 716 832 L 717 832 L 718 831 L 719 831 L 720 830 L 722 830 L 723 829 L 724 829 L 725 828 L 726 828 L 727 827 L 728 827 L 729 826 L 731 826 L 732 825 L 733 825 L 734 824 L 735 824 L 737 822 L 737 820 L 736 819 L 732 819 L 731 820 L 729 820 L 728 821 L 726 821 L 725 822 L 723 822 L 722 823 L 720 823 L 719 824 L 718 824 L 717 825 L 715 825 L 714 826 L 712 826 L 711 827 L 709 827 L 708 828 L 706 828 L 705 829 L 703 829 L 702 830 L 701 830 L 700 831 L 698 831 L 697 832 L 695 832 L 694 833 L 692 833 L 691 834 L 690 834 L 689 835 L 688 835 L 687 834 L 687 833 L 686 832 L 686 831 L 685 830 L 685 828 L 684 827 L 684 826 L 683 825 L 683 823 L 682 822 L 682 821 L 681 820 L 681 819 L 680 818 L 680 817 L 679 816 L 679 815 L 678 814 L 678 812 L 676 810 L 676 809 L 675 808 L 675 807 L 674 806 L 674 805 L 673 804 L 674 803 L 675 803 L 676 802 L 677 802 L 679 800 L 680 800 L 681 799 L 682 799 L 683 798 L 684 798 L 686 796 L 687 796 L 688 795 L 689 795 L 691 793 L 692 793 L 693 792 L 694 792 L 695 791 L 696 791 L 698 789 L 699 789 L 700 788 L 701 788 L 703 786 L 704 786 L 705 785 L 706 785 L 708 783 L 709 783 L 711 781 L 712 781 L 714 779 L 715 779 L 716 778 L 716 776 L 715 775 L 711 775 L 710 776 L 709 776 L 708 777 L 707 777 L 706 778 L 705 778 L 704 779 L 703 779 L 702 780 L 701 780 L 700 781 L 699 781 L 698 782 L 697 782 L 696 783 L 695 783 L 694 784 L 693 784 L 692 785 L 691 785 L 690 786 L 689 786 L 688 787 L 687 787 L 686 788 L 685 788 L 684 789 L 683 789 L 682 790 L 681 790 L 680 791 L 679 791 L 678 792 L 677 792 L 676 793 L 675 793 L 674 794 L 673 794 L 672 795 L 671 795 L 670 796 L 669 796 L 668 795 L 668 794 L 667 793 L 667 792 L 666 791 L 666 790 L 665 789 L 665 788 L 664 787 L 664 786 L 662 784 L 662 783 L 661 782 L 661 781 L 660 780 L 660 779 L 659 778 L 659 777 L 657 775 L 657 774 L 656 773 L 656 772 L 654 770 L 654 769 L 653 768 L 653 767 L 652 766 L 653 765 L 654 765 L 656 763 L 657 763 L 659 761 L 660 761 L 662 759 L 663 759 L 665 757 L 666 757 L 667 756 L 668 756 L 670 754 L 671 754 L 673 752 L 674 752 L 676 750 L 677 750 L 679 748 L 680 748 L 682 746 L 683 746 L 686 743 L 687 743 L 689 741 L 690 741 L 692 739 L 692 736 L 691 735 L 689 735 L 688 736 L 687 736 L 686 737 L 685 737 L 684 738 L 683 738 L 681 740 L 680 740 L 679 741 L 678 741 L 677 742 L 676 742 L 674 744 L 673 744 L 672 745 L 671 745 L 670 746 L 669 746 L 667 748 L 666 748 L 665 749 L 664 749 L 663 750 L 662 750 L 660 752 L 659 752 L 658 753 L 657 753 L 656 754 L 655 754 L 653 756 L 652 756 L 651 757 L 650 757 L 648 759 L 645 756 L 645 755 L 642 752 L 642 751 L 640 749 L 640 748 L 638 746 L 638 745 L 636 743 L 636 742 L 634 740 L 634 739 L 633 738 L 633 737 L 631 735 L 631 734 L 629 732 L 629 731 L 628 730 L 630 728 L 631 728 L 632 727 L 633 727 L 635 725 L 636 725 L 637 724 L 638 724 L 640 722 L 641 722 L 642 721 L 643 721 L 645 719 L 646 719 L 648 717 L 649 717 L 650 716 L 651 716 L 653 714 L 654 714 L 656 712 L 657 712 L 659 710 L 660 710 L 661 709 L 662 709 L 664 707 L 665 707 L 669 703 L 669 702 L 667 700 L 666 700 L 665 701 L 664 701 L 663 702 L 662 702 L 661 703 L 660 703 L 659 704 L 658 704 L 657 705 L 656 705 L 655 706 L 654 706 L 653 707 L 652 707 L 651 708 L 650 708 L 649 709 L 648 709 L 647 710 L 646 710 L 644 712 L 642 712 L 640 714 L 639 714 L 638 715 L 637 715 L 636 716 L 635 716 L 634 717 L 633 717 L 632 718 L 631 718 L 630 719 L 629 719 L 628 720 L 627 720 L 625 722 L 624 722 L 623 721 L 623 720 L 622 719 L 622 717 L 621 716 L 621 715 L 620 714 L 620 712 L 619 711 L 619 710 L 618 709 L 618 707 L 617 706 L 617 705 L 616 704 L 616 702 L 615 701 L 615 699 L 614 698 L 614 695 L 613 694 L 613 691 L 612 690 L 612 685 L 611 684 L 611 680 L 612 679 L 623 679 L 624 680 L 628 680 L 629 679 L 651 679 L 652 678 L 652 675 L 651 675 L 650 674 L 646 674 L 645 673 L 632 673 L 631 672 L 615 672 L 614 671 L 611 671 L 610 670 L 610 669 L 611 668 L 611 654 L 612 653 L 612 646 L 613 645 L 613 640 L 614 639 L 614 634 L 615 633 L 615 629 L 616 628 L 617 628 L 618 629 L 620 629 L 621 630 L 622 630 L 623 631 L 624 631 L 625 632 L 627 632 L 628 633 L 629 633 L 630 634 L 632 634 L 633 635 L 634 635 L 635 636 L 636 636 L 637 637 L 639 637 L 640 638 L 641 638 L 642 639 L 644 639 L 645 640 L 646 640 L 647 641 L 649 641 L 650 642 L 652 642 L 653 643 L 655 643 L 656 644 L 657 644 L 658 643 L 659 643 L 659 641 L 657 639 L 656 639 L 654 637 L 653 637 L 652 636 L 651 636 L 650 635 L 649 635 L 648 634 L 647 634 L 646 633 L 645 633 L 644 632 L 643 632 L 642 631 L 641 631 L 640 630 L 639 630 L 638 629 L 637 629 L 636 628 L 635 628 L 634 627 L 633 627 L 632 626 L 631 626 L 630 625 L 629 625 L 628 624 L 627 624 L 626 623 L 625 623 L 624 622 L 623 622 L 622 621 L 620 621 L 618 619 L 619 618 L 619 616 L 620 615 L 620 614 L 621 613 L 621 611 L 622 610 L 622 608 L 623 607 L 623 606 L 624 605 L 624 604 L 625 603 L 625 601 L 626 600 L 626 599 L 627 598 L 627 596 L 628 595 L 628 594 L 629 593 L 629 591 L 630 590 L 630 589 L 631 588 L 631 587 L 633 585 L 634 586 L 635 586 L 636 587 L 637 587 L 638 588 L 639 588 L 640 589 L 641 589 L 643 591 L 644 591 L 645 592 L 646 592 L 647 593 L 648 593 L 649 594 L 650 594 L 651 595 L 652 595 L 653 596 L 654 596 L 655 597 L 656 597 L 657 598 L 658 598 L 659 599 L 660 599 L 661 600 L 662 600 L 663 601 L 665 601 L 666 602 L 667 602 L 668 603 L 669 603 L 670 604 L 671 604 L 672 605 L 673 605 L 674 606 L 677 606 L 678 605 L 678 603 L 675 600 L 674 600 L 672 598 L 671 598 L 670 597 L 669 597 L 667 595 L 666 595 L 665 594 L 664 594 L 663 593 L 662 593 L 660 591 L 659 591 L 658 590 L 657 590 L 655 588 L 654 588 L 653 587 L 652 587 L 651 586 L 650 586 L 648 584 L 647 584 L 646 583 L 645 583 L 644 582 L 643 582 L 642 581 L 641 581 L 639 579 L 638 579 L 636 577 L 636 576 L 637 575 L 637 574 L 638 573 L 638 571 L 639 570 L 639 569 L 640 568 L 640 567 L 641 566 L 641 565 L 642 564 L 642 563 L 643 562 L 643 560 L 644 559 L 644 558 L 645 557 L 645 556 L 646 555 L 646 554 L 647 553 L 647 552 L 648 551 L 648 550 L 649 549 L 649 548 L 651 546 L 652 546 L 653 547 L 654 547 L 655 548 L 656 548 L 657 549 L 658 549 L 659 550 L 661 550 L 662 551 L 663 551 L 664 552 L 665 552 L 666 553 L 667 553 L 668 554 L 669 554 L 670 555 L 671 555 L 672 556 L 673 556 L 674 557 L 676 557 L 677 558 L 678 558 L 679 559 L 680 559 L 681 560 L 683 560 L 684 561 L 685 561 L 686 562 L 687 562 L 688 563 L 689 563 L 690 564 L 692 564 L 693 565 L 694 565 L 695 566 L 698 566 L 699 565 L 699 563 L 697 561 L 696 561 L 694 559 L 693 559 L 692 558 L 691 558 L 690 557 L 689 557 L 688 556 L 687 556 L 685 554 L 684 554 L 683 553 L 682 553 L 681 552 L 680 552 L 679 551 L 678 551 L 677 550 L 676 550 L 675 549 L 674 549 L 672 547 L 671 547 L 670 546 L 669 546 L 668 545 L 667 545 L 666 544 L 665 544 L 664 543 L 663 543 L 662 542 L 661 542 L 659 540 L 658 540 L 657 539 L 656 539 L 654 537 L 655 536 L 655 535 L 656 534 L 656 533 L 657 532 L 657 531 L 658 530 L 658 528 L 659 527 L 659 526 L 660 525 L 660 524 L 661 523 L 661 521 L 662 520 L 662 519 L 663 518 L 663 516 L 664 515 L 664 514 L 665 513 L 665 511 L 666 510 L 666 508 L 667 507 L 668 507 L 669 508 L 671 508 L 672 509 L 674 509 L 675 510 L 677 510 L 678 511 L 679 511 L 680 512 L 682 512 L 683 513 L 685 513 L 686 514 L 688 514 L 689 515 L 691 515 L 692 516 L 694 516 L 695 517 L 697 517 L 698 518 L 700 518 L 701 519 L 703 519 L 704 520 L 707 520 L 708 521 L 710 521 L 711 522 L 714 522 L 715 523 L 716 522 L 717 522 L 717 519 L 716 519 L 714 517 L 713 517 L 712 516 L 710 516 L 709 515 L 708 515 L 707 514 L 705 514 L 704 513 L 703 513 L 702 512 L 700 512 L 699 511 L 698 511 L 697 510 L 695 510 L 694 509 L 693 509 L 692 508 L 691 508 L 690 507 L 688 507 L 687 506 L 686 506 L 685 505 L 683 505 L 682 504 L 681 504 L 680 503 L 679 503 L 678 502 L 676 502 L 675 501 L 674 501 L 673 500 L 671 500 L 670 499 L 670 498 L 671 497 L 671 495 L 672 494 L 672 492 L 673 491 L 673 489 L 674 488 L 674 486 L 675 485 L 675 483 L 676 482 L 676 480 L 677 479 L 677 476 L 678 475 L 678 473 L 679 472 L 679 470 L 680 469 L 681 470 L 686 470 L 687 471 L 692 471 L 693 472 L 700 472 L 701 473 L 708 473 L 709 474 L 716 474 L 717 475 L 726 475 L 727 476 L 730 476 L 731 475 L 732 475 L 733 474 L 733 473 L 731 471 L 729 471 L 728 470 L 724 470 L 723 469 L 719 469 L 718 468 L 714 468 L 713 467 L 708 467 L 707 466 L 703 466 L 702 465 L 698 465 L 697 464 L 693 464 L 692 463 L 687 463 L 686 462 L 682 462 L 681 461 L 681 460 L 682 459 L 682 455 L 683 454 L 683 449 L 684 448 L 684 443 L 685 442 L 685 435 L 686 434 L 686 431 L 687 430 L 690 430 L 691 429 L 731 429 L 732 428 L 737 428 L 739 426 L 739 425 L 738 424 L 737 424 L 736 423 L 718 423 L 717 422 L 692 422 L 691 421 L 687 421 L 686 420 L 686 413 L 687 412 L 687 402 L 686 401 L 686 395 L 687 394 L 690 394 L 691 393 L 693 393 L 694 392 L 697 392 L 698 391 L 700 391 L 701 390 L 704 390 L 705 389 L 707 389 L 708 388 L 711 388 L 712 387 L 714 387 L 715 386 L 717 386 L 718 385 L 721 385 L 722 384 L 724 384 L 725 383 L 727 383 L 728 382 L 730 382 L 731 381 L 733 381 L 734 380 L 736 380 L 738 378 L 738 376 L 737 375 L 732 375 L 731 376 L 727 376 L 726 377 L 723 377 L 722 378 L 719 378 L 718 379 L 714 379 L 713 380 L 710 380 L 709 381 L 706 381 L 705 382 L 702 382 L 701 383 L 697 383 L 696 384 L 693 384 L 692 385 L 689 385 L 688 386 L 685 386 L 684 385 L 684 382 L 683 381 L 683 376 L 682 375 L 682 372 L 681 371 L 681 367 L 680 366 L 680 364 L 679 363 L 679 360 L 678 359 L 678 358 L 679 357 L 680 357 L 681 356 L 682 356 L 684 354 L 685 354 L 686 353 L 687 353 L 688 352 L 689 352 L 690 351 L 691 351 L 692 350 L 693 350 L 694 349 L 695 349 L 696 348 L 697 348 L 698 347 L 699 347 L 700 346 L 701 346 L 702 345 L 703 345 L 704 344 L 705 344 L 707 342 L 708 342 L 709 341 L 710 341 L 711 340 L 712 340 L 713 339 L 714 339 L 715 338 L 716 338 L 717 337 L 718 337 L 720 335 L 721 335 L 722 334 L 723 334 L 724 333 L 724 330 L 723 329 L 721 329 L 720 330 L 718 330 L 717 331 L 716 331 L 715 332 L 714 332 L 713 333 L 711 333 L 710 334 L 709 334 L 708 335 L 707 335 L 706 336 L 705 336 L 704 337 L 702 337 L 701 338 L 700 338 L 699 339 L 698 339 L 697 340 L 696 340 L 695 341 L 693 341 L 692 342 L 691 342 L 690 343 L 689 343 L 688 344 L 687 344 L 686 345 L 685 345 L 684 346 L 683 346 L 682 347 L 680 347 L 679 348 L 678 348 L 677 349 L 676 349 L 675 350 L 674 349 L 674 348 L 673 347 L 673 345 L 672 344 L 672 343 L 671 342 L 671 341 L 670 340 L 670 339 L 669 338 L 669 337 L 668 336 L 668 335 L 667 334 L 667 333 L 666 332 L 666 331 L 664 329 L 664 328 L 663 327 L 663 326 L 661 324 L 663 322 L 664 322 L 669 317 L 670 317 L 676 311 L 677 311 L 684 304 L 685 304 L 692 297 L 693 297 L 699 291 L 699 288 L 698 287 L 696 287 L 694 289 L 693 289 L 691 291 L 690 291 L 687 294 L 686 294 L 683 297 L 682 297 L 679 300 L 678 300 L 675 303 L 674 303 L 671 306 L 670 306 L 667 309 L 666 309 L 662 313 L 661 313 L 658 316 L 657 316 L 656 317 L 654 315 L 654 314 L 644 304 L 644 303 L 643 303 L 637 297 L 637 295 L 638 294 L 638 293 L 640 291 L 640 290 L 642 288 L 642 287 L 643 286 L 643 285 L 645 283 L 645 282 L 646 281 L 646 280 L 648 278 L 648 277 L 649 276 L 649 275 L 651 273 L 651 272 L 652 271 L 652 270 L 654 268 L 654 267 L 655 266 L 655 265 L 656 264 L 656 263 L 658 261 L 658 260 L 659 259 L 659 258 L 660 257 L 660 256 L 661 255 L 661 251 L 658 251 L 655 254 L 655 255 L 653 257 L 653 258 L 651 260 L 651 261 L 648 264 L 648 265 L 646 267 L 646 268 L 644 270 L 644 271 L 642 273 L 642 274 L 640 276 L 640 277 L 637 280 L 637 281 L 635 283 L 635 284 L 633 286 L 633 287 L 631 289 L 631 290 L 630 291 L 629 291 L 628 290 L 627 290 L 626 289 L 625 289 L 623 287 L 622 287 L 621 286 L 620 286 L 619 285 L 618 285 L 617 284 L 616 284 L 615 283 L 614 283 L 613 282 L 612 282 L 611 281 L 609 281 L 608 280 L 606 280 L 605 279 L 604 279 L 603 278 L 603 277 L 604 276 L 604 273 L 605 272 L 605 269 L 606 268 L 606 265 L 607 264 L 607 261 L 608 260 L 608 257 L 609 256 L 609 253 L 610 252 L 610 249 L 611 248 L 611 244 L 612 243 L 612 240 L 613 239 L 613 235 L 614 234 L 614 227 L 611 227 L 610 228 L 610 229 L 609 230 L 609 232 L 608 233 L 608 235 L 607 236 L 607 238 L 606 239 L 606 241 L 605 242 L 605 245 L 604 246 L 604 248 L 603 249 L 603 251 L 602 252 L 602 255 L 601 256 L 601 258 L 600 259 L 600 262 L 599 263 L 599 265 L 598 266 L 598 268 L 597 269 L 597 272 L 596 273 L 596 275 L 595 276 L 589 276 L 588 275 L 581 275 L 580 274 L 563 274 L 562 273 L 562 268 L 561 267 L 561 260 L 560 259 L 560 253 L 559 252 L 559 246 L 558 245 L 558 238 L 557 237 L 557 231 L 556 230 L 556 226 L 555 225 Z " fill="black"/>
</svg>