<svg xmlns="http://www.w3.org/2000/svg" viewBox="0 0 1024 1536" width="100" height="100">
  <path d="M 797 1430 L 798 1430 Z M 856 1424 L 856 1431 L 887 1431 L 888 1432 L 888 1439 L 887 1440 L 856 1440 L 856 1455 L 1023 1455 L 1023 1424 Z M 848 1400 L 848 1407 L 1023 1407 L 1023 1400 Z M 283 108 L 283 109 Z M 312 104 L 312 113 L 317 113 L 317 112 L 318 111 L 319 111 L 320 112 L 320 113 L 321 113 L 321 112 L 322 111 L 1023 111 L 1023 104 Z M 0 0 L 0 1535 L 1023 1535 L 1023 1464 L 888 1464 L 888 1471 L 887 1472 L 863 1472 L 863 1479 L 862 1480 L 734 1480 L 733 1479 L 733 1472 L 734 1471 L 799 1471 L 799 1457 L 800 1456 L 801 1457 L 801 1459 L 802 1460 L 802 1461 L 803 1462 L 803 1463 L 803 1462 L 802 1461 L 802 1459 L 801 1458 L 801 1455 L 800 1454 L 800 1452 L 799 1451 L 799 1450 L 798 1449 L 798 1447 L 799 1446 L 799 1443 L 799 1444 L 798 1445 L 797 1444 L 797 1443 L 796 1442 L 796 1440 L 797 1439 L 798 1440 L 798 1441 L 799 1440 L 797 1438 L 797 1436 L 798 1435 L 799 1436 L 799 1437 L 799 1436 L 798 1435 L 799 1434 L 798 1433 L 798 1432 L 797 1432 L 797 1433 L 796 1434 L 795 1433 L 795 1432 L 794 1433 L 793 1432 L 793 1430 L 792 1429 L 792 1426 L 791 1425 L 791 1424 L 790 1423 L 790 1421 L 791 1420 L 791 1413 L 790 1412 L 791 1411 L 791 1410 L 790 1410 L 789 1409 L 790 1408 L 791 1408 L 790 1408 L 789 1407 L 790 1406 L 791 1406 L 791 1400 L 786 1400 L 785 1401 L 784 1400 L 783 1400 L 782 1399 L 782 1398 L 783 1397 L 783 1394 L 782 1393 L 783 1392 L 783 1377 L 784 1376 L 797 1376 L 798 1375 L 799 1375 L 800 1376 L 801 1376 L 802 1375 L 815 1375 L 816 1376 L 816 1378 L 817 1378 L 818 1379 L 818 1383 L 1023 1383 L 1023 120 L 296 120 L 295 119 L 295 112 L 284 112 L 283 111 L 282 112 L 278 108 L 279 107 L 278 106 L 278 105 L 279 104 L 275 104 L 274 105 L 270 101 L 271 100 L 270 101 L 269 100 L 269 99 L 270 98 L 271 98 L 271 96 L 265 96 L 264 97 L 262 95 L 263 94 L 263 88 L 255 88 L 254 87 L 255 86 L 255 80 L 251 80 L 250 81 L 249 80 L 246 80 L 245 81 L 246 82 L 245 83 L 244 83 L 243 82 L 242 82 L 241 81 L 242 80 L 241 81 L 240 80 L 239 80 L 238 79 L 239 78 L 238 77 L 239 76 L 239 72 L 231 72 L 233 74 L 232 75 L 231 75 L 230 74 L 229 74 L 228 73 L 229 72 L 228 73 L 227 72 L 225 72 L 223 70 L 222 70 L 221 69 L 222 68 L 223 68 L 223 67 L 221 69 L 220 69 L 219 68 L 219 67 L 221 65 L 223 65 L 223 64 L 222 65 L 221 65 L 220 64 L 217 64 L 215 66 L 214 66 L 213 65 L 212 65 L 211 64 L 210 64 L 209 63 L 208 63 L 207 62 L 206 62 L 205 61 L 204 61 L 203 60 L 202 60 L 203 60 L 204 61 L 205 61 L 207 63 L 208 63 L 209 64 L 210 64 L 212 66 L 213 66 L 214 67 L 215 67 L 216 68 L 217 68 L 219 70 L 220 70 L 222 72 L 223 72 L 224 73 L 224 75 L 225 75 L 226 74 L 227 75 L 228 75 L 229 76 L 227 78 L 226 77 L 224 77 L 224 79 L 223 80 L 216 80 L 215 79 L 215 72 L 200 72 L 199 71 L 199 64 L 88 64 L 87 63 L 87 56 L 88 55 L 503 55 L 504 56 L 504 63 L 1023 63 L 1023 0 Z " fill="black"/>
</svg>