<?xml version="1.0" encoding="UTF-8"?>
<svg viewBox="0 0 1024 1536" xmlns="http://www.w3.org/2000/svg" width="300" height="450">
  <path fill="black" stroke="none" d="M 594 268 L 593 269 L 585 269 L 584 270 L 581 270 L 580 271 L 577 271 L 576 272 L 574 272 L 573 273 L 571 273 L 570 274 L 569 274 L 568 275 L 567 275 L 566 276 L 565 276 L 564 277 L 563 277 L 562 278 L 561 278 L 559 280 L 558 280 L 557 281 L 556 281 L 553 284 L 552 284 L 539 297 L 539 298 L 536 301 L 536 302 L 534 304 L 534 305 L 531 308 L 531 309 L 528 312 L 528 313 L 525 316 L 525 317 L 522 320 L 522 321 L 519 324 L 519 325 L 517 327 L 517 328 L 514 331 L 514 332 L 511 335 L 511 336 L 508 339 L 508 340 L 505 343 L 505 344 L 502 347 L 502 348 L 499 351 L 499 352 L 497 354 L 497 355 L 494 358 L 494 359 L 491 362 L 491 363 L 488 366 L 488 367 L 485 370 L 485 371 L 482 374 L 482 375 L 479 378 L 479 379 L 476 382 L 476 383 L 473 386 L 473 387 L 470 390 L 470 391 L 467 394 L 467 395 L 465 397 L 465 398 L 462 401 L 462 402 L 459 405 L 459 406 L 456 409 L 456 410 L 453 413 L 453 414 L 450 417 L 450 418 L 447 421 L 447 422 L 444 425 L 444 426 L 441 429 L 441 430 L 439 432 L 439 433 L 436 436 L 436 437 L 433 440 L 433 441 L 430 444 L 430 445 L 427 448 L 427 449 L 424 452 L 424 453 L 422 455 L 422 456 L 419 459 L 419 460 L 416 463 L 416 464 L 414 466 L 414 467 L 412 469 L 412 470 L 411 471 L 411 472 L 409 474 L 409 475 L 408 476 L 408 477 L 407 478 L 407 479 L 406 480 L 406 481 L 405 482 L 405 483 L 404 484 L 404 486 L 403 487 L 403 489 L 402 490 L 402 492 L 401 493 L 401 496 L 400 497 L 400 501 L 399 502 L 399 525 L 400 526 L 400 531 L 401 532 L 401 535 L 402 536 L 402 538 L 403 539 L 403 540 L 404 541 L 404 543 L 405 544 L 405 545 L 406 546 L 406 547 L 407 548 L 407 549 L 408 550 L 408 551 L 409 552 L 409 553 L 411 555 L 411 556 L 412 557 L 412 558 L 415 561 L 415 562 L 418 565 L 417 566 L 406 566 L 405 567 L 401 567 L 400 568 L 397 568 L 396 569 L 394 569 L 393 570 L 391 570 L 390 571 L 389 571 L 388 572 L 386 572 L 385 573 L 384 573 L 383 574 L 382 574 L 380 576 L 379 576 L 378 577 L 377 577 L 375 579 L 374 579 L 372 581 L 371 581 L 359 593 L 359 594 L 356 597 L 356 598 L 354 600 L 354 601 L 353 602 L 353 603 L 352 604 L 352 605 L 351 606 L 351 607 L 350 608 L 350 609 L 349 610 L 349 611 L 348 612 L 348 614 L 347 615 L 347 617 L 346 618 L 346 621 L 345 622 L 345 626 L 344 627 L 344 649 L 345 650 L 345 653 L 346 654 L 346 657 L 347 658 L 347 661 L 348 662 L 348 663 L 349 664 L 349 666 L 350 667 L 350 668 L 351 669 L 351 670 L 352 671 L 352 672 L 353 673 L 353 674 L 354 675 L 354 676 L 355 677 L 355 678 L 356 679 L 356 680 L 358 682 L 358 683 L 359 684 L 359 685 L 360 686 L 360 687 L 361 688 L 361 689 L 362 690 L 362 691 L 364 693 L 364 694 L 365 695 L 365 696 L 366 697 L 366 698 L 367 699 L 367 700 L 369 702 L 369 703 L 370 704 L 370 705 L 371 706 L 371 707 L 372 708 L 372 709 L 373 710 L 373 711 L 375 713 L 375 714 L 376 715 L 376 716 L 377 717 L 377 718 L 378 719 L 378 720 L 380 722 L 380 723 L 381 724 L 381 725 L 382 726 L 382 727 L 383 728 L 383 729 L 384 730 L 384 731 L 386 733 L 386 734 L 387 735 L 387 736 L 388 737 L 388 738 L 389 739 L 389 740 L 391 742 L 391 743 L 392 744 L 392 745 L 393 746 L 393 747 L 394 748 L 394 749 L 395 750 L 395 751 L 397 753 L 397 754 L 398 755 L 398 756 L 399 757 L 399 758 L 400 759 L 400 760 L 401 761 L 401 762 L 402 763 L 402 764 L 404 766 L 404 767 L 405 768 L 405 769 L 406 770 L 406 771 L 407 772 L 407 773 L 408 774 L 408 775 L 409 776 L 409 777 L 410 778 L 410 779 L 411 780 L 411 781 L 413 783 L 413 784 L 414 785 L 414 786 L 415 787 L 415 788 L 416 789 L 416 790 L 417 791 L 417 792 L 418 793 L 418 794 L 419 795 L 419 796 L 421 798 L 421 799 L 422 800 L 422 801 L 423 802 L 423 803 L 424 804 L 424 805 L 425 806 L 425 807 L 426 808 L 426 809 L 427 810 L 427 811 L 428 812 L 428 813 L 429 814 L 429 815 L 431 817 L 431 818 L 432 819 L 432 820 L 433 821 L 433 822 L 434 823 L 434 824 L 435 825 L 435 826 L 436 827 L 436 828 L 437 829 L 437 830 L 438 831 L 438 832 L 440 834 L 440 835 L 441 836 L 441 837 L 442 838 L 442 839 L 443 840 L 443 841 L 444 842 L 444 843 L 445 844 L 445 845 L 447 847 L 447 848 L 448 849 L 448 850 L 449 851 L 449 852 L 451 854 L 451 855 L 454 858 L 454 859 L 459 864 L 459 865 L 462 868 L 463 868 L 468 873 L 469 873 L 471 875 L 472 875 L 474 877 L 475 877 L 476 878 L 477 878 L 478 879 L 479 879 L 480 880 L 481 880 L 482 881 L 483 881 L 484 882 L 485 882 L 486 883 L 488 883 L 489 884 L 491 884 L 492 885 L 495 885 L 496 886 L 500 886 L 501 887 L 514 887 L 515 888 L 507 896 L 507 897 L 504 900 L 504 901 L 502 903 L 502 904 L 500 906 L 500 907 L 499 908 L 499 909 L 497 911 L 497 912 L 496 913 L 496 914 L 495 915 L 495 916 L 494 917 L 494 918 L 493 919 L 493 920 L 492 921 L 492 922 L 491 923 L 491 924 L 490 925 L 490 926 L 489 927 L 489 929 L 488 930 L 488 931 L 487 932 L 487 933 L 486 934 L 486 935 L 485 936 L 485 937 L 484 938 L 484 939 L 483 940 L 483 941 L 482 942 L 482 943 L 481 944 L 481 946 L 480 947 L 480 948 L 479 949 L 479 950 L 478 951 L 478 952 L 477 953 L 477 954 L 476 955 L 476 956 L 475 957 L 475 958 L 474 959 L 474 960 L 473 961 L 473 963 L 472 964 L 472 965 L 471 966 L 471 967 L 470 968 L 470 969 L 469 970 L 469 971 L 468 972 L 468 973 L 467 974 L 467 975 L 466 976 L 466 977 L 465 978 L 465 980 L 464 981 L 464 982 L 463 983 L 463 984 L 462 985 L 462 986 L 461 987 L 461 988 L 460 989 L 460 990 L 459 991 L 459 992 L 458 993 L 458 994 L 457 995 L 457 996 L 456 997 L 456 999 L 455 1000 L 455 1001 L 454 1002 L 454 1003 L 453 1004 L 453 1005 L 452 1006 L 452 1007 L 451 1008 L 451 1009 L 450 1010 L 450 1011 L 449 1012 L 449 1013 L 448 1014 L 448 1016 L 447 1017 L 447 1018 L 446 1019 L 446 1020 L 445 1021 L 445 1022 L 444 1023 L 444 1024 L 443 1025 L 443 1026 L 442 1027 L 442 1028 L 441 1029 L 441 1030 L 440 1031 L 440 1032 L 439 1033 L 439 1035 L 438 1036 L 438 1037 L 437 1038 L 437 1039 L 436 1040 L 436 1041 L 435 1042 L 435 1043 L 434 1044 L 434 1045 L 433 1046 L 433 1047 L 432 1048 L 432 1049 L 431 1050 L 431 1051 L 430 1052 L 430 1054 L 429 1055 L 429 1056 L 428 1057 L 428 1058 L 427 1059 L 427 1060 L 426 1061 L 426 1062 L 425 1063 L 425 1064 L 424 1065 L 424 1066 L 423 1067 L 423 1068 L 422 1069 L 422 1070 L 421 1071 L 421 1073 L 420 1074 L 420 1075 L 419 1076 L 419 1077 L 418 1078 L 418 1079 L 417 1080 L 417 1081 L 416 1082 L 416 1083 L 415 1084 L 415 1085 L 414 1086 L 414 1088 L 413 1089 L 413 1090 L 412 1091 L 412 1092 L 411 1093 L 411 1094 L 410 1095 L 410 1096 L 409 1097 L 409 1098 L 408 1099 L 408 1100 L 407 1101 L 407 1102 L 406 1103 L 406 1105 L 405 1106 L 405 1107 L 404 1108 L 404 1109 L 403 1110 L 403 1111 L 402 1112 L 402 1114 L 401 1115 L 401 1116 L 400 1117 L 400 1119 L 399 1120 L 399 1123 L 398 1124 L 398 1126 L 397 1127 L 397 1132 L 396 1133 L 396 1153 L 397 1154 L 397 1159 L 398 1160 L 398 1163 L 399 1164 L 399 1166 L 400 1167 L 400 1169 L 401 1170 L 401 1171 L 402 1172 L 402 1174 L 403 1175 L 403 1176 L 404 1177 L 404 1178 L 406 1180 L 406 1181 L 407 1182 L 407 1183 L 409 1185 L 409 1186 L 412 1189 L 412 1190 L 423 1201 L 424 1201 L 427 1204 L 428 1204 L 430 1206 L 431 1206 L 433 1208 L 434 1208 L 435 1209 L 436 1209 L 437 1210 L 438 1210 L 439 1211 L 440 1211 L 441 1212 L 443 1212 L 444 1213 L 445 1213 L 446 1214 L 448 1214 L 449 1215 L 452 1215 L 453 1216 L 457 1216 L 458 1217 L 466 1217 L 467 1218 L 472 1218 L 473 1217 L 482 1217 L 483 1216 L 487 1216 L 488 1215 L 491 1215 L 492 1214 L 494 1214 L 495 1213 L 497 1213 L 498 1212 L 499 1212 L 500 1211 L 501 1211 L 502 1210 L 503 1210 L 504 1209 L 505 1209 L 506 1208 L 507 1208 L 508 1207 L 509 1207 L 511 1205 L 512 1205 L 514 1203 L 515 1203 L 521 1197 L 522 1197 L 522 1196 L 528 1190 L 528 1189 L 531 1186 L 531 1185 L 533 1183 L 533 1182 L 534 1181 L 534 1180 L 535 1179 L 535 1178 L 537 1176 L 537 1174 L 538 1173 L 538 1172 L 539 1171 L 539 1170 L 540 1169 L 540 1168 L 541 1167 L 541 1166 L 542 1165 L 542 1164 L 543 1163 L 543 1162 L 544 1161 L 544 1160 L 545 1159 L 545 1158 L 546 1157 L 546 1156 L 547 1155 L 547 1154 L 548 1153 L 548 1151 L 549 1150 L 549 1149 L 550 1148 L 550 1147 L 551 1146 L 551 1145 L 552 1144 L 552 1143 L 553 1142 L 553 1141 L 554 1140 L 554 1139 L 555 1138 L 555 1137 L 556 1136 L 556 1135 L 557 1134 L 557 1133 L 558 1132 L 558 1130 L 559 1129 L 559 1128 L 560 1127 L 560 1126 L 561 1125 L 561 1124 L 562 1123 L 562 1122 L 563 1121 L 563 1120 L 564 1119 L 564 1118 L 565 1117 L 565 1116 L 566 1115 L 566 1114 L 567 1113 L 567 1112 L 568 1111 L 568 1110 L 569 1109 L 569 1107 L 570 1106 L 570 1105 L 571 1104 L 571 1103 L 572 1102 L 572 1101 L 573 1100 L 573 1099 L 574 1098 L 574 1097 L 575 1096 L 575 1095 L 576 1094 L 576 1093 L 577 1092 L 577 1091 L 578 1090 L 578 1089 L 579 1088 L 579 1087 L 580 1086 L 580 1085 L 581 1084 L 581 1082 L 582 1081 L 582 1080 L 583 1079 L 583 1078 L 584 1077 L 584 1076 L 585 1075 L 585 1074 L 586 1073 L 586 1072 L 587 1071 L 587 1070 L 588 1069 L 588 1068 L 589 1067 L 589 1066 L 590 1065 L 590 1064 L 591 1063 L 591 1062 L 592 1061 L 592 1059 L 593 1058 L 593 1057 L 594 1056 L 594 1055 L 595 1054 L 595 1053 L 596 1052 L 596 1051 L 597 1050 L 597 1049 L 598 1048 L 598 1047 L 599 1046 L 599 1045 L 600 1044 L 600 1043 L 601 1042 L 601 1041 L 602 1040 L 602 1039 L 603 1038 L 603 1037 L 604 1036 L 604 1034 L 605 1033 L 605 1032 L 606 1031 L 606 1030 L 607 1029 L 607 1028 L 608 1027 L 608 1026 L 609 1025 L 609 1024 L 610 1023 L 610 1022 L 611 1021 L 611 1020 L 612 1019 L 612 1018 L 613 1017 L 613 1016 L 614 1015 L 614 1014 L 615 1013 L 615 1012 L 616 1011 L 616 1009 L 617 1008 L 617 1007 L 618 1006 L 618 1005 L 619 1004 L 619 1003 L 620 1002 L 620 1001 L 621 1000 L 621 999 L 622 998 L 622 997 L 623 996 L 623 995 L 624 994 L 624 993 L 625 992 L 625 991 L 626 990 L 626 989 L 627 988 L 627 987 L 628 986 L 628 984 L 629 983 L 629 982 L 630 981 L 630 980 L 631 979 L 631 978 L 632 977 L 632 976 L 633 975 L 633 974 L 634 973 L 634 972 L 635 971 L 635 970 L 636 969 L 636 968 L 637 967 L 637 965 L 638 964 L 638 962 L 639 961 L 639 959 L 640 958 L 640 956 L 641 955 L 641 951 L 642 950 L 642 945 L 643 944 L 643 932 L 642 931 L 642 924 L 641 923 L 641 920 L 640 919 L 640 916 L 639 915 L 639 913 L 638 912 L 638 911 L 637 910 L 637 908 L 636 907 L 636 906 L 635 905 L 635 904 L 634 903 L 634 902 L 632 900 L 632 899 L 630 897 L 630 896 L 628 894 L 628 893 L 623 888 L 623 887 L 620 884 L 619 884 L 614 879 L 613 879 L 610 876 L 609 876 L 608 875 L 607 875 L 605 873 L 604 873 L 603 872 L 602 872 L 601 871 L 600 871 L 599 870 L 597 870 L 596 869 L 595 869 L 594 868 L 592 868 L 591 867 L 589 867 L 588 866 L 585 866 L 584 865 L 580 865 L 579 864 L 569 864 L 568 863 L 568 862 L 573 857 L 573 856 L 576 853 L 576 852 L 577 851 L 577 850 L 579 848 L 579 847 L 580 846 L 580 845 L 581 844 L 581 843 L 582 842 L 582 840 L 583 839 L 583 838 L 584 837 L 584 835 L 585 834 L 585 831 L 586 830 L 586 827 L 587 826 L 587 821 L 588 820 L 588 804 L 587 803 L 587 797 L 586 796 L 586 793 L 585 792 L 585 790 L 584 789 L 584 787 L 583 786 L 583 784 L 582 783 L 582 782 L 581 781 L 581 780 L 580 779 L 580 778 L 579 777 L 579 776 L 578 775 L 578 774 L 577 773 L 577 772 L 576 771 L 576 770 L 575 769 L 575 768 L 574 767 L 574 766 L 572 764 L 572 763 L 571 762 L 571 761 L 570 760 L 570 759 L 569 758 L 569 757 L 568 756 L 568 755 L 566 753 L 566 752 L 565 751 L 565 750 L 564 749 L 564 748 L 563 747 L 563 746 L 562 745 L 562 744 L 560 742 L 560 741 L 559 740 L 559 739 L 558 738 L 558 737 L 557 736 L 557 735 L 556 734 L 556 733 L 555 732 L 555 731 L 553 729 L 553 728 L 552 727 L 552 726 L 551 725 L 551 724 L 550 723 L 550 722 L 549 721 L 549 720 L 548 719 L 548 718 L 546 716 L 546 715 L 545 714 L 545 713 L 544 712 L 544 711 L 543 710 L 543 709 L 542 708 L 542 707 L 541 706 L 541 705 L 539 703 L 539 702 L 538 701 L 538 700 L 537 699 L 537 698 L 536 697 L 536 696 L 535 695 L 535 694 L 533 692 L 533 691 L 532 690 L 532 689 L 531 688 L 531 687 L 530 686 L 530 685 L 529 684 L 529 683 L 527 681 L 527 680 L 526 679 L 526 678 L 525 677 L 525 676 L 524 675 L 524 674 L 523 673 L 523 672 L 521 670 L 521 669 L 520 668 L 520 667 L 519 666 L 519 665 L 518 664 L 518 663 L 517 662 L 517 661 L 516 660 L 516 659 L 514 657 L 514 656 L 513 655 L 513 654 L 512 653 L 512 652 L 511 651 L 511 650 L 509 648 L 509 647 L 508 646 L 508 645 L 507 644 L 507 643 L 506 642 L 506 641 L 505 640 L 505 639 L 504 638 L 504 637 L 502 635 L 502 634 L 501 633 L 501 632 L 500 631 L 500 630 L 499 629 L 499 628 L 497 626 L 497 625 L 496 624 L 496 623 L 495 622 L 495 621 L 494 620 L 494 619 L 493 618 L 493 617 L 492 616 L 492 615 L 490 613 L 490 612 L 489 611 L 489 610 L 488 609 L 488 608 L 486 606 L 486 605 L 483 602 L 483 601 L 480 598 L 480 597 L 472 589 L 473 588 L 477 588 L 478 587 L 484 587 L 485 586 L 489 586 L 490 585 L 492 585 L 493 584 L 496 584 L 497 583 L 498 583 L 499 582 L 501 582 L 502 581 L 503 581 L 504 580 L 505 580 L 506 579 L 507 579 L 509 577 L 510 577 L 511 576 L 512 576 L 514 574 L 515 574 L 518 571 L 519 571 L 533 557 L 533 556 L 537 552 L 537 551 L 540 548 L 540 547 L 543 544 L 543 543 L 546 540 L 546 539 L 549 536 L 549 535 L 551 533 L 551 532 L 555 528 L 555 527 L 557 525 L 557 524 L 560 521 L 560 520 L 563 517 L 563 516 L 566 513 L 566 512 L 569 509 L 569 508 L 572 505 L 572 504 L 575 501 L 575 500 L 578 497 L 578 496 L 581 493 L 581 492 L 584 489 L 584 488 L 587 485 L 587 484 L 590 481 L 590 480 L 593 477 L 593 476 L 596 473 L 596 472 L 599 469 L 599 468 L 601 466 L 601 465 L 605 461 L 605 460 L 607 458 L 607 457 L 610 454 L 610 453 L 613 450 L 613 449 L 616 446 L 616 445 L 619 442 L 619 441 L 622 438 L 622 437 L 625 434 L 625 433 L 628 430 L 628 429 L 631 426 L 631 425 L 633 423 L 633 422 L 636 419 L 636 418 L 639 415 L 639 414 L 642 411 L 642 410 L 645 407 L 645 406 L 647 404 L 647 403 L 650 400 L 650 399 L 653 396 L 653 395 L 656 392 L 656 391 L 658 389 L 658 388 L 660 386 L 660 385 L 662 383 L 662 382 L 663 381 L 663 380 L 664 379 L 664 378 L 665 377 L 665 376 L 666 375 L 666 374 L 667 373 L 667 371 L 668 370 L 668 368 L 669 367 L 669 365 L 670 364 L 670 362 L 671 361 L 671 356 L 672 355 L 672 332 L 671 331 L 671 327 L 670 326 L 670 323 L 669 322 L 669 320 L 668 319 L 668 317 L 667 316 L 667 315 L 666 314 L 666 312 L 665 311 L 665 310 L 664 309 L 664 308 L 662 306 L 662 305 L 661 304 L 661 303 L 659 301 L 659 300 L 656 297 L 656 296 L 645 285 L 644 285 L 641 282 L 640 282 L 638 280 L 637 280 L 635 278 L 634 278 L 633 277 L 632 277 L 631 276 L 630 276 L 629 275 L 627 275 L 626 274 L 625 274 L 624 273 L 622 273 L 621 272 L 619 272 L 618 271 L 615 271 L 614 270 L 611 270 L 610 269 L 601 269 L 600 268 Z " fill="black"/>
</svg>
