<svg xmlns="http://www.w3.org/2000/svg" viewBox="0 0 1024 1536" width="100" height="100">
  <path d="M 0 0 H 1024 V 1536 H 0 Z M 687 221 L 687 227 L 686 228 L 686 233 L 685 234 L 685 237 L 684 238 L 684 241 L 683 242 L 683 244 L 682 245 L 682 247 L 681 248 L 681 250 L 680 251 L 680 252 L 679 253 L 679 254 L 678 255 L 678 256 L 677 257 L 677 258 L 676 259 L 676 260 L 675 261 L 675 262 L 674 263 L 674 264 L 672 266 L 672 267 L 670 269 L 670 270 L 667 273 L 667 274 L 662 279 L 662 280 L 652 290 L 651 290 L 645 296 L 644 296 L 640 300 L 639 300 L 636 303 L 635 303 L 633 305 L 632 305 L 630 307 L 629 307 L 627 309 L 626 309 L 624 311 L 623 311 L 622 312 L 621 312 L 619 314 L 618 314 L 616 316 L 615 316 L 614 317 L 613 317 L 612 318 L 611 318 L 610 319 L 609 319 L 607 321 L 606 321 L 605 322 L 604 322 L 603 323 L 602 323 L 601 324 L 600 324 L 599 325 L 598 325 L 596 327 L 595 327 L 594 328 L 593 328 L 592 329 L 591 329 L 590 330 L 589 330 L 588 331 L 587 331 L 586 332 L 585 332 L 584 333 L 583 333 L 582 334 L 580 334 L 579 335 L 578 335 L 577 336 L 576 336 L 575 337 L 574 337 L 573 338 L 572 338 L 571 339 L 570 339 L 569 340 L 568 340 L 567 341 L 566 341 L 565 342 L 564 342 L 563 343 L 561 343 L 560 344 L 559 344 L 558 345 L 557 345 L 556 346 L 555 346 L 554 347 L 553 347 L 552 348 L 551 348 L 550 349 L 548 349 L 547 350 L 546 350 L 545 351 L 544 351 L 543 352 L 542 352 L 541 353 L 540 353 L 539 354 L 537 354 L 536 355 L 535 355 L 534 356 L 533 356 L 532 357 L 531 357 L 530 358 L 529 358 L 528 359 L 527 359 L 526 360 L 524 360 L 523 361 L 522 361 L 521 362 L 520 362 L 519 363 L 518 363 L 517 364 L 516 364 L 515 365 L 514 365 L 513 366 L 512 366 L 511 367 L 510 367 L 509 368 L 507 368 L 506 369 L 505 369 L 504 370 L 503 370 L 502 371 L 501 371 L 500 372 L 499 372 L 498 373 L 497 373 L 496 374 L 495 374 L 494 375 L 493 375 L 492 376 L 491 376 L 490 377 L 489 377 L 488 378 L 487 378 L 486 379 L 485 379 L 484 380 L 483 380 L 482 381 L 481 381 L 479 383 L 478 383 L 477 384 L 476 384 L 475 385 L 474 385 L 473 386 L 472 386 L 471 387 L 470 387 L 468 389 L 467 389 L 466 390 L 465 390 L 463 392 L 462 392 L 461 393 L 460 393 L 458 395 L 457 395 L 456 396 L 455 396 L 453 398 L 452 398 L 450 400 L 449 400 L 446 403 L 445 403 L 443 405 L 442 405 L 439 408 L 438 408 L 434 412 L 433 412 L 426 419 L 426 420 L 424 422 L 424 423 L 423 424 L 423 425 L 422 426 L 427 431 L 428 431 L 430 433 L 431 433 L 432 434 L 433 434 L 434 435 L 435 435 L 436 436 L 437 436 L 438 437 L 440 437 L 441 438 L 442 438 L 443 439 L 444 439 L 445 440 L 446 440 L 447 441 L 449 441 L 450 442 L 451 442 L 452 443 L 453 443 L 454 444 L 456 444 L 457 445 L 458 445 L 459 446 L 461 446 L 462 447 L 463 447 L 464 448 L 466 448 L 467 449 L 468 449 L 469 450 L 471 450 L 472 451 L 473 451 L 474 452 L 476 452 L 477 453 L 478 453 L 479 454 L 481 454 L 482 455 L 483 455 L 484 456 L 486 456 L 487 457 L 489 457 L 490 458 L 491 458 L 492 459 L 494 459 L 495 460 L 497 460 L 498 461 L 499 461 L 500 462 L 502 462 L 503 463 L 504 463 L 505 464 L 507 464 L 508 465 L 509 465 L 510 466 L 512 466 L 513 467 L 514 467 L 515 468 L 517 468 L 518 469 L 520 469 L 521 470 L 522 470 L 523 471 L 525 471 L 526 472 L 527 472 L 528 473 L 530 473 L 531 474 L 532 474 L 533 475 L 535 475 L 536 476 L 537 476 L 538 477 L 540 477 L 541 478 L 542 478 L 543 479 L 544 479 L 545 480 L 547 480 L 548 481 L 549 481 L 550 482 L 551 482 L 552 483 L 554 483 L 555 484 L 556 484 L 557 485 L 558 485 L 559 486 L 561 486 L 562 487 L 563 487 L 564 488 L 565 488 L 566 489 L 567 489 L 568 490 L 569 490 L 570 491 L 572 491 L 573 492 L 574 492 L 575 493 L 576 493 L 577 494 L 578 494 L 579 495 L 580 495 L 581 496 L 582 496 L 583 497 L 584 497 L 585 498 L 586 498 L 587 499 L 588 499 L 589 500 L 590 500 L 591 501 L 592 501 L 593 502 L 594 502 L 595 503 L 596 503 L 598 505 L 599 505 L 600 506 L 601 506 L 602 507 L 603 507 L 604 508 L 605 508 L 607 510 L 608 510 L 609 511 L 610 511 L 612 513 L 613 513 L 615 515 L 616 515 L 617 516 L 618 516 L 621 519 L 622 519 L 624 521 L 625 521 L 628 524 L 629 524 L 633 528 L 634 528 L 647 541 L 647 542 L 651 546 L 651 547 L 653 549 L 653 550 L 655 552 L 655 553 L 656 554 L 656 555 L 657 556 L 657 557 L 658 558 L 658 559 L 659 560 L 659 561 L 660 562 L 660 564 L 661 565 L 661 566 L 662 567 L 662 570 L 663 571 L 663 575 L 664 576 L 664 595 L 663 596 L 663 600 L 662 601 L 662 603 L 661 604 L 661 606 L 660 607 L 660 609 L 659 610 L 659 611 L 658 612 L 658 613 L 657 614 L 657 615 L 656 616 L 656 617 L 654 619 L 654 620 L 652 622 L 652 623 L 650 625 L 650 626 L 645 631 L 645 632 L 635 642 L 634 642 L 628 648 L 627 648 L 624 651 L 623 651 L 620 654 L 619 654 L 617 656 L 616 656 L 614 658 L 613 658 L 611 660 L 610 660 L 609 661 L 608 661 L 606 663 L 605 663 L 603 665 L 602 665 L 601 666 L 600 666 L 599 667 L 598 667 L 596 669 L 595 669 L 594 670 L 593 670 L 592 671 L 591 671 L 590 672 L 589 672 L 587 674 L 586 674 L 585 675 L 584 675 L 583 676 L 582 676 L 581 677 L 580 677 L 579 678 L 578 678 L 577 679 L 576 679 L 575 680 L 574 680 L 573 681 L 572 681 L 571 682 L 570 682 L 569 683 L 568 683 L 567 684 L 566 684 L 565 685 L 564 685 L 563 686 L 562 686 L 561 687 L 560 687 L 559 688 L 558 688 L 557 689 L 556 689 L 555 690 L 554 690 L 553 691 L 552 691 L 551 692 L 550 692 L 549 693 L 547 693 L 546 694 L 545 694 L 544 695 L 543 695 L 542 696 L 541 696 L 540 697 L 539 697 L 538 698 L 537 698 L 536 699 L 535 699 L 534 700 L 532 700 L 531 701 L 530 701 L 529 702 L 528 702 L 527 703 L 526 703 L 525 704 L 524 704 L 523 705 L 522 705 L 521 706 L 520 706 L 519 707 L 518 707 L 517 708 L 515 708 L 514 709 L 513 709 L 512 710 L 511 710 L 510 711 L 509 711 L 508 712 L 507 712 L 506 713 L 505 713 L 504 714 L 503 714 L 502 715 L 501 715 L 500 716 L 499 716 L 498 717 L 497 717 L 496 718 L 495 718 L 494 719 L 492 719 L 491 720 L 490 720 L 489 721 L 488 721 L 487 722 L 486 722 L 484 724 L 483 724 L 482 725 L 481 725 L 480 726 L 479 726 L 478 727 L 477 727 L 476 728 L 475 728 L 474 729 L 473 729 L 472 730 L 471 730 L 470 731 L 469 731 L 467 733 L 466 733 L 465 734 L 464 734 L 463 735 L 462 735 L 460 737 L 459 737 L 458 738 L 457 738 L 455 740 L 454 740 L 453 741 L 452 741 L 450 743 L 449 743 L 447 745 L 446 745 L 444 747 L 443 747 L 440 750 L 439 750 L 436 753 L 435 753 L 431 757 L 430 757 L 426 761 L 426 762 L 423 765 L 423 766 L 422 767 L 422 768 L 423 769 L 423 770 L 430 777 L 431 777 L 433 779 L 434 779 L 436 781 L 437 781 L 438 782 L 439 782 L 441 784 L 442 784 L 443 785 L 444 785 L 445 786 L 446 786 L 447 787 L 448 787 L 449 788 L 450 788 L 451 789 L 452 789 L 453 790 L 454 790 L 455 791 L 456 791 L 457 792 L 458 792 L 459 793 L 461 793 L 462 794 L 463 794 L 464 795 L 465 795 L 466 796 L 467 796 L 468 797 L 470 797 L 471 798 L 472 798 L 473 799 L 474 799 L 475 800 L 476 800 L 477 801 L 479 801 L 480 802 L 481 802 L 482 803 L 483 803 L 484 804 L 486 804 L 487 805 L 488 805 L 489 806 L 491 806 L 492 807 L 493 807 L 494 808 L 496 808 L 497 809 L 498 809 L 499 810 L 500 810 L 501 811 L 503 811 L 504 812 L 506 812 L 507 813 L 508 813 L 509 814 L 510 814 L 511 815 L 513 815 L 514 816 L 515 816 L 516 817 L 518 817 L 519 818 L 520 818 L 521 819 L 523 819 L 524 820 L 525 820 L 526 821 L 528 821 L 529 822 L 530 822 L 531 823 L 533 823 L 534 824 L 535 824 L 536 825 L 537 825 L 538 826 L 540 826 L 541 827 L 542 827 L 543 828 L 545 828 L 546 829 L 547 829 L 548 830 L 549 830 L 550 831 L 552 831 L 553 832 L 554 832 L 555 833 L 556 833 L 557 834 L 559 834 L 560 835 L 561 835 L 562 836 L 563 836 L 564 837 L 565 837 L 566 838 L 568 838 L 569 839 L 570 839 L 571 840 L 572 840 L 573 841 L 574 841 L 575 842 L 576 842 L 577 843 L 578 843 L 579 844 L 580 844 L 581 845 L 582 845 L 583 846 L 584 846 L 585 847 L 586 847 L 587 848 L 588 848 L 589 849 L 590 849 L 591 850 L 592 850 L 593 851 L 594 851 L 595 852 L 596 852 L 597 853 L 598 853 L 599 854 L 600 854 L 601 855 L 602 855 L 604 857 L 605 857 L 606 858 L 607 858 L 609 860 L 610 860 L 611 861 L 612 861 L 614 863 L 615 863 L 617 865 L 618 865 L 620 867 L 621 867 L 623 869 L 624 869 L 627 872 L 628 872 L 633 877 L 634 877 L 645 888 L 645 889 L 649 893 L 649 894 L 651 896 L 651 897 L 653 899 L 653 900 L 654 901 L 654 902 L 655 903 L 655 904 L 657 906 L 657 908 L 658 909 L 658 910 L 659 911 L 659 912 L 660 913 L 660 915 L 661 916 L 661 919 L 662 920 L 662 923 L 663 924 L 663 931 L 664 932 L 664 942 L 663 943 L 663 949 L 662 950 L 662 953 L 661 954 L 661 956 L 660 957 L 660 959 L 659 960 L 659 961 L 658 962 L 658 964 L 657 965 L 657 966 L 656 967 L 656 968 L 654 970 L 654 971 L 653 972 L 653 973 L 651 975 L 651 976 L 649 978 L 649 979 L 645 983 L 645 984 L 630 999 L 629 999 L 625 1003 L 624 1003 L 621 1006 L 620 1006 L 617 1009 L 616 1009 L 614 1011 L 613 1011 L 611 1013 L 610 1013 L 608 1015 L 607 1015 L 606 1016 L 605 1016 L 603 1018 L 602 1018 L 600 1020 L 599 1020 L 598 1021 L 597 1021 L 596 1022 L 595 1022 L 593 1024 L 592 1024 L 591 1025 L 590 1025 L 589 1026 L 588 1026 L 587 1027 L 586 1027 L 584 1029 L 583 1029 L 582 1030 L 581 1030 L 580 1031 L 579 1031 L 578 1032 L 577 1032 L 576 1033 L 575 1033 L 574 1034 L 573 1034 L 572 1035 L 571 1035 L 570 1036 L 569 1036 L 568 1037 L 567 1037 L 566 1038 L 565 1038 L 564 1039 L 563 1039 L 562 1040 L 561 1040 L 560 1041 L 559 1041 L 558 1042 L 557 1042 L 556 1043 L 555 1043 L 554 1044 L 553 1044 L 552 1045 L 551 1045 L 550 1046 L 548 1046 L 547 1047 L 546 1047 L 545 1048 L 544 1048 L 543 1049 L 542 1049 L 541 1050 L 540 1050 L 539 1051 L 538 1051 L 537 1052 L 535 1052 L 534 1053 L 533 1053 L 532 1054 L 531 1054 L 530 1055 L 529 1055 L 528 1056 L 527 1056 L 526 1057 L 525 1057 L 524 1058 L 522 1058 L 521 1059 L 520 1059 L 519 1060 L 518 1060 L 517 1061 L 516 1061 L 515 1062 L 514 1062 L 513 1063 L 512 1063 L 511 1064 L 509 1064 L 508 1065 L 507 1065 L 506 1066 L 505 1066 L 504 1067 L 503 1067 L 502 1068 L 501 1068 L 500 1069 L 499 1069 L 498 1070 L 497 1070 L 496 1071 L 494 1071 L 493 1072 L 492 1072 L 491 1073 L 490 1073 L 489 1074 L 488 1074 L 487 1075 L 486 1075 L 485 1076 L 484 1076 L 483 1077 L 482 1077 L 481 1078 L 480 1078 L 479 1079 L 478 1079 L 477 1080 L 476 1080 L 475 1081 L 474 1081 L 473 1082 L 472 1082 L 471 1083 L 470 1083 L 469 1084 L 468 1084 L 467 1085 L 466 1085 L 464 1087 L 463 1087 L 462 1088 L 461 1088 L 460 1089 L 459 1089 L 457 1091 L 456 1091 L 455 1092 L 454 1092 L 452 1094 L 451 1094 L 450 1095 L 449 1095 L 447 1097 L 446 1097 L 444 1099 L 443 1099 L 440 1102 L 439 1102 L 436 1105 L 435 1105 L 424 1116 L 424 1117 L 422 1119 L 422 1124 L 423 1125 L 423 1126 L 426 1129 L 426 1130 L 433 1137 L 434 1137 L 439 1142 L 440 1142 L 443 1145 L 444 1145 L 446 1147 L 447 1147 L 449 1149 L 450 1149 L 453 1152 L 454 1152 L 455 1153 L 456 1153 L 458 1155 L 459 1155 L 461 1157 L 462 1157 L 463 1158 L 464 1158 L 466 1160 L 467 1160 L 468 1161 L 469 1161 L 470 1162 L 471 1162 L 472 1163 L 473 1163 L 475 1165 L 476 1165 L 477 1166 L 478 1166 L 479 1167 L 480 1167 L 481 1168 L 482 1168 L 484 1170 L 485 1170 L 486 1171 L 487 1171 L 488 1172 L 489 1172 L 490 1173 L 491 1173 L 492 1174 L 493 1174 L 494 1175 L 495 1175 L 496 1176 L 497 1176 L 498 1177 L 499 1177 L 500 1178 L 501 1178 L 502 1179 L 503 1179 L 505 1181 L 507 1181 L 508 1182 L 509 1182 L 511 1184 L 512 1184 L 513 1185 L 514 1185 L 515 1186 L 516 1186 L 517 1187 L 518 1187 L 519 1188 L 520 1188 L 521 1189 L 522 1189 L 523 1190 L 524 1190 L 525 1191 L 527 1191 L 528 1192 L 529 1192 L 531 1194 L 533 1194 L 534 1195 L 535 1195 L 536 1196 L 537 1196 L 538 1197 L 539 1197 L 540 1198 L 541 1198 L 542 1199 L 543 1199 L 544 1200 L 545 1200 L 546 1201 L 547 1201 L 548 1202 L 549 1202 L 550 1203 L 551 1203 L 552 1204 L 553 1204 L 554 1205 L 555 1205 L 556 1206 L 557 1206 L 559 1208 L 561 1208 L 563 1210 L 564 1210 L 565 1211 L 566 1211 L 567 1212 L 568 1212 L 569 1213 L 570 1213 L 571 1214 L 572 1214 L 573 1215 L 574 1215 L 575 1216 L 576 1216 L 578 1218 L 579 1218 L 580 1219 L 581 1219 L 582 1220 L 583 1220 L 584 1221 L 585 1221 L 586 1222 L 587 1222 L 589 1224 L 590 1224 L 591 1225 L 592 1225 L 594 1227 L 595 1227 L 596 1228 L 597 1228 L 599 1230 L 600 1230 L 601 1231 L 602 1231 L 604 1233 L 605 1233 L 607 1235 L 608 1235 L 610 1237 L 611 1237 L 613 1239 L 614 1239 L 617 1242 L 618 1242 L 622 1246 L 623 1246 L 632 1255 L 633 1255 L 635 1257 L 635 1258 L 642 1265 L 642 1266 L 645 1269 L 645 1270 L 647 1272 L 647 1273 L 649 1275 L 649 1276 L 650 1277 L 650 1278 L 651 1279 L 651 1280 L 652 1281 L 652 1282 L 653 1283 L 653 1284 L 654 1285 L 654 1287 L 655 1288 L 655 1289 L 656 1290 L 656 1292 L 657 1293 L 657 1295 L 658 1296 L 658 1299 L 659 1300 L 659 1305 L 660 1306 L 660 1312 L 661 1313 L 661 1316 L 685 1316 L 686 1315 L 690 1315 L 691 1314 L 694 1314 L 695 1313 L 697 1313 L 698 1312 L 700 1312 L 701 1311 L 702 1311 L 703 1310 L 704 1310 L 705 1309 L 706 1309 L 708 1307 L 709 1307 L 711 1305 L 712 1305 L 715 1302 L 716 1302 L 724 1294 L 724 1293 L 727 1290 L 727 1289 L 729 1287 L 729 1286 L 730 1285 L 730 1284 L 731 1283 L 731 1282 L 732 1281 L 732 1280 L 733 1279 L 733 1278 L 734 1277 L 734 1276 L 735 1275 L 735 1273 L 736 1272 L 736 1269 L 737 1268 L 737 1263 L 738 1262 L 738 274 L 737 273 L 737 268 L 736 267 L 736 265 L 735 264 L 735 262 L 734 261 L 734 259 L 733 258 L 733 257 L 732 256 L 732 255 L 731 254 L 731 253 L 730 252 L 730 251 L 729 250 L 729 249 L 727 247 L 727 246 L 724 243 L 724 242 L 717 235 L 716 235 L 713 232 L 712 232 L 710 230 L 709 230 L 707 228 L 706 228 L 705 227 L 704 227 L 703 226 L 702 226 L 701 225 L 699 225 L 698 224 L 696 224 L 695 223 L 693 223 L 692 222 L 689 222 L 688 221 Z M 338 220 L 337 221 L 333 221 L 332 222 L 329 222 L 328 223 L 327 223 L 326 224 L 324 224 L 323 225 L 322 225 L 321 226 L 320 226 L 319 227 L 318 227 L 317 228 L 316 228 L 314 230 L 313 230 L 311 232 L 310 232 L 297 245 L 297 246 L 295 248 L 295 249 L 293 251 L 293 252 L 292 253 L 292 254 L 291 255 L 291 256 L 290 257 L 290 258 L 289 259 L 289 260 L 288 261 L 288 263 L 287 264 L 287 266 L 286 267 L 286 271 L 285 272 L 285 1262 L 286 1263 L 286 1268 L 287 1269 L 287 1272 L 288 1273 L 288 1275 L 289 1276 L 289 1277 L 290 1278 L 290 1279 L 291 1280 L 291 1281 L 292 1282 L 292 1283 L 293 1284 L 293 1285 L 294 1286 L 294 1287 L 296 1289 L 296 1290 L 299 1293 L 299 1294 L 307 1302 L 308 1302 L 311 1305 L 312 1305 L 314 1307 L 315 1307 L 317 1309 L 318 1309 L 319 1310 L 320 1310 L 321 1311 L 323 1311 L 324 1312 L 325 1312 L 326 1313 L 328 1313 L 329 1314 L 332 1314 L 333 1315 L 337 1315 L 338 1316 L 599 1316 L 598 1315 L 598 1314 L 597 1313 L 597 1312 L 596 1311 L 596 1310 L 593 1307 L 593 1306 L 586 1299 L 585 1299 L 581 1295 L 580 1295 L 578 1293 L 577 1293 L 575 1291 L 574 1291 L 572 1289 L 571 1289 L 569 1287 L 568 1287 L 566 1285 L 565 1285 L 564 1284 L 563 1284 L 562 1283 L 561 1283 L 559 1281 L 558 1281 L 557 1280 L 556 1280 L 555 1279 L 554 1279 L 552 1277 L 551 1277 L 550 1276 L 549 1276 L 548 1275 L 547 1275 L 546 1274 L 545 1274 L 544 1273 L 543 1273 L 542 1272 L 541 1272 L 540 1271 L 539 1271 L 537 1269 L 535 1269 L 533 1267 L 532 1267 L 531 1266 L 530 1266 L 529 1265 L 528 1265 L 527 1264 L 526 1264 L 525 1263 L 524 1263 L 523 1262 L 521 1262 L 520 1261 L 519 1261 L 518 1260 L 517 1260 L 516 1259 L 515 1259 L 514 1258 L 513 1258 L 512 1257 L 511 1257 L 510 1256 L 509 1256 L 508 1255 L 507 1255 L 506 1254 L 505 1254 L 504 1253 L 503 1253 L 502 1252 L 501 1252 L 500 1251 L 499 1251 L 498 1250 L 497 1250 L 496 1249 L 495 1249 L 494 1248 L 493 1248 L 492 1247 L 491 1247 L 490 1246 L 489 1246 L 488 1245 L 487 1245 L 486 1244 L 485 1244 L 484 1243 L 483 1243 L 482 1242 L 481 1242 L 480 1241 L 479 1241 L 478 1240 L 477 1240 L 476 1239 L 475 1239 L 474 1238 L 473 1238 L 472 1237 L 471 1237 L 470 1236 L 469 1236 L 468 1235 L 467 1235 L 465 1233 L 464 1233 L 463 1232 L 462 1232 L 461 1231 L 460 1231 L 459 1230 L 458 1230 L 457 1229 L 456 1229 L 455 1228 L 454 1228 L 453 1227 L 452 1227 L 450 1225 L 449 1225 L 448 1224 L 447 1224 L 446 1223 L 445 1223 L 444 1222 L 443 1222 L 441 1220 L 440 1220 L 439 1219 L 438 1219 L 436 1217 L 435 1217 L 434 1216 L 433 1216 L 432 1215 L 431 1215 L 429 1213 L 428 1213 L 426 1211 L 425 1211 L 424 1210 L 423 1210 L 421 1208 L 420 1208 L 418 1206 L 417 1206 L 415 1204 L 414 1204 L 412 1202 L 411 1202 L 409 1200 L 408 1200 L 406 1198 L 405 1198 L 402 1195 L 401 1195 L 398 1192 L 397 1192 L 392 1187 L 391 1187 L 376 1172 L 376 1171 L 372 1167 L 372 1166 L 369 1163 L 369 1162 L 367 1160 L 367 1159 L 366 1158 L 366 1157 L 364 1155 L 364 1154 L 363 1153 L 363 1152 L 362 1151 L 362 1149 L 361 1148 L 361 1147 L 360 1146 L 360 1144 L 359 1143 L 359 1141 L 358 1140 L 358 1137 L 357 1136 L 357 1130 L 356 1129 L 356 1116 L 357 1115 L 357 1109 L 358 1108 L 358 1105 L 359 1104 L 359 1101 L 360 1100 L 360 1098 L 361 1097 L 361 1096 L 362 1095 L 362 1093 L 363 1092 L 363 1091 L 364 1090 L 364 1089 L 365 1088 L 365 1087 L 366 1086 L 366 1085 L 368 1083 L 368 1082 L 370 1080 L 370 1079 L 372 1077 L 372 1076 L 375 1073 L 375 1072 L 394 1053 L 395 1053 L 399 1049 L 400 1049 L 403 1046 L 404 1046 L 406 1044 L 407 1044 L 409 1042 L 410 1042 L 412 1040 L 413 1040 L 415 1038 L 416 1038 L 418 1036 L 419 1036 L 421 1034 L 422 1034 L 423 1033 L 424 1033 L 426 1031 L 427 1031 L 428 1030 L 429 1030 L 431 1028 L 432 1028 L 433 1027 L 434 1027 L 435 1026 L 436 1026 L 438 1024 L 439 1024 L 440 1023 L 441 1023 L 442 1022 L 443 1022 L 444 1021 L 445 1021 L 446 1020 L 447 1020 L 448 1019 L 449 1019 L 451 1017 L 452 1017 L 453 1016 L 454 1016 L 455 1015 L 456 1015 L 457 1014 L 458 1014 L 459 1013 L 460 1013 L 461 1012 L 462 1012 L 463 1011 L 464 1011 L 465 1010 L 466 1010 L 467 1009 L 468 1009 L 469 1008 L 470 1008 L 471 1007 L 472 1007 L 473 1006 L 474 1006 L 475 1005 L 476 1005 L 477 1004 L 478 1004 L 479 1003 L 480 1003 L 481 1002 L 483 1002 L 484 1001 L 485 1001 L 486 1000 L 487 1000 L 488 999 L 489 999 L 490 998 L 491 998 L 492 997 L 493 997 L 494 996 L 496 996 L 497 995 L 498 995 L 499 994 L 500 994 L 501 993 L 502 993 L 503 992 L 504 992 L 505 991 L 506 991 L 507 990 L 509 990 L 510 989 L 511 989 L 512 988 L 513 988 L 514 987 L 515 987 L 516 986 L 517 986 L 518 985 L 519 985 L 520 984 L 521 984 L 522 983 L 523 983 L 524 982 L 525 982 L 526 981 L 527 981 L 528 980 L 529 980 L 530 979 L 532 979 L 533 978 L 534 978 L 535 977 L 536 977 L 537 976 L 538 976 L 539 975 L 540 975 L 541 974 L 542 974 L 543 973 L 544 973 L 545 972 L 546 972 L 547 971 L 548 971 L 550 969 L 551 969 L 552 968 L 553 968 L 554 967 L 555 967 L 556 966 L 557 966 L 558 965 L 559 965 L 560 964 L 561 964 L 562 963 L 563 963 L 565 961 L 566 961 L 567 960 L 568 960 L 570 958 L 571 958 L 572 957 L 573 957 L 574 956 L 575 956 L 577 954 L 578 954 L 580 952 L 581 952 L 584 949 L 585 949 L 588 946 L 589 946 L 594 941 L 594 940 L 597 937 L 597 936 L 598 935 L 598 933 L 591 926 L 590 926 L 588 924 L 587 924 L 585 922 L 584 922 L 582 920 L 581 920 L 580 919 L 579 919 L 577 917 L 576 917 L 575 916 L 574 916 L 573 915 L 572 915 L 571 914 L 570 914 L 569 913 L 568 913 L 566 911 L 565 911 L 564 910 L 563 910 L 562 909 L 561 909 L 560 908 L 559 908 L 558 907 L 557 907 L 556 906 L 555 906 L 554 905 L 553 905 L 552 904 L 551 904 L 550 903 L 548 903 L 547 902 L 546 902 L 545 901 L 544 901 L 543 900 L 542 900 L 541 899 L 540 899 L 539 898 L 537 898 L 536 897 L 535 897 L 534 896 L 533 896 L 532 895 L 530 895 L 529 894 L 528 894 L 527 893 L 526 893 L 525 892 L 523 892 L 522 891 L 521 891 L 520 890 L 519 890 L 518 889 L 516 889 L 515 888 L 514 888 L 513 887 L 511 887 L 510 886 L 509 886 L 508 885 L 507 885 L 506 884 L 504 884 L 503 883 L 502 883 L 501 882 L 499 882 L 498 881 L 497 881 L 496 880 L 494 880 L 493 879 L 492 879 L 491 878 L 490 878 L 489 877 L 487 877 L 486 876 L 485 876 L 484 875 L 482 875 L 481 874 L 480 874 L 479 873 L 477 873 L 476 872 L 475 872 L 474 871 L 473 871 L 472 870 L 470 870 L 469 869 L 468 869 L 467 868 L 465 868 L 464 867 L 463 867 L 462 866 L 461 866 L 460 865 L 458 865 L 457 864 L 456 864 L 455 863 L 454 863 L 453 862 L 451 862 L 450 861 L 449 861 L 448 860 L 447 860 L 446 859 L 445 859 L 444 858 L 443 858 L 442 857 L 440 857 L 439 856 L 438 856 L 437 855 L 436 855 L 435 854 L 434 854 L 433 853 L 432 853 L 431 852 L 430 852 L 429 851 L 428 851 L 427 850 L 426 850 L 425 849 L 424 849 L 423 848 L 422 848 L 421 847 L 420 847 L 418 845 L 417 845 L 416 844 L 415 844 L 414 843 L 413 843 L 411 841 L 410 841 L 409 840 L 408 840 L 406 838 L 405 838 L 403 836 L 402 836 L 400 834 L 399 834 L 397 832 L 396 832 L 393 829 L 392 829 L 388 825 L 387 825 L 373 811 L 373 810 L 369 806 L 369 805 L 367 803 L 367 802 L 366 801 L 366 800 L 364 798 L 364 797 L 363 796 L 363 795 L 362 794 L 362 793 L 361 792 L 361 790 L 360 789 L 360 787 L 359 786 L 359 784 L 358 783 L 358 780 L 357 779 L 357 772 L 356 771 L 356 766 L 357 765 L 357 757 L 358 756 L 358 753 L 359 752 L 359 749 L 360 748 L 360 746 L 361 745 L 361 744 L 362 743 L 362 742 L 363 741 L 363 739 L 364 738 L 364 737 L 366 735 L 366 734 L 367 733 L 367 732 L 369 730 L 369 729 L 371 727 L 371 726 L 373 724 L 373 723 L 378 718 L 378 717 L 389 706 L 390 706 L 395 701 L 396 701 L 400 697 L 401 697 L 404 694 L 405 694 L 407 692 L 408 692 L 410 690 L 411 690 L 413 688 L 414 688 L 416 686 L 417 686 L 419 684 L 420 684 L 422 682 L 423 682 L 424 681 L 425 681 L 427 679 L 428 679 L 429 678 L 430 678 L 432 676 L 433 676 L 434 675 L 435 675 L 436 674 L 437 674 L 439 672 L 440 672 L 441 671 L 442 671 L 443 670 L 444 670 L 445 669 L 446 669 L 448 667 L 449 667 L 450 666 L 451 666 L 452 665 L 453 665 L 454 664 L 455 664 L 456 663 L 457 663 L 458 662 L 459 662 L 460 661 L 461 661 L 462 660 L 463 660 L 464 659 L 465 659 L 466 658 L 467 658 L 468 657 L 469 657 L 470 656 L 471 656 L 472 655 L 473 655 L 474 654 L 475 654 L 476 653 L 477 653 L 478 652 L 479 652 L 480 651 L 481 651 L 482 650 L 483 650 L 484 649 L 485 649 L 486 648 L 487 648 L 488 647 L 489 647 L 490 646 L 491 646 L 492 645 L 493 645 L 494 644 L 495 644 L 496 643 L 498 643 L 499 642 L 500 642 L 501 641 L 502 641 L 503 640 L 504 640 L 505 639 L 506 639 L 507 638 L 508 638 L 509 637 L 511 637 L 512 636 L 513 636 L 514 635 L 515 635 L 516 634 L 517 634 L 518 633 L 519 633 L 520 632 L 521 632 L 522 631 L 524 631 L 525 630 L 526 630 L 527 629 L 528 629 L 529 628 L 530 628 L 531 627 L 532 627 L 533 626 L 534 626 L 535 625 L 536 625 L 537 624 L 539 624 L 541 622 L 542 622 L 543 621 L 545 621 L 546 620 L 547 620 L 548 619 L 549 619 L 551 617 L 552 617 L 553 616 L 555 616 L 557 614 L 558 614 L 559 613 L 560 613 L 561 612 L 562 612 L 563 611 L 564 611 L 566 609 L 567 609 L 568 608 L 569 608 L 571 606 L 572 606 L 573 605 L 574 605 L 576 603 L 577 603 L 578 602 L 579 602 L 581 600 L 582 600 L 584 598 L 585 598 L 588 595 L 589 595 L 593 591 L 594 591 L 596 589 L 596 588 L 599 585 L 599 584 L 591 576 L 590 576 L 588 574 L 587 574 L 585 572 L 584 572 L 582 570 L 581 570 L 580 569 L 579 569 L 578 568 L 577 568 L 575 566 L 574 566 L 573 565 L 572 565 L 571 564 L 570 564 L 569 563 L 568 563 L 567 562 L 566 562 L 565 561 L 564 561 L 563 560 L 562 560 L 561 559 L 560 559 L 559 558 L 558 558 L 557 557 L 556 557 L 555 556 L 554 556 L 553 555 L 551 555 L 550 554 L 549 554 L 548 553 L 547 553 L 546 552 L 545 552 L 544 551 L 542 551 L 541 550 L 540 550 L 539 549 L 538 549 L 537 548 L 535 548 L 534 547 L 533 547 L 532 546 L 531 546 L 530 545 L 528 545 L 527 544 L 526 544 L 525 543 L 524 543 L 523 542 L 521 542 L 520 541 L 519 541 L 518 540 L 516 540 L 515 539 L 514 539 L 513 538 L 511 538 L 510 537 L 509 537 L 508 536 L 506 536 L 505 535 L 503 535 L 502 534 L 501 534 L 500 533 L 498 533 L 497 532 L 496 532 L 495 531 L 493 531 L 492 530 L 491 530 L 490 529 L 488 529 L 487 528 L 485 528 L 484 527 L 483 527 L 482 526 L 480 526 L 479 525 L 478 525 L 477 524 L 475 524 L 474 523 L 472 523 L 471 522 L 470 522 L 469 521 L 467 521 L 466 520 L 465 520 L 464 519 L 462 519 L 461 518 L 460 518 L 459 517 L 457 517 L 456 516 L 454 516 L 453 515 L 452 515 L 451 514 L 449 514 L 448 513 L 447 513 L 446 512 L 445 512 L 444 511 L 442 511 L 441 510 L 440 510 L 439 509 L 437 509 L 436 508 L 435 508 L 434 507 L 433 507 L 432 506 L 430 506 L 429 505 L 428 505 L 427 504 L 426 504 L 425 503 L 424 503 L 423 502 L 421 502 L 420 501 L 419 501 L 418 500 L 417 500 L 416 499 L 415 499 L 414 498 L 413 498 L 412 497 L 411 497 L 409 495 L 408 495 L 407 494 L 406 494 L 405 493 L 404 493 L 402 491 L 401 491 L 400 490 L 399 490 L 397 488 L 396 488 L 394 486 L 393 486 L 391 484 L 390 484 L 387 481 L 386 481 L 370 465 L 370 464 L 368 462 L 368 461 L 366 459 L 366 458 L 364 456 L 364 455 L 363 454 L 363 453 L 362 452 L 362 451 L 361 450 L 361 449 L 360 448 L 360 446 L 359 445 L 359 443 L 358 442 L 358 440 L 357 439 L 357 435 L 356 434 L 356 414 L 357 413 L 357 410 L 358 409 L 358 406 L 359 405 L 359 403 L 360 402 L 360 401 L 361 400 L 361 399 L 362 398 L 362 396 L 364 394 L 364 393 L 365 392 L 365 391 L 366 390 L 366 389 L 368 387 L 368 386 L 371 383 L 371 382 L 375 378 L 375 377 L 388 364 L 389 364 L 393 360 L 394 360 L 398 356 L 399 356 L 402 353 L 403 353 L 405 351 L 406 351 L 408 349 L 409 349 L 411 347 L 412 347 L 414 345 L 415 345 L 417 343 L 418 343 L 420 341 L 421 341 L 423 339 L 424 339 L 425 338 L 426 338 L 428 336 L 429 336 L 430 335 L 431 335 L 433 333 L 434 333 L 435 332 L 436 332 L 438 330 L 439 330 L 440 329 L 441 329 L 442 328 L 443 328 L 445 326 L 446 326 L 447 325 L 448 325 L 449 324 L 450 324 L 451 323 L 452 323 L 453 322 L 454 322 L 455 321 L 456 321 L 457 320 L 458 320 L 460 318 L 461 318 L 462 317 L 463 317 L 464 316 L 465 316 L 466 315 L 467 315 L 468 314 L 469 314 L 470 313 L 471 313 L 472 312 L 473 312 L 474 311 L 475 311 L 476 310 L 478 310 L 479 309 L 480 309 L 481 308 L 482 308 L 483 307 L 484 307 L 485 306 L 486 306 L 487 305 L 488 305 L 489 304 L 490 304 L 491 303 L 492 303 L 493 302 L 495 302 L 496 301 L 497 301 L 498 300 L 499 300 L 500 299 L 501 299 L 502 298 L 503 298 L 504 297 L 506 297 L 507 296 L 508 296 L 509 295 L 510 295 L 511 294 L 512 294 L 513 293 L 515 293 L 516 292 L 517 292 L 518 291 L 519 291 L 520 290 L 521 290 L 522 289 L 523 289 L 524 288 L 526 288 L 527 287 L 528 287 L 529 286 L 530 286 L 531 285 L 532 285 L 533 284 L 534 284 L 535 283 L 537 283 L 538 282 L 539 282 L 540 281 L 541 281 L 542 280 L 543 280 L 544 279 L 545 279 L 546 278 L 547 278 L 548 277 L 550 277 L 551 276 L 552 276 L 553 275 L 554 275 L 555 274 L 556 274 L 557 273 L 558 273 L 559 272 L 560 272 L 561 271 L 562 271 L 563 270 L 564 270 L 565 269 L 566 269 L 567 268 L 568 268 L 569 267 L 570 267 L 571 266 L 572 266 L 573 265 L 574 265 L 575 264 L 576 264 L 577 263 L 578 263 L 580 261 L 581 261 L 582 260 L 583 260 L 584 259 L 585 259 L 586 258 L 587 258 L 589 256 L 590 256 L 591 255 L 592 255 L 594 253 L 595 253 L 596 252 L 597 252 L 599 250 L 600 250 L 602 248 L 603 248 L 605 246 L 606 246 L 609 243 L 610 243 L 614 239 L 615 239 L 624 230 L 624 229 L 628 225 L 628 224 L 629 223 L 629 222 L 631 220 Z M 0 0 L 0 1535 L 1023 1535 L 1023 0 Z M 341 187 L 342 186 L 680 186 L 681 187 L 688 187 L 689 188 L 694 188 L 695 189 L 698 189 L 699 190 L 702 190 L 703 191 L 705 191 L 706 192 L 708 192 L 709 193 L 710 193 L 711 194 L 713 194 L 714 195 L 715 195 L 716 196 L 717 196 L 718 197 L 719 197 L 720 198 L 721 198 L 722 199 L 723 199 L 725 201 L 726 201 L 727 202 L 728 202 L 730 204 L 731 204 L 734 207 L 735 207 L 751 223 L 751 224 L 754 227 L 754 228 L 756 230 L 756 231 L 758 233 L 758 234 L 759 235 L 759 236 L 760 237 L 760 238 L 761 239 L 761 240 L 762 241 L 762 242 L 763 243 L 763 244 L 764 245 L 764 247 L 765 248 L 765 249 L 766 250 L 766 252 L 767 253 L 767 256 L 768 257 L 768 260 L 769 261 L 769 264 L 770 265 L 770 271 L 771 272 L 771 1264 L 770 1265 L 770 1272 L 769 1273 L 769 1277 L 768 1278 L 768 1281 L 767 1282 L 767 1284 L 766 1285 L 766 1287 L 765 1288 L 765 1290 L 764 1291 L 764 1292 L 763 1293 L 763 1294 L 762 1295 L 762 1296 L 761 1297 L 761 1299 L 759 1301 L 759 1302 L 758 1303 L 758 1304 L 756 1306 L 756 1307 L 754 1309 L 754 1310 L 751 1313 L 751 1314 L 736 1329 L 735 1329 L 732 1332 L 731 1332 L 729 1334 L 728 1334 L 726 1336 L 725 1336 L 724 1337 L 723 1337 L 721 1339 L 720 1339 L 719 1340 L 718 1340 L 717 1341 L 715 1341 L 714 1342 L 713 1342 L 712 1343 L 710 1343 L 709 1344 L 708 1344 L 707 1345 L 705 1345 L 704 1346 L 701 1346 L 700 1347 L 697 1347 L 696 1348 L 692 1348 L 691 1349 L 683 1349 L 682 1350 L 341 1350 L 340 1349 L 333 1349 L 332 1348 L 328 1348 L 327 1347 L 324 1347 L 323 1346 L 320 1346 L 319 1345 L 317 1345 L 316 1344 L 314 1344 L 313 1343 L 312 1343 L 311 1342 L 309 1342 L 308 1341 L 307 1341 L 306 1340 L 305 1340 L 304 1339 L 303 1339 L 302 1338 L 301 1338 L 299 1336 L 298 1336 L 297 1335 L 296 1335 L 294 1333 L 293 1333 L 291 1331 L 290 1331 L 286 1327 L 285 1327 L 274 1316 L 274 1315 L 270 1311 L 270 1310 L 268 1308 L 268 1307 L 266 1305 L 266 1304 L 265 1303 L 265 1302 L 263 1300 L 263 1299 L 262 1298 L 262 1297 L 261 1296 L 261 1295 L 260 1294 L 260 1292 L 259 1291 L 259 1290 L 258 1289 L 258 1287 L 257 1286 L 257 1284 L 256 1283 L 256 1281 L 255 1280 L 255 1277 L 254 1276 L 254 1273 L 253 1272 L 253 1266 L 252 1265 L 252 270 L 253 269 L 253 263 L 254 262 L 254 259 L 255 258 L 255 255 L 256 254 L 256 252 L 257 251 L 257 249 L 258 248 L 258 247 L 259 246 L 259 244 L 260 243 L 260 242 L 261 241 L 261 240 L 262 239 L 262 238 L 263 237 L 263 236 L 265 234 L 265 233 L 267 231 L 267 230 L 268 229 L 268 228 L 271 225 L 271 224 L 276 219 L 276 218 L 281 213 L 282 213 L 288 207 L 289 207 L 292 204 L 293 204 L 295 202 L 296 202 L 298 200 L 299 200 L 300 199 L 301 199 L 303 197 L 304 197 L 305 196 L 306 196 L 307 195 L 309 195 L 310 194 L 311 194 L 312 193 L 314 193 L 315 192 L 316 192 L 317 191 L 319 191 L 320 190 L 323 190 L 324 189 L 327 189 L 328 188 L 332 188 L 333 187 Z " fill="black" fill-rule="evenodd"/>
</svg>