<svg xmlns="http://www.w3.org/2000/svg" viewBox="0 0 1024 1536" width="100" height="100">
  <path d="M 0 0 L 0 1535 L 1023 1535 L 1023 1304 L 472 1304 L 471 1303 L 471 1297 L 470 1297 L 469 1296 L 470 1295 L 472 1295 L 473 1294 L 474 1295 L 487 1295 L 487 1290 L 486 1289 L 487 1288 L 488 1288 L 489 1287 L 490 1287 L 491 1286 L 492 1286 L 493 1287 L 495 1287 L 496 1288 L 496 1295 L 1023 1295 L 1023 792 L 624 792 L 623 791 L 623 788 L 621 786 L 622 785 L 623 785 L 625 783 L 633 783 L 634 782 L 639 782 L 640 783 L 663 783 L 663 777 L 664 776 L 667 776 L 668 777 L 667 776 L 668 775 L 670 775 L 671 774 L 672 774 L 673 775 L 672 776 L 672 783 L 1023 783 L 1023 0 Z " fill="black"/>
</svg>