<svg xmlns="http://www.w3.org/2000/svg" viewBox="0 0 1024 1536" width="100" height="100">
  <path d="M 449 1098 L 444 1103 L 444 1104 L 443 1105 L 443 1108 L 444 1109 L 444 1110 L 446 1112 L 447 1112 L 448 1113 L 452 1113 L 453 1112 L 454 1112 L 455 1111 L 456 1111 L 458 1109 L 458 1108 L 459 1107 L 459 1104 L 458 1103 L 458 1102 L 455 1099 L 454 1099 L 453 1098 Z M 525 1072 L 524 1073 L 523 1073 L 520 1076 L 520 1079 L 519 1080 L 519 1081 L 520 1082 L 520 1083 L 521 1084 L 521 1085 L 523 1087 L 524 1087 L 525 1088 L 526 1088 L 527 1089 L 532 1089 L 533 1088 L 534 1088 L 535 1087 L 535 1086 L 536 1085 L 536 1084 L 537 1083 L 537 1078 L 535 1076 L 535 1075 L 534 1075 L 532 1073 L 531 1073 L 530 1072 Z M 482 1049 L 481 1050 L 479 1050 L 478 1051 L 477 1051 L 472 1056 L 472 1057 L 471 1058 L 471 1064 L 475 1068 L 476 1068 L 477 1069 L 478 1069 L 479 1070 L 486 1070 L 487 1069 L 488 1069 L 492 1065 L 492 1063 L 493 1062 L 493 1056 L 492 1055 L 492 1054 L 489 1051 L 488 1051 L 487 1050 L 485 1050 L 484 1049 Z M 639 1043 L 638 1044 L 636 1044 L 635 1045 L 634 1045 L 628 1051 L 628 1052 L 627 1053 L 627 1060 L 628 1061 L 628 1062 L 632 1066 L 633 1066 L 635 1068 L 636 1068 L 637 1069 L 639 1069 L 640 1070 L 646 1070 L 647 1069 L 648 1069 L 653 1064 L 653 1063 L 654 1062 L 654 1060 L 655 1059 L 655 1051 L 654 1050 L 654 1049 L 650 1045 L 649 1045 L 648 1044 L 646 1044 L 645 1043 Z M 355 1036 L 354 1037 L 350 1037 L 349 1038 L 348 1038 L 347 1039 L 345 1039 L 344 1040 L 343 1040 L 342 1041 L 341 1041 L 340 1042 L 339 1042 L 337 1044 L 336 1044 L 332 1048 L 332 1055 L 334 1057 L 336 1057 L 337 1058 L 339 1058 L 340 1059 L 343 1059 L 344 1060 L 347 1060 L 348 1061 L 356 1061 L 357 1062 L 362 1062 L 363 1063 L 365 1063 L 366 1064 L 367 1064 L 368 1065 L 376 1065 L 377 1066 L 386 1066 L 387 1065 L 388 1065 L 389 1064 L 390 1064 L 391 1063 L 393 1063 L 394 1062 L 395 1062 L 397 1060 L 397 1059 L 398 1058 L 398 1056 L 396 1056 L 393 1053 L 392 1053 L 390 1051 L 389 1051 L 388 1050 L 387 1050 L 384 1047 L 383 1047 L 381 1045 L 381 1044 L 380 1043 L 380 1041 L 378 1039 L 378 1038 L 376 1036 Z M 539 1021 L 538 1022 L 537 1022 L 531 1028 L 531 1031 L 530 1032 L 530 1041 L 531 1042 L 531 1043 L 532 1044 L 532 1045 L 533 1046 L 534 1046 L 535 1047 L 536 1047 L 537 1048 L 539 1048 L 540 1049 L 544 1049 L 545 1050 L 551 1050 L 552 1051 L 560 1051 L 561 1052 L 566 1052 L 567 1051 L 568 1051 L 572 1047 L 572 1046 L 573 1045 L 573 1044 L 574 1043 L 574 1040 L 575 1039 L 575 1035 L 574 1034 L 574 1033 L 572 1031 L 571 1031 L 568 1028 L 567 1028 L 566 1027 L 565 1027 L 563 1025 L 561 1025 L 560 1024 L 559 1024 L 558 1023 L 556 1023 L 555 1022 L 552 1022 L 551 1021 Z M 595 1016 L 594 1017 L 595 1018 L 595 1019 L 596 1020 L 596 1023 L 597 1024 L 597 1025 L 599 1027 L 600 1027 L 601 1028 L 606 1028 L 607 1027 L 607 1026 L 608 1025 L 608 1020 L 606 1018 L 604 1018 L 603 1017 L 601 1017 L 600 1016 Z M 243 1010 L 242 1011 L 241 1011 L 240 1012 L 239 1012 L 238 1013 L 237 1013 L 234 1016 L 234 1017 L 233 1018 L 233 1024 L 236 1027 L 238 1027 L 239 1028 L 243 1028 L 244 1027 L 246 1027 L 247 1026 L 248 1026 L 249 1025 L 250 1025 L 254 1021 L 254 1019 L 255 1018 L 255 1015 L 254 1014 L 254 1013 L 252 1011 L 251 1011 L 250 1010 Z M 718 1000 L 717 1001 L 713 1001 L 712 1002 L 709 1002 L 708 1003 L 706 1003 L 705 1004 L 703 1004 L 702 1005 L 701 1005 L 700 1006 L 698 1006 L 697 1007 L 696 1007 L 695 1008 L 694 1008 L 693 1009 L 692 1009 L 686 1015 L 686 1016 L 685 1017 L 685 1021 L 689 1025 L 690 1025 L 692 1027 L 693 1027 L 694 1028 L 696 1028 L 697 1029 L 698 1029 L 699 1030 L 700 1030 L 701 1031 L 702 1031 L 703 1032 L 705 1032 L 706 1033 L 707 1033 L 708 1034 L 710 1034 L 711 1035 L 712 1035 L 713 1036 L 722 1036 L 723 1035 L 725 1035 L 726 1034 L 727 1034 L 728 1033 L 729 1033 L 730 1032 L 731 1032 L 732 1031 L 733 1031 L 734 1030 L 735 1030 L 737 1028 L 738 1028 L 740 1026 L 741 1026 L 744 1023 L 744 1021 L 743 1020 L 743 1019 L 742 1018 L 742 1017 L 740 1015 L 740 1014 L 736 1010 L 736 1009 L 727 1000 Z M 343 995 L 342 996 L 341 996 L 339 998 L 339 999 L 338 1000 L 338 1004 L 339 1005 L 339 1006 L 341 1008 L 346 1008 L 348 1006 L 348 1005 L 349 1004 L 349 996 L 348 995 Z M 438 988 L 437 989 L 435 989 L 432 992 L 431 992 L 430 993 L 430 994 L 428 996 L 428 997 L 426 999 L 426 1002 L 425 1003 L 425 1011 L 426 1012 L 426 1013 L 432 1019 L 433 1019 L 434 1020 L 435 1020 L 436 1021 L 438 1021 L 439 1022 L 443 1022 L 444 1023 L 448 1023 L 449 1022 L 453 1022 L 454 1021 L 455 1021 L 456 1020 L 457 1020 L 458 1019 L 459 1019 L 463 1015 L 463 1014 L 464 1013 L 464 1011 L 465 1010 L 465 1002 L 464 1001 L 464 1000 L 463 999 L 463 998 L 458 993 L 457 993 L 456 992 L 455 992 L 454 991 L 453 991 L 452 990 L 450 990 L 449 989 L 447 989 L 446 988 Z M 491 986 L 490 987 L 489 987 L 487 989 L 486 989 L 486 992 L 487 993 L 487 994 L 488 995 L 488 996 L 489 997 L 489 998 L 495 1004 L 497 1004 L 498 1005 L 504 1005 L 507 1002 L 507 1000 L 508 999 L 508 992 L 505 989 L 504 989 L 503 988 L 502 988 L 501 987 L 499 987 L 498 986 Z M 303 969 L 302 970 L 301 970 L 300 971 L 299 971 L 295 975 L 295 976 L 294 977 L 294 978 L 293 979 L 293 981 L 292 982 L 292 989 L 293 990 L 293 991 L 294 992 L 294 993 L 299 998 L 301 998 L 302 999 L 304 999 L 305 998 L 307 998 L 308 997 L 309 997 L 310 996 L 311 996 L 312 995 L 313 995 L 319 989 L 319 981 L 318 980 L 318 978 L 317 977 L 317 976 L 311 970 L 310 970 L 309 969 Z M 705 953 L 704 954 L 702 954 L 701 955 L 700 955 L 697 958 L 697 959 L 696 960 L 696 961 L 695 962 L 695 968 L 698 971 L 699 971 L 700 972 L 702 972 L 703 973 L 707 973 L 708 972 L 710 972 L 714 968 L 714 967 L 715 966 L 715 962 L 716 961 L 715 960 L 715 958 L 711 954 L 710 954 L 709 953 Z M 397 940 L 396 941 L 395 941 L 394 942 L 393 942 L 392 943 L 390 943 L 389 944 L 388 944 L 387 945 L 386 945 L 385 946 L 383 946 L 382 947 L 381 947 L 380 948 L 378 948 L 377 949 L 376 949 L 375 950 L 374 950 L 373 951 L 372 951 L 371 952 L 370 952 L 369 953 L 368 953 L 366 955 L 365 955 L 359 961 L 359 962 L 358 963 L 358 968 L 360 970 L 360 971 L 370 981 L 371 981 L 373 983 L 374 983 L 376 985 L 377 985 L 379 987 L 380 987 L 381 988 L 383 988 L 384 989 L 385 988 L 388 988 L 389 987 L 390 987 L 392 985 L 393 985 L 396 982 L 397 982 L 399 980 L 400 980 L 402 978 L 403 978 L 404 977 L 406 977 L 407 976 L 408 976 L 409 975 L 411 975 L 412 974 L 413 974 L 414 973 L 415 973 L 416 972 L 417 972 L 418 971 L 420 971 L 421 970 L 422 970 L 423 969 L 424 969 L 426 967 L 427 967 L 427 966 L 428 965 L 428 962 L 427 961 L 427 960 L 426 959 L 426 958 L 417 949 L 416 949 L 414 947 L 413 947 L 411 945 L 410 945 L 408 943 L 407 943 L 406 942 L 405 942 L 403 940 Z M 780 938 L 779 939 L 777 939 L 776 940 L 775 940 L 774 941 L 773 941 L 772 942 L 771 942 L 769 944 L 768 944 L 763 949 L 762 949 L 762 950 L 757 955 L 757 956 L 756 957 L 756 958 L 755 959 L 755 960 L 754 961 L 754 962 L 753 963 L 753 964 L 752 965 L 752 973 L 753 973 L 755 975 L 757 975 L 758 976 L 760 976 L 761 977 L 765 977 L 766 978 L 775 978 L 776 979 L 779 979 L 780 978 L 786 978 L 787 979 L 794 979 L 795 978 L 796 978 L 797 977 L 798 977 L 799 976 L 801 976 L 802 975 L 803 975 L 804 974 L 805 974 L 806 973 L 808 973 L 809 972 L 810 972 L 811 971 L 813 971 L 814 970 L 815 970 L 816 969 L 818 969 L 819 968 L 820 968 L 821 967 L 822 967 L 825 964 L 825 960 L 824 959 L 824 958 L 823 957 L 823 956 L 815 948 L 814 948 L 812 946 L 811 946 L 810 945 L 809 945 L 808 944 L 806 944 L 805 943 L 803 943 L 802 942 L 800 942 L 799 941 L 796 941 L 795 940 L 791 940 L 790 939 L 786 939 L 785 938 Z M 236 924 L 235 925 L 224 925 L 223 926 L 212 926 L 211 927 L 209 927 L 208 928 L 206 928 L 205 929 L 204 929 L 201 932 L 200 932 L 194 938 L 194 939 L 188 945 L 188 946 L 186 948 L 186 950 L 185 951 L 185 955 L 187 957 L 189 957 L 190 958 L 194 958 L 195 959 L 197 959 L 198 960 L 200 960 L 201 961 L 203 961 L 204 962 L 206 962 L 207 963 L 211 963 L 212 964 L 216 964 L 217 965 L 223 965 L 224 966 L 232 966 L 233 967 L 236 967 L 237 966 L 239 966 L 241 964 L 243 964 L 244 963 L 247 963 L 248 962 L 250 962 L 251 961 L 254 961 L 255 960 L 257 960 L 258 959 L 260 959 L 261 958 L 262 958 L 263 957 L 264 957 L 267 954 L 267 949 L 263 945 L 262 945 L 261 944 L 260 944 L 259 943 L 258 943 L 256 941 L 255 941 L 254 940 L 253 940 L 252 939 L 251 939 L 250 938 L 247 938 L 246 937 L 247 936 L 249 936 L 249 932 L 248 931 L 245 931 L 243 929 L 243 928 L 239 924 Z M 155 913 L 154 914 L 153 914 L 151 916 L 150 916 L 146 920 L 146 921 L 145 922 L 145 927 L 146 928 L 146 929 L 149 932 L 150 932 L 151 933 L 158 933 L 159 932 L 160 932 L 165 927 L 165 926 L 166 925 L 166 924 L 167 923 L 167 917 L 166 916 L 166 915 L 164 913 Z M 854 910 L 853 911 L 852 911 L 851 912 L 850 912 L 849 913 L 849 914 L 847 916 L 847 917 L 846 918 L 846 921 L 845 922 L 846 923 L 846 925 L 847 926 L 847 927 L 848 927 L 849 928 L 850 928 L 851 929 L 852 929 L 853 930 L 856 930 L 857 931 L 866 931 L 867 930 L 870 930 L 871 929 L 873 929 L 874 928 L 875 928 L 876 927 L 877 927 L 878 926 L 879 926 L 881 924 L 881 921 L 882 920 L 882 919 L 881 918 L 881 917 L 880 916 L 879 916 L 878 915 L 877 915 L 876 914 L 874 914 L 873 913 L 871 913 L 870 912 L 867 912 L 866 911 L 861 911 L 860 910 Z M 140 845 L 139 846 L 134 846 L 133 847 L 132 847 L 129 850 L 128 850 L 128 851 L 126 853 L 126 854 L 125 855 L 125 857 L 124 858 L 124 859 L 123 860 L 123 863 L 122 864 L 122 867 L 121 868 L 121 873 L 122 873 L 123 874 L 126 874 L 127 875 L 130 875 L 131 876 L 137 876 L 138 877 L 143 877 L 144 876 L 147 876 L 148 875 L 150 875 L 151 874 L 153 874 L 154 873 L 155 873 L 157 871 L 158 871 L 160 869 L 161 869 L 162 868 L 162 867 L 163 866 L 163 865 L 164 864 L 164 855 L 163 854 L 163 852 L 161 850 L 161 849 L 160 848 L 159 848 L 158 847 L 153 847 L 152 846 L 141 846 Z M 887 806 L 886 807 L 880 807 L 879 808 L 876 808 L 875 809 L 872 809 L 871 810 L 868 810 L 867 811 L 866 811 L 858 819 L 858 820 L 856 822 L 856 824 L 855 825 L 855 826 L 854 827 L 854 834 L 855 834 L 856 835 L 858 835 L 859 836 L 861 836 L 862 837 L 864 837 L 865 838 L 867 838 L 868 839 L 871 839 L 872 840 L 874 840 L 875 841 L 878 841 L 879 842 L 883 842 L 884 843 L 890 843 L 891 842 L 893 842 L 894 841 L 895 841 L 896 840 L 896 839 L 898 837 L 898 836 L 900 834 L 900 833 L 901 832 L 901 831 L 903 829 L 903 828 L 904 827 L 904 826 L 905 825 L 905 824 L 906 823 L 906 821 L 907 820 L 907 819 L 908 818 L 908 817 L 909 816 L 909 814 L 910 813 L 910 810 L 908 808 L 906 808 L 905 807 L 900 807 L 899 806 Z M 163 787 L 162 788 L 160 788 L 159 789 L 158 789 L 157 790 L 156 790 L 154 792 L 153 792 L 147 798 L 147 801 L 148 802 L 148 804 L 149 804 L 151 806 L 152 806 L 154 808 L 155 808 L 156 809 L 157 809 L 158 810 L 159 810 L 160 811 L 161 811 L 162 812 L 164 812 L 165 813 L 175 813 L 176 812 L 178 812 L 179 811 L 180 811 L 180 810 L 181 809 L 181 800 L 180 799 L 180 798 L 179 797 L 179 796 L 177 794 L 177 793 L 173 789 L 172 789 L 170 787 Z M 825 767 L 823 769 L 823 774 L 824 775 L 824 777 L 826 779 L 826 780 L 832 786 L 833 786 L 835 788 L 836 788 L 837 789 L 841 789 L 842 788 L 844 788 L 845 787 L 846 787 L 848 785 L 849 785 L 852 782 L 852 780 L 851 779 L 851 777 L 846 772 L 845 772 L 844 771 L 843 771 L 842 770 L 841 770 L 840 769 L 839 769 L 838 768 L 836 768 L 835 767 Z M 852 725 L 851 726 L 850 726 L 850 727 L 849 728 L 849 733 L 850 734 L 850 736 L 854 740 L 854 741 L 855 742 L 856 742 L 861 747 L 862 747 L 863 748 L 871 748 L 872 747 L 873 747 L 875 745 L 876 745 L 876 743 L 877 742 L 876 741 L 876 740 L 873 737 L 873 736 L 868 731 L 867 731 L 865 729 L 864 729 L 862 727 L 861 727 L 860 726 L 858 726 L 857 725 Z M 184 698 L 183 699 L 182 699 L 181 700 L 180 700 L 178 702 L 177 702 L 176 703 L 175 703 L 173 705 L 172 705 L 170 707 L 169 707 L 166 710 L 165 710 L 163 712 L 162 712 L 160 714 L 159 714 L 157 716 L 156 716 L 155 717 L 154 717 L 152 719 L 151 719 L 149 721 L 148 721 L 146 723 L 145 723 L 143 725 L 142 725 L 139 728 L 138 728 L 135 731 L 134 731 L 133 732 L 133 738 L 135 740 L 136 740 L 137 741 L 138 741 L 139 742 L 142 742 L 143 743 L 146 743 L 147 744 L 149 744 L 150 745 L 153 745 L 154 746 L 156 746 L 157 747 L 160 747 L 161 748 L 164 748 L 165 749 L 168 749 L 169 750 L 172 750 L 173 751 L 176 751 L 177 752 L 180 752 L 181 753 L 185 753 L 186 754 L 189 754 L 190 753 L 191 753 L 192 752 L 194 752 L 195 751 L 196 751 L 197 750 L 198 750 L 199 749 L 200 749 L 201 748 L 202 748 L 203 747 L 204 747 L 206 745 L 207 745 L 209 743 L 210 743 L 212 741 L 213 741 L 217 737 L 217 736 L 218 735 L 218 729 L 217 728 L 216 728 L 214 726 L 212 726 L 211 725 L 209 725 L 208 724 L 206 724 L 205 723 L 199 723 L 197 721 L 197 719 L 196 718 L 196 716 L 195 715 L 195 713 L 194 712 L 194 710 L 193 709 L 193 707 L 192 706 L 192 704 L 191 703 L 191 701 L 189 699 L 189 698 Z M 803 640 L 802 641 L 801 641 L 799 643 L 799 645 L 798 646 L 798 648 L 799 649 L 799 654 L 800 655 L 800 658 L 801 659 L 801 661 L 802 662 L 802 665 L 803 666 L 803 667 L 804 668 L 804 670 L 805 671 L 805 673 L 806 674 L 806 676 L 807 677 L 807 679 L 808 680 L 808 682 L 809 683 L 809 685 L 810 686 L 810 688 L 812 690 L 814 690 L 815 691 L 820 691 L 821 690 L 823 690 L 824 689 L 826 689 L 827 688 L 828 688 L 829 687 L 830 687 L 831 686 L 832 686 L 833 685 L 834 685 L 835 684 L 836 684 L 839 681 L 840 681 L 849 672 L 849 671 L 851 669 L 851 668 L 852 667 L 851 666 L 851 665 L 849 663 L 849 662 L 840 653 L 839 653 L 838 652 L 837 652 L 835 650 L 834 650 L 833 649 L 831 649 L 830 648 L 829 648 L 828 647 L 827 647 L 826 646 L 824 646 L 823 645 L 822 645 L 821 644 L 819 644 L 818 643 L 815 643 L 814 642 L 812 642 L 811 641 L 807 641 L 806 640 Z M 200 637 L 199 638 L 194 638 L 193 639 L 192 639 L 191 640 L 190 640 L 189 641 L 188 641 L 186 643 L 185 643 L 183 645 L 182 645 L 181 646 L 181 649 L 183 651 L 183 652 L 185 654 L 186 654 L 187 655 L 193 655 L 195 653 L 196 653 L 201 648 L 201 647 L 202 646 L 202 645 L 204 643 L 204 642 L 205 641 L 205 640 L 206 639 L 206 637 Z M 726 609 L 725 610 L 724 610 L 724 611 L 722 613 L 722 614 L 721 615 L 721 616 L 720 617 L 720 620 L 719 621 L 719 626 L 720 627 L 720 628 L 724 632 L 725 632 L 727 634 L 728 634 L 729 635 L 730 635 L 731 636 L 733 636 L 734 637 L 735 637 L 736 638 L 743 638 L 744 637 L 745 637 L 746 636 L 747 636 L 750 633 L 750 628 L 749 627 L 749 626 L 746 623 L 746 622 L 736 612 L 735 612 L 733 610 L 731 610 L 730 609 Z M 327 587 L 326 588 L 323 588 L 322 589 L 321 589 L 320 590 L 318 590 L 317 591 L 316 591 L 315 592 L 314 592 L 313 593 L 311 593 L 310 594 L 309 594 L 308 595 L 307 595 L 306 596 L 305 596 L 304 597 L 303 597 L 301 599 L 300 599 L 291 608 L 290 608 L 290 609 L 286 613 L 271 613 L 270 614 L 269 614 L 268 615 L 266 615 L 265 616 L 262 616 L 261 617 L 256 617 L 255 618 L 253 618 L 252 619 L 251 619 L 250 620 L 249 620 L 245 624 L 245 625 L 244 626 L 244 627 L 243 628 L 243 629 L 242 630 L 242 631 L 241 632 L 241 634 L 240 635 L 240 637 L 239 638 L 239 640 L 238 641 L 238 644 L 237 645 L 237 647 L 236 648 L 236 651 L 235 652 L 235 654 L 234 655 L 234 657 L 233 658 L 233 660 L 232 661 L 232 663 L 231 664 L 231 666 L 230 667 L 230 668 L 229 669 L 229 671 L 228 672 L 228 673 L 227 674 L 227 676 L 226 677 L 226 678 L 225 679 L 225 685 L 226 686 L 234 686 L 235 685 L 236 685 L 238 683 L 239 683 L 247 675 L 248 675 L 256 667 L 257 667 L 262 662 L 263 662 L 266 659 L 267 659 L 268 658 L 269 658 L 270 657 L 271 657 L 273 655 L 274 655 L 276 657 L 276 659 L 275 660 L 275 661 L 274 662 L 274 663 L 273 664 L 273 665 L 272 666 L 272 667 L 270 669 L 270 671 L 269 672 L 269 673 L 268 674 L 268 676 L 267 677 L 267 684 L 276 684 L 277 683 L 280 683 L 281 682 L 283 682 L 284 681 L 285 681 L 286 680 L 287 680 L 288 679 L 290 679 L 291 678 L 292 678 L 293 677 L 294 677 L 296 675 L 297 675 L 298 674 L 299 674 L 300 673 L 302 673 L 303 672 L 304 672 L 305 671 L 307 671 L 308 670 L 311 670 L 312 669 L 315 669 L 316 668 L 320 668 L 321 667 L 336 667 L 337 666 L 338 666 L 339 665 L 340 665 L 341 664 L 342 664 L 343 663 L 344 663 L 349 658 L 349 656 L 348 655 L 348 654 L 347 653 L 347 652 L 345 650 L 345 649 L 344 648 L 344 647 L 342 645 L 342 644 L 340 642 L 340 641 L 338 639 L 338 638 L 337 637 L 337 636 L 336 635 L 336 634 L 335 633 L 335 632 L 334 631 L 334 630 L 333 629 L 333 622 L 334 621 L 334 604 L 333 603 L 333 591 L 332 590 L 332 588 L 331 587 Z M 741 559 L 740 560 L 739 560 L 738 561 L 737 561 L 735 563 L 734 563 L 724 573 L 724 574 L 722 576 L 722 577 L 721 578 L 721 579 L 720 580 L 720 583 L 721 584 L 721 587 L 722 588 L 722 589 L 723 589 L 724 590 L 725 590 L 726 591 L 728 591 L 729 592 L 757 592 L 758 591 L 763 591 L 764 590 L 767 590 L 768 589 L 771 589 L 772 588 L 774 588 L 775 587 L 777 587 L 779 585 L 779 582 L 771 574 L 770 574 L 767 571 L 766 571 L 764 569 L 763 569 L 761 567 L 760 567 L 758 565 L 757 565 L 755 563 L 754 563 L 753 562 L 752 562 L 751 561 L 750 561 L 749 560 L 748 560 L 747 559 Z M 543 553 L 539 557 L 539 558 L 538 559 L 538 560 L 537 561 L 537 563 L 536 564 L 536 566 L 535 567 L 535 574 L 537 576 L 539 576 L 540 577 L 543 577 L 544 578 L 557 578 L 559 576 L 559 574 L 560 573 L 560 570 L 559 569 L 559 567 L 558 566 L 558 565 L 556 563 L 556 562 L 553 559 L 553 558 L 548 553 Z M 248 550 L 247 551 L 246 551 L 244 553 L 243 553 L 239 557 L 239 560 L 240 561 L 240 563 L 241 564 L 241 565 L 257 581 L 258 581 L 259 582 L 260 582 L 261 583 L 262 583 L 263 584 L 265 584 L 266 585 L 272 585 L 273 584 L 274 584 L 275 583 L 276 583 L 276 582 L 277 581 L 277 575 L 276 574 L 276 573 L 274 571 L 274 570 L 272 568 L 272 567 L 270 565 L 270 564 L 260 554 L 259 554 L 256 551 L 254 551 L 253 550 Z M 561 497 L 560 498 L 559 498 L 554 503 L 554 504 L 553 505 L 553 512 L 554 513 L 554 514 L 557 517 L 558 517 L 559 518 L 565 518 L 566 517 L 566 515 L 567 514 L 567 512 L 568 511 L 568 501 L 567 500 L 567 497 Z M 617 495 L 616 496 L 613 496 L 612 497 L 610 497 L 609 498 L 608 498 L 604 502 L 603 502 L 601 504 L 600 504 L 596 508 L 595 508 L 580 523 L 580 524 L 578 526 L 578 527 L 576 529 L 576 530 L 575 531 L 575 532 L 574 533 L 574 534 L 573 535 L 573 536 L 572 537 L 572 547 L 573 548 L 573 549 L 574 550 L 574 551 L 575 552 L 575 553 L 576 554 L 576 555 L 578 557 L 578 558 L 580 560 L 580 561 L 581 562 L 582 562 L 583 563 L 589 563 L 590 562 L 597 562 L 598 561 L 602 561 L 603 560 L 607 560 L 608 559 L 611 559 L 612 558 L 615 558 L 616 557 L 618 557 L 619 556 L 621 556 L 622 555 L 624 555 L 625 554 L 627 554 L 628 553 L 630 553 L 631 552 L 633 552 L 634 551 L 636 551 L 637 550 L 638 550 L 641 547 L 641 544 L 640 543 L 640 542 L 637 539 L 636 539 L 633 536 L 637 532 L 639 532 L 640 531 L 641 531 L 642 530 L 643 530 L 644 529 L 645 529 L 646 528 L 647 528 L 649 526 L 650 526 L 651 525 L 652 525 L 658 519 L 658 517 L 659 516 L 659 512 L 657 512 L 656 511 L 655 511 L 653 509 L 652 509 L 651 508 L 650 508 L 649 507 L 648 507 L 647 506 L 646 506 L 645 505 L 644 505 L 642 503 L 641 503 L 640 502 L 639 502 L 638 501 L 637 501 L 636 500 L 635 500 L 634 499 L 633 499 L 632 498 L 631 498 L 630 497 L 629 497 L 628 496 L 626 496 L 625 495 Z M 686 478 L 683 481 L 683 493 L 684 494 L 684 496 L 685 497 L 685 498 L 686 499 L 686 500 L 687 501 L 687 502 L 690 505 L 690 506 L 693 509 L 694 509 L 695 510 L 700 510 L 700 509 L 701 508 L 701 504 L 700 503 L 700 500 L 699 499 L 699 496 L 698 495 L 698 492 L 697 491 L 697 489 L 696 488 L 696 487 L 695 486 L 695 484 L 693 482 L 693 481 L 692 480 L 691 480 L 689 478 Z M 347 478 L 346 479 L 345 479 L 343 481 L 343 482 L 340 485 L 340 486 L 339 487 L 339 488 L 338 489 L 338 490 L 337 491 L 337 492 L 336 493 L 336 494 L 335 495 L 335 496 L 334 497 L 334 498 L 332 500 L 332 501 L 331 502 L 331 503 L 330 504 L 330 505 L 328 507 L 328 508 L 326 510 L 326 511 L 323 514 L 323 515 L 312 526 L 311 526 L 298 539 L 298 541 L 299 542 L 299 544 L 298 545 L 298 546 L 299 547 L 299 549 L 301 551 L 313 551 L 314 550 L 318 550 L 319 549 L 322 549 L 323 548 L 326 548 L 327 547 L 331 547 L 332 546 L 335 546 L 336 545 L 339 545 L 340 544 L 343 544 L 344 543 L 346 543 L 347 542 L 349 542 L 350 541 L 352 541 L 353 540 L 354 540 L 355 539 L 357 539 L 358 538 L 360 538 L 361 537 L 362 537 L 363 536 L 363 518 L 362 517 L 362 511 L 361 510 L 361 505 L 360 504 L 360 499 L 359 498 L 359 491 L 358 490 L 358 488 L 357 487 L 357 485 L 355 483 L 355 482 L 351 478 Z M 504 439 L 503 440 L 502 440 L 499 443 L 498 443 L 496 445 L 495 445 L 486 454 L 485 454 L 481 458 L 480 458 L 478 460 L 477 460 L 475 462 L 474 462 L 472 464 L 471 464 L 470 465 L 469 465 L 467 467 L 466 467 L 465 468 L 464 468 L 463 469 L 462 469 L 460 471 L 459 471 L 458 472 L 457 472 L 455 474 L 454 474 L 453 475 L 452 475 L 446 481 L 446 482 L 444 484 L 444 487 L 443 488 L 443 499 L 442 500 L 442 501 L 439 504 L 438 503 L 436 503 L 435 502 L 434 502 L 429 497 L 428 497 L 427 496 L 426 496 L 425 495 L 424 495 L 423 494 L 422 494 L 420 496 L 420 497 L 419 498 L 419 499 L 418 500 L 418 501 L 417 502 L 417 504 L 416 505 L 416 507 L 415 508 L 415 509 L 414 510 L 414 511 L 413 512 L 413 514 L 412 515 L 412 516 L 411 517 L 411 519 L 410 520 L 410 521 L 409 522 L 409 524 L 408 525 L 408 527 L 407 528 L 407 530 L 406 531 L 406 549 L 407 550 L 407 555 L 408 556 L 408 566 L 405 569 L 404 569 L 403 568 L 400 568 L 399 567 L 397 567 L 396 566 L 395 566 L 394 565 L 392 565 L 391 564 L 390 564 L 389 563 L 388 563 L 387 562 L 385 562 L 384 561 L 383 561 L 382 560 L 381 560 L 380 559 L 378 559 L 377 558 L 376 558 L 375 559 L 374 559 L 370 563 L 370 564 L 369 565 L 369 566 L 368 567 L 368 570 L 367 571 L 367 577 L 368 578 L 368 580 L 370 582 L 370 583 L 371 584 L 372 584 L 373 585 L 374 585 L 375 586 L 376 586 L 379 589 L 379 591 L 378 592 L 378 593 L 367 604 L 366 604 L 362 608 L 362 609 L 360 611 L 360 612 L 359 613 L 359 617 L 358 618 L 358 623 L 359 624 L 359 625 L 358 626 L 359 627 L 366 627 L 367 628 L 369 628 L 370 627 L 375 627 L 376 626 L 380 626 L 381 625 L 384 625 L 385 624 L 388 624 L 389 623 L 393 623 L 394 622 L 397 622 L 398 621 L 402 621 L 403 622 L 405 622 L 406 623 L 406 624 L 407 625 L 407 631 L 406 632 L 406 636 L 405 637 L 405 639 L 404 640 L 404 642 L 403 643 L 403 646 L 404 647 L 405 647 L 406 648 L 407 648 L 410 651 L 410 654 L 409 655 L 409 656 L 403 662 L 402 662 L 400 664 L 399 664 L 397 666 L 391 666 L 390 665 L 389 665 L 388 664 L 387 664 L 385 662 L 385 661 L 382 658 L 382 657 L 381 656 L 380 656 L 378 654 L 378 653 L 374 649 L 370 649 L 369 650 L 369 651 L 368 652 L 368 653 L 367 654 L 367 663 L 370 666 L 370 669 L 369 670 L 369 671 L 368 672 L 367 672 L 366 673 L 365 673 L 364 674 L 362 674 L 361 675 L 359 675 L 358 676 L 356 676 L 355 677 L 354 677 L 353 678 L 352 678 L 342 688 L 342 689 L 339 692 L 339 693 L 335 697 L 335 698 L 327 706 L 321 706 L 317 702 L 317 697 L 316 696 L 316 695 L 313 692 L 313 691 L 311 689 L 310 689 L 309 688 L 308 688 L 307 687 L 303 687 L 302 688 L 300 688 L 297 691 L 297 692 L 295 694 L 295 695 L 294 696 L 294 697 L 293 698 L 293 699 L 292 700 L 292 701 L 291 702 L 291 703 L 290 704 L 290 706 L 289 707 L 289 708 L 286 711 L 285 711 L 284 712 L 281 712 L 280 713 L 279 713 L 278 712 L 264 712 L 263 711 L 249 711 L 248 712 L 245 712 L 244 713 L 242 713 L 241 714 L 240 714 L 240 719 L 241 720 L 244 720 L 245 721 L 248 721 L 249 722 L 253 722 L 254 723 L 257 723 L 258 724 L 262 724 L 263 725 L 267 725 L 268 726 L 272 726 L 273 727 L 275 727 L 276 726 L 278 726 L 279 727 L 279 730 L 278 731 L 278 735 L 277 736 L 277 738 L 276 739 L 276 741 L 275 742 L 275 744 L 274 745 L 274 747 L 273 748 L 272 748 L 272 749 L 271 750 L 265 750 L 264 751 L 258 751 L 257 752 L 253 752 L 252 753 L 248 753 L 247 754 L 243 754 L 242 755 L 231 755 L 230 756 L 227 756 L 226 757 L 225 757 L 220 762 L 220 763 L 203 780 L 202 780 L 201 781 L 201 782 L 200 783 L 200 787 L 201 788 L 201 789 L 202 789 L 203 790 L 204 790 L 206 792 L 207 792 L 208 793 L 209 793 L 211 795 L 212 795 L 213 796 L 214 796 L 215 797 L 216 797 L 217 798 L 218 798 L 219 799 L 220 799 L 221 800 L 222 800 L 223 801 L 224 801 L 225 802 L 226 802 L 227 803 L 229 803 L 231 805 L 232 805 L 237 810 L 237 811 L 233 815 L 232 815 L 231 816 L 230 816 L 229 817 L 226 817 L 225 818 L 222 818 L 221 819 L 219 819 L 218 820 L 216 820 L 215 821 L 213 821 L 212 822 L 211 822 L 210 823 L 209 823 L 208 824 L 207 824 L 205 826 L 204 826 L 200 830 L 199 830 L 197 832 L 197 833 L 193 837 L 193 838 L 190 841 L 190 842 L 189 843 L 189 844 L 188 845 L 188 850 L 190 852 L 201 852 L 202 853 L 203 853 L 204 854 L 205 854 L 206 855 L 207 855 L 210 858 L 210 861 L 206 865 L 205 865 L 204 866 L 203 866 L 202 867 L 201 867 L 200 868 L 199 868 L 198 869 L 197 869 L 196 870 L 195 870 L 194 871 L 192 871 L 191 872 L 190 872 L 189 873 L 188 873 L 186 875 L 185 875 L 183 877 L 182 877 L 180 879 L 180 880 L 179 881 L 179 882 L 178 883 L 178 884 L 179 885 L 179 889 L 180 890 L 181 890 L 182 891 L 198 891 L 199 890 L 206 890 L 207 889 L 212 889 L 213 888 L 217 888 L 218 887 L 221 887 L 222 886 L 223 886 L 224 885 L 225 885 L 225 884 L 232 877 L 233 877 L 236 874 L 237 874 L 238 873 L 239 873 L 240 872 L 242 872 L 243 871 L 244 871 L 245 870 L 250 870 L 251 871 L 252 871 L 255 874 L 254 875 L 254 877 L 253 878 L 253 879 L 247 885 L 247 886 L 246 887 L 246 888 L 245 889 L 245 890 L 244 891 L 244 894 L 243 895 L 243 896 L 244 897 L 244 899 L 245 900 L 245 901 L 246 902 L 246 906 L 247 906 L 248 907 L 249 907 L 250 908 L 251 908 L 252 909 L 253 909 L 254 910 L 256 910 L 257 911 L 259 911 L 260 910 L 264 910 L 265 909 L 270 909 L 271 908 L 275 908 L 276 907 L 279 907 L 280 906 L 282 906 L 283 905 L 285 905 L 286 904 L 288 904 L 289 903 L 291 903 L 292 902 L 294 902 L 296 904 L 296 905 L 297 906 L 297 910 L 296 911 L 296 912 L 294 914 L 294 915 L 292 917 L 292 918 L 287 923 L 287 926 L 286 927 L 286 929 L 287 930 L 287 931 L 288 931 L 289 932 L 290 932 L 291 933 L 293 933 L 294 934 L 297 934 L 298 935 L 303 935 L 304 934 L 306 934 L 307 933 L 308 933 L 309 932 L 310 932 L 311 931 L 313 931 L 314 930 L 315 930 L 316 929 L 317 929 L 318 928 L 319 928 L 320 927 L 321 927 L 322 926 L 324 926 L 327 929 L 327 931 L 328 932 L 328 940 L 329 941 L 329 942 L 336 942 L 337 941 L 338 941 L 346 933 L 346 932 L 347 931 L 347 930 L 348 929 L 348 928 L 349 927 L 349 926 L 354 921 L 357 921 L 358 920 L 380 920 L 381 919 L 384 919 L 385 918 L 387 918 L 388 917 L 390 917 L 391 916 L 394 916 L 395 917 L 397 917 L 398 918 L 400 918 L 401 919 L 403 919 L 404 920 L 405 920 L 406 921 L 408 921 L 409 922 L 410 922 L 411 923 L 413 923 L 414 924 L 416 924 L 417 925 L 419 925 L 420 926 L 422 926 L 423 927 L 426 927 L 427 928 L 430 928 L 431 929 L 435 929 L 436 928 L 438 928 L 439 927 L 440 927 L 441 926 L 443 926 L 444 925 L 445 925 L 446 924 L 447 924 L 448 923 L 450 923 L 451 922 L 455 922 L 458 925 L 459 925 L 468 934 L 468 935 L 469 936 L 469 937 L 464 942 L 463 942 L 462 943 L 461 943 L 459 945 L 458 945 L 457 946 L 456 946 L 456 953 L 458 955 L 458 957 L 459 957 L 461 959 L 463 959 L 464 960 L 468 960 L 469 961 L 474 961 L 475 962 L 480 962 L 481 963 L 485 963 L 486 964 L 490 964 L 491 965 L 495 965 L 496 966 L 500 966 L 501 967 L 504 967 L 505 968 L 508 968 L 509 969 L 515 969 L 516 970 L 517 969 L 528 969 L 529 968 L 533 968 L 534 967 L 536 967 L 537 966 L 538 966 L 538 965 L 539 964 L 538 963 L 538 955 L 537 954 L 537 952 L 536 951 L 536 949 L 535 948 L 535 946 L 534 945 L 534 944 L 533 943 L 533 941 L 532 940 L 532 938 L 534 936 L 540 936 L 541 937 L 543 937 L 544 938 L 546 938 L 547 939 L 549 939 L 550 940 L 551 940 L 552 941 L 555 941 L 556 942 L 557 942 L 558 943 L 561 943 L 562 944 L 566 944 L 567 945 L 574 945 L 575 946 L 585 946 L 587 948 L 587 950 L 585 952 L 585 953 L 564 974 L 563 974 L 562 975 L 562 983 L 561 984 L 561 985 L 560 986 L 560 992 L 561 992 L 562 993 L 570 993 L 571 994 L 581 994 L 582 995 L 595 995 L 596 996 L 604 996 L 605 997 L 612 997 L 613 998 L 619 998 L 620 999 L 642 999 L 643 998 L 648 998 L 649 997 L 652 997 L 653 996 L 653 989 L 652 988 L 652 987 L 648 983 L 648 982 L 643 977 L 643 976 L 640 973 L 640 972 L 639 971 L 639 968 L 638 968 L 637 967 L 637 966 L 638 965 L 638 964 L 643 959 L 643 958 L 645 956 L 659 956 L 660 955 L 661 955 L 665 951 L 665 950 L 666 949 L 666 948 L 667 947 L 667 945 L 668 944 L 668 940 L 665 937 L 664 937 L 663 936 L 660 936 L 659 935 L 657 935 L 656 934 L 655 934 L 653 932 L 649 932 L 648 933 L 642 933 L 641 932 L 638 932 L 637 931 L 635 931 L 634 930 L 631 930 L 630 929 L 626 929 L 625 928 L 623 928 L 619 924 L 619 921 L 623 917 L 624 917 L 626 915 L 627 915 L 628 914 L 630 914 L 631 913 L 632 913 L 634 911 L 635 911 L 637 909 L 638 910 L 640 910 L 641 909 L 644 909 L 646 907 L 646 906 L 647 905 L 648 906 L 649 906 L 652 909 L 653 909 L 655 911 L 656 911 L 659 914 L 660 914 L 662 916 L 663 916 L 665 918 L 666 918 L 667 919 L 668 919 L 669 920 L 670 920 L 671 921 L 672 921 L 673 922 L 676 922 L 677 923 L 681 923 L 682 924 L 687 924 L 688 925 L 701 925 L 702 926 L 705 926 L 706 927 L 708 927 L 709 928 L 713 928 L 714 929 L 728 929 L 729 928 L 733 928 L 734 927 L 734 924 L 735 923 L 735 918 L 734 917 L 734 911 L 733 910 L 733 909 L 732 908 L 732 906 L 729 903 L 728 903 L 718 893 L 718 892 L 717 891 L 717 887 L 718 886 L 720 886 L 721 887 L 722 887 L 723 888 L 724 888 L 725 889 L 726 889 L 727 890 L 728 890 L 729 891 L 730 891 L 732 893 L 733 893 L 734 894 L 735 894 L 736 895 L 737 895 L 738 896 L 739 896 L 740 897 L 741 897 L 742 898 L 745 898 L 746 899 L 748 899 L 749 900 L 752 900 L 753 901 L 756 901 L 757 902 L 761 902 L 762 903 L 764 903 L 765 904 L 768 904 L 769 905 L 771 905 L 772 906 L 774 906 L 775 907 L 777 907 L 778 908 L 780 908 L 781 909 L 783 909 L 784 910 L 788 910 L 789 909 L 789 907 L 790 906 L 790 901 L 789 900 L 789 897 L 792 894 L 793 894 L 794 893 L 797 893 L 798 892 L 801 892 L 802 891 L 804 891 L 805 890 L 826 890 L 827 889 L 829 889 L 830 888 L 832 888 L 833 887 L 834 887 L 835 886 L 836 886 L 837 885 L 838 885 L 839 884 L 841 884 L 842 883 L 843 883 L 844 882 L 845 882 L 846 881 L 847 881 L 848 880 L 849 880 L 850 879 L 851 879 L 852 878 L 853 878 L 854 877 L 855 877 L 856 876 L 857 876 L 860 873 L 860 870 L 858 868 L 857 868 L 854 865 L 853 865 L 852 864 L 851 864 L 849 862 L 848 862 L 847 861 L 845 861 L 844 860 L 843 860 L 842 859 L 841 859 L 840 858 L 839 858 L 838 857 L 837 857 L 836 856 L 835 856 L 834 855 L 833 855 L 831 853 L 830 853 L 829 852 L 828 852 L 826 850 L 825 850 L 823 848 L 822 848 L 819 845 L 818 845 L 815 842 L 815 841 L 814 840 L 814 837 L 815 836 L 816 836 L 817 835 L 819 835 L 820 834 L 821 834 L 822 833 L 823 833 L 825 831 L 826 831 L 830 827 L 829 826 L 829 816 L 828 815 L 828 814 L 827 814 L 826 813 L 813 813 L 812 814 L 808 814 L 807 813 L 807 812 L 808 811 L 807 810 L 807 800 L 806 799 L 806 796 L 805 795 L 805 794 L 803 792 L 803 791 L 801 789 L 800 789 L 799 788 L 793 788 L 792 789 L 791 789 L 789 791 L 788 791 L 784 795 L 783 795 L 781 797 L 780 797 L 778 799 L 777 799 L 776 800 L 773 800 L 772 799 L 772 798 L 771 797 L 771 795 L 770 794 L 770 789 L 769 788 L 769 786 L 770 785 L 770 779 L 768 777 L 768 772 L 767 771 L 766 771 L 765 770 L 759 770 L 758 769 L 756 769 L 755 768 L 753 768 L 752 767 L 751 767 L 750 768 L 749 768 L 747 766 L 746 766 L 745 765 L 744 765 L 743 764 L 743 761 L 744 760 L 744 759 L 745 758 L 745 757 L 753 749 L 753 748 L 756 745 L 760 745 L 761 746 L 762 746 L 763 747 L 764 747 L 765 748 L 766 748 L 767 749 L 768 749 L 770 751 L 771 751 L 772 752 L 773 752 L 774 753 L 775 753 L 776 754 L 777 754 L 778 755 L 779 755 L 780 756 L 784 756 L 785 755 L 788 755 L 789 754 L 791 754 L 792 753 L 794 753 L 795 752 L 796 752 L 797 751 L 798 751 L 799 750 L 801 750 L 802 749 L 803 749 L 804 748 L 805 748 L 806 747 L 808 747 L 809 746 L 810 746 L 811 745 L 812 745 L 813 744 L 814 744 L 815 743 L 817 743 L 818 742 L 819 742 L 820 741 L 820 738 L 818 736 L 818 735 L 815 732 L 814 732 L 813 731 L 812 731 L 811 730 L 810 730 L 809 729 L 806 729 L 805 728 L 799 728 L 798 727 L 796 727 L 794 725 L 794 724 L 792 722 L 792 721 L 791 720 L 791 719 L 790 718 L 790 717 L 789 716 L 789 715 L 788 714 L 788 713 L 787 712 L 787 711 L 786 710 L 786 709 L 785 708 L 785 706 L 784 705 L 784 704 L 783 703 L 783 702 L 782 701 L 782 699 L 781 698 L 781 696 L 780 695 L 780 693 L 779 692 L 779 690 L 778 689 L 778 688 L 777 687 L 777 685 L 776 684 L 776 682 L 775 681 L 775 679 L 774 678 L 774 677 L 773 676 L 773 673 L 771 671 L 771 670 L 770 669 L 770 668 L 767 665 L 766 665 L 765 664 L 760 664 L 759 665 L 757 665 L 756 666 L 755 666 L 754 667 L 753 667 L 752 668 L 751 668 L 750 669 L 749 669 L 747 671 L 746 671 L 745 672 L 744 672 L 743 673 L 742 673 L 741 674 L 740 674 L 739 675 L 738 675 L 737 676 L 735 676 L 733 678 L 733 681 L 734 682 L 734 689 L 730 693 L 725 693 L 724 694 L 721 694 L 720 693 L 718 693 L 717 692 L 716 692 L 715 691 L 714 691 L 713 690 L 711 690 L 710 689 L 709 689 L 707 687 L 706 687 L 705 686 L 704 686 L 703 685 L 704 684 L 704 683 L 708 679 L 708 678 L 709 677 L 709 676 L 710 675 L 710 674 L 711 673 L 711 671 L 712 670 L 712 667 L 713 666 L 713 660 L 714 659 L 714 647 L 713 646 L 713 645 L 707 639 L 706 639 L 703 636 L 702 636 L 701 635 L 700 635 L 699 634 L 698 634 L 697 633 L 696 633 L 694 631 L 693 631 L 692 630 L 691 630 L 690 629 L 689 629 L 687 627 L 686 627 L 683 624 L 682 624 L 678 620 L 677 620 L 676 619 L 676 618 L 678 616 L 679 616 L 680 617 L 683 614 L 684 614 L 685 613 L 686 613 L 687 612 L 688 612 L 689 611 L 689 600 L 688 599 L 688 592 L 687 591 L 687 586 L 686 585 L 686 583 L 685 582 L 685 580 L 684 579 L 684 578 L 683 577 L 683 575 L 682 574 L 682 573 L 681 572 L 681 571 L 680 570 L 680 569 L 679 568 L 679 567 L 678 566 L 678 565 L 677 564 L 677 562 L 676 561 L 676 558 L 675 557 L 675 556 L 674 555 L 669 555 L 666 558 L 665 558 L 659 564 L 659 565 L 655 569 L 654 569 L 650 573 L 649 573 L 645 577 L 644 577 L 640 581 L 639 581 L 630 590 L 626 590 L 621 585 L 620 585 L 617 582 L 616 582 L 614 580 L 612 580 L 611 579 L 608 579 L 607 580 L 606 580 L 605 581 L 605 582 L 604 583 L 604 585 L 602 587 L 600 587 L 599 586 L 598 586 L 596 584 L 594 584 L 593 583 L 585 583 L 584 584 L 583 584 L 581 586 L 581 591 L 582 592 L 582 594 L 583 595 L 583 597 L 584 598 L 584 600 L 585 601 L 585 604 L 586 605 L 586 616 L 587 617 L 587 618 L 583 622 L 581 620 L 581 618 L 578 618 L 577 617 L 575 617 L 574 616 L 570 616 L 569 615 L 558 615 L 557 614 L 553 614 L 550 611 L 550 610 L 549 609 L 549 607 L 550 606 L 550 604 L 551 603 L 551 599 L 552 598 L 552 597 L 553 596 L 553 594 L 552 593 L 552 592 L 549 592 L 548 591 L 546 591 L 544 593 L 541 593 L 540 594 L 533 594 L 532 593 L 522 593 L 521 592 L 516 592 L 515 591 L 502 591 L 501 592 L 491 592 L 490 591 L 487 591 L 485 589 L 486 588 L 486 587 L 488 585 L 489 585 L 491 583 L 492 583 L 493 582 L 494 582 L 495 581 L 497 581 L 498 580 L 500 580 L 501 579 L 503 579 L 504 578 L 505 578 L 506 577 L 508 577 L 509 576 L 510 576 L 511 575 L 513 575 L 514 574 L 515 574 L 519 570 L 519 569 L 520 568 L 520 567 L 521 566 L 521 565 L 522 564 L 522 563 L 523 562 L 523 561 L 524 560 L 524 559 L 525 558 L 525 557 L 526 556 L 526 553 L 527 552 L 527 550 L 528 549 L 528 547 L 529 546 L 529 544 L 530 543 L 530 542 L 531 541 L 531 540 L 532 539 L 532 537 L 533 536 L 533 535 L 534 534 L 534 532 L 535 531 L 535 529 L 536 528 L 536 523 L 537 522 L 537 510 L 538 509 L 538 502 L 539 501 L 539 495 L 529 495 L 528 496 L 527 496 L 526 495 L 525 495 L 524 494 L 523 494 L 522 493 L 522 490 L 521 489 L 521 483 L 520 482 L 520 478 L 519 477 L 519 457 L 518 456 L 518 455 L 516 455 L 515 456 L 513 456 L 506 463 L 505 463 L 504 462 L 504 461 L 503 460 L 503 452 L 504 451 L 504 449 L 505 448 L 505 446 L 506 445 L 506 443 L 507 442 L 507 439 Z M 558 419 L 557 420 L 557 421 L 556 422 L 556 423 L 555 424 L 555 437 L 556 438 L 556 440 L 557 441 L 557 443 L 558 444 L 558 445 L 561 448 L 561 449 L 567 455 L 568 455 L 571 458 L 572 458 L 573 459 L 576 459 L 578 457 L 578 456 L 580 454 L 580 453 L 581 452 L 581 451 L 583 449 L 583 448 L 584 447 L 584 445 L 585 444 L 585 442 L 586 441 L 586 439 L 587 438 L 587 432 L 585 430 L 585 429 L 584 429 L 582 427 L 581 427 L 580 426 L 579 426 L 578 425 L 577 425 L 576 424 L 575 424 L 574 423 L 572 423 L 571 422 L 570 422 L 569 421 L 568 421 L 567 420 L 566 420 L 565 419 Z M 407 415 L 402 420 L 402 423 L 404 425 L 404 426 L 407 429 L 407 430 L 409 432 L 409 433 L 410 434 L 410 435 L 411 436 L 411 437 L 412 438 L 412 440 L 413 441 L 413 442 L 414 443 L 414 445 L 415 446 L 415 447 L 416 448 L 416 450 L 418 452 L 419 452 L 420 453 L 427 453 L 428 452 L 429 452 L 430 451 L 431 451 L 432 450 L 433 450 L 434 449 L 435 449 L 436 448 L 437 448 L 441 444 L 441 435 L 440 434 L 440 429 L 437 426 L 434 426 L 433 425 L 430 425 L 429 424 L 427 424 L 426 423 L 425 423 L 423 421 L 422 421 L 421 420 L 420 420 L 419 419 L 417 419 L 416 418 L 415 418 L 414 417 L 412 417 L 411 416 L 409 416 L 408 415 Z " fill="black"/>
</svg>