<svg xmlns="http://www.w3.org/2000/svg" viewBox="0 0 1024 1536" width="100" height="100">
  <path d="M 231 184 L 232 185 L 232 186 L 234 188 L 234 189 L 237 192 L 237 193 L 240 196 L 240 197 L 245 202 L 245 203 L 249 207 L 249 208 L 252 211 L 252 212 L 254 214 L 254 215 L 257 218 L 257 219 L 259 221 L 259 222 L 261 224 L 261 225 L 263 227 L 263 228 L 264 229 L 264 230 L 266 232 L 266 233 L 267 234 L 267 235 L 269 237 L 269 238 L 270 239 L 270 240 L 272 242 L 271 243 L 269 243 L 268 242 L 267 242 L 266 241 L 264 241 L 263 240 L 261 240 L 260 239 L 259 239 L 258 238 L 256 238 L 255 237 L 252 237 L 251 236 L 249 236 L 248 235 L 246 235 L 245 234 L 242 234 L 241 233 L 237 233 L 236 232 L 232 232 L 231 231 L 221 231 L 220 230 L 220 231 L 221 231 L 222 232 L 223 232 L 224 233 L 225 233 L 226 234 L 227 234 L 228 235 L 229 235 L 230 236 L 231 236 L 232 237 L 233 237 L 234 238 L 235 238 L 236 239 L 237 239 L 238 240 L 239 240 L 240 241 L 241 241 L 243 243 L 244 243 L 245 244 L 246 244 L 247 245 L 248 245 L 250 247 L 251 247 L 252 248 L 253 248 L 254 249 L 255 249 L 257 251 L 258 251 L 260 253 L 261 253 L 263 255 L 264 255 L 266 257 L 267 257 L 270 260 L 271 260 L 275 264 L 276 264 L 279 267 L 278 268 L 274 268 L 273 267 L 258 267 L 257 268 L 251 268 L 250 269 L 247 269 L 246 270 L 244 270 L 243 271 L 241 271 L 240 272 L 239 272 L 238 273 L 237 273 L 235 275 L 234 275 L 234 276 L 237 276 L 238 275 L 252 275 L 253 276 L 260 276 L 261 277 L 266 277 L 267 278 L 270 278 L 271 279 L 274 279 L 275 280 L 276 280 L 277 281 L 279 281 L 280 282 L 282 282 L 283 283 L 284 283 L 285 284 L 286 284 L 288 286 L 289 286 L 293 290 L 293 291 L 296 294 L 296 295 L 299 298 L 299 299 L 301 301 L 301 302 L 302 303 L 302 304 L 304 306 L 304 307 L 306 309 L 306 310 L 307 311 L 307 312 L 309 314 L 309 315 L 310 316 L 310 317 L 311 318 L 311 319 L 313 321 L 313 322 L 314 323 L 314 324 L 315 325 L 315 326 L 316 327 L 316 328 L 318 330 L 318 331 L 319 332 L 319 333 L 320 334 L 320 335 L 321 336 L 321 337 L 322 338 L 322 339 L 323 340 L 323 341 L 324 342 L 324 343 L 325 344 L 325 345 L 326 346 L 326 347 L 327 348 L 327 349 L 329 351 L 329 352 L 330 353 L 330 355 L 331 356 L 331 357 L 332 358 L 332 359 L 333 360 L 333 361 L 334 362 L 334 364 L 335 365 L 335 369 L 336 370 L 336 375 L 337 376 L 337 381 L 338 382 L 338 385 L 339 386 L 339 389 L 340 390 L 340 393 L 341 394 L 341 396 L 342 397 L 342 399 L 343 400 L 343 401 L 344 402 L 344 403 L 345 404 L 345 405 L 346 406 L 346 407 L 347 408 L 347 409 L 348 410 L 348 411 L 350 413 L 350 414 L 352 416 L 352 417 L 363 428 L 364 428 L 367 431 L 368 431 L 370 433 L 371 433 L 372 434 L 373 434 L 375 436 L 375 437 L 377 439 L 377 441 L 378 442 L 378 447 L 379 448 L 379 453 L 380 454 L 380 457 L 381 458 L 381 461 L 382 462 L 382 465 L 383 466 L 383 467 L 384 468 L 384 470 L 385 471 L 385 473 L 386 474 L 386 475 L 387 476 L 381 482 L 380 482 L 357 505 L 357 506 L 351 512 L 351 513 L 346 518 L 346 519 L 343 522 L 343 523 L 339 527 L 339 528 L 337 530 L 337 531 L 334 534 L 334 535 L 332 537 L 332 538 L 330 540 L 330 541 L 328 543 L 328 544 L 326 546 L 326 547 L 325 548 L 325 549 L 323 551 L 323 552 L 322 553 L 322 554 L 320 556 L 320 557 L 319 558 L 319 559 L 318 560 L 318 561 L 317 562 L 317 563 L 316 564 L 316 565 L 315 566 L 315 567 L 313 569 L 313 571 L 312 572 L 312 573 L 311 574 L 311 575 L 310 576 L 310 577 L 309 578 L 309 579 L 308 580 L 308 581 L 307 582 L 307 583 L 306 584 L 306 586 L 305 587 L 305 588 L 304 589 L 304 591 L 303 592 L 303 593 L 302 594 L 302 596 L 301 597 L 301 598 L 300 599 L 300 601 L 299 602 L 299 604 L 298 605 L 298 607 L 297 608 L 297 610 L 296 611 L 296 613 L 295 614 L 295 616 L 294 617 L 294 619 L 293 620 L 293 623 L 292 624 L 292 627 L 291 628 L 291 630 L 290 631 L 290 634 L 289 635 L 289 639 L 288 640 L 288 643 L 287 644 L 287 648 L 286 649 L 286 653 L 285 654 L 285 659 L 284 660 L 284 666 L 283 667 L 283 674 L 282 675 L 282 683 L 281 684 L 281 697 L 280 698 L 280 739 L 281 740 L 281 753 L 282 754 L 282 761 L 283 762 L 283 769 L 284 770 L 284 775 L 285 776 L 285 780 L 286 781 L 286 785 L 287 786 L 287 789 L 288 790 L 288 793 L 289 794 L 289 797 L 290 798 L 290 801 L 291 802 L 291 804 L 292 805 L 292 808 L 293 809 L 293 811 L 294 812 L 294 814 L 295 815 L 295 817 L 296 818 L 296 820 L 297 821 L 297 822 L 298 823 L 298 825 L 299 826 L 299 828 L 300 829 L 300 830 L 301 831 L 301 833 L 302 834 L 302 835 L 303 836 L 303 837 L 304 838 L 304 840 L 305 841 L 305 842 L 306 843 L 306 844 L 307 845 L 307 846 L 308 847 L 308 848 L 309 849 L 309 850 L 310 851 L 310 852 L 311 853 L 311 854 L 312 855 L 312 856 L 313 857 L 313 858 L 315 860 L 315 861 L 316 862 L 316 863 L 317 864 L 317 865 L 319 867 L 319 868 L 320 869 L 320 870 L 322 872 L 322 873 L 324 875 L 324 876 L 326 878 L 326 879 L 328 881 L 328 882 L 330 884 L 330 885 L 333 888 L 333 889 L 336 892 L 336 893 L 339 896 L 339 897 L 344 902 L 344 903 L 353 912 L 353 913 L 360 920 L 361 920 L 371 930 L 372 930 L 376 934 L 377 934 L 380 937 L 381 937 L 384 940 L 385 940 L 387 942 L 388 942 L 390 944 L 391 944 L 393 946 L 394 946 L 396 948 L 397 948 L 398 949 L 399 949 L 400 950 L 400 986 L 401 987 L 401 993 L 402 994 L 402 998 L 403 999 L 403 1002 L 404 1003 L 404 1005 L 405 1006 L 405 1008 L 406 1009 L 406 1010 L 407 1011 L 407 1013 L 408 1014 L 408 1015 L 410 1017 L 410 1018 L 411 1019 L 411 1020 L 413 1022 L 413 1023 L 421 1031 L 421 1034 L 420 1035 L 420 1040 L 419 1041 L 419 1047 L 418 1048 L 418 1063 L 419 1064 L 419 1071 L 420 1072 L 420 1075 L 421 1076 L 421 1079 L 422 1080 L 422 1081 L 423 1082 L 423 1084 L 424 1085 L 424 1086 L 425 1087 L 425 1088 L 426 1089 L 426 1090 L 427 1091 L 427 1092 L 429 1094 L 429 1095 L 437 1103 L 437 1104 L 436 1105 L 436 1119 L 437 1120 L 437 1124 L 438 1125 L 438 1128 L 439 1129 L 439 1130 L 440 1131 L 440 1133 L 441 1134 L 441 1135 L 442 1136 L 442 1137 L 443 1138 L 443 1139 L 444 1140 L 444 1141 L 446 1143 L 446 1144 L 448 1146 L 448 1147 L 455 1154 L 456 1154 L 459 1157 L 460 1157 L 462 1159 L 463 1159 L 464 1160 L 465 1160 L 466 1161 L 468 1161 L 470 1163 L 470 1168 L 469 1169 L 469 1182 L 468 1183 L 468 1192 L 467 1193 L 467 1202 L 466 1203 L 466 1210 L 465 1211 L 465 1218 L 464 1219 L 464 1225 L 463 1226 L 463 1232 L 462 1233 L 462 1238 L 461 1239 L 461 1244 L 460 1245 L 460 1249 L 459 1250 L 459 1255 L 458 1256 L 458 1259 L 457 1260 L 457 1263 L 456 1264 L 456 1267 L 455 1268 L 455 1271 L 454 1272 L 454 1275 L 453 1276 L 453 1279 L 452 1280 L 452 1283 L 451 1284 L 451 1287 L 450 1288 L 450 1290 L 449 1291 L 449 1294 L 448 1295 L 448 1298 L 447 1299 L 447 1301 L 446 1302 L 446 1305 L 445 1306 L 445 1309 L 444 1310 L 444 1313 L 443 1314 L 443 1316 L 442 1317 L 442 1320 L 441 1321 L 441 1324 L 440 1325 L 440 1327 L 439 1328 L 439 1330 L 438 1331 L 438 1333 L 437 1334 L 437 1336 L 436 1337 L 436 1339 L 435 1340 L 435 1343 L 436 1343 L 440 1339 L 440 1338 L 443 1335 L 443 1334 L 445 1332 L 445 1331 L 446 1330 L 446 1329 L 448 1327 L 448 1326 L 449 1325 L 449 1324 L 451 1322 L 451 1321 L 452 1320 L 452 1319 L 454 1317 L 454 1316 L 455 1315 L 455 1314 L 456 1313 L 456 1312 L 458 1310 L 458 1309 L 459 1308 L 459 1307 L 460 1306 L 460 1305 L 461 1304 L 461 1303 L 462 1302 L 462 1301 L 463 1300 L 463 1299 L 464 1298 L 464 1297 L 465 1296 L 465 1294 L 466 1293 L 466 1292 L 467 1291 L 467 1290 L 468 1289 L 468 1287 L 469 1286 L 470 1287 L 470 1293 L 469 1294 L 469 1302 L 468 1303 L 468 1310 L 467 1311 L 467 1319 L 466 1320 L 466 1327 L 465 1328 L 465 1331 L 466 1331 L 466 1330 L 467 1329 L 467 1328 L 468 1327 L 468 1326 L 469 1325 L 469 1323 L 470 1322 L 470 1320 L 471 1319 L 471 1318 L 472 1317 L 472 1315 L 473 1314 L 473 1313 L 474 1312 L 474 1310 L 475 1309 L 475 1307 L 476 1306 L 476 1304 L 477 1303 L 477 1301 L 478 1300 L 478 1298 L 479 1297 L 479 1295 L 480 1294 L 480 1293 L 481 1292 L 481 1289 L 482 1288 L 482 1286 L 483 1285 L 483 1283 L 484 1282 L 484 1280 L 485 1279 L 485 1277 L 486 1276 L 486 1274 L 487 1273 L 487 1271 L 488 1270 L 488 1268 L 489 1267 L 489 1265 L 490 1264 L 490 1262 L 491 1261 L 491 1259 L 492 1258 L 492 1256 L 493 1255 L 493 1252 L 494 1251 L 494 1249 L 495 1248 L 495 1246 L 496 1245 L 496 1243 L 497 1242 L 497 1240 L 498 1239 L 498 1236 L 499 1235 L 499 1233 L 500 1232 L 500 1229 L 501 1228 L 501 1226 L 502 1225 L 502 1223 L 503 1222 L 503 1219 L 504 1218 L 504 1215 L 505 1214 L 505 1211 L 506 1210 L 506 1207 L 507 1206 L 507 1203 L 508 1202 L 508 1198 L 509 1197 L 509 1194 L 510 1193 L 510 1188 L 511 1187 L 512 1188 L 512 1190 L 513 1191 L 513 1195 L 514 1196 L 514 1200 L 515 1201 L 515 1204 L 516 1205 L 516 1208 L 517 1209 L 517 1212 L 518 1213 L 518 1216 L 519 1217 L 519 1219 L 520 1220 L 520 1223 L 521 1224 L 521 1227 L 522 1228 L 522 1230 L 523 1231 L 523 1234 L 524 1235 L 524 1237 L 525 1238 L 525 1240 L 526 1241 L 526 1243 L 527 1244 L 527 1246 L 528 1247 L 528 1250 L 529 1251 L 529 1253 L 530 1254 L 530 1256 L 531 1257 L 531 1259 L 532 1260 L 532 1262 L 533 1263 L 533 1265 L 534 1266 L 534 1269 L 535 1270 L 535 1271 L 536 1272 L 536 1274 L 537 1275 L 537 1278 L 538 1279 L 538 1281 L 539 1282 L 539 1284 L 540 1285 L 540 1287 L 541 1288 L 541 1290 L 542 1291 L 542 1292 L 543 1293 L 543 1295 L 544 1296 L 544 1298 L 545 1299 L 545 1301 L 546 1302 L 546 1304 L 547 1305 L 547 1307 L 548 1308 L 548 1310 L 549 1311 L 549 1312 L 550 1313 L 550 1315 L 551 1316 L 551 1317 L 552 1318 L 552 1320 L 553 1321 L 553 1323 L 554 1324 L 554 1325 L 555 1326 L 555 1327 L 556 1328 L 556 1330 L 557 1331 L 558 1331 L 558 1330 L 557 1329 L 557 1320 L 556 1319 L 556 1312 L 555 1311 L 555 1304 L 554 1303 L 554 1297 L 553 1296 L 553 1289 L 552 1288 L 552 1286 L 553 1285 L 554 1286 L 554 1287 L 555 1288 L 555 1290 L 556 1291 L 556 1292 L 557 1293 L 557 1294 L 558 1295 L 558 1296 L 559 1297 L 559 1298 L 560 1299 L 560 1300 L 561 1301 L 561 1302 L 562 1303 L 562 1304 L 563 1305 L 563 1306 L 564 1307 L 564 1308 L 565 1309 L 565 1310 L 566 1311 L 566 1312 L 568 1314 L 568 1315 L 569 1316 L 569 1317 L 571 1319 L 571 1320 L 572 1321 L 572 1322 L 574 1324 L 574 1325 L 575 1326 L 575 1327 L 577 1329 L 577 1330 L 579 1332 L 579 1333 L 581 1335 L 581 1336 L 588 1343 L 589 1343 L 589 1341 L 588 1340 L 588 1338 L 587 1337 L 587 1335 L 586 1334 L 586 1332 L 585 1331 L 585 1329 L 584 1328 L 584 1326 L 583 1325 L 583 1323 L 582 1322 L 582 1319 L 581 1318 L 581 1316 L 580 1315 L 580 1312 L 579 1311 L 579 1309 L 578 1308 L 578 1305 L 577 1304 L 577 1302 L 576 1301 L 576 1298 L 575 1297 L 575 1295 L 574 1294 L 574 1291 L 573 1290 L 573 1287 L 572 1286 L 572 1284 L 571 1283 L 571 1280 L 570 1279 L 570 1276 L 569 1275 L 569 1273 L 568 1272 L 568 1269 L 567 1268 L 567 1265 L 566 1264 L 566 1261 L 565 1260 L 565 1256 L 564 1255 L 564 1252 L 563 1251 L 563 1247 L 562 1246 L 562 1242 L 561 1241 L 561 1236 L 560 1235 L 560 1230 L 559 1229 L 559 1223 L 558 1222 L 558 1215 L 557 1214 L 557 1206 L 556 1205 L 556 1197 L 555 1196 L 555 1186 L 554 1185 L 554 1170 L 553 1169 L 553 1163 L 555 1161 L 557 1161 L 558 1160 L 559 1160 L 561 1158 L 562 1158 L 564 1156 L 565 1156 L 575 1146 L 575 1145 L 577 1143 L 577 1142 L 578 1141 L 578 1140 L 580 1138 L 580 1137 L 581 1136 L 581 1134 L 582 1133 L 582 1132 L 583 1131 L 583 1129 L 584 1128 L 584 1126 L 585 1125 L 585 1122 L 586 1121 L 586 1113 L 587 1112 L 587 1110 L 586 1109 L 586 1103 L 593 1096 L 593 1095 L 595 1093 L 595 1092 L 596 1091 L 596 1090 L 598 1088 L 598 1086 L 599 1085 L 599 1084 L 600 1083 L 600 1082 L 601 1081 L 601 1078 L 602 1077 L 602 1074 L 603 1073 L 603 1069 L 604 1068 L 604 1044 L 603 1043 L 603 1038 L 602 1037 L 602 1034 L 601 1033 L 601 1031 L 602 1030 L 603 1030 L 607 1026 L 607 1025 L 610 1022 L 610 1021 L 612 1019 L 612 1018 L 614 1016 L 614 1015 L 615 1014 L 615 1012 L 616 1011 L 616 1010 L 617 1009 L 617 1007 L 618 1006 L 618 1004 L 619 1003 L 619 1001 L 620 1000 L 620 996 L 621 995 L 621 990 L 622 989 L 622 978 L 623 977 L 623 950 L 625 948 L 626 948 L 628 946 L 629 946 L 630 945 L 631 945 L 633 943 L 634 943 L 636 941 L 637 941 L 640 938 L 641 938 L 644 935 L 645 935 L 648 932 L 649 932 L 655 926 L 656 926 L 677 905 L 677 904 L 682 899 L 682 898 L 686 894 L 686 893 L 689 890 L 689 889 L 692 886 L 692 885 L 694 883 L 694 882 L 697 879 L 697 878 L 699 876 L 699 875 L 700 874 L 700 873 L 702 871 L 702 870 L 704 868 L 704 867 L 705 866 L 705 865 L 706 864 L 706 863 L 708 861 L 708 860 L 709 859 L 709 858 L 710 857 L 710 856 L 711 855 L 711 854 L 712 853 L 712 852 L 713 851 L 713 850 L 714 849 L 714 848 L 715 847 L 715 846 L 716 845 L 716 844 L 717 843 L 717 842 L 718 841 L 718 840 L 719 839 L 719 838 L 720 837 L 720 835 L 721 834 L 721 833 L 722 832 L 722 831 L 723 830 L 723 828 L 724 827 L 724 825 L 725 824 L 725 823 L 726 822 L 726 820 L 727 819 L 727 817 L 728 816 L 728 814 L 729 813 L 729 811 L 730 810 L 730 808 L 731 807 L 731 805 L 732 804 L 732 801 L 733 800 L 733 798 L 734 797 L 734 794 L 735 793 L 735 789 L 736 788 L 736 785 L 737 784 L 737 780 L 738 779 L 738 775 L 739 774 L 739 768 L 740 767 L 740 761 L 741 760 L 741 752 L 742 751 L 742 739 L 743 738 L 743 701 L 742 700 L 742 686 L 741 685 L 741 677 L 740 676 L 740 669 L 739 668 L 739 662 L 738 661 L 738 656 L 737 655 L 737 650 L 736 649 L 736 645 L 735 644 L 735 641 L 734 640 L 734 636 L 733 635 L 733 632 L 732 631 L 732 629 L 731 628 L 731 625 L 730 624 L 730 621 L 729 620 L 729 618 L 728 617 L 728 615 L 727 614 L 727 612 L 726 611 L 726 609 L 725 608 L 725 606 L 724 605 L 724 603 L 723 602 L 723 600 L 722 599 L 722 597 L 721 596 L 721 595 L 720 594 L 720 592 L 719 591 L 719 590 L 718 589 L 718 588 L 717 587 L 717 585 L 716 584 L 716 583 L 715 582 L 715 581 L 714 580 L 714 579 L 713 578 L 713 577 L 712 576 L 712 574 L 711 573 L 711 572 L 710 571 L 710 570 L 709 569 L 709 568 L 707 566 L 707 565 L 706 564 L 706 563 L 705 562 L 705 561 L 704 560 L 704 559 L 703 558 L 703 557 L 701 555 L 701 554 L 700 553 L 700 552 L 698 550 L 698 549 L 697 548 L 697 547 L 695 545 L 695 544 L 693 542 L 693 541 L 691 539 L 691 538 L 689 536 L 689 535 L 687 533 L 687 532 L 685 530 L 685 529 L 682 526 L 682 525 L 678 521 L 678 520 L 675 517 L 675 516 L 670 511 L 670 510 L 662 502 L 662 501 L 648 487 L 647 487 L 636 476 L 636 474 L 637 473 L 637 472 L 638 471 L 638 469 L 639 468 L 639 467 L 640 466 L 640 463 L 641 462 L 641 460 L 642 459 L 642 455 L 643 454 L 643 450 L 644 449 L 644 444 L 645 443 L 645 440 L 646 439 L 646 438 L 651 433 L 652 433 L 653 432 L 654 432 L 657 429 L 658 429 L 664 423 L 665 423 L 666 422 L 666 421 L 672 415 L 672 414 L 674 412 L 674 411 L 675 410 L 675 409 L 677 407 L 677 405 L 678 404 L 678 403 L 679 402 L 679 401 L 680 400 L 680 398 L 681 397 L 681 396 L 682 395 L 682 392 L 683 391 L 683 389 L 684 388 L 684 384 L 685 383 L 685 379 L 686 378 L 686 373 L 687 372 L 687 368 L 688 367 L 688 364 L 689 363 L 689 362 L 690 361 L 690 359 L 691 358 L 691 357 L 692 356 L 692 355 L 693 354 L 693 353 L 694 352 L 694 351 L 695 350 L 695 349 L 696 348 L 696 347 L 697 346 L 697 345 L 698 344 L 698 343 L 699 342 L 699 341 L 700 340 L 700 339 L 701 338 L 701 337 L 702 336 L 702 335 L 704 333 L 704 332 L 705 331 L 705 330 L 706 329 L 706 328 L 707 327 L 707 326 L 708 325 L 708 324 L 709 323 L 709 322 L 711 320 L 711 319 L 712 318 L 712 317 L 713 316 L 713 315 L 715 313 L 715 312 L 716 311 L 716 310 L 718 308 L 718 307 L 720 305 L 720 304 L 722 302 L 722 301 L 724 299 L 724 298 L 726 296 L 726 295 L 729 292 L 729 291 L 734 286 L 735 286 L 737 284 L 738 284 L 739 283 L 740 283 L 741 282 L 742 282 L 743 281 L 745 281 L 746 280 L 747 280 L 748 279 L 750 279 L 751 278 L 755 278 L 756 277 L 760 277 L 761 276 L 769 276 L 770 275 L 784 275 L 785 276 L 788 276 L 788 275 L 787 274 L 786 274 L 785 273 L 784 273 L 783 272 L 782 272 L 781 271 L 779 271 L 778 270 L 776 270 L 775 269 L 772 269 L 771 268 L 765 268 L 764 267 L 750 267 L 749 268 L 745 268 L 744 267 L 750 261 L 751 261 L 754 258 L 755 258 L 758 255 L 759 255 L 761 253 L 762 253 L 764 251 L 765 251 L 766 250 L 767 250 L 769 248 L 770 248 L 772 246 L 773 246 L 774 245 L 775 245 L 776 244 L 777 244 L 778 243 L 779 243 L 781 241 L 782 241 L 783 240 L 784 240 L 785 239 L 786 239 L 787 238 L 788 238 L 789 237 L 790 237 L 791 236 L 792 236 L 793 235 L 794 235 L 795 234 L 796 234 L 797 233 L 798 233 L 799 232 L 800 232 L 801 231 L 802 231 L 802 230 L 801 231 L 792 231 L 791 232 L 786 232 L 785 233 L 781 233 L 780 234 L 777 234 L 776 235 L 774 235 L 773 236 L 770 236 L 769 237 L 767 237 L 766 238 L 764 238 L 763 239 L 761 239 L 760 240 L 759 240 L 758 241 L 756 241 L 755 242 L 754 242 L 753 243 L 752 243 L 751 242 L 752 241 L 752 240 L 753 239 L 753 238 L 754 237 L 754 236 L 756 234 L 756 233 L 757 232 L 757 231 L 758 230 L 758 229 L 760 227 L 760 226 L 761 225 L 761 224 L 763 222 L 763 221 L 765 219 L 765 218 L 767 216 L 767 215 L 769 213 L 769 212 L 772 209 L 772 208 L 775 205 L 775 204 L 779 200 L 779 199 L 784 194 L 784 193 L 788 189 L 788 188 L 791 185 L 791 184 L 790 185 L 789 185 L 788 186 L 787 186 L 784 189 L 783 189 L 779 193 L 778 193 L 770 201 L 769 201 L 751 219 L 750 219 L 738 231 L 737 230 L 737 227 L 738 226 L 738 221 L 739 220 L 739 212 L 740 211 L 740 195 L 739 194 L 739 192 L 738 192 L 738 193 L 737 194 L 737 196 L 736 197 L 736 199 L 735 200 L 735 203 L 734 204 L 734 206 L 733 207 L 733 211 L 732 212 L 732 215 L 731 216 L 731 218 L 730 219 L 730 222 L 729 223 L 729 225 L 728 226 L 728 228 L 727 229 L 727 230 L 726 231 L 726 232 L 725 233 L 725 234 L 724 235 L 724 236 L 723 237 L 723 238 L 720 241 L 720 242 L 714 248 L 713 247 L 713 244 L 712 243 L 712 234 L 711 233 L 711 227 L 710 226 L 710 222 L 709 221 L 709 218 L 708 217 L 708 215 L 707 214 L 707 212 L 706 211 L 706 210 L 705 209 L 705 208 L 704 207 L 704 206 L 703 205 L 703 204 L 702 203 L 702 202 L 700 200 L 699 200 L 699 205 L 700 206 L 700 215 L 701 216 L 701 231 L 702 232 L 702 243 L 701 244 L 701 252 L 700 253 L 700 255 L 699 256 L 699 257 L 697 259 L 697 260 L 695 262 L 695 263 L 691 267 L 691 268 L 687 272 L 687 273 L 682 278 L 682 279 L 678 283 L 678 284 L 675 287 L 675 288 L 672 291 L 672 292 L 670 294 L 670 295 L 667 298 L 667 299 L 665 301 L 665 302 L 664 303 L 664 304 L 662 306 L 662 307 L 660 309 L 660 310 L 658 312 L 658 313 L 657 314 L 657 315 L 655 317 L 655 318 L 653 320 L 653 321 L 651 323 L 651 324 L 649 326 L 649 327 L 646 330 L 646 331 L 642 335 L 642 336 L 635 343 L 635 344 L 619 360 L 618 360 L 611 367 L 610 367 L 606 371 L 605 371 L 602 374 L 601 374 L 599 376 L 598 376 L 595 379 L 594 379 L 593 380 L 592 380 L 590 382 L 589 382 L 588 383 L 587 383 L 585 385 L 583 385 L 580 382 L 579 382 L 571 374 L 570 374 L 567 371 L 566 371 L 564 369 L 563 369 L 562 368 L 561 368 L 559 366 L 558 366 L 557 365 L 556 365 L 555 364 L 554 364 L 553 363 L 552 363 L 551 362 L 550 362 L 549 361 L 547 361 L 546 360 L 545 360 L 544 359 L 542 359 L 541 358 L 538 358 L 537 357 L 535 357 L 534 356 L 530 356 L 529 355 L 524 355 L 523 354 L 499 354 L 498 355 L 493 355 L 492 356 L 488 356 L 487 357 L 484 357 L 483 358 L 481 358 L 480 359 L 478 359 L 477 360 L 476 360 L 475 361 L 473 361 L 472 362 L 471 362 L 470 363 L 469 363 L 468 364 L 467 364 L 466 365 L 465 365 L 464 366 L 463 366 L 462 367 L 461 367 L 459 369 L 458 369 L 456 371 L 455 371 L 453 373 L 452 373 L 446 379 L 445 379 L 438 386 L 436 384 L 435 384 L 434 383 L 433 383 L 431 381 L 430 381 L 428 379 L 427 379 L 425 377 L 424 377 L 420 373 L 419 373 L 416 370 L 415 370 L 408 363 L 407 363 L 386 342 L 386 341 L 380 335 L 380 334 L 376 330 L 376 329 L 373 326 L 373 325 L 371 323 L 371 322 L 369 320 L 369 319 L 367 317 L 367 316 L 366 315 L 366 314 L 364 312 L 364 311 L 362 309 L 362 308 L 360 306 L 360 305 L 358 303 L 358 302 L 356 300 L 356 299 L 353 296 L 353 295 L 351 293 L 351 292 L 348 289 L 348 288 L 345 285 L 345 284 L 341 280 L 341 279 L 337 275 L 337 274 L 331 268 L 331 267 L 328 264 L 328 263 L 325 260 L 325 259 L 324 258 L 324 257 L 323 256 L 323 255 L 322 254 L 322 252 L 321 251 L 321 221 L 322 220 L 322 211 L 323 210 L 323 200 L 322 200 L 319 203 L 319 204 L 318 205 L 318 207 L 317 208 L 317 209 L 316 210 L 316 212 L 315 213 L 315 215 L 314 216 L 314 219 L 313 220 L 313 223 L 312 224 L 312 228 L 311 229 L 311 235 L 310 236 L 310 247 L 309 248 L 308 248 L 304 244 L 304 243 L 301 240 L 301 239 L 299 237 L 299 236 L 298 235 L 298 234 L 297 233 L 297 232 L 296 231 L 296 230 L 295 229 L 295 227 L 294 226 L 294 224 L 293 223 L 293 221 L 292 220 L 292 218 L 291 217 L 291 213 L 290 212 L 290 209 L 289 208 L 289 205 L 288 204 L 288 202 L 287 201 L 287 198 L 286 197 L 286 196 L 285 195 L 285 194 L 284 193 L 283 193 L 283 214 L 284 215 L 284 223 L 285 224 L 285 230 L 284 231 L 272 219 L 271 219 L 254 202 L 253 202 L 252 201 L 252 200 L 251 200 L 240 189 L 239 189 L 236 186 L 235 186 L 234 185 L 233 185 L 232 184 Z " fill="black"/>
</svg>