<svg xmlns="http://www.w3.org/2000/svg" viewBox="0 0 1024 1536" width="100" height="100">
<path d="M 408 118 409 119 409 120 411 122 411 123 412 124 412 125 413 126 413 127 414 128 414 129 415 130 415 131 416 132 416 133 418 135 418 136 419 137 419 138 421 140 421 141 422 142 422 143 423 144 423 145 425 147 425 148 426 149 426 150 427 151 427 152 429 154 429 155 430 156 430 157 431 158 431 159 432 160 432 161 433 162 433 163 434 164 434 165 435 166 435 167 436 168 436 169 437 170 437 171 438 172 438 173 439 174 439 175 440 176 440 177 441 178 440 179 439 179 438 178 437 178 436 177 435 177 434 176 433 176 432 175 431 175 430 174 428 174 427 173 426 173 425 172 424 172 423 171 421 171 420 170 419 170 418 169 416 169 415 168 413 168 412 167 410 167 409 166 407 166 406 165 405 165 406 166 407 166 408 167 409 167 411 169 412 169 413 170 414 170 416 172 417 172 419 174 420 174 421 175 422 175 424 177 425 177 427 179 428 179 430 181 431 181 433 183 434 183 438 187 439 187 443 191 444 191 448 195 448 196 449 197 449 199 450 200 450 202 451 203 451 205 452 206 452 208 453 209 453 212 454 213 454 215 455 216 455 218 456 219 456 222 457 223 457 226 458 227 458 230 457 231 456 231 455 230 454 230 453 229 452 229 451 228 449 228 448 227 447 227 446 226 444 226 443 225 442 225 441 224 440 224 439 223 437 223 436 222 434 222 433 221 431 221 430 220 428 220 427 219 424 219 423 218 420 218 419 217 416 217 415 216 411 216 413 216 414 217 415 217 416 218 417 218 418 219 419 219 420 220 421 220 422 221 424 221 425 222 426 222 428 224 429 224 430 225 431 225 432 226 433 226 434 227 435 227 436 228 437 228 438 229 439 229 440 230 441 230 442 231 443 231 445 233 446 233 447 234 448 234 450 236 451 236 452 237 453 237 456 240 457 240 459 242 460 242 461 243 461 244 462 245 462 250 463 251 463 256 464 257 464 263 465 264 465 272 466 273 466 284 465 285 463 285 462 284 459 284 458 283 453 283 452 282 445 282 444 281 437 281 436 280 422 280 421 281 424 281 425 282 428 282 429 283 432 283 433 284 436 284 437 285 440 285 441 286 444 286 445 287 447 287 448 288 451 288 452 289 454 289 455 290 457 290 458 291 460 291 461 292 462 292 463 293 465 293 466 294 466 316 465 317 465 329 464 330 464 341 463 342 463 351 462 352 462 362 461 363 461 372 460 373 460 395 459 396 458 396 458 397 457 398 457 399 456 400 456 412 455 413 454 412 454 411 453 410 453 409 451 407 451 406 449 404 449 403 447 401 447 400 446 399 446 398 443 395 443 394 441 392 441 391 439 389 439 388 437 386 437 385 435 383 435 382 433 380 433 379 431 377 431 376 428 373 428 372 426 370 426 369 424 367 424 366 422 364 422 363 419 360 419 359 417 357 417 356 414 353 414 352 411 349 411 348 402 339 402 338 400 336 400 334 399 333 399 331 398 330 398 328 397 327 397 326 396 325 396 324 395 323 395 321 394 320 394 318 393 317 393 316 392 315 392 314 391 313 391 311 390 310 390 309 389 308 389 306 388 305 388 304 387 303 387 302 386 301 386 299 385 298 385 297 384 296 384 295 383 294 383 293 382 292 382 290 381 289 381 288 380 287 380 286 379 285 379 284 378 283 378 282 377 281 377 280 376 279 376 278 375 277 375 276 374 275 374 274 373 273 373 272 372 271 372 270 371 269 371 268 369 266 369 265 368 264 368 263 367 262 367 261 366 260 366 259 364 257 364 256 363 255 363 254 361 252 361 251 359 249 359 248 358 247 358 246 356 244 356 243 354 241 354 240 352 238 352 237 349 234 349 233 346 230 346 229 343 226 343 225 338 220 338 219 307 188 306 188 300 182 299 182 295 178 294 178 290 174 289 174 287 172 286 172 283 169 282 169 280 167 279 167 276 164 275 164 274 163 273 163 271 161 270 161 268 159 267 159 265 157 264 157 263 156 262 156 260 154 259 154 258 153 257 153 255 151 254 151 253 150 252 150 251 149 250 149 249 148 248 148 247 147 246 147 245 146 244 146 243 145 242 145 241 144 239 144 238 143 237 143 236 142 234 142 233 141 232 141 231 140 230 140 231 141 232 141 237 146 238 146 241 149 242 149 244 151 245 151 247 153 248 153 250 155 251 155 254 158 255 158 257 160 258 160 260 162 261 162 264 165 265 165 268 168 269 168 272 171 273 171 278 176 279 176 286 183 287 183 301 197 300 198 298 198 297 197 289 197 288 196 259 196 258 197 255 197 254 198 253 198 252 199 261 199 262 200 273 200 274 201 281 201 282 202 287 202 288 203 293 203 294 204 297 204 298 205 302 205 303 206 305 206 306 207 309 207 310 208 311 208 313 210 313 211 317 215 317 216 321 220 321 221 326 226 326 227 329 230 329 231 332 234 332 235 334 237 334 238 336 240 336 241 338 243 338 244 337 245 314 245 313 246 304 246 303 247 297 247 296 248 291 248 290 249 286 249 285 250 280 250 279 251 277 251 275 249 274 249 272 247 271 247 269 245 268 245 265 242 264 242 262 240 261 240 259 238 258 238 256 236 255 236 254 235 253 235 251 233 250 233 249 232 248 232 246 230 245 230 244 229 243 229 242 228 241 228 239 226 238 226 237 225 236 225 235 224 234 224 233 223 232 223 231 222 230 222 229 221 228 221 227 220 226 220 225 219 224 219 223 218 222 218 221 217 220 217 219 216 218 216 217 215 215 215 214 214 213 214 212 213 211 213 210 212 209 212 208 211 206 211 205 210 204 210 203 209 201 209 200 208 199 208 198 207 196 207 195 206 194 206 193 205 191 205 190 204 188 204 187 203 186 203 185 202 183 202 182 201 179 201 178 200 176 200 175 199 173 199 172 198 170 198 169 197 166 197 165 196 162 196 161 195 158 195 157 194 153 194 152 193 148 193 147 192 143 192 142 191 138 191 137 190 132 190 131 189 123 189 122 188 118 188 118 189 119 190 122 190 123 191 126 191 127 192 130 192 131 193 133 193 134 194 137 194 138 195 141 195 142 196 144 196 145 197 147 197 148 198 150 198 151 199 153 199 154 200 156 200 157 201 159 201 160 202 162 202 163 203 165 203 166 204 168 204 169 205 170 205 171 206 173 206 174 207 176 207 177 208 178 208 179 209 180 209 181 210 183 210 184 211 185 211 186 212 188 212 189 213 190 213 191 214 192 214 193 215 194 215 195 216 197 216 198 217 199 217 200 218 201 218 202 219 203 219 204 220 205 220 206 221 207 221 208 222 207 223 206 223 205 224 198 224 197 225 191 225 190 226 185 226 184 227 179 227 178 228 174 228 173 229 169 229 168 230 164 230 163 231 160 231 159 232 157 232 156 233 153 233 152 234 150 234 149 235 147 235 146 236 144 236 143 237 141 237 140 238 138 238 137 239 136 239 135 240 133 240 132 241 131 241 130 242 129 242 128 243 127 243 126 244 125 244 124 245 123 245 121 247 120 247 118 249 117 249 116 250 118 250 119 249 121 249 122 248 124 248 125 247 127 247 128 246 130 246 131 245 132 245 133 244 135 244 136 243 137 243 138 242 140 242 141 241 143 241 144 240 146 240 147 239 149 239 150 238 153 238 154 237 157 237 158 236 161 236 162 235 165 235 166 234 170 234 171 233 176 233 177 232 183 232 184 231 194 231 195 230 217 230 218 231 226 231 227 232 228 232 229 233 230 233 232 235 233 235 236 238 237 238 239 240 240 240 242 242 243 242 246 245 247 245 249 247 250 247 253 250 254 250 256 252 255 253 254 253 253 254 251 254 250 255 247 255 246 256 243 256 242 257 240 257 239 258 236 258 235 259 233 259 232 260 230 260 229 261 227 261 226 262 225 262 224 263 222 263 221 264 220 264 219 265 217 265 216 266 215 266 214 267 212 267 211 268 210 268 209 269 208 269 207 270 206 270 205 271 204 271 203 272 202 272 201 273 200 273 199 274 198 274 196 276 195 276 194 277 193 277 191 279 190 279 189 280 188 280 186 282 185 282 183 284 182 284 178 288 177 288 165 300 166 299 167 299 168 298 169 298 171 296 172 296 173 295 174 295 176 293 177 293 179 291 180 291 181 290 182 290 184 288 185 288 187 286 188 286 189 285 190 285 191 284 192 284 193 283 194 283 195 282 196 282 197 281 198 281 199 280 200 280 201 279 202 279 203 278 204 278 205 277 207 277 208 276 209 276 210 275 212 275 213 274 214 274 215 273 217 273 218 272 220 272 221 271 223 271 224 270 227 270 228 269 230 269 231 268 234 268 235 267 238 267 239 266 243 266 244 265 248 265 249 264 254 264 255 263 261 263 262 262 268 262 274 268 274 269 279 274 279 275 283 279 283 280 287 284 287 285 290 288 290 289 294 293 294 294 297 297 297 298 299 300 298 301 296 301 295 302 288 302 287 303 282 303 281 304 277 304 276 305 273 305 272 306 269 306 268 307 265 307 264 308 262 308 261 309 259 309 258 310 256 310 255 311 253 311 252 312 250 312 249 313 248 313 247 314 245 314 244 315 242 315 241 316 240 316 239 317 238 317 237 318 235 318 234 319 233 319 232 320 231 320 230 321 229 321 228 322 227 322 226 323 225 323 224 324 223 324 222 325 221 325 220 326 219 326 218 327 217 327 215 329 214 329 213 330 212 330 211 331 210 331 208 333 207 333 205 335 204 335 202 337 201 337 198 340 197 340 189 348 190 347 191 347 192 346 193 346 194 345 195 345 196 344 197 344 198 343 199 343 201 341 202 341 203 340 204 340 205 339 206 339 207 338 208 338 209 337 210 337 211 336 212 336 213 335 214 335 215 334 216 334 217 333 218 333 219 332 220 332 221 331 222 331 223 330 225 330 226 329 227 329 228 328 229 328 230 327 232 327 233 326 234 326 235 325 237 325 238 324 240 324 241 323 243 323 244 322 246 322 247 321 250 321 251 320 253 320 254 319 257 319 258 318 262 318 263 317 267 317 268 316 272 316 273 315 279 315 280 314 288 314 289 313 309 313 310 314 311 314 319 322 320 322 327 329 328 329 334 335 335 335 339 339 339 340 338 341 337 341 336 342 335 342 334 343 333 343 331 345 330 345 329 346 328 346 327 347 326 347 324 349 323 349 322 350 321 350 319 352 318 352 317 353 316 353 314 355 313 355 310 358 309 358 306 361 305 361 300 366 299 366 283 382 283 383 278 388 278 389 275 392 275 393 273 395 273 396 271 398 271 399 270 400 270 401 269 402 269 403 268 404 268 405 267 406 267 407 266 408 266 409 265 410 265 412 264 413 264 415 263 416 263 418 262 419 262 421 263 420 263 418 265 416 265 415 266 414 266 413 268 411 268 410 270 408 270 407 273 404 273 403 276 400 276 399 298 377 299 377 304 372 305 372 308 369 309 369 311 367 312 367 314 365 315 365 316 364 317 364 319 362 320 362 321 361 322 361 323 360 324 360 325 359 326 359 327 358 328 358 329 357 330 357 331 356 332 356 333 355 334 355 335 354 336 354 337 353 339 353 340 352 341 352 342 351 345 351 346 350 349 350 350 349 357 349 358 350 359 350 360 351 361 351 362 352 363 352 364 353 365 353 366 354 367 354 368 355 369 355 370 356 371 356 372 357 373 357 374 358 375 358 376 359 377 359 378 360 379 360 380 361 380 364 381 365 381 366 383 368 383 369 385 371 385 372 395 382 395 383 405 393 405 394 409 398 409 399 412 402 412 403 415 406 415 407 418 410 418 411 421 414 421 415 423 417 423 418 426 421 426 422 428 424 428 425 430 427 430 428 433 431 433 432 435 434 435 435 436 436 436 437 438 439 438 440 440 442 440 443 441 444 441 445 443 447 443 448 445 450 445 451 446 452 446 453 448 455 448 456 449 457 449 458 450 459 450 460 452 462 452 463 453 464 453 465 454 466 454 467 455 468 455 469 456 470 456 471 457 472 457 473 458 474 458 475 459 476 459 477 460 478 460 479 461 480 461 482 462 483 462 484 463 485 463 487 464 488 464 490 465 491 465 496 464 497 464 498 463 499 463 500 461 502 460 502 458 504 457 504 456 505 455 505 453 507 452 507 451 508 450 508 449 509 448 509 447 510 446 510 444 512 443 512 438 517 438 524 437 525 434 525 433 524 432 524 431 525 427 525 426 526 423 526 422 527 420 527 419 528 416 528 415 529 413 529 412 530 411 530 409 532 408 532 405 535 404 535 401 538 400 538 396 542 395 542 387 550 386 550 372 564 372 565 371 566 371 567 370 568 370 569 369 570 369 572 368 573 368 576 367 577 367 586 367 584 368 583 368 582 369 581 369 580 370 579 370 578 371 577 371 576 373 574 373 573 374 572 374 571 377 568 377 567 379 565 380 566 380 567 379 568 379 569 378 570 378 573 377 574 377 584 378 584 378 582 379 581 379 579 380 578 380 577 381 576 381 575 382 574 382 572 383 571 383 570 385 568 385 567 386 566 386 565 389 562 389 561 398 552 400 552 401 551 403 551 404 550 406 550 407 549 409 549 410 548 413 548 414 547 416 547 417 546 420 546 421 545 425 545 426 546 425 547 424 547 423 548 422 548 419 551 418 551 416 553 415 553 412 556 411 556 408 559 407 559 402 564 401 564 397 568 397 569 393 573 393 574 392 575 392 576 390 578 390 579 389 580 389 582 388 583 388 584 387 585 387 587 386 588 386 591 385 592 385 598 384 599 384 602 385 603 385 609 386 608 386 605 387 604 387 601 388 600 388 598 389 597 389 595 390 594 390 593 391 592 391 590 392 589 392 588 393 587 393 585 394 584 394 583 395 582 395 581 396 580 396 579 398 577 398 576 399 575 399 574 401 572 401 571 403 569 404 570 404 571 403 572 403 574 402 575 402 577 401 578 401 585 400 586 400 594 401 595 401 599 402 598 402 596 403 595 403 592 404 591 404 589 405 588 405 586 406 585 406 584 407 583 407 581 408 580 408 579 409 578 409 576 410 575 410 574 411 573 411 572 412 571 412 570 417 565 418 565 420 563 421 563 422 562 423 562 424 561 425 561 426 560 427 560 428 559 430 559 431 558 433 558 434 557 436 557 437 558 437 559 436 560 436 562 435 563 435 571 436 572 436 573 437 574 438 574 439 575 443 575 444 574 445 574 453 566 453 565 458 560 459 560 460 559 462 559 463 558 469 558 470 559 472 559 473 560 474 560 475 561 476 561 478 563 479 563 481 565 482 565 484 567 485 567 497 579 498 579 501 582 502 582 503 583 504 583 505 584 506 584 507 585 511 585 512 586 515 586 516 587 519 587 520 588 521 588 522 589 524 589 525 590 526 590 527 591 526 592 521 592 520 591 502 591 501 592 492 592 491 593 487 593 486 594 482 594 481 595 478 595 477 596 475 596 474 597 472 597 471 598 469 598 468 599 466 599 465 600 464 600 463 601 461 601 460 602 459 602 458 603 457 603 456 604 455 604 454 605 453 605 452 606 451 606 450 607 449 607 448 608 447 608 446 609 445 609 444 610 443 610 441 612 440 612 439 613 438 613 436 615 435 615 433 617 432 617 430 619 429 619 426 622 425 622 422 625 421 625 419 627 418 627 414 631 413 631 389 655 389 656 383 662 383 663 379 667 379 668 376 671 376 672 373 675 373 676 371 678 371 679 369 681 369 682 367 684 367 685 365 687 365 688 364 689 364 690 362 692 362 693 361 694 361 695 360 696 360 697 359 698 359 699 358 700 358 701 357 702 357 703 356 704 356 705 355 706 355 707 354 708 354 709 353 710 353 711 352 712 352 713 351 714 351 716 350 717 350 718 349 719 349 721 348 722 348 723 347 724 347 726 346 727 346 729 345 730 345 731 344 732 344 734 343 735 343 738 342 739 342 741 341 742 341 744 340 745 340 748 339 749 339 752 338 753 338 756 337 757 337 760 336 761 336 765 335 766 335 771 334 772 334 777 333 778 333 784 332 785 332 794 331 795 331 837 332 838 332 849 333 850 333 859 334 860 334 866 335 867 335 872 336 873 336 878 337 879 337 883 338 884 338 887 339 888 339 891 340 892 340 894 341 895 341 897 342 898 342 901 343 902 343 903 344 904 344 906 345 907 345 909 346 910 346 911 347 912 347 914 348 915 348 916 349 917 349 918 350 919 350 920 351 921 351 922 352 923 352 925 353 926 353 927 354 928 354 929 355 930 355 931 356 932 356 933 357 934 357 935 358 936 358 937 359 938 359 939 360 940 360 942 361 943 361 944 362 945 362 947 363 948 363 949 364 950 364 953 365 954 365 955 347 973 347 974 344 977 344 978 341 981 341 982 340 983 340 984 338 986 338 987 337 988 337 989 335 991 335 992 334 993 334 994 333 995 333 996 332 997 332 998 331 999 331 1001 330 1002 330 1003 329 1004 329 1006 328 1007 328 1009 327 1010 327 1012 326 1013 326 1019 325 1020 326 1020 326 1019 327 1018 327 1016 328 1015 328 1014 329 1013 329 1012 330 1011 330 1010 331 1009 331 1008 332 1007 332 1006 334 1004 334 1003 335 1002 335 1001 337 999 337 998 338 997 338 996 340 994 340 993 343 990 343 989 345 987 345 986 349 982 349 981 361 969 362 969 366 965 367 965 369 963 370 963 371 962 372 962 373 961 374 962 375 962 381 968 381 969 382 970 382 971 383 972 383 973 384 974 376 982 376 983 372 987 372 988 368 992 368 993 366 995 366 996 363 999 363 1000 360 1003 360 1004 358 1006 358 1007 356 1009 356 1010 354 1012 354 1013 353 1014 353 1015 352 1016 352 1017 351 1018 351 1019 350 1020 350 1021 349 1022 349 1023 348 1024 348 1025 347 1026 347 1027 346 1028 346 1030 345 1031 345 1034 344 1035 344 1039 343 1040 343 1046 343 1045 344 1044 344 1043 345 1042 345 1041 346 1040 346 1038 347 1037 347 1036 348 1035 348 1034 349 1033 349 1032 350 1031 350 1030 351 1029 351 1028 352 1027 352 1026 354 1024 354 1023 355 1022 355 1021 357 1019 357 1018 359 1016 359 1015 363 1011 363 1010 377 996 378 996 381 993 382 993 384 991 385 991 387 989 388 989 389 988 390 988 392 990 393 990 400 997 400 998 387 1011 387 1012 382 1017 382 1018 379 1021 379 1022 376 1025 376 1026 374 1028 374 1029 372 1031 372 1032 370 1034 370 1035 369 1036 369 1037 368 1038 368 1039 367 1040 367 1041 366 1042 366 1043 365 1044 365 1045 364 1046 364 1048 363 1049 363 1050 362 1051 362 1053 361 1054 361 1057 360 1058 360 1061 359 1062 359 1066 358 1067 358 1073 357 1074 357 1086 358 1085 358 1082 359 1081 359 1077 360 1076 360 1073 361 1072 361 1070 362 1069 362 1066 363 1065 363 1063 364 1062 364 1061 365 1060 365 1058 366 1057 366 1055 367 1054 367 1053 368 1052 368 1051 369 1050 369 1049 370 1048 370 1047 371 1046 371 1045 372 1044 372 1043 374 1041 374 1040 375 1039 375 1038 378 1035 378 1034 381 1031 381 1030 398 1013 399 1013 401 1011 402 1011 404 1009 405 1009 407 1007 409 1007 411 1009 411 1010 409 1012 408 1012 402 1018 402 1019 398 1023 398 1024 396 1026 396 1027 394 1029 394 1030 393 1031 393 1032 392 1033 392 1034 391 1035 391 1036 390 1037 390 1038 389 1039 389 1040 388 1041 388 1043 387 1044 387 1046 386 1047 386 1049 385 1050 385 1052 384 1053 384 1057 383 1058 383 1063 382 1064 382 1086 383 1087 383 1090 384 1090 384 1089 383 1088 383 1084 384 1083 384 1074 385 1073 385 1069 386 1068 386 1065 387 1064 387 1061 388 1060 388 1058 389 1057 389 1055 390 1054 390 1052 391 1051 391 1050 392 1049 392 1048 393 1047 393 1045 395 1043 395 1042 396 1041 396 1040 397 1039 397 1038 399 1036 399 1035 401 1033 401 1032 403 1030 404 1031 404 1032 403 1033 403 1035 402 1036 402 1053 403 1054 403 1059 404 1060 404 1064 405 1065 405 1067 406 1068 406 1070 407 1071 407 1072 408 1073 408 1075 409 1076 409 1073 408 1072 408 1065 407 1064 407 1041 408 1040 408 1033 409 1032 409 1028 410 1027 410 1024 411 1023 411 1022 413 1020 414 1020 417 1017 419 1017 423 1021 424 1021 428 1025 429 1025 431 1027 432 1027 434 1029 435 1029 437 1031 438 1031 439 1032 440 1032 442 1034 443 1034 444 1035 445 1035 446 1036 447 1036 448 1037 449 1037 450 1038 451 1038 452 1039 453 1039 454 1040 455 1040 456 1041 457 1041 458 1042 459 1042 460 1043 461 1043 462 1044 463 1044 464 1045 465 1045 466 1046 467 1046 468 1047 469 1047 471 1049 472 1049 473 1050 474 1050 475 1051 476 1051 477 1052 478 1052 479 1053 480 1053 481 1054 482 1054 483 1055 484 1055 485 1056 486 1056 487 1057 488 1057 490 1059 491 1059 492 1060 493 1060 494 1061 495 1061 496 1062 497 1062 498 1063 499 1063 500 1064 501 1064 502 1065 503 1065 504 1066 505 1066 506 1067 507 1067 508 1068 509 1068 510 1069 511 1069 512 1070 513 1070 514 1071 515 1071 517 1073 518 1073 519 1074 520 1074 522 1076 523 1076 524 1077 525 1077 527 1079 528 1079 530 1081 531 1081 533 1083 534 1083 536 1085 537 1085 540 1088 541 1088 544 1091 545 1091 549 1095 550 1095 554 1099 555 1099 562 1106 563 1106 577 1120 577 1121 582 1126 582 1128 583 1129 583 1132 584 1133 584 1138 585 1139 585 1143 586 1144 586 1149 587 1150 587 1155 588 1156 588 1160 589 1161 589 1165 590 1166 590 1171 591 1172 591 1176 592 1177 592 1181 593 1182 593 1186 594 1187 594 1191 595 1192 595 1195 596 1196 596 1200 597 1201 597 1204 598 1205 598 1208 599 1209 599 1212 600 1213 600 1217 601 1218 601 1221 602 1222 602 1225 603 1226 603 1228 604 1229 604 1232 605 1233 605 1236 606 1237 606 1240 607 1241 607 1243 608 1244 608 1246 609 1247 609 1250 610 1251 610 1253 611 1254 611 1256 612 1257 612 1259 613 1260 613 1262 614 1263 614 1265 615 1266 615 1268 616 1269 616 1270 617 1271 617 1273 618 1274 618 1276 619 1277 619 1279 620 1280 620 1282 621 1283 621 1284 622 1285 622 1287 623 1288 623 1290 624 1291 624 1292 625 1293 625 1295 626 1296 626 1297 627 1298 627 1300 628 1301 628 1302 629 1303 629 1304 630 1305 630 1307 631 1308 631 1309 632 1310 632 1311 633 1312 633 1314 634 1315 634 1316 635 1317 635 1319 636 1320 636 1321 637 1322 637 1323 638 1324 638 1325 639 1326 639 1328 640 1329 640 1330 641 1331 641 1332 642 1333 642 1334 643 1335 643 1336 644 1337 644 1338 645 1339 645 1340 646 1341 646 1342 647 1343 647 1344 648 1345 648 1346 649 1347 649 1348 650 1349 650 1350 651 1351 651 1352 652 1353 652 1354 653 1355 653 1356 654 1357 654 1358 655 1359 655 1360 656 1361 656 1362 657 1363 657 1364 658 1365 658 1366 660 1368 660 1369 661 1370 661 1371 662 1372 662 1373 663 1374 663 1375 664 1376 664 1377 666 1379 666 1380 667 1381 667 1382 668 1383 668 1384 670 1386 670 1387 671 1388 671 1389 673 1391 673 1392 674 1393 674 1394 675 1395 675 1396 677 1398 677 1399 678 1400 678 1401 680 1403 680 1404 682 1406 682 1407 684 1409 684 1410 686 1412 686 1413 688 1415 688 1416 690 1418 690 1419 692 1421 692 1422 693 1423 693 1422 692 1421 692 1420 691 1419 691 1417 690 1416 690 1415 689 1414 689 1412 688 1411 688 1410 687 1409 687 1407 686 1406 686 1405 685 1404 685 1402 684 1401 684 1400 683 1399 683 1397 682 1396 682 1395 681 1394 681 1392 680 1391 680 1390 679 1389 679 1388 678 1387 678 1385 677 1384 677 1383 676 1382 676 1381 675 1380 675 1378 674 1377 674 1376 673 1375 673 1373 672 1372 672 1371 671 1370 671 1369 670 1368 670 1366 669 1365 669 1364 668 1363 668 1361 667 1360 667 1359 666 1358 666 1356 665 1355 665 1354 664 1353 664 1351 663 1350 663 1348 662 1347 662 1346 661 1345 661 1343 660 1342 660 1340 659 1339 659 1337 658 1336 658 1335 657 1334 657 1332 656 1331 656 1329 655 1328 655 1326 654 1325 654 1324 653 1323 653 1321 652 1320 652 1318 651 1317 651 1315 650 1314 650 1312 649 1311 649 1309 648 1308 648 1306 647 1305 647 1303 646 1302 646 1300 645 1299 645 1297 644 1296 644 1294 643 1293 643 1290 642 1289 642 1287 641 1286 641 1283 640 1282 640 1279 639 1278 639 1275 638 1274 638 1271 637 1270 637 1268 636 1267 636 1263 635 1262 635 1259 634 1258 634 1255 633 1254 633 1251 632 1250 632 1246 631 1245 631 1241 630 1240 630 1236 629 1235 629 1230 628 1229 628 1223 627 1222 627 1215 626 1214 626 1207 625 1206 625 1196 624 1195 624 1179 623 1178 623 1136 624 1135 624 1134 625 1133 625 1131 626 1130 626 1129 628 1127 628 1126 629 1125 629 1124 630 1123 630 1122 631 1121 631 1120 633 1118 633 1117 635 1115 635 1114 637 1112 637 1111 639 1109 639 1108 641 1106 641 1105 644 1102 644 1101 646 1099 646 1098 650 1094 650 1093 653 1090 653 1089 657 1085 657 1084 660 1081 660 1080 664 1076 664 1075 668 1071 668 1070 671 1067 671 1066 675 1062 675 1061 678 1058 678 1057 682 1053 682 1052 685 1049 685 1048 688 1045 688 1044 691 1041 691 1040 693 1038 693 1037 696 1034 696 1033 698 1031 698 1030 700 1028 700 1027 703 1024 703 1023 705 1021 705 1020 707 1018 707 1017 709 1015 709 1014 710 1013 710 1012 712 1010 712 1009 714 1007 714 1006 715 1005 715 1004 717 1002 717 1001 718 1000 718 999 720 997 720 996 721 995 721 994 723 992 723 991 724 990 724 989 725 988 725 987 727 985 727 984 728 983 728 982 729 981 729 980 730 979 730 978 732 976 732 975 733 974 733 973 734 972 734 971 735 970 735 969 736 968 736 967 737 966 737 965 738 964 738 963 739 962 739 961 740 960 740 959 741 958 741 957 742 956 742 955 743 954 743 953 744 952 744 951 745 950 745 948 746 947 746 946 747 945 747 944 748 943 748 942 749 941 749 939 750 938 750 937 751 936 751 935 752 934 752 933 753 932 753 930 754 929 754 928 755 927 755 925 756 924 756 923 757 922 757 920 758 919 758 918 759 917 759 915 760 914 760 912 761 911 761 909 762 908 762 907 763 906 763 904 764 903 764 901 765 900 765 898 766 897 766 895 767 894 767 891 768 890 768 888 769 887 769 885 770 884 770 881 771 880 771 877 772 876 772 873 773 872 773 869 774 868 774 865 775 864 775 860 776 859 776 855 777 854 777 850 778 849 778 843 779 842 779 836 780 835 780 826 781 825 781 811 782 810 782 787 781 786 781 774 780 773 780 766 779 765 779 760 778 759 778 755 777 754 777 751 776 750 776 747 775 746 775 743 774 742 774 739 773 738 773 736 772 735 772 733 771 732 771 730 770 729 770 727 769 726 769 724 768 723 768 722 767 721 767 719 766 718 766 717 765 716 765 714 764 713 764 712 763 711 763 709 762 708 762 707 761 706 761 704 760 703 760 702 759 701 759 700 758 699 758 698 757 697 757 695 756 694 756 693 755 692 755 691 754 690 754 688 753 687 753 686 752 685 752 684 751 683 751 682 750 681 750 679 749 678 749 677 748 676 748 674 747 673 747 671 746 670 746 659 747 658 747 653 748 652 748 647 749 646 749 640 750 639 750 629 751 628 751 601 750 600 750 593 749 592 749 588 748 587 748 583 747 582 747 579 746 578 746 575 745 574 745 572 744 571 744 569 743 568 743 566 742 565 742 563 741 562 741 561 740 560 740 558 739 557 739 556 738 555 738 554 737 553 737 552 736 551 736 550 735 549 735 548 734 547 734 546 733 545 733 544 732 543 732 542 731 541 731 540 729 538 729 537 727 535 727 534 725 532 725 531 723 529 723 528 720 525 720 524 716 520 716 519 698 501 697 501 693 497 692 497 688 493 687 493 685 491 684 491 682 489 681 489 679 487 678 487 677 486 676 486 674 484 673 484 672 483 671 483 670 482 669 482 668 481 667 481 666 480 665 480 664 479 663 479 662 478 661 478 660 477 659 477 658 476 657 476 656 475 654 475 653 474 651 474 650 473 649 473 648 472 646 472 645 471 643 471 642 470 639 470 638 469 635 469 634 468 631 468 630 467 626 467 625 466 619 466 618 465 610 465 609 464 588 464 587 465 577 465 576 466 570 466 569 467 564 467 563 468 559 468 558 469 555 469 554 470 551 470 550 471 547 471 546 472 543 472 542 473 540 473 539 474 536 474 535 475 533 475 532 476 529 476 528 477 526 477 525 478 523 478 522 479 520 479 519 480 517 480 516 481 514 481 513 482 510 482 509 483 508 483 506 481 506 480 503 477 503 476 501 474 501 473 499 471 499 470 497 468 497 467 496 466 496 465 495 464 495 463 494 462 494 461 493 460 493 459 492 458 492 457 491 456 491 455 490 454 490 452 489 451 489 449 488 448 488 446 487 445 487 443 486 442 486 440 485 439 485 436 484 435 484 432 483 431 483 427 482 426 482 422 481 421 481 415 480 414 480 406 479 405 479 403 478 402 478 401 477 400 477 399 476 398 476 394 477 393 477 384 478 383 478 372 479 371 479 358 480 357 480 341 481 340 481 283 480 282 480 273 479 272 479 267 478 266 478 260 477 259 477 255 476 254 476 250 475 249 475 246 474 245 474 242 473 241 473 238 472 237 472 234 471 233 471 231 470 230 470 227 469 226 469 224 468 223 468 221 467 220 467 218 466 217 466 215 465 214 465 212 464 211 464 209 463 208 463 206 462 205 462 204 461 203 461 201 460 200 460 199 459 198 459 196 458 195 458 194 457 193 457 191 456 190 456 189 455 188 455 187 454 186 454 185 453 184 453 182 452 181 452 180 451 179 451 178 450 177 450 176 449 175 449 174 448 173 448 172 447 171 447 170 445 168 445 167 444 166 444 165 443 164 443 163 441 161 441 160 440 159 440 158 438 156 438 155 436 153 436 152 434 150 434 149 431 146 431 145 429 143 429 142 426 139 426 138 423 135 423 134 419 130 419 129 410 120 410 119 409 118 Z" fill="black"/>
<path d="M 303 255 304 254 336 254 337 255 342 255 344 257 344 258 346 260 346 261 347 262 347 263 348 264 348 265 350 267 350 268 351 269 351 270 352 271 352 272 353 273 353 274 354 275 354 276 355 277 355 278 357 280 357 282 359 284 359 286 360 287 360 288 361 289 361 290 362 291 362 292 363 293 363 294 364 295 364 296 365 297 365 298 366 299 366 300 367 301 367 302 368 303 368 304 369 305 369 306 370 307 370 308 371 309 371 310 372 311 372 313 373 314 373 315 374 316 374 317 375 318 375 320 376 321 376 322 377 323 377 324 378 325 378 326 379 327 379 329 380 330 380 331 381 332 381 333 382 334 382 335 383 336 383 337 380 340 379 340 378 339 377 339 376 338 375 338 374 337 373 337 371 335 370 335 369 334 368 334 367 333 366 333 365 332 364 332 362 330 361 330 359 328 358 328 356 326 355 326 353 324 352 324 350 322 349 322 347 320 346 320 343 317 342 317 339 314 338 314 334 310 333 310 328 305 327 305 313 291 313 290 305 282 305 281 302 278 302 277 282 257 283 256 290 256 291 255 Z" fill="white"/>
</svg>