<svg xmlns="http://www.w3.org/2000/svg" viewBox="0 0 1024 1536" width="100" height="100">
  <path d="M 49 1520 L 48 1521 L 48 1522 L 47 1523 L 46 1523 L 46 1527 L 983 1527 L 983 1520 Z M 39 1496 L 39 1503 L 983 1503 L 983 1496 Z M 31 1472 L 31 1479 L 1023 1479 L 1023 1474 L 984 1474 L 983 1473 L 983 1472 L 35 1472 L 34 1473 L 33 1473 L 32 1474 L 31 1473 Z M 200 1440 L 200 1447 L 199 1448 L 34 1448 L 33 1447 L 32 1447 L 31 1448 L 16 1448 L 16 1453 L 29 1453 L 30 1454 L 31 1454 L 32 1455 L 991 1455 L 992 1454 L 997 1454 L 998 1453 L 1001 1453 L 1001 1448 L 1002 1447 L 1023 1447 L 1023 1440 Z M 491 1286 L 490 1287 Z M 491 1282 L 491 1283 Z M 976 1256 L 976 1263 L 1023 1263 L 1023 1256 Z M 688 1256 L 688 1263 L 703 1263 L 703 1256 Z M 637 1209 L 639 1209 Z M 633 1209 L 634 1209 Z M 856 1208 L 856 1215 L 1023 1215 L 1023 1208 Z M 808 1136 L 808 1143 L 1023 1143 L 1023 1136 Z M 721 1135 L 722 1135 Z M 725 1134 L 726 1135 L 727 1134 L 726 1135 Z M 792 1088 L 792 1095 L 1023 1095 L 1023 1088 Z M 768 1032 L 768 1039 L 790 1039 L 790 1037 L 791 1036 L 792 1036 L 793 1037 L 799 1037 L 800 1038 L 800 1039 L 799 1040 L 798 1040 L 798 1041 L 799 1042 L 799 1047 L 1023 1047 L 1023 1032 Z M 748 954 L 747 955 Z M 745 952 L 745 953 L 746 953 L 747 952 L 746 953 Z M 738 927 L 743 927 Z M 706 918 L 707 918 Z M 277 819 L 277 820 Z M 240 808 L 242 808 Z M 0 808 L 0 815 L 231 815 L 231 808 Z M 269 743 L 272 743 Z M 944 728 L 944 735 L 1023 735 L 1023 728 Z M 72 728 L 72 735 L 239 735 L 239 728 Z M 683 724 L 684 725 Z M 744 656 L 744 663 L 1023 663 L 1023 656 Z M 40 656 L 40 663 L 199 663 L 199 656 Z M 896 584 L 896 591 L 1023 591 L 1023 584 Z M 744 536 L 744 543 L 1023 543 L 1023 536 Z M 816 488 L 816 495 L 1023 495 L 1023 488 Z M 760 464 L 760 473 L 769 473 L 769 472 L 770 471 L 791 471 L 792 472 L 823 472 L 824 471 L 1023 471 L 1023 464 Z M 928 416 L 928 423 L 1023 423 L 1023 416 Z M 706 414 L 706 415 Z M 710 412 L 710 413 L 709 414 L 708 413 L 708 414 L 709 415 L 709 414 L 711 412 Z M 704 411 L 704 412 Z M 366 402 L 365 403 L 366 404 L 365 405 L 367 403 L 367 402 Z M 359 400 L 360 400 Z M 355 400 L 356 400 Z M 880 392 L 880 399 L 1023 399 L 1023 392 Z M 64 368 L 64 375 L 359 375 L 359 368 Z M 936 344 L 936 351 L 1023 351 L 1023 344 Z M 704 340 L 705 341 L 710 341 L 709 340 L 708 340 L 707 341 L 705 341 Z M 824 296 L 824 303 L 1023 303 L 1023 296 Z M 848 272 L 848 279 L 1023 279 L 1023 272 Z M 670 244 L 670 245 L 671 244 Z M 556 244 L 555 245 L 554 245 L 555 245 Z M 638 219 L 637 220 L 636 220 L 636 222 L 639 219 Z M 551 219 L 551 225 Z M 659 200 L 659 207 L 1023 207 L 1023 200 Z M 0 162 L 0 175 L 7 175 L 8 176 L 8 183 L 7 184 L 0 184 L 0 199 L 7 199 L 8 200 L 8 205 L 7 206 L 0 206 L 0 273 L 12 273 L 13 274 L 13 279 L 12 280 L 0 280 L 0 295 L 207 295 L 208 296 L 208 303 L 207 304 L 0 304 L 0 345 L 15 345 L 15 344 L 16 343 L 175 343 L 176 344 L 176 345 L 183 345 L 184 346 L 184 351 L 383 351 L 383 350 L 384 349 L 383 348 L 383 344 L 384 343 L 391 343 L 392 344 L 392 345 L 393 346 L 392 347 L 391 347 L 390 346 L 389 346 L 388 345 L 387 346 L 389 348 L 390 348 L 393 351 L 392 352 L 392 353 L 393 354 L 392 355 L 392 356 L 393 357 L 392 358 L 394 358 L 395 359 L 396 358 L 397 359 L 399 359 L 400 360 L 400 367 L 407 367 L 408 368 L 408 383 L 407 384 L 397 384 L 396 385 L 395 385 L 394 384 L 393 384 L 392 383 L 391 383 L 390 382 L 391 381 L 391 376 L 379 376 L 378 377 L 377 377 L 376 376 L 375 376 L 374 375 L 373 375 L 372 374 L 371 374 L 370 373 L 369 373 L 369 374 L 371 376 L 372 376 L 374 378 L 375 378 L 377 380 L 376 381 L 376 382 L 377 383 L 380 383 L 381 382 L 383 384 L 384 384 L 385 385 L 384 386 L 384 387 L 385 388 L 385 389 L 384 390 L 384 391 L 384 390 L 385 389 L 386 390 L 387 390 L 388 391 L 389 390 L 390 391 L 391 391 L 392 392 L 393 392 L 394 393 L 392 395 L 392 407 L 391 408 L 371 408 L 370 409 L 369 409 L 368 408 L 366 408 L 365 407 L 363 407 L 362 406 L 361 406 L 360 405 L 361 404 L 361 403 L 362 402 L 362 401 L 363 400 L 362 400 L 362 402 L 361 403 L 360 402 L 359 403 L 358 403 L 357 404 L 355 404 L 354 403 L 355 402 L 356 402 L 355 402 L 353 404 L 354 404 L 356 406 L 357 406 L 359 408 L 360 408 L 361 409 L 362 409 L 363 410 L 362 411 L 360 411 L 361 412 L 361 413 L 360 414 L 360 415 L 359 416 L 352 416 L 351 415 L 351 408 L 352 407 L 353 407 L 351 405 L 351 403 L 350 402 L 352 400 L 351 399 L 351 392 L 352 391 L 375 391 L 375 384 L 367 384 L 366 383 L 366 382 L 0 382 L 0 417 L 13 417 L 14 418 L 14 422 L 13 423 L 0 423 L 0 441 L 15 441 L 15 440 L 16 439 L 175 439 L 176 440 L 176 441 L 183 441 L 184 442 L 184 447 L 183 448 L 0 448 L 0 561 L 15 561 L 16 562 L 16 567 L 15 568 L 0 568 L 0 581 L 247 581 L 248 582 L 248 583 L 311 583 L 311 576 L 312 575 L 315 575 L 316 574 L 317 575 L 319 575 L 320 576 L 321 576 L 322 577 L 321 578 L 320 578 L 320 591 L 319 592 L 312 592 L 312 599 L 311 600 L 303 600 L 302 601 L 301 600 L 295 600 L 294 601 L 291 601 L 290 600 L 285 600 L 284 599 L 279 599 L 278 598 L 277 598 L 277 599 L 278 599 L 279 600 L 280 600 L 281 601 L 280 602 L 280 607 L 279 608 L 272 608 L 271 607 L 271 600 L 0 600 L 0 605 L 87 605 L 88 606 L 88 623 L 303 623 L 304 624 L 304 631 L 303 632 L 277 632 L 276 633 L 275 632 L 276 633 L 279 633 L 280 634 L 285 634 L 286 635 L 285 636 L 279 636 L 278 635 L 274 635 L 273 634 L 273 633 L 272 632 L 273 633 L 272 634 L 264 634 L 265 635 L 267 635 L 268 636 L 271 636 L 272 637 L 274 637 L 275 638 L 274 639 L 272 639 L 274 639 L 275 638 L 277 638 L 278 639 L 281 639 L 282 640 L 285 640 L 286 641 L 289 641 L 290 642 L 288 644 L 288 645 L 289 646 L 288 647 L 289 647 L 291 645 L 292 646 L 293 646 L 294 647 L 295 647 L 295 646 L 296 645 L 297 646 L 298 646 L 299 647 L 300 646 L 301 646 L 302 647 L 303 647 L 304 648 L 304 649 L 305 650 L 305 652 L 304 653 L 304 656 L 303 657 L 302 656 L 296 656 L 296 670 L 297 671 L 296 672 L 292 672 L 291 671 L 283 671 L 282 670 L 274 670 L 273 669 L 274 668 L 283 668 L 284 669 L 287 669 L 287 664 L 264 664 L 264 666 L 265 667 L 272 667 L 273 668 L 272 669 L 264 669 L 263 668 L 259 668 L 259 669 L 260 669 L 261 670 L 262 670 L 263 671 L 266 671 L 267 672 L 272 672 L 273 673 L 272 674 L 272 679 L 275 679 L 276 678 L 277 679 L 279 679 L 280 678 L 281 679 L 295 679 L 296 680 L 296 686 L 297 687 L 297 689 L 296 690 L 295 689 L 296 690 L 296 694 L 294 696 L 288 696 L 288 702 L 289 703 L 292 703 L 293 704 L 292 705 L 284 705 L 283 704 L 281 704 L 279 702 L 279 696 L 256 696 L 256 699 L 261 699 L 262 700 L 261 701 L 249 701 L 250 701 L 251 702 L 253 702 L 254 703 L 257 703 L 258 704 L 260 704 L 261 705 L 265 705 L 266 706 L 265 707 L 264 707 L 264 709 L 265 710 L 264 711 L 263 711 L 267 711 L 268 710 L 269 711 L 276 711 L 277 710 L 278 711 L 286 711 L 287 710 L 289 710 L 290 711 L 289 712 L 288 712 L 289 713 L 288 714 L 288 718 L 289 719 L 288 720 L 288 725 L 289 726 L 289 728 L 288 729 L 288 735 L 287 736 L 284 736 L 286 736 L 287 737 L 286 738 L 276 738 L 275 737 L 276 736 L 280 736 L 276 736 L 275 737 L 264 737 L 263 736 L 246 736 L 246 737 L 248 737 L 249 738 L 248 739 L 248 743 L 267 743 L 267 742 L 268 741 L 273 741 L 275 743 L 276 742 L 278 742 L 279 743 L 280 742 L 281 743 L 283 743 L 284 744 L 283 745 L 280 745 L 280 767 L 279 768 L 248 768 L 248 770 L 276 770 L 277 771 L 281 771 L 282 770 L 283 771 L 283 772 L 282 773 L 276 773 L 275 772 L 244 772 L 243 773 L 240 773 L 242 773 L 243 774 L 247 774 L 248 775 L 257 775 L 258 776 L 267 776 L 268 777 L 267 778 L 264 778 L 265 778 L 266 779 L 266 780 L 265 781 L 264 781 L 264 783 L 271 783 L 272 782 L 274 784 L 275 784 L 276 783 L 279 783 L 280 784 L 280 796 L 281 797 L 281 806 L 280 807 L 279 806 L 279 800 L 272 800 L 272 807 L 271 808 L 266 808 L 265 809 L 264 808 L 263 809 L 252 809 L 251 810 L 250 809 L 249 809 L 248 808 L 247 809 L 246 809 L 245 810 L 238 810 L 237 811 L 235 811 L 236 811 L 237 812 L 245 812 L 246 813 L 245 814 L 240 814 L 240 815 L 242 815 L 243 814 L 244 815 L 260 815 L 261 814 L 269 814 L 270 815 L 278 815 L 280 817 L 280 835 L 279 836 L 277 834 L 278 833 L 277 832 L 275 832 L 275 835 L 274 836 L 273 836 L 272 835 L 272 832 L 271 831 L 271 824 L 0 824 L 0 879 L 239 879 L 240 880 L 240 884 L 242 884 L 243 885 L 242 886 L 238 886 L 237 887 L 236 887 L 235 888 L 246 888 L 247 887 L 248 888 L 250 888 L 251 887 L 280 887 L 281 888 L 281 892 L 280 893 L 280 895 L 279 896 L 232 896 L 231 895 L 231 888 L 0 888 L 0 1431 L 15 1431 L 16 1432 L 16 1433 L 22 1433 L 22 1432 L 23 1431 L 1001 1431 L 1002 1432 L 1002 1433 L 1013 1433 L 1013 1432 L 1014 1431 L 1017 1431 L 1017 1424 L 1018 1423 L 1023 1423 L 1023 1296 L 480 1296 L 479 1295 L 479 1288 L 480 1287 L 481 1287 L 482 1286 L 483 1286 L 484 1287 L 484 1289 L 483 1290 L 484 1291 L 485 1290 L 485 1289 L 486 1288 L 486 1286 L 487 1285 L 487 1284 L 488 1283 L 488 1281 L 489 1280 L 489 1279 L 490 1278 L 491 1279 L 495 1279 L 495 1266 L 494 1265 L 494 1264 L 495 1263 L 495 1261 L 496 1260 L 497 1260 L 498 1261 L 497 1262 L 497 1263 L 503 1263 L 503 1256 L 504 1255 L 511 1255 L 512 1254 L 513 1255 L 519 1255 L 519 1251 L 520 1250 L 521 1251 L 521 1257 L 520 1258 L 520 1268 L 519 1269 L 519 1281 L 518 1282 L 517 1281 L 517 1280 L 512 1280 L 512 1287 L 513 1287 L 514 1288 L 515 1287 L 516 1287 L 516 1283 L 517 1282 L 518 1283 L 518 1292 L 519 1292 L 519 1291 L 520 1290 L 520 1286 L 521 1285 L 522 1286 L 522 1287 L 527 1287 L 527 1264 L 528 1263 L 543 1263 L 545 1265 L 544 1266 L 544 1271 L 547 1271 L 548 1270 L 549 1271 L 550 1270 L 551 1271 L 551 1277 L 552 1278 L 552 1282 L 553 1283 L 553 1287 L 554 1288 L 554 1292 L 555 1293 L 556 1293 L 556 1286 L 557 1285 L 558 1286 L 558 1287 L 559 1287 L 559 1264 L 558 1263 L 559 1262 L 559 1260 L 560 1259 L 559 1258 L 561 1256 L 575 1256 L 576 1257 L 576 1258 L 577 1259 L 576 1260 L 576 1263 L 580 1263 L 581 1262 L 582 1263 L 582 1264 L 583 1265 L 583 1267 L 584 1268 L 584 1270 L 585 1271 L 585 1272 L 584 1273 L 585 1273 L 586 1274 L 586 1275 L 584 1277 L 584 1278 L 585 1279 L 586 1279 L 587 1278 L 588 1279 L 588 1280 L 589 1281 L 591 1279 L 589 1277 L 589 1274 L 590 1273 L 590 1272 L 591 1271 L 591 1264 L 590 1263 L 591 1262 L 591 1256 L 588 1256 L 587 1257 L 586 1256 L 586 1258 L 585 1259 L 584 1258 L 584 1254 L 583 1253 L 583 1251 L 582 1250 L 582 1248 L 583 1247 L 603 1247 L 603 1246 L 602 1245 L 603 1244 L 604 1244 L 605 1243 L 606 1244 L 606 1245 L 607 1246 L 606 1247 L 605 1247 L 606 1247 L 607 1246 L 608 1247 L 608 1248 L 609 1249 L 608 1250 L 609 1251 L 608 1252 L 608 1253 L 609 1254 L 608 1255 L 609 1255 L 610 1254 L 611 1255 L 612 1254 L 614 1256 L 614 1257 L 613 1258 L 612 1258 L 611 1257 L 610 1257 L 611 1257 L 612 1258 L 612 1259 L 613 1258 L 614 1259 L 615 1258 L 617 1260 L 616 1261 L 616 1263 L 619 1263 L 621 1265 L 621 1263 L 622 1262 L 623 1263 L 623 1261 L 621 1259 L 622 1258 L 623 1258 L 622 1257 L 623 1256 L 619 1256 L 618 1257 L 617 1256 L 617 1255 L 619 1253 L 617 1255 L 616 1254 L 616 1253 L 615 1252 L 615 1251 L 614 1250 L 614 1249 L 615 1248 L 615 1232 L 616 1231 L 631 1231 L 632 1232 L 632 1237 L 633 1238 L 632 1239 L 635 1239 L 635 1238 L 636 1237 L 637 1237 L 638 1238 L 638 1239 L 639 1239 L 640 1240 L 640 1241 L 640 1240 L 641 1239 L 643 1241 L 642 1242 L 642 1243 L 641 1244 L 640 1243 L 640 1247 L 641 1246 L 643 1246 L 644 1245 L 645 1246 L 645 1247 L 647 1247 L 649 1245 L 648 1244 L 648 1243 L 646 1241 L 647 1240 L 647 1232 L 642 1232 L 642 1233 L 641 1234 L 640 1233 L 640 1232 L 638 1230 L 639 1229 L 639 1216 L 634 1216 L 633 1215 L 632 1216 L 631 1215 L 631 1214 L 633 1212 L 633 1211 L 632 1212 L 631 1211 L 631 1208 L 632 1207 L 650 1207 L 651 1206 L 652 1207 L 653 1206 L 655 1208 L 656 1208 L 657 1209 L 656 1210 L 656 1214 L 657 1215 L 658 1214 L 659 1215 L 661 1215 L 662 1214 L 663 1214 L 665 1216 L 664 1217 L 665 1216 L 667 1218 L 665 1220 L 664 1219 L 664 1221 L 665 1222 L 665 1223 L 665 1222 L 666 1221 L 668 1223 L 671 1223 L 670 1222 L 671 1221 L 672 1221 L 673 1222 L 673 1221 L 670 1218 L 670 1217 L 671 1216 L 671 1208 L 670 1209 L 669 1208 L 664 1208 L 663 1207 L 663 1200 L 664 1199 L 691 1199 L 692 1198 L 693 1199 L 694 1198 L 695 1199 L 695 1196 L 693 1198 L 692 1197 L 692 1196 L 694 1194 L 696 1194 L 695 1193 L 695 1192 L 694 1192 L 692 1190 L 693 1189 L 694 1189 L 695 1190 L 695 1187 L 694 1187 L 693 1186 L 694 1185 L 695 1185 L 695 1184 L 690 1184 L 689 1185 L 687 1183 L 687 1176 L 686 1177 L 685 1176 L 679 1176 L 678 1175 L 679 1174 L 679 1168 L 680 1167 L 711 1167 L 711 1163 L 710 1163 L 709 1162 L 710 1161 L 712 1161 L 713 1162 L 713 1160 L 712 1160 L 710 1158 L 711 1157 L 711 1153 L 710 1152 L 704 1152 L 703 1151 L 703 1144 L 698 1144 L 697 1145 L 696 1144 L 695 1145 L 694 1144 L 691 1144 L 690 1145 L 689 1144 L 688 1144 L 686 1142 L 687 1141 L 687 1136 L 688 1135 L 711 1135 L 711 1127 L 712 1126 L 713 1126 L 714 1127 L 716 1127 L 717 1128 L 719 1128 L 720 1129 L 720 1131 L 720 1130 L 721 1129 L 723 1129 L 724 1130 L 723 1131 L 724 1130 L 727 1130 L 727 1129 L 726 1129 L 725 1128 L 724 1128 L 723 1127 L 724 1126 L 723 1127 L 722 1127 L 721 1126 L 720 1126 L 719 1125 L 718 1125 L 717 1124 L 718 1123 L 719 1123 L 718 1122 L 719 1121 L 719 1120 L 712 1120 L 711 1119 L 711 1112 L 712 1111 L 783 1111 L 784 1112 L 784 1119 L 1023 1119 L 1023 1104 L 728 1104 L 727 1103 L 727 1096 L 726 1095 L 727 1094 L 730 1094 L 731 1095 L 737 1095 L 736 1094 L 735 1094 L 734 1093 L 735 1092 L 735 1088 L 734 1089 L 733 1088 L 724 1088 L 723 1089 L 722 1089 L 721 1088 L 719 1088 L 718 1087 L 719 1086 L 719 1085 L 718 1084 L 719 1083 L 719 1082 L 718 1081 L 718 1080 L 719 1079 L 1023 1079 L 1023 1064 L 992 1064 L 992 1071 L 991 1072 L 712 1072 L 711 1071 L 711 1064 L 712 1063 L 728 1063 L 729 1062 L 730 1063 L 732 1063 L 733 1062 L 734 1063 L 739 1063 L 740 1062 L 743 1062 L 744 1061 L 743 1061 L 742 1060 L 743 1059 L 742 1058 L 743 1057 L 743 1056 L 738 1056 L 737 1057 L 736 1057 L 735 1056 L 733 1056 L 732 1057 L 730 1057 L 729 1056 L 728 1056 L 727 1055 L 727 1054 L 726 1053 L 727 1052 L 727 1036 L 726 1036 L 725 1035 L 725 1034 L 724 1034 L 723 1033 L 722 1033 L 721 1032 L 722 1031 L 742 1031 L 743 1032 L 749 1032 L 744 1032 L 743 1031 L 743 1030 L 738 1030 L 737 1029 L 734 1029 L 733 1030 L 732 1029 L 732 1028 L 733 1027 L 738 1027 L 739 1028 L 748 1028 L 748 1027 L 746 1027 L 745 1026 L 742 1026 L 741 1025 L 742 1024 L 743 1024 L 741 1024 L 740 1025 L 738 1025 L 737 1024 L 734 1024 L 733 1023 L 730 1023 L 729 1022 L 727 1022 L 726 1021 L 727 1020 L 726 1019 L 727 1018 L 727 1017 L 729 1015 L 1023 1015 L 1023 968 L 712 968 L 711 967 L 711 960 L 712 959 L 715 959 L 716 958 L 719 958 L 720 959 L 747 959 L 748 958 L 749 958 L 749 957 L 746 957 L 745 956 L 745 955 L 744 956 L 739 956 L 738 955 L 739 954 L 743 954 L 743 952 L 737 952 L 736 953 L 735 952 L 731 952 L 730 953 L 729 952 L 728 953 L 727 952 L 712 952 L 711 951 L 711 928 L 710 928 L 709 927 L 710 926 L 732 926 L 733 925 L 745 925 L 746 924 L 746 923 L 737 923 L 736 922 L 737 921 L 742 921 L 743 920 L 742 921 L 741 920 L 712 920 L 711 921 L 705 921 L 704 920 L 704 918 L 703 917 L 703 913 L 704 912 L 705 912 L 706 913 L 706 915 L 705 916 L 706 915 L 706 914 L 707 913 L 707 912 L 708 911 L 709 911 L 710 910 L 711 910 L 712 911 L 1023 911 L 1023 896 L 736 896 L 735 895 L 735 889 L 736 888 L 739 888 L 740 887 L 744 887 L 745 886 L 721 886 L 720 885 L 721 884 L 731 884 L 732 883 L 733 884 L 743 884 L 743 880 L 704 880 L 703 879 L 703 872 L 697 872 L 697 873 L 696 874 L 695 873 L 695 869 L 694 868 L 694 866 L 695 865 L 695 864 L 694 863 L 695 862 L 697 862 L 698 863 L 704 863 L 705 862 L 706 863 L 727 863 L 727 858 L 725 858 L 724 857 L 725 856 L 729 856 L 730 855 L 734 855 L 735 854 L 737 854 L 738 853 L 739 853 L 738 852 L 737 853 L 722 853 L 721 854 L 713 854 L 712 853 L 713 852 L 720 852 L 721 851 L 733 851 L 734 850 L 735 851 L 735 848 L 736 847 L 1023 847 L 1023 832 L 992 832 L 992 839 L 991 840 L 689 840 L 689 841 L 688 842 L 687 841 L 687 839 L 686 838 L 686 837 L 687 836 L 687 832 L 689 830 L 691 830 L 692 831 L 697 831 L 698 830 L 699 831 L 711 831 L 711 826 L 713 824 L 715 824 L 716 823 L 718 823 L 719 822 L 721 822 L 722 823 L 727 823 L 727 822 L 726 822 L 725 821 L 726 820 L 728 820 L 729 819 L 730 819 L 731 818 L 732 818 L 724 818 L 723 819 L 718 819 L 717 818 L 718 817 L 722 817 L 723 816 L 727 816 L 723 816 L 722 817 L 721 816 L 719 816 L 718 817 L 717 816 L 696 816 L 696 822 L 697 823 L 696 824 L 692 824 L 691 825 L 690 825 L 689 824 L 688 824 L 687 823 L 687 816 L 680 816 L 679 815 L 679 813 L 678 812 L 679 811 L 679 808 L 680 807 L 687 807 L 687 802 L 686 801 L 688 799 L 692 799 L 693 798 L 694 799 L 703 799 L 703 794 L 701 794 L 700 793 L 701 792 L 703 792 L 704 791 L 706 791 L 707 790 L 708 791 L 711 791 L 711 790 L 710 789 L 711 788 L 712 788 L 713 787 L 715 787 L 715 786 L 716 785 L 715 785 L 714 786 L 711 786 L 710 785 L 712 783 L 1023 783 L 1023 776 L 688 776 L 687 775 L 687 768 L 688 767 L 695 767 L 695 762 L 697 760 L 698 760 L 699 759 L 700 759 L 701 758 L 703 758 L 705 756 L 702 756 L 701 755 L 702 754 L 703 754 L 703 752 L 699 752 L 698 753 L 697 752 L 696 752 L 696 754 L 697 754 L 698 755 L 697 756 L 696 756 L 696 757 L 694 759 L 692 759 L 691 760 L 690 760 L 689 761 L 688 761 L 687 760 L 687 759 L 686 758 L 686 757 L 687 756 L 685 756 L 684 755 L 674 755 L 673 754 L 673 753 L 672 753 L 672 754 L 671 755 L 666 755 L 665 754 L 665 753 L 664 753 L 662 751 L 662 750 L 661 749 L 661 746 L 660 747 L 660 749 L 659 750 L 658 750 L 657 749 L 658 748 L 658 747 L 657 747 L 657 748 L 656 749 L 655 748 L 655 746 L 654 745 L 655 744 L 656 744 L 657 745 L 658 745 L 657 744 L 659 742 L 660 743 L 671 743 L 671 737 L 672 736 L 673 736 L 674 735 L 675 735 L 676 734 L 677 734 L 678 735 L 687 735 L 687 731 L 686 731 L 685 730 L 686 729 L 687 729 L 688 728 L 689 728 L 689 727 L 690 726 L 688 726 L 687 727 L 684 727 L 683 728 L 682 728 L 681 729 L 680 729 L 679 728 L 668 728 L 667 729 L 666 728 L 665 729 L 664 728 L 664 733 L 665 734 L 664 735 L 662 735 L 661 736 L 660 736 L 659 737 L 658 737 L 657 736 L 656 736 L 655 735 L 655 728 L 656 727 L 657 727 L 656 727 L 655 726 L 649 726 L 649 727 L 648 728 L 647 727 L 647 713 L 646 712 L 648 710 L 649 710 L 650 711 L 663 711 L 663 705 L 662 704 L 663 703 L 665 703 L 666 702 L 667 702 L 668 703 L 679 703 L 679 696 L 678 697 L 677 696 L 677 695 L 676 695 L 675 696 L 674 696 L 673 697 L 671 695 L 671 688 L 648 688 L 647 687 L 647 680 L 648 679 L 655 679 L 655 674 L 654 673 L 657 670 L 658 670 L 660 668 L 658 668 L 657 669 L 656 669 L 655 668 L 655 664 L 648 664 L 649 664 L 650 665 L 649 666 L 649 667 L 648 668 L 648 671 L 649 672 L 648 673 L 647 673 L 646 672 L 644 672 L 643 673 L 642 672 L 632 672 L 631 673 L 628 673 L 627 674 L 626 673 L 625 674 L 623 672 L 623 659 L 624 658 L 625 659 L 626 658 L 626 657 L 625 656 L 627 654 L 630 657 L 629 658 L 628 658 L 629 658 L 630 659 L 631 659 L 630 659 L 629 658 L 630 657 L 631 657 L 632 656 L 630 654 L 630 653 L 631 652 L 630 653 L 627 650 L 627 649 L 628 648 L 630 650 L 631 650 L 631 644 L 629 644 L 630 645 L 630 646 L 631 647 L 630 648 L 629 648 L 626 645 L 626 642 L 627 641 L 626 642 L 625 641 L 624 641 L 622 639 L 623 638 L 622 637 L 623 636 L 623 632 L 624 631 L 1023 631 L 1023 624 L 639 624 L 638 623 L 637 624 L 636 623 L 636 622 L 637 621 L 636 620 L 636 619 L 637 618 L 638 619 L 639 619 L 640 620 L 640 621 L 641 621 L 642 622 L 643 621 L 638 616 L 639 615 L 639 608 L 632 608 L 631 609 L 629 607 L 630 606 L 631 606 L 631 600 L 632 599 L 647 599 L 647 591 L 648 590 L 649 590 L 650 591 L 651 591 L 652 592 L 653 592 L 654 593 L 655 593 L 655 592 L 654 591 L 655 590 L 655 586 L 653 584 L 651 584 L 649 586 L 648 586 L 647 585 L 648 584 L 647 583 L 647 576 L 639 576 L 638 575 L 639 574 L 639 568 L 640 567 L 655 567 L 655 560 L 651 560 L 650 559 L 651 558 L 652 558 L 653 557 L 654 558 L 656 558 L 656 557 L 657 556 L 658 557 L 658 558 L 659 559 L 660 558 L 662 558 L 663 559 L 664 559 L 665 560 L 666 560 L 667 561 L 669 561 L 670 562 L 671 562 L 671 561 L 670 560 L 671 559 L 671 557 L 670 556 L 671 555 L 671 552 L 669 552 L 668 553 L 667 553 L 666 552 L 660 552 L 659 553 L 658 552 L 657 552 L 655 550 L 654 550 L 653 549 L 654 548 L 655 548 L 655 544 L 648 544 L 647 543 L 647 536 L 648 535 L 671 535 L 671 527 L 672 526 L 674 526 L 676 528 L 678 528 L 679 529 L 682 529 L 683 530 L 682 531 L 680 531 L 680 535 L 687 535 L 687 530 L 686 529 L 687 528 L 686 529 L 685 529 L 683 527 L 681 527 L 679 525 L 679 521 L 678 520 L 672 520 L 671 521 L 670 521 L 669 520 L 670 519 L 669 520 L 668 520 L 667 519 L 666 519 L 665 518 L 663 518 L 662 517 L 663 516 L 664 516 L 663 515 L 663 512 L 664 511 L 759 511 L 760 512 L 760 519 L 1023 519 L 1023 504 L 696 504 L 695 503 L 695 502 L 694 502 L 693 501 L 694 500 L 696 500 L 697 501 L 699 501 L 699 500 L 698 499 L 696 499 L 695 498 L 694 498 L 693 497 L 694 496 L 695 496 L 694 496 L 693 497 L 692 497 L 691 496 L 689 496 L 688 495 L 687 495 L 686 494 L 687 493 L 687 488 L 681 488 L 680 489 L 679 488 L 678 488 L 678 489 L 677 490 L 676 490 L 675 489 L 676 488 L 675 488 L 674 489 L 673 488 L 672 488 L 671 487 L 671 480 L 672 479 L 695 479 L 695 471 L 696 470 L 697 471 L 700 471 L 701 470 L 702 471 L 703 471 L 702 471 L 701 470 L 702 469 L 708 469 L 707 468 L 706 468 L 705 467 L 703 467 L 702 466 L 702 464 L 700 464 L 699 465 L 697 465 L 696 464 L 695 464 L 694 463 L 695 462 L 695 456 L 696 455 L 1023 455 L 1023 448 L 696 448 L 695 447 L 695 440 L 697 438 L 701 438 L 702 439 L 709 439 L 710 440 L 715 440 L 715 439 L 714 438 L 712 438 L 711 437 L 708 437 L 707 436 L 708 435 L 711 435 L 711 432 L 697 432 L 696 433 L 693 433 L 692 432 L 689 432 L 687 430 L 687 429 L 686 428 L 687 427 L 686 426 L 686 425 L 688 423 L 695 423 L 695 414 L 696 413 L 697 414 L 697 415 L 697 413 L 698 412 L 699 413 L 699 415 L 701 415 L 702 414 L 703 415 L 704 415 L 702 413 L 700 413 L 699 412 L 699 411 L 697 411 L 696 412 L 695 411 L 680 411 L 679 410 L 680 409 L 717 409 L 717 408 L 714 408 L 713 407 L 708 407 L 707 406 L 708 405 L 711 405 L 711 393 L 688 393 L 687 392 L 684 392 L 684 396 L 683 397 L 682 396 L 682 392 L 681 392 L 681 396 L 680 397 L 679 396 L 679 383 L 680 382 L 681 383 L 690 383 L 691 382 L 692 382 L 693 383 L 699 383 L 698 382 L 699 381 L 700 381 L 701 382 L 701 383 L 707 383 L 708 382 L 709 383 L 710 382 L 711 383 L 711 382 L 710 381 L 711 380 L 711 379 L 710 378 L 711 377 L 716 377 L 717 376 L 719 376 L 719 375 L 696 375 L 695 376 L 679 376 L 678 375 L 679 374 L 679 368 L 680 367 L 1023 367 L 1023 360 L 688 360 L 687 359 L 687 353 L 686 353 L 684 355 L 683 354 L 682 354 L 681 353 L 682 352 L 684 352 L 685 351 L 688 351 L 689 350 L 691 350 L 692 351 L 696 351 L 697 350 L 698 350 L 699 351 L 701 351 L 702 350 L 703 350 L 704 351 L 711 351 L 711 349 L 710 348 L 711 347 L 709 347 L 708 346 L 709 345 L 712 345 L 713 344 L 715 344 L 716 343 L 717 343 L 718 342 L 712 342 L 711 343 L 703 343 L 702 344 L 699 344 L 698 345 L 694 345 L 693 344 L 694 343 L 695 343 L 695 336 L 696 335 L 707 335 L 708 336 L 708 337 L 709 337 L 709 336 L 711 334 L 712 334 L 713 333 L 714 334 L 714 335 L 1023 335 L 1023 320 L 760 320 L 760 326 L 759 327 L 755 327 L 754 328 L 687 328 L 686 327 L 687 326 L 686 325 L 687 324 L 687 323 L 685 323 L 684 322 L 685 321 L 686 321 L 687 320 L 689 320 L 690 319 L 692 319 L 693 318 L 694 319 L 697 319 L 698 318 L 699 319 L 699 318 L 700 317 L 702 317 L 703 318 L 702 319 L 703 319 L 704 318 L 703 318 L 702 317 L 703 316 L 704 316 L 702 316 L 701 315 L 702 314 L 703 314 L 704 313 L 705 313 L 706 314 L 708 314 L 709 315 L 707 317 L 706 317 L 708 319 L 711 319 L 711 315 L 710 314 L 710 313 L 711 312 L 710 313 L 710 314 L 709 315 L 708 314 L 706 314 L 705 313 L 706 312 L 708 312 L 709 311 L 709 310 L 707 310 L 706 311 L 702 311 L 701 312 L 699 312 L 698 313 L 697 313 L 695 311 L 695 306 L 688 306 L 687 305 L 686 305 L 685 306 L 674 306 L 673 305 L 673 304 L 672 304 L 671 303 L 671 296 L 673 294 L 674 295 L 679 295 L 679 289 L 678 288 L 680 286 L 681 286 L 682 287 L 687 287 L 687 283 L 686 282 L 691 277 L 691 276 L 690 276 L 689 277 L 688 277 L 687 278 L 686 278 L 685 279 L 684 279 L 682 281 L 681 281 L 680 280 L 681 279 L 679 281 L 678 280 L 677 280 L 677 281 L 676 282 L 675 282 L 674 281 L 675 280 L 672 280 L 672 285 L 673 286 L 671 288 L 670 288 L 669 289 L 668 288 L 665 288 L 664 289 L 663 288 L 663 280 L 648 280 L 647 279 L 647 274 L 646 273 L 648 271 L 655 271 L 655 268 L 654 267 L 655 266 L 655 264 L 656 263 L 663 263 L 663 255 L 662 255 L 661 256 L 660 255 L 660 254 L 662 252 L 663 253 L 662 252 L 662 251 L 665 248 L 665 247 L 666 246 L 667 247 L 666 246 L 666 244 L 667 243 L 667 242 L 660 249 L 659 248 L 658 249 L 656 249 L 658 249 L 659 250 L 655 254 L 655 255 L 653 257 L 652 256 L 648 256 L 649 257 L 648 258 L 648 260 L 649 261 L 646 264 L 644 264 L 643 265 L 642 264 L 642 265 L 641 266 L 640 265 L 640 264 L 637 264 L 636 263 L 636 260 L 637 259 L 637 258 L 636 257 L 636 256 L 624 256 L 623 255 L 623 245 L 622 244 L 622 243 L 624 241 L 624 240 L 625 239 L 631 239 L 631 228 L 630 227 L 630 226 L 631 225 L 631 224 L 632 223 L 632 222 L 633 221 L 634 222 L 634 221 L 633 220 L 634 219 L 633 218 L 633 217 L 634 216 L 632 218 L 631 217 L 631 216 L 630 217 L 629 216 L 627 216 L 626 217 L 625 216 L 624 217 L 625 216 L 626 217 L 627 217 L 628 218 L 626 220 L 625 219 L 624 220 L 624 225 L 625 226 L 624 227 L 624 228 L 625 229 L 625 230 L 623 232 L 616 232 L 616 242 L 615 243 L 613 243 L 613 244 L 614 245 L 612 247 L 611 246 L 611 243 L 608 243 L 608 247 L 607 248 L 598 248 L 597 249 L 594 249 L 593 248 L 590 248 L 589 247 L 590 246 L 591 246 L 591 243 L 590 242 L 591 241 L 591 209 L 590 208 L 590 203 L 589 202 L 589 204 L 588 205 L 588 209 L 587 210 L 586 209 L 586 208 L 585 209 L 584 208 L 584 218 L 585 219 L 585 222 L 584 223 L 584 227 L 583 228 L 583 233 L 582 234 L 581 233 L 581 232 L 576 232 L 576 239 L 575 240 L 560 240 L 560 243 L 559 244 L 560 245 L 562 245 L 563 246 L 562 247 L 556 247 L 555 248 L 552 248 L 551 247 L 551 238 L 550 237 L 550 229 L 551 228 L 551 227 L 550 228 L 549 227 L 549 218 L 550 217 L 551 217 L 551 208 L 550 207 L 551 206 L 551 203 L 549 201 L 549 207 L 548 208 L 547 207 L 547 200 L 546 199 L 545 200 L 545 227 L 544 228 L 544 229 L 545 230 L 545 232 L 544 233 L 545 234 L 544 235 L 544 247 L 543 248 L 528 248 L 527 247 L 527 245 L 526 244 L 527 243 L 527 240 L 521 240 L 521 241 L 520 242 L 519 241 L 519 240 L 518 239 L 518 237 L 519 236 L 519 235 L 519 236 L 518 237 L 517 236 L 517 235 L 516 234 L 516 232 L 517 231 L 518 232 L 518 233 L 518 232 L 519 231 L 519 224 L 514 224 L 513 225 L 512 224 L 512 222 L 511 221 L 511 220 L 509 218 L 509 222 L 510 223 L 510 226 L 509 227 L 508 226 L 507 226 L 508 226 L 509 227 L 510 226 L 511 227 L 511 229 L 509 231 L 508 231 L 510 231 L 511 230 L 512 231 L 512 233 L 513 234 L 513 236 L 512 237 L 512 239 L 512 238 L 513 237 L 514 238 L 514 240 L 513 241 L 512 241 L 513 242 L 513 241 L 514 240 L 515 241 L 515 243 L 514 244 L 514 246 L 513 247 L 512 247 L 511 248 L 504 248 L 504 255 L 505 256 L 505 257 L 511 257 L 512 258 L 512 263 L 511 264 L 498 264 L 498 265 L 497 266 L 496 265 L 496 264 L 494 262 L 495 261 L 495 253 L 494 252 L 495 251 L 495 248 L 488 248 L 487 249 L 486 248 L 486 247 L 487 246 L 487 240 L 486 241 L 485 240 L 481 240 L 482 241 L 482 242 L 481 243 L 477 239 L 477 240 L 478 241 L 478 242 L 479 243 L 479 245 L 480 246 L 480 247 L 479 248 L 472 248 L 471 247 L 471 232 L 472 231 L 501 231 L 501 228 L 503 226 L 504 226 L 505 225 L 504 225 L 503 224 L 503 216 L 504 215 L 510 215 L 511 216 L 512 215 L 543 215 L 543 208 L 500 208 L 499 209 L 498 209 L 497 208 L 481 208 L 480 209 L 479 208 L 477 208 L 476 207 L 476 206 L 473 206 L 473 207 L 472 208 L 471 208 L 470 209 L 464 209 L 463 208 L 463 200 L 464 199 L 470 199 L 470 198 L 471 197 L 472 197 L 473 198 L 473 199 L 543 199 L 543 192 L 544 191 L 751 191 L 751 184 L 752 183 L 767 183 L 768 184 L 768 191 L 1023 191 L 1023 162 Z M 480 120 L 480 127 L 479 128 L 56 128 L 55 127 L 48 127 L 47 128 L 40 128 L 40 129 L 39 130 L 18 130 L 18 135 L 17 136 L 0 136 L 0 143 L 1023 143 L 1023 136 L 1008 136 L 1007 135 L 1007 128 L 1008 127 L 1023 127 L 1023 120 Z M 25 104 L 25 109 L 39 109 L 40 110 L 40 111 L 47 111 L 48 112 L 61 112 L 62 111 L 63 111 L 64 112 L 65 112 L 66 111 L 981 111 L 982 112 L 985 112 L 986 111 L 991 111 L 991 110 L 992 109 L 997 109 L 997 104 Z M 152 48 L 152 55 L 151 56 L 50 56 L 50 63 L 983 63 L 983 56 L 984 55 L 1023 55 L 1023 48 Z M 272 24 L 272 31 L 1023 31 L 1023 24 Z M 288 8 L 288 15 L 1023 15 L 1023 8 Z " fill="black"/>
</svg>