<svg xmlns="http://www.w3.org/2000/svg" viewBox="0 0 1024 1536" width="100" height="100">
  <path d="M 784 254 L 783 255 L 782 255 L 780 257 L 779 257 L 771 265 L 770 265 L 767 268 L 767 269 L 755 281 L 755 282 L 750 287 L 750 288 L 745 293 L 745 294 L 742 297 L 742 298 L 739 301 L 739 302 L 736 305 L 736 306 L 734 308 L 734 309 L 731 312 L 731 313 L 729 315 L 729 316 L 727 318 L 727 319 L 725 321 L 725 322 L 723 324 L 723 325 L 722 326 L 722 327 L 720 329 L 720 330 L 718 332 L 718 333 L 717 334 L 717 335 L 715 337 L 715 338 L 713 340 L 713 341 L 712 342 L 712 343 L 710 345 L 710 346 L 709 347 L 709 348 L 707 350 L 707 351 L 706 352 L 706 353 L 705 354 L 705 355 L 704 356 L 704 357 L 702 359 L 702 360 L 701 361 L 701 362 L 700 363 L 700 364 L 698 366 L 698 367 L 697 368 L 697 369 L 696 370 L 696 371 L 695 372 L 695 373 L 694 374 L 694 375 L 693 376 L 693 377 L 692 378 L 692 379 L 690 381 L 690 382 L 689 383 L 689 384 L 688 385 L 688 387 L 686 389 L 686 390 L 685 391 L 685 393 L 684 394 L 684 395 L 682 397 L 682 399 L 681 400 L 681 401 L 680 402 L 680 403 L 679 404 L 679 405 L 678 406 L 678 407 L 677 408 L 677 410 L 676 411 L 676 412 L 675 413 L 675 414 L 674 415 L 674 416 L 673 417 L 673 419 L 672 420 L 672 421 L 671 422 L 671 423 L 670 424 L 670 425 L 669 426 L 669 428 L 668 429 L 668 430 L 667 431 L 667 433 L 666 434 L 666 435 L 665 436 L 665 437 L 664 438 L 664 439 L 663 440 L 663 442 L 662 443 L 662 444 L 661 445 L 661 447 L 660 448 L 660 449 L 659 450 L 659 451 L 658 452 L 658 454 L 657 455 L 657 456 L 656 457 L 656 458 L 655 459 L 655 461 L 654 462 L 654 466 L 653 467 L 653 471 L 652 472 L 652 476 L 651 477 L 651 480 L 650 481 L 650 485 L 649 486 L 649 490 L 648 491 L 648 495 L 647 496 L 647 500 L 646 501 L 646 504 L 645 505 L 645 509 L 644 510 L 644 514 L 643 515 L 643 518 L 642 519 L 642 522 L 641 523 L 641 527 L 640 528 L 640 531 L 639 532 L 639 535 L 638 536 L 638 540 L 637 541 L 637 544 L 636 545 L 636 548 L 635 549 L 635 553 L 634 554 L 634 557 L 633 558 L 633 561 L 632 562 L 632 565 L 631 566 L 631 570 L 630 571 L 630 573 L 629 574 L 629 576 L 627 578 L 626 578 L 623 581 L 622 581 L 619 584 L 618 584 L 616 586 L 615 586 L 612 589 L 611 589 L 609 591 L 608 591 L 605 594 L 604 594 L 602 596 L 601 596 L 599 598 L 598 598 L 595 601 L 594 601 L 592 603 L 591 603 L 588 606 L 587 606 L 584 609 L 583 609 L 581 611 L 580 611 L 577 614 L 576 614 L 573 617 L 572 617 L 569 620 L 568 620 L 565 623 L 564 623 L 562 625 L 561 624 L 561 621 L 560 620 L 560 617 L 559 616 L 559 614 L 558 613 L 558 612 L 557 611 L 557 609 L 556 608 L 556 607 L 555 606 L 555 605 L 554 604 L 554 603 L 552 601 L 552 600 L 551 599 L 551 598 L 549 596 L 549 595 L 546 592 L 546 591 L 542 587 L 542 586 L 536 580 L 535 580 L 533 578 L 533 577 L 534 576 L 535 576 L 536 575 L 537 575 L 539 573 L 540 573 L 546 567 L 546 566 L 547 565 L 547 564 L 548 563 L 548 561 L 549 560 L 549 555 L 550 554 L 549 553 L 549 548 L 548 547 L 548 545 L 547 544 L 547 543 L 546 542 L 546 541 L 540 535 L 539 535 L 537 533 L 536 533 L 535 532 L 533 532 L 532 531 L 530 531 L 529 530 L 527 530 L 526 529 L 527 528 L 527 527 L 531 523 L 532 523 L 537 518 L 538 518 L 541 515 L 542 515 L 544 513 L 545 513 L 547 511 L 548 511 L 550 509 L 551 509 L 553 507 L 554 507 L 555 506 L 556 506 L 558 504 L 560 504 L 561 503 L 561 500 L 558 500 L 557 501 L 555 501 L 554 502 L 553 502 L 552 503 L 551 503 L 550 504 L 549 504 L 548 505 L 547 505 L 545 507 L 544 507 L 543 508 L 542 508 L 539 511 L 538 511 L 537 510 L 541 506 L 542 506 L 546 502 L 547 502 L 549 500 L 550 500 L 552 498 L 553 498 L 555 496 L 556 496 L 558 494 L 559 494 L 560 493 L 561 493 L 563 491 L 564 491 L 566 489 L 567 489 L 568 488 L 569 488 L 571 486 L 572 486 L 572 483 L 569 483 L 568 484 L 566 484 L 565 485 L 563 485 L 562 486 L 561 486 L 560 487 L 559 487 L 558 488 L 557 488 L 556 489 L 555 489 L 554 490 L 553 490 L 552 491 L 551 491 L 550 492 L 549 492 L 547 494 L 546 494 L 544 496 L 543 495 L 543 494 L 544 493 L 544 492 L 547 489 L 548 489 L 549 488 L 550 488 L 551 487 L 552 487 L 553 486 L 554 486 L 556 484 L 557 484 L 559 482 L 560 482 L 561 481 L 562 481 L 563 480 L 564 480 L 566 478 L 567 478 L 568 477 L 569 477 L 571 475 L 572 475 L 573 474 L 574 474 L 575 473 L 576 473 L 578 471 L 579 471 L 582 468 L 581 467 L 581 466 L 578 466 L 577 467 L 576 467 L 575 468 L 573 468 L 572 469 L 571 469 L 570 470 L 569 470 L 568 471 L 567 471 L 566 472 L 565 472 L 564 473 L 563 473 L 562 474 L 561 474 L 560 475 L 559 475 L 558 476 L 557 476 L 555 478 L 554 478 L 553 479 L 552 479 L 551 478 L 556 473 L 557 473 L 560 470 L 561 470 L 562 469 L 563 469 L 566 466 L 567 466 L 568 465 L 569 465 L 571 463 L 572 463 L 573 462 L 574 462 L 576 460 L 577 460 L 578 459 L 579 459 L 580 458 L 581 458 L 582 457 L 583 457 L 584 456 L 586 456 L 587 455 L 588 455 L 589 454 L 590 454 L 591 453 L 592 453 L 593 452 L 593 450 L 586 450 L 585 451 L 583 451 L 582 452 L 580 452 L 579 453 L 578 453 L 577 454 L 575 454 L 574 455 L 573 455 L 572 456 L 571 456 L 570 457 L 569 457 L 568 458 L 567 458 L 566 459 L 565 459 L 563 461 L 562 461 L 561 460 L 564 457 L 564 456 L 567 453 L 568 453 L 569 452 L 570 452 L 572 450 L 573 450 L 574 449 L 575 449 L 576 448 L 577 448 L 578 447 L 579 447 L 581 445 L 582 445 L 583 444 L 585 444 L 586 443 L 587 443 L 588 442 L 589 442 L 590 441 L 592 441 L 593 440 L 594 440 L 595 439 L 597 439 L 598 438 L 599 438 L 600 437 L 601 437 L 602 436 L 603 436 L 603 433 L 598 433 L 597 434 L 595 434 L 594 435 L 592 435 L 591 436 L 588 436 L 587 437 L 585 437 L 584 438 L 583 438 L 582 439 L 580 439 L 579 440 L 577 440 L 576 441 L 575 441 L 574 440 L 578 436 L 579 436 L 580 435 L 582 435 L 583 434 L 584 434 L 585 433 L 586 433 L 587 432 L 588 432 L 589 431 L 590 431 L 591 430 L 592 430 L 593 429 L 594 429 L 595 428 L 596 428 L 597 427 L 599 427 L 600 426 L 601 426 L 602 425 L 603 425 L 604 424 L 605 424 L 606 423 L 607 423 L 608 422 L 609 422 L 610 421 L 611 421 L 612 420 L 613 420 L 615 418 L 614 417 L 608 417 L 607 418 L 605 418 L 604 419 L 602 419 L 601 420 L 599 420 L 598 421 L 596 421 L 595 422 L 594 422 L 593 423 L 591 423 L 590 424 L 589 424 L 588 425 L 587 425 L 586 426 L 585 426 L 584 425 L 587 422 L 587 421 L 589 419 L 591 419 L 592 418 L 593 418 L 594 417 L 595 417 L 596 416 L 597 416 L 598 415 L 600 415 L 601 414 L 602 414 L 603 413 L 604 413 L 605 412 L 606 412 L 607 411 L 608 411 L 609 410 L 610 410 L 611 409 L 612 409 L 613 408 L 614 408 L 615 407 L 616 407 L 617 406 L 618 406 L 619 405 L 620 405 L 622 403 L 623 403 L 623 402 L 624 401 L 623 400 L 619 400 L 618 401 L 616 401 L 615 402 L 614 402 L 613 403 L 611 403 L 610 404 L 609 404 L 608 405 L 607 405 L 606 406 L 605 406 L 604 407 L 603 407 L 602 408 L 601 408 L 600 409 L 599 409 L 598 408 L 603 403 L 604 403 L 617 390 L 618 390 L 622 386 L 623 386 L 628 381 L 628 379 L 624 379 L 623 380 L 622 380 L 621 381 L 620 381 L 618 383 L 617 383 L 615 385 L 614 385 L 611 388 L 610 388 L 603 395 L 602 395 L 596 401 L 595 400 L 595 398 L 596 397 L 596 394 L 597 393 L 597 392 L 598 391 L 598 388 L 599 387 L 599 386 L 600 385 L 600 382 L 601 381 L 601 380 L 600 379 L 599 379 L 596 382 L 596 383 L 595 384 L 595 385 L 594 386 L 594 387 L 593 388 L 593 389 L 592 390 L 592 391 L 591 392 L 591 393 L 590 394 L 590 396 L 589 397 L 589 398 L 588 399 L 588 401 L 587 402 L 587 404 L 586 405 L 586 407 L 585 408 L 585 411 L 584 412 L 584 413 L 581 416 L 581 417 L 580 418 L 579 417 L 579 414 L 580 413 L 580 408 L 581 407 L 581 402 L 582 401 L 582 395 L 583 394 L 583 391 L 581 389 L 579 391 L 579 393 L 578 394 L 578 396 L 577 397 L 577 399 L 576 400 L 576 403 L 575 404 L 575 407 L 574 408 L 574 411 L 573 412 L 573 416 L 572 417 L 572 421 L 571 422 L 571 428 L 569 430 L 569 431 L 567 433 L 566 432 L 566 427 L 567 426 L 567 401 L 565 401 L 564 402 L 564 405 L 563 406 L 563 410 L 562 411 L 562 417 L 561 418 L 561 425 L 560 426 L 560 435 L 559 436 L 559 445 L 558 446 L 558 447 L 556 449 L 555 448 L 555 442 L 554 441 L 554 435 L 553 434 L 553 427 L 552 426 L 552 420 L 551 419 L 549 419 L 549 421 L 548 422 L 548 433 L 549 434 L 549 459 L 550 460 L 550 461 L 549 462 L 549 463 L 547 465 L 546 464 L 546 457 L 545 456 L 545 452 L 544 451 L 544 447 L 543 446 L 543 442 L 542 441 L 542 439 L 541 438 L 541 437 L 540 436 L 538 436 L 538 446 L 539 447 L 539 454 L 540 455 L 540 464 L 541 465 L 541 473 L 542 474 L 542 477 L 541 478 L 541 479 L 540 480 L 538 478 L 538 473 L 537 472 L 537 468 L 536 467 L 536 464 L 535 463 L 535 460 L 534 459 L 534 457 L 533 456 L 533 455 L 532 454 L 530 454 L 530 464 L 531 465 L 531 471 L 532 472 L 532 477 L 533 478 L 533 484 L 534 485 L 534 489 L 535 490 L 535 491 L 534 492 L 534 493 L 532 495 L 531 494 L 531 489 L 530 488 L 530 485 L 529 484 L 529 480 L 528 479 L 528 476 L 527 475 L 527 473 L 525 471 L 524 472 L 524 482 L 525 483 L 525 490 L 526 491 L 526 497 L 527 498 L 527 504 L 528 505 L 527 506 L 527 510 L 526 511 L 526 514 L 525 515 L 525 518 L 524 519 L 524 521 L 523 522 L 523 525 L 522 526 L 522 527 L 521 528 L 519 528 L 518 527 L 505 527 L 504 528 L 502 528 L 500 526 L 500 524 L 499 523 L 499 521 L 498 520 L 498 517 L 497 516 L 497 513 L 496 512 L 496 510 L 495 509 L 495 501 L 496 500 L 496 494 L 497 493 L 497 487 L 498 486 L 498 478 L 499 477 L 499 472 L 498 471 L 497 471 L 496 472 L 496 473 L 495 474 L 495 477 L 494 478 L 494 480 L 493 481 L 493 485 L 492 486 L 492 490 L 491 491 L 491 494 L 490 495 L 489 494 L 489 493 L 488 492 L 488 488 L 489 487 L 489 481 L 490 480 L 490 475 L 491 474 L 491 468 L 492 467 L 492 461 L 493 460 L 493 455 L 492 454 L 491 454 L 489 456 L 489 458 L 488 459 L 488 461 L 487 462 L 487 464 L 486 465 L 486 469 L 485 470 L 485 474 L 484 475 L 484 481 L 483 482 L 482 481 L 482 480 L 481 479 L 481 478 L 480 477 L 480 475 L 481 474 L 481 467 L 482 466 L 482 458 L 483 457 L 483 449 L 484 448 L 484 436 L 482 436 L 481 437 L 481 439 L 480 440 L 480 442 L 479 443 L 479 447 L 478 448 L 478 453 L 477 454 L 477 460 L 476 461 L 476 465 L 475 466 L 473 464 L 473 462 L 472 461 L 472 453 L 473 452 L 473 438 L 474 437 L 474 420 L 473 419 L 471 419 L 471 420 L 470 421 L 470 428 L 469 429 L 469 435 L 468 436 L 468 442 L 467 443 L 467 448 L 466 449 L 464 447 L 464 446 L 463 445 L 463 434 L 462 433 L 462 422 L 461 421 L 461 412 L 460 411 L 460 406 L 459 405 L 459 402 L 458 401 L 456 401 L 456 432 L 455 433 L 453 431 L 453 430 L 452 429 L 452 427 L 451 426 L 451 421 L 450 420 L 450 416 L 449 415 L 449 411 L 448 410 L 448 407 L 447 406 L 447 403 L 446 402 L 446 399 L 445 398 L 445 395 L 444 394 L 444 392 L 443 391 L 443 390 L 442 389 L 441 390 L 440 390 L 440 398 L 441 399 L 441 406 L 442 407 L 442 411 L 443 412 L 443 416 L 444 417 L 444 418 L 443 419 L 439 415 L 439 414 L 438 413 L 438 412 L 437 411 L 437 408 L 436 407 L 436 405 L 435 404 L 435 402 L 434 401 L 434 399 L 433 398 L 433 396 L 432 395 L 432 394 L 431 393 L 431 392 L 430 391 L 430 389 L 429 388 L 429 387 L 428 386 L 428 385 L 427 384 L 427 383 L 425 381 L 425 380 L 424 380 L 423 379 L 422 380 L 422 384 L 423 385 L 423 387 L 424 388 L 424 390 L 425 391 L 425 393 L 426 394 L 426 396 L 427 397 L 427 400 L 428 401 L 428 402 L 427 403 L 412 388 L 411 388 L 407 384 L 406 384 L 405 383 L 404 383 L 402 381 L 401 381 L 400 380 L 399 380 L 398 379 L 395 379 L 394 380 L 394 381 L 399 386 L 400 386 L 403 389 L 404 389 L 421 406 L 422 406 L 425 409 L 424 410 L 423 410 L 421 408 L 419 408 L 418 407 L 417 407 L 415 405 L 413 405 L 412 404 L 411 404 L 410 403 L 409 403 L 408 402 L 406 402 L 405 401 L 403 401 L 402 400 L 398 400 L 398 402 L 399 403 L 400 403 L 402 405 L 403 405 L 404 406 L 405 406 L 406 407 L 407 407 L 408 408 L 409 408 L 410 409 L 411 409 L 412 410 L 413 410 L 414 411 L 415 411 L 416 412 L 417 412 L 418 413 L 419 413 L 420 414 L 421 414 L 422 415 L 423 415 L 424 416 L 425 416 L 426 417 L 427 417 L 428 418 L 429 418 L 430 419 L 432 419 L 436 423 L 436 424 L 435 425 L 434 425 L 433 424 L 431 424 L 430 423 L 429 423 L 428 422 L 427 422 L 426 421 L 424 421 L 423 420 L 421 420 L 420 419 L 418 419 L 417 418 L 415 418 L 414 417 L 410 417 L 409 416 L 408 417 L 408 419 L 409 420 L 410 420 L 411 421 L 412 421 L 413 422 L 414 422 L 415 423 L 416 423 L 417 424 L 418 424 L 419 425 L 420 425 L 421 426 L 423 426 L 424 427 L 425 427 L 426 428 L 427 428 L 428 429 L 429 429 L 430 430 L 431 430 L 432 431 L 434 431 L 435 432 L 436 432 L 437 433 L 438 433 L 439 434 L 440 434 L 441 435 L 442 435 L 443 436 L 444 436 L 449 441 L 448 442 L 447 442 L 446 441 L 445 441 L 444 440 L 443 440 L 442 439 L 440 439 L 439 438 L 438 438 L 437 437 L 435 437 L 434 436 L 432 436 L 431 435 L 429 435 L 428 434 L 425 434 L 424 433 L 420 433 L 419 434 L 419 435 L 420 436 L 421 436 L 422 437 L 423 437 L 424 438 L 425 438 L 426 439 L 427 439 L 428 440 L 429 440 L 430 441 L 432 441 L 433 442 L 434 442 L 435 443 L 436 443 L 437 444 L 438 444 L 439 445 L 440 445 L 441 446 L 442 446 L 443 447 L 444 447 L 445 448 L 446 448 L 447 449 L 448 449 L 449 450 L 450 450 L 452 452 L 453 452 L 454 453 L 455 453 L 458 456 L 458 457 L 460 459 L 459 460 L 458 460 L 457 459 L 456 459 L 454 457 L 453 457 L 452 456 L 451 456 L 450 455 L 448 455 L 447 454 L 446 454 L 445 453 L 443 453 L 442 452 L 440 452 L 439 451 L 437 451 L 436 450 L 432 450 L 431 449 L 430 450 L 429 450 L 429 452 L 430 453 L 431 453 L 432 454 L 433 454 L 434 455 L 436 455 L 437 456 L 438 456 L 439 457 L 440 457 L 441 458 L 442 458 L 443 459 L 444 459 L 445 460 L 446 460 L 448 462 L 449 462 L 450 463 L 451 463 L 453 465 L 454 465 L 455 466 L 456 466 L 458 468 L 459 468 L 461 470 L 462 470 L 464 472 L 465 472 L 467 474 L 468 474 L 469 475 L 469 476 L 471 478 L 470 479 L 469 479 L 467 477 L 466 477 L 465 476 L 464 476 L 463 475 L 462 475 L 461 474 L 460 474 L 459 473 L 458 473 L 457 472 L 456 472 L 455 471 L 454 471 L 453 470 L 452 470 L 451 469 L 450 469 L 449 468 L 448 468 L 447 467 L 445 467 L 444 466 L 441 466 L 441 469 L 442 470 L 443 470 L 445 472 L 446 472 L 448 474 L 449 474 L 450 475 L 451 475 L 453 477 L 454 477 L 455 478 L 456 478 L 458 480 L 459 480 L 460 481 L 461 481 L 463 483 L 464 483 L 465 484 L 466 484 L 468 486 L 469 486 L 470 487 L 471 487 L 472 488 L 473 488 L 475 490 L 476 490 L 477 491 L 477 492 L 479 494 L 478 495 L 477 495 L 475 493 L 474 493 L 473 492 L 472 492 L 471 491 L 470 491 L 469 490 L 468 490 L 467 489 L 466 489 L 465 488 L 464 488 L 463 487 L 462 487 L 461 486 L 459 486 L 458 485 L 457 485 L 456 484 L 454 484 L 453 483 L 450 483 L 449 484 L 449 485 L 450 486 L 451 486 L 453 488 L 454 488 L 455 489 L 456 489 L 458 491 L 459 491 L 460 492 L 461 492 L 463 494 L 464 494 L 465 495 L 466 495 L 468 497 L 469 497 L 471 499 L 472 499 L 473 500 L 474 500 L 477 503 L 478 503 L 481 506 L 482 506 L 486 510 L 485 511 L 484 511 L 482 509 L 481 509 L 479 507 L 478 507 L 477 506 L 476 506 L 475 505 L 474 505 L 472 503 L 471 503 L 470 502 L 468 502 L 467 501 L 466 501 L 465 500 L 462 500 L 461 501 L 461 502 L 463 504 L 464 504 L 465 505 L 466 505 L 468 507 L 469 507 L 470 508 L 471 508 L 473 510 L 474 510 L 476 512 L 477 512 L 478 513 L 479 513 L 482 516 L 483 516 L 486 519 L 487 519 L 491 523 L 492 523 L 496 527 L 496 529 L 495 530 L 493 530 L 492 531 L 490 531 L 489 532 L 488 532 L 487 533 L 486 533 L 485 534 L 484 534 L 482 536 L 481 536 L 478 539 L 478 540 L 476 542 L 476 543 L 475 544 L 475 545 L 474 546 L 474 548 L 473 549 L 473 559 L 474 560 L 474 563 L 475 564 L 475 565 L 477 567 L 477 568 L 482 573 L 483 573 L 485 575 L 486 575 L 489 578 L 487 580 L 486 580 L 477 589 L 477 590 L 474 593 L 474 594 L 471 597 L 471 598 L 469 600 L 469 601 L 467 603 L 467 604 L 466 605 L 466 606 L 465 607 L 465 608 L 464 609 L 464 610 L 463 611 L 463 612 L 462 613 L 462 614 L 461 615 L 461 617 L 460 618 L 460 620 L 459 621 L 459 624 L 458 625 L 458 628 L 457 629 L 455 629 L 453 627 L 452 627 L 450 625 L 449 625 L 447 623 L 446 623 L 444 621 L 443 621 L 441 619 L 440 619 L 438 617 L 437 617 L 435 615 L 434 615 L 432 613 L 431 613 L 429 611 L 428 611 L 426 609 L 425 609 L 423 607 L 422 607 L 421 606 L 420 606 L 418 604 L 417 604 L 415 602 L 414 602 L 412 600 L 411 600 L 409 598 L 408 598 L 406 596 L 405 596 L 403 594 L 402 594 L 400 592 L 399 592 L 398 591 L 397 591 L 395 589 L 394 589 L 392 587 L 391 587 L 389 585 L 388 585 L 386 583 L 385 583 L 382 580 L 382 579 L 381 578 L 381 576 L 380 575 L 380 573 L 379 572 L 379 570 L 378 569 L 378 567 L 377 566 L 377 564 L 376 563 L 376 561 L 375 560 L 375 558 L 374 557 L 374 555 L 373 554 L 373 552 L 372 551 L 372 549 L 371 548 L 371 546 L 370 545 L 370 543 L 369 542 L 369 541 L 368 540 L 368 538 L 367 537 L 367 535 L 366 534 L 366 532 L 365 531 L 365 529 L 364 528 L 364 526 L 363 525 L 363 523 L 362 522 L 362 520 L 361 519 L 361 517 L 360 516 L 360 515 L 359 514 L 359 512 L 358 511 L 358 509 L 357 508 L 357 506 L 356 505 L 356 503 L 355 502 L 355 500 L 354 499 L 354 497 L 353 496 L 353 494 L 352 493 L 352 491 L 351 490 L 351 488 L 350 487 L 350 485 L 349 484 L 349 482 L 348 481 L 348 478 L 347 477 L 347 474 L 346 473 L 346 471 L 345 470 L 345 467 L 344 466 L 344 464 L 342 462 L 342 461 L 341 460 L 341 459 L 340 458 L 340 457 L 339 456 L 339 455 L 338 454 L 338 453 L 337 452 L 337 451 L 336 450 L 336 449 L 335 448 L 335 447 L 334 446 L 334 445 L 333 444 L 333 443 L 332 442 L 332 440 L 331 439 L 331 438 L 330 437 L 330 436 L 329 435 L 329 434 L 328 433 L 328 432 L 327 431 L 327 430 L 326 429 L 326 427 L 325 426 L 325 425 L 324 424 L 324 423 L 323 422 L 323 421 L 322 420 L 322 419 L 321 418 L 321 417 L 320 416 L 320 414 L 319 413 L 319 412 L 318 411 L 318 410 L 317 409 L 317 408 L 316 407 L 316 406 L 315 405 L 315 404 L 314 403 L 314 402 L 313 401 L 313 400 L 312 399 L 312 398 L 311 397 L 311 396 L 310 395 L 310 393 L 309 392 L 309 391 L 307 389 L 307 388 L 306 387 L 306 386 L 305 385 L 305 384 L 304 383 L 304 382 L 303 381 L 303 380 L 302 379 L 302 378 L 301 377 L 301 376 L 300 375 L 300 374 L 299 373 L 299 372 L 297 370 L 297 369 L 296 368 L 296 367 L 295 366 L 295 365 L 293 363 L 293 362 L 292 361 L 292 360 L 291 359 L 291 358 L 289 356 L 289 355 L 288 354 L 288 353 L 286 351 L 286 350 L 285 349 L 285 348 L 283 346 L 283 345 L 282 344 L 282 343 L 280 341 L 280 340 L 279 339 L 279 338 L 277 336 L 277 335 L 275 333 L 275 332 L 273 330 L 273 329 L 271 327 L 271 326 L 269 324 L 269 323 L 267 321 L 267 320 L 264 317 L 264 316 L 262 314 L 262 313 L 259 310 L 259 309 L 256 306 L 256 305 L 253 302 L 253 301 L 250 298 L 250 297 L 246 293 L 246 292 L 242 288 L 242 287 L 236 281 L 236 280 L 214 258 L 213 258 L 211 256 L 210 256 L 209 255 L 208 256 L 207 256 L 207 258 L 209 260 L 209 261 L 220 272 L 220 273 L 226 279 L 226 280 L 231 285 L 231 286 L 236 291 L 236 292 L 240 296 L 240 297 L 244 301 L 244 302 L 247 305 L 247 306 L 249 308 L 249 309 L 252 312 L 252 313 L 254 315 L 254 316 L 256 318 L 256 319 L 258 321 L 258 322 L 261 325 L 261 326 L 262 327 L 262 328 L 264 330 L 264 331 L 266 333 L 266 334 L 268 336 L 268 337 L 269 338 L 269 339 L 271 341 L 271 342 L 272 343 L 272 344 L 274 346 L 274 347 L 275 348 L 275 349 L 277 351 L 277 352 L 278 353 L 278 354 L 279 355 L 279 356 L 281 358 L 281 359 L 282 360 L 282 361 L 283 362 L 283 363 L 284 364 L 284 365 L 285 366 L 285 367 L 287 369 L 287 370 L 288 371 L 288 372 L 289 373 L 289 374 L 290 375 L 290 376 L 291 377 L 291 378 L 292 379 L 292 380 L 293 381 L 293 382 L 294 383 L 294 384 L 295 385 L 295 386 L 296 387 L 296 388 L 297 389 L 297 390 L 298 391 L 298 392 L 299 393 L 299 394 L 300 395 L 300 396 L 301 397 L 301 398 L 302 399 L 302 400 L 303 401 L 303 402 L 304 403 L 304 404 L 305 405 L 305 406 L 306 407 L 306 409 L 307 410 L 307 411 L 308 412 L 308 413 L 309 414 L 309 415 L 310 416 L 310 417 L 311 418 L 311 420 L 312 421 L 312 422 L 313 423 L 313 424 L 314 425 L 314 426 L 315 427 L 315 428 L 316 429 L 316 431 L 317 432 L 317 433 L 318 434 L 318 435 L 319 436 L 319 438 L 320 439 L 320 440 L 321 441 L 321 442 L 322 443 L 322 444 L 323 445 L 323 447 L 324 448 L 324 449 L 325 450 L 325 451 L 326 452 L 326 454 L 327 455 L 327 456 L 328 457 L 328 458 L 329 459 L 329 460 L 330 461 L 330 463 L 331 464 L 331 466 L 332 467 L 332 469 L 333 470 L 333 472 L 334 473 L 334 475 L 335 476 L 335 478 L 336 479 L 336 481 L 337 482 L 337 484 L 338 485 L 338 487 L 339 488 L 339 490 L 340 491 L 340 493 L 341 494 L 341 496 L 342 497 L 342 498 L 343 499 L 343 501 L 344 502 L 344 504 L 345 505 L 345 507 L 346 508 L 346 510 L 347 511 L 347 512 L 348 513 L 348 515 L 349 516 L 349 518 L 350 519 L 350 521 L 351 522 L 351 524 L 352 525 L 352 527 L 353 528 L 353 530 L 354 531 L 354 532 L 355 533 L 355 535 L 356 536 L 356 538 L 357 539 L 357 541 L 358 542 L 358 544 L 359 545 L 359 547 L 360 548 L 360 550 L 361 551 L 361 553 L 362 554 L 362 556 L 363 557 L 363 559 L 364 560 L 364 562 L 365 563 L 365 565 L 366 566 L 366 568 L 367 569 L 367 571 L 368 572 L 368 575 L 369 576 L 369 578 L 370 579 L 370 581 L 371 582 L 371 584 L 372 585 L 372 587 L 373 588 L 373 590 L 374 591 L 374 593 L 378 597 L 379 597 L 381 599 L 382 599 L 384 601 L 385 601 L 386 602 L 387 602 L 389 604 L 390 604 L 393 607 L 394 607 L 395 608 L 396 608 L 398 610 L 399 610 L 401 612 L 402 612 L 404 614 L 405 614 L 406 615 L 407 615 L 409 617 L 410 617 L 412 619 L 413 619 L 415 621 L 416 621 L 418 623 L 419 623 L 420 624 L 421 624 L 423 626 L 424 626 L 426 628 L 427 628 L 429 630 L 430 630 L 431 631 L 432 631 L 434 633 L 435 633 L 437 635 L 438 635 L 440 637 L 441 637 L 442 638 L 443 638 L 445 640 L 446 640 L 448 642 L 449 642 L 451 644 L 452 644 L 455 647 L 455 649 L 454 650 L 454 655 L 453 656 L 453 662 L 452 663 L 452 669 L 451 670 L 451 677 L 450 678 L 450 683 L 449 684 L 449 689 L 448 690 L 448 695 L 447 696 L 447 700 L 446 701 L 444 701 L 443 700 L 440 700 L 439 699 L 437 699 L 436 698 L 433 698 L 432 697 L 430 697 L 429 696 L 426 696 L 425 695 L 423 695 L 422 694 L 419 694 L 418 693 L 415 693 L 414 692 L 412 692 L 411 691 L 408 691 L 407 690 L 405 690 L 404 689 L 401 689 L 400 688 L 397 688 L 396 687 L 394 687 L 393 686 L 390 686 L 389 685 L 386 685 L 385 684 L 383 684 L 382 683 L 379 683 L 378 682 L 375 682 L 374 681 L 372 681 L 371 680 L 367 680 L 366 679 L 363 679 L 362 678 L 354 678 L 353 679 L 352 679 L 349 682 L 349 683 L 348 684 L 348 685 L 347 686 L 347 687 L 346 688 L 346 690 L 345 691 L 345 693 L 344 694 L 344 696 L 343 697 L 343 699 L 342 700 L 342 702 L 341 703 L 341 704 L 340 705 L 340 707 L 339 708 L 339 710 L 338 711 L 338 713 L 337 714 L 337 715 L 336 716 L 336 718 L 335 719 L 335 721 L 334 722 L 334 723 L 333 724 L 333 726 L 332 727 L 332 728 L 331 729 L 331 731 L 330 732 L 330 734 L 329 735 L 329 736 L 328 737 L 328 739 L 327 740 L 327 742 L 326 743 L 326 744 L 325 745 L 325 747 L 324 748 L 324 749 L 323 750 L 323 752 L 322 753 L 322 755 L 321 756 L 321 757 L 320 758 L 320 760 L 319 761 L 319 763 L 318 764 L 318 766 L 317 767 L 317 768 L 316 769 L 316 771 L 315 772 L 315 774 L 314 775 L 314 776 L 313 777 L 313 779 L 312 780 L 312 782 L 311 783 L 311 785 L 310 786 L 310 787 L 309 788 L 309 790 L 308 791 L 308 793 L 307 794 L 307 796 L 306 797 L 306 798 L 305 799 L 305 801 L 304 802 L 304 803 L 303 804 L 303 806 L 302 807 L 302 809 L 301 810 L 301 811 L 300 812 L 300 813 L 278 835 L 277 835 L 264 848 L 263 848 L 255 856 L 254 856 L 247 863 L 246 863 L 241 868 L 240 868 L 236 872 L 235 872 L 231 876 L 230 876 L 226 880 L 225 880 L 222 883 L 221 883 L 218 886 L 217 886 L 214 889 L 213 889 L 211 891 L 210 891 L 207 894 L 206 894 L 204 896 L 203 896 L 200 899 L 199 899 L 197 901 L 196 901 L 194 903 L 193 903 L 191 905 L 190 905 L 189 906 L 188 906 L 186 908 L 185 908 L 183 910 L 182 910 L 180 912 L 179 912 L 178 913 L 177 913 L 175 915 L 174 915 L 173 916 L 172 916 L 171 917 L 170 917 L 168 919 L 167 919 L 166 920 L 165 920 L 164 921 L 163 921 L 162 922 L 161 922 L 160 923 L 159 923 L 158 924 L 157 924 L 156 925 L 155 925 L 154 926 L 153 926 L 152 927 L 151 927 L 150 928 L 148 928 L 147 929 L 146 929 L 145 930 L 143 930 L 142 931 L 140 931 L 139 932 L 138 932 L 137 933 L 135 933 L 134 934 L 133 934 L 132 935 L 131 935 L 130 936 L 130 939 L 131 940 L 136 940 L 137 939 L 138 939 L 139 938 L 142 938 L 143 937 L 145 937 L 146 936 L 148 936 L 149 935 L 150 935 L 151 934 L 153 934 L 154 933 L 155 933 L 156 932 L 157 932 L 158 931 L 160 931 L 161 930 L 162 930 L 163 929 L 164 929 L 165 928 L 166 928 L 167 927 L 168 927 L 169 926 L 170 926 L 171 925 L 172 925 L 173 924 L 174 924 L 175 923 L 176 923 L 178 921 L 179 921 L 180 920 L 181 920 L 182 919 L 183 919 L 184 918 L 185 918 L 187 916 L 188 916 L 190 914 L 191 914 L 192 913 L 193 913 L 195 911 L 196 911 L 197 910 L 198 910 L 200 908 L 201 908 L 203 906 L 204 906 L 206 904 L 207 904 L 210 901 L 211 901 L 213 899 L 214 899 L 217 896 L 218 896 L 220 894 L 221 894 L 224 891 L 225 891 L 228 888 L 229 888 L 232 885 L 233 885 L 236 882 L 237 882 L 241 878 L 242 878 L 246 874 L 247 874 L 251 870 L 252 870 L 258 864 L 259 864 L 265 858 L 266 858 L 273 851 L 274 851 L 281 844 L 282 844 L 291 835 L 292 835 L 303 824 L 304 824 L 312 816 L 312 814 L 313 813 L 313 812 L 314 811 L 314 809 L 315 808 L 315 806 L 316 805 L 316 804 L 317 803 L 317 801 L 318 800 L 318 798 L 319 797 L 319 795 L 320 794 L 320 792 L 321 791 L 321 790 L 322 789 L 322 787 L 323 786 L 323 784 L 324 783 L 324 781 L 325 780 L 325 779 L 326 778 L 326 776 L 327 775 L 327 773 L 328 772 L 328 770 L 329 769 L 329 767 L 330 766 L 330 764 L 331 763 L 331 762 L 332 761 L 332 759 L 333 758 L 333 756 L 334 755 L 334 754 L 335 753 L 335 751 L 336 750 L 336 748 L 337 747 L 337 745 L 338 744 L 338 743 L 339 742 L 339 740 L 340 739 L 340 737 L 341 736 L 341 734 L 342 733 L 342 731 L 343 730 L 343 729 L 344 728 L 344 726 L 345 725 L 345 723 L 346 722 L 346 720 L 347 719 L 347 717 L 348 716 L 348 714 L 349 713 L 349 711 L 350 710 L 350 708 L 351 707 L 351 705 L 352 704 L 352 702 L 353 701 L 353 699 L 354 698 L 354 696 L 357 693 L 360 693 L 361 694 L 364 694 L 365 695 L 368 695 L 369 696 L 371 696 L 372 697 L 375 697 L 376 698 L 379 698 L 380 699 L 383 699 L 384 700 L 387 700 L 388 701 L 390 701 L 391 702 L 394 702 L 395 703 L 398 703 L 399 704 L 401 704 L 402 705 L 405 705 L 406 706 L 409 706 L 410 707 L 412 707 L 413 708 L 416 708 L 417 709 L 420 709 L 421 710 L 423 710 L 424 711 L 427 711 L 428 712 L 430 712 L 431 713 L 434 713 L 435 714 L 437 714 L 438 715 L 441 715 L 442 716 L 442 717 L 441 718 L 441 722 L 440 723 L 440 726 L 439 727 L 439 730 L 438 731 L 438 734 L 437 735 L 437 737 L 436 738 L 436 741 L 435 742 L 435 744 L 434 745 L 434 748 L 433 749 L 433 751 L 432 752 L 432 755 L 431 756 L 431 758 L 430 759 L 430 761 L 429 762 L 429 764 L 425 768 L 424 768 L 423 769 L 422 769 L 420 771 L 419 771 L 418 772 L 417 772 L 415 774 L 414 774 L 412 776 L 411 776 L 410 777 L 409 777 L 407 779 L 406 779 L 404 781 L 403 781 L 402 782 L 401 782 L 399 784 L 398 784 L 396 786 L 395 786 L 393 788 L 392 788 L 391 789 L 390 789 L 388 791 L 387 791 L 385 793 L 384 793 L 382 795 L 381 795 L 379 797 L 378 797 L 376 799 L 375 799 L 373 801 L 372 801 L 371 802 L 370 802 L 368 804 L 367 804 L 364 807 L 363 807 L 361 809 L 360 809 L 358 811 L 357 811 L 352 816 L 352 817 L 351 818 L 351 819 L 350 820 L 350 824 L 349 825 L 349 831 L 348 832 L 348 838 L 347 839 L 347 845 L 346 846 L 346 852 L 345 853 L 345 860 L 344 861 L 344 867 L 343 868 L 343 874 L 342 875 L 342 881 L 341 882 L 341 889 L 340 890 L 340 895 L 339 896 L 339 902 L 338 903 L 338 909 L 337 910 L 337 916 L 336 917 L 336 923 L 335 924 L 335 931 L 334 932 L 334 938 L 333 939 L 333 944 L 332 945 L 332 951 L 331 952 L 331 958 L 330 959 L 330 965 L 329 966 L 329 971 L 328 972 L 328 978 L 327 979 L 327 984 L 326 985 L 326 990 L 325 991 L 325 993 L 324 994 L 324 995 L 323 996 L 323 997 L 321 999 L 321 1000 L 319 1002 L 319 1003 L 317 1005 L 317 1006 L 315 1008 L 315 1009 L 313 1011 L 313 1012 L 312 1013 L 312 1014 L 310 1016 L 310 1017 L 308 1019 L 308 1020 L 306 1022 L 306 1023 L 304 1025 L 304 1026 L 302 1028 L 302 1029 L 300 1031 L 300 1032 L 298 1034 L 298 1035 L 296 1037 L 296 1038 L 294 1040 L 294 1041 L 292 1043 L 292 1044 L 290 1046 L 290 1047 L 288 1049 L 288 1050 L 286 1052 L 286 1053 L 284 1055 L 284 1056 L 282 1058 L 282 1059 L 280 1061 L 280 1062 L 278 1064 L 278 1065 L 276 1067 L 276 1068 L 273 1071 L 273 1072 L 271 1074 L 271 1075 L 269 1077 L 269 1078 L 267 1080 L 267 1081 L 265 1083 L 265 1084 L 263 1086 L 263 1087 L 261 1089 L 261 1090 L 259 1092 L 259 1093 L 257 1095 L 257 1096 L 254 1099 L 254 1100 L 252 1102 L 252 1103 L 249 1106 L 249 1107 L 247 1109 L 247 1110 L 244 1113 L 244 1114 L 242 1116 L 242 1117 L 239 1120 L 239 1121 L 236 1124 L 236 1125 L 233 1128 L 233 1129 L 230 1132 L 230 1133 L 227 1136 L 227 1137 L 224 1140 L 224 1141 L 221 1144 L 221 1145 L 218 1148 L 218 1149 L 215 1152 L 215 1153 L 211 1157 L 211 1158 L 208 1161 L 208 1162 L 204 1166 L 204 1167 L 199 1172 L 199 1173 L 195 1177 L 195 1178 L 190 1183 L 190 1184 L 184 1190 L 184 1191 L 178 1197 L 178 1198 L 169 1207 L 169 1208 L 157 1220 L 157 1221 L 138 1240 L 137 1240 L 130 1247 L 129 1247 L 127 1249 L 127 1250 L 126 1251 L 126 1253 L 130 1253 L 131 1252 L 132 1252 L 134 1250 L 135 1250 L 137 1248 L 138 1248 L 141 1245 L 142 1245 L 147 1240 L 148 1240 L 180 1208 L 180 1207 L 190 1197 L 190 1196 L 197 1189 L 197 1188 L 203 1182 L 203 1181 L 208 1176 L 208 1175 L 213 1170 L 213 1169 L 217 1165 L 217 1164 L 221 1160 L 221 1159 L 225 1155 L 225 1154 L 229 1150 L 229 1149 L 232 1146 L 232 1145 L 235 1142 L 235 1141 L 238 1138 L 238 1137 L 242 1133 L 242 1132 L 245 1129 L 245 1128 L 247 1126 L 247 1125 L 250 1122 L 250 1121 L 253 1118 L 253 1117 L 255 1115 L 255 1114 L 258 1111 L 258 1110 L 260 1108 L 260 1107 L 263 1104 L 263 1103 L 265 1101 L 265 1100 L 267 1098 L 267 1097 L 270 1094 L 270 1093 L 272 1091 L 272 1090 L 275 1087 L 275 1086 L 277 1084 L 277 1083 L 279 1081 L 279 1080 L 282 1077 L 282 1076 L 284 1074 L 284 1073 L 286 1071 L 286 1070 L 289 1067 L 289 1066 L 291 1064 L 291 1063 L 293 1061 L 293 1060 L 295 1058 L 295 1057 L 298 1054 L 298 1053 L 300 1051 L 300 1050 L 302 1048 L 302 1047 L 304 1045 L 304 1044 L 306 1042 L 306 1041 L 309 1038 L 309 1037 L 311 1035 L 311 1034 L 313 1032 L 313 1031 L 315 1029 L 315 1028 L 317 1026 L 317 1025 L 319 1023 L 319 1022 L 321 1020 L 321 1019 L 323 1017 L 323 1016 L 325 1014 L 325 1013 L 327 1011 L 327 1010 L 329 1008 L 329 1007 L 330 1006 L 330 1005 L 332 1003 L 332 1002 L 334 1000 L 334 999 L 335 998 L 335 997 L 337 995 L 337 994 L 338 993 L 338 990 L 339 989 L 339 981 L 340 980 L 340 972 L 341 971 L 341 964 L 342 963 L 342 956 L 343 955 L 343 949 L 344 948 L 344 941 L 345 940 L 345 934 L 346 933 L 346 927 L 347 926 L 347 919 L 348 918 L 348 912 L 349 911 L 349 905 L 350 904 L 350 898 L 351 897 L 351 890 L 352 889 L 352 883 L 353 882 L 353 875 L 354 874 L 354 868 L 355 867 L 355 860 L 356 859 L 356 852 L 357 851 L 357 841 L 358 840 L 358 832 L 359 831 L 359 830 L 363 826 L 364 826 L 366 824 L 367 824 L 369 822 L 370 822 L 372 820 L 373 820 L 375 818 L 376 818 L 378 816 L 379 816 L 381 814 L 382 814 L 385 811 L 386 811 L 388 809 L 389 809 L 391 807 L 392 807 L 393 806 L 394 806 L 396 804 L 397 804 L 399 802 L 400 802 L 402 800 L 403 800 L 405 798 L 406 798 L 408 796 L 409 796 L 411 794 L 412 794 L 414 792 L 415 792 L 417 790 L 418 790 L 420 788 L 421 788 L 422 789 L 422 791 L 421 792 L 421 795 L 420 796 L 420 799 L 419 800 L 419 803 L 418 804 L 418 807 L 417 808 L 417 811 L 416 812 L 416 814 L 415 815 L 415 818 L 414 819 L 414 822 L 413 823 L 413 826 L 412 827 L 412 830 L 411 831 L 411 833 L 410 834 L 410 837 L 409 838 L 409 841 L 408 842 L 408 845 L 407 846 L 407 849 L 406 850 L 406 853 L 405 854 L 405 856 L 404 857 L 404 860 L 403 861 L 403 864 L 402 865 L 402 868 L 401 869 L 401 871 L 400 872 L 400 875 L 399 876 L 399 879 L 398 880 L 398 883 L 397 884 L 397 887 L 396 888 L 396 891 L 395 892 L 395 895 L 394 896 L 394 899 L 393 900 L 393 903 L 392 904 L 392 908 L 391 909 L 391 912 L 390 913 L 390 916 L 389 917 L 389 921 L 388 922 L 388 927 L 387 928 L 387 932 L 386 933 L 386 939 L 385 940 L 385 946 L 384 947 L 384 956 L 383 957 L 383 989 L 384 990 L 384 996 L 385 997 L 385 1001 L 386 1002 L 386 1005 L 387 1006 L 387 1008 L 388 1009 L 388 1010 L 389 1011 L 389 1012 L 390 1013 L 390 1014 L 394 1018 L 395 1018 L 396 1019 L 397 1019 L 398 1020 L 405 1020 L 406 1019 L 408 1019 L 409 1018 L 411 1018 L 412 1017 L 413 1017 L 414 1016 L 415 1016 L 416 1015 L 417 1015 L 420 1012 L 421 1012 L 434 999 L 434 998 L 437 995 L 437 994 L 439 992 L 439 991 L 441 989 L 441 988 L 442 987 L 442 986 L 444 984 L 444 983 L 445 982 L 445 981 L 446 980 L 446 979 L 447 978 L 447 977 L 448 976 L 448 975 L 449 974 L 449 973 L 450 972 L 450 971 L 451 970 L 451 969 L 452 968 L 452 966 L 453 965 L 453 964 L 454 963 L 454 961 L 455 960 L 455 959 L 456 958 L 456 956 L 457 955 L 457 953 L 458 952 L 458 950 L 459 949 L 459 947 L 460 946 L 460 944 L 461 943 L 461 940 L 462 939 L 462 936 L 463 935 L 463 932 L 464 931 L 464 928 L 465 927 L 465 923 L 466 922 L 466 917 L 467 916 L 467 910 L 468 909 L 468 902 L 469 901 L 469 890 L 470 889 L 470 870 L 471 869 L 471 758 L 470 757 L 470 701 L 471 700 L 472 701 L 472 702 L 473 703 L 473 704 L 474 705 L 474 706 L 475 707 L 475 708 L 476 709 L 476 710 L 477 711 L 477 712 L 478 713 L 478 714 L 479 715 L 479 717 L 480 718 L 480 719 L 481 720 L 481 721 L 482 722 L 482 723 L 483 724 L 483 726 L 484 727 L 484 728 L 485 729 L 485 732 L 486 733 L 486 748 L 485 749 L 485 767 L 484 768 L 484 790 L 483 791 L 483 907 L 484 908 L 484 927 L 485 928 L 485 947 L 486 948 L 486 964 L 487 965 L 487 977 L 488 978 L 488 988 L 489 989 L 489 998 L 490 999 L 490 1007 L 491 1008 L 491 1015 L 492 1016 L 492 1023 L 493 1024 L 493 1029 L 494 1030 L 494 1036 L 495 1037 L 495 1041 L 496 1042 L 496 1046 L 497 1047 L 497 1050 L 498 1051 L 498 1054 L 499 1055 L 499 1057 L 500 1058 L 500 1060 L 501 1061 L 501 1063 L 502 1064 L 502 1065 L 503 1066 L 503 1067 L 508 1072 L 512 1072 L 513 1071 L 514 1071 L 515 1070 L 515 1069 L 517 1067 L 517 1066 L 518 1065 L 518 1064 L 519 1063 L 519 1062 L 520 1061 L 520 1059 L 521 1058 L 521 1056 L 522 1055 L 522 1053 L 523 1052 L 523 1049 L 524 1048 L 524 1045 L 525 1044 L 525 1040 L 526 1039 L 526 1035 L 527 1034 L 527 1028 L 528 1027 L 528 1019 L 529 1018 L 529 1007 L 530 1006 L 530 994 L 531 993 L 531 981 L 532 980 L 532 966 L 533 965 L 533 951 L 534 950 L 534 931 L 535 930 L 535 910 L 536 909 L 536 882 L 537 881 L 537 804 L 536 803 L 536 776 L 535 775 L 535 753 L 534 752 L 534 733 L 535 732 L 535 729 L 536 728 L 536 727 L 537 726 L 537 725 L 538 724 L 538 722 L 539 721 L 539 720 L 540 719 L 540 718 L 541 717 L 541 716 L 542 715 L 542 714 L 543 713 L 543 712 L 544 711 L 544 710 L 545 709 L 545 707 L 546 706 L 546 705 L 547 704 L 547 703 L 548 702 L 549 703 L 549 739 L 548 740 L 548 777 L 547 778 L 547 879 L 548 880 L 548 895 L 549 896 L 549 905 L 550 906 L 550 912 L 551 913 L 551 919 L 552 920 L 552 924 L 553 925 L 553 928 L 554 929 L 554 933 L 555 934 L 555 937 L 556 938 L 556 940 L 557 941 L 557 944 L 558 945 L 558 947 L 559 948 L 559 950 L 560 951 L 560 953 L 561 954 L 561 956 L 562 957 L 562 958 L 563 959 L 563 961 L 564 962 L 564 964 L 565 965 L 565 966 L 566 967 L 566 968 L 567 969 L 567 970 L 568 971 L 568 973 L 569 974 L 569 975 L 570 976 L 570 977 L 571 978 L 571 979 L 573 981 L 573 982 L 574 983 L 574 984 L 575 985 L 575 986 L 577 988 L 577 989 L 579 991 L 579 992 L 581 994 L 581 995 L 584 998 L 584 999 L 597 1012 L 598 1012 L 600 1014 L 601 1014 L 603 1016 L 604 1016 L 605 1017 L 607 1017 L 608 1018 L 610 1018 L 611 1019 L 619 1019 L 620 1018 L 621 1018 L 622 1017 L 623 1017 L 628 1012 L 628 1011 L 629 1010 L 629 1009 L 630 1008 L 630 1007 L 631 1006 L 631 1004 L 632 1003 L 632 1001 L 633 1000 L 633 997 L 634 996 L 634 990 L 635 989 L 635 961 L 634 960 L 634 951 L 633 950 L 633 943 L 632 942 L 632 937 L 631 936 L 631 931 L 630 930 L 630 926 L 629 925 L 629 920 L 628 919 L 628 915 L 627 914 L 627 910 L 626 909 L 626 906 L 625 905 L 625 901 L 624 900 L 624 896 L 623 895 L 623 892 L 622 891 L 622 887 L 621 886 L 621 883 L 620 882 L 620 879 L 619 878 L 619 875 L 618 874 L 618 871 L 617 870 L 617 867 L 616 866 L 616 862 L 615 861 L 615 859 L 614 858 L 614 855 L 613 854 L 613 851 L 612 850 L 612 846 L 611 845 L 611 843 L 610 842 L 610 839 L 609 838 L 609 835 L 608 834 L 608 830 L 607 829 L 607 827 L 606 826 L 606 823 L 605 822 L 605 819 L 604 818 L 604 815 L 603 814 L 603 810 L 602 809 L 602 806 L 601 805 L 601 802 L 600 801 L 600 798 L 599 797 L 599 795 L 598 794 L 598 791 L 597 790 L 597 788 L 596 787 L 596 785 L 597 784 L 598 785 L 599 785 L 601 787 L 602 787 L 604 789 L 605 789 L 607 791 L 608 791 L 611 794 L 612 794 L 614 796 L 615 796 L 617 798 L 618 798 L 621 801 L 622 801 L 624 803 L 625 803 L 627 805 L 628 805 L 631 808 L 632 808 L 634 810 L 635 810 L 638 813 L 639 813 L 641 815 L 642 815 L 645 818 L 646 818 L 649 821 L 650 821 L 653 824 L 654 824 L 660 830 L 660 843 L 661 844 L 661 857 L 662 858 L 662 868 L 663 869 L 663 877 L 664 878 L 664 887 L 665 888 L 665 897 L 666 898 L 666 906 L 667 907 L 667 916 L 668 917 L 668 925 L 669 926 L 669 934 L 670 935 L 670 944 L 671 945 L 671 954 L 672 955 L 672 963 L 673 964 L 673 973 L 674 974 L 674 985 L 675 986 L 675 1003 L 680 1008 L 680 1009 L 682 1011 L 682 1012 L 684 1014 L 684 1015 L 685 1016 L 685 1017 L 687 1019 L 687 1020 L 689 1022 L 689 1023 L 690 1024 L 690 1025 L 692 1027 L 692 1028 L 693 1029 L 693 1030 L 695 1032 L 695 1033 L 697 1035 L 697 1036 L 698 1037 L 698 1038 L 700 1040 L 700 1041 L 702 1043 L 702 1044 L 703 1045 L 703 1046 L 705 1048 L 705 1049 L 707 1051 L 707 1052 L 708 1053 L 708 1054 L 710 1056 L 710 1057 L 712 1059 L 712 1060 L 713 1061 L 713 1062 L 715 1064 L 715 1065 L 717 1067 L 717 1068 L 718 1069 L 718 1070 L 720 1072 L 720 1073 L 722 1075 L 722 1076 L 723 1077 L 723 1078 L 725 1080 L 725 1081 L 727 1083 L 727 1084 L 729 1086 L 729 1087 L 731 1089 L 731 1090 L 732 1091 L 732 1092 L 734 1094 L 734 1095 L 736 1097 L 736 1098 L 737 1099 L 737 1100 L 739 1102 L 739 1103 L 741 1105 L 741 1106 L 743 1108 L 743 1109 L 744 1110 L 744 1111 L 746 1113 L 746 1114 L 748 1116 L 748 1117 L 750 1119 L 750 1120 L 751 1121 L 751 1122 L 753 1124 L 753 1125 L 755 1127 L 755 1128 L 757 1130 L 757 1131 L 759 1133 L 759 1134 L 761 1136 L 761 1137 L 763 1139 L 763 1140 L 765 1142 L 765 1143 L 767 1145 L 767 1146 L 769 1148 L 769 1149 L 771 1151 L 771 1152 L 773 1154 L 773 1155 L 776 1158 L 776 1159 L 778 1161 L 778 1162 L 780 1164 L 780 1165 L 783 1168 L 783 1169 L 785 1171 L 785 1172 L 787 1174 L 787 1175 L 790 1178 L 790 1179 L 792 1181 L 792 1182 L 795 1185 L 795 1186 L 798 1189 L 798 1190 L 801 1193 L 801 1194 L 804 1197 L 804 1198 L 807 1201 L 807 1202 L 811 1206 L 811 1207 L 814 1210 L 814 1211 L 818 1215 L 818 1216 L 823 1221 L 823 1222 L 829 1228 L 829 1229 L 854 1254 L 855 1254 L 860 1259 L 861 1259 L 863 1261 L 864 1261 L 867 1264 L 868 1264 L 869 1265 L 870 1265 L 871 1266 L 874 1266 L 875 1265 L 875 1264 L 854 1243 L 854 1242 L 841 1229 L 841 1228 L 833 1220 L 833 1219 L 828 1214 L 828 1213 L 823 1208 L 823 1207 L 820 1204 L 820 1203 L 816 1199 L 816 1198 L 813 1195 L 813 1194 L 810 1191 L 810 1190 L 807 1187 L 807 1186 L 804 1183 L 804 1182 L 802 1180 L 802 1179 L 799 1176 L 799 1175 L 797 1173 L 797 1172 L 795 1170 L 795 1169 L 792 1166 L 792 1165 L 790 1163 L 790 1162 L 788 1160 L 788 1159 L 786 1157 L 786 1156 L 784 1154 L 784 1153 L 781 1150 L 781 1149 L 779 1147 L 779 1146 L 777 1144 L 777 1143 L 775 1141 L 775 1140 L 773 1138 L 773 1137 L 771 1135 L 771 1134 L 769 1132 L 769 1131 L 767 1129 L 767 1128 L 765 1126 L 765 1125 L 763 1123 L 763 1122 L 761 1120 L 761 1119 L 759 1117 L 759 1116 L 758 1115 L 758 1114 L 756 1112 L 756 1111 L 754 1109 L 754 1108 L 752 1106 L 752 1105 L 750 1103 L 750 1102 L 748 1100 L 748 1099 L 747 1098 L 747 1097 L 745 1095 L 745 1094 L 743 1092 L 743 1091 L 742 1090 L 742 1089 L 740 1087 L 740 1086 L 738 1084 L 738 1083 L 736 1081 L 736 1080 L 735 1079 L 735 1078 L 733 1076 L 733 1075 L 732 1074 L 732 1073 L 730 1071 L 730 1070 L 728 1068 L 728 1067 L 727 1066 L 727 1065 L 725 1063 L 725 1062 L 723 1060 L 723 1059 L 722 1058 L 722 1057 L 720 1055 L 720 1054 L 719 1053 L 719 1052 L 717 1050 L 717 1049 L 715 1047 L 715 1046 L 714 1045 L 714 1044 L 712 1042 L 712 1041 L 710 1039 L 710 1038 L 709 1037 L 709 1036 L 707 1034 L 707 1033 L 706 1032 L 706 1031 L 704 1029 L 704 1028 L 703 1027 L 703 1026 L 701 1024 L 701 1023 L 699 1021 L 699 1020 L 698 1019 L 698 1018 L 696 1016 L 696 1015 L 695 1014 L 695 1013 L 693 1011 L 693 1010 L 692 1009 L 692 1008 L 690 1006 L 690 1003 L 689 1002 L 689 998 L 688 997 L 688 992 L 687 991 L 687 985 L 686 984 L 686 977 L 685 976 L 685 968 L 684 967 L 684 959 L 683 958 L 683 950 L 682 949 L 682 939 L 681 938 L 681 930 L 680 929 L 680 921 L 679 920 L 679 911 L 678 910 L 678 901 L 677 900 L 677 892 L 676 891 L 676 883 L 675 882 L 675 874 L 674 873 L 674 864 L 673 863 L 673 854 L 672 853 L 672 844 L 671 843 L 671 834 L 670 833 L 670 825 L 669 824 L 669 819 L 668 818 L 668 816 L 667 815 L 667 814 L 663 810 L 662 810 L 659 807 L 658 807 L 656 805 L 655 805 L 652 802 L 651 802 L 649 800 L 648 800 L 646 798 L 645 798 L 643 796 L 642 796 L 639 793 L 638 793 L 636 791 L 635 791 L 633 789 L 632 789 L 630 787 L 629 787 L 627 785 L 626 785 L 623 782 L 622 782 L 620 780 L 619 780 L 617 778 L 616 778 L 614 776 L 613 776 L 611 774 L 610 774 L 608 772 L 607 772 L 605 770 L 604 770 L 602 768 L 601 768 L 599 766 L 598 766 L 596 764 L 595 764 L 593 762 L 592 762 L 589 759 L 589 758 L 588 757 L 588 754 L 587 753 L 587 751 L 586 750 L 586 747 L 585 746 L 585 744 L 584 743 L 584 740 L 583 739 L 583 737 L 582 736 L 582 733 L 581 732 L 581 729 L 580 728 L 580 726 L 579 725 L 579 721 L 578 720 L 578 718 L 579 717 L 581 717 L 582 716 L 585 716 L 586 715 L 589 715 L 590 714 L 593 714 L 594 713 L 596 713 L 597 712 L 600 712 L 601 711 L 604 711 L 605 710 L 607 710 L 608 709 L 611 709 L 612 708 L 615 708 L 616 707 L 619 707 L 620 706 L 622 706 L 623 705 L 626 705 L 627 704 L 630 704 L 631 703 L 633 703 L 634 702 L 637 702 L 638 701 L 641 701 L 642 700 L 645 700 L 646 699 L 649 699 L 650 698 L 653 698 L 654 697 L 656 697 L 657 696 L 660 696 L 661 695 L 666 695 L 667 696 L 667 697 L 668 698 L 668 700 L 669 701 L 669 703 L 670 704 L 670 707 L 671 708 L 671 710 L 672 711 L 672 712 L 673 713 L 673 715 L 674 716 L 674 718 L 675 719 L 675 721 L 676 722 L 676 723 L 677 724 L 677 726 L 678 727 L 678 728 L 679 729 L 679 731 L 680 732 L 680 734 L 681 735 L 681 737 L 682 738 L 682 739 L 683 740 L 683 742 L 684 743 L 684 745 L 685 746 L 685 747 L 686 748 L 686 750 L 687 751 L 687 753 L 688 754 L 688 755 L 689 756 L 689 758 L 690 759 L 690 761 L 691 762 L 691 763 L 692 764 L 692 766 L 693 767 L 693 769 L 694 770 L 694 772 L 695 773 L 695 774 L 696 775 L 696 777 L 697 778 L 697 780 L 698 781 L 698 782 L 699 783 L 699 785 L 700 786 L 700 788 L 701 789 L 701 791 L 702 792 L 702 794 L 703 795 L 703 796 L 704 797 L 704 799 L 705 800 L 705 802 L 706 803 L 706 805 L 707 806 L 707 808 L 708 809 L 708 810 L 709 811 L 709 813 L 710 814 L 710 816 L 711 817 L 711 819 L 712 820 L 712 821 L 713 821 L 717 825 L 718 825 L 721 828 L 722 828 L 726 832 L 727 832 L 732 837 L 733 837 L 736 840 L 737 840 L 742 845 L 743 845 L 747 849 L 748 849 L 753 854 L 754 854 L 758 858 L 759 858 L 763 862 L 764 862 L 768 866 L 769 866 L 773 870 L 774 870 L 777 873 L 778 873 L 782 877 L 783 877 L 786 880 L 787 880 L 790 883 L 791 883 L 794 886 L 795 886 L 798 889 L 799 889 L 801 891 L 802 891 L 805 894 L 806 894 L 808 896 L 809 896 L 812 899 L 813 899 L 815 901 L 816 901 L 818 903 L 819 903 L 820 904 L 821 904 L 823 906 L 824 906 L 825 907 L 826 907 L 828 909 L 829 909 L 831 911 L 832 911 L 833 912 L 834 912 L 835 913 L 836 913 L 837 914 L 838 914 L 840 916 L 841 916 L 842 917 L 843 917 L 844 918 L 845 918 L 846 919 L 847 919 L 848 920 L 849 920 L 850 921 L 851 921 L 852 922 L 853 922 L 854 923 L 855 923 L 856 924 L 857 924 L 858 925 L 859 925 L 860 926 L 861 926 L 862 927 L 864 927 L 865 928 L 866 928 L 867 929 L 868 929 L 869 930 L 871 930 L 872 931 L 874 931 L 875 932 L 877 932 L 878 933 L 881 933 L 882 934 L 885 934 L 886 935 L 889 935 L 890 936 L 896 936 L 897 935 L 897 933 L 896 932 L 895 932 L 894 931 L 893 931 L 892 930 L 891 930 L 890 929 L 888 929 L 887 928 L 885 928 L 884 927 L 882 927 L 881 926 L 880 926 L 879 925 L 877 925 L 876 924 L 874 924 L 873 923 L 872 923 L 871 922 L 870 922 L 869 921 L 867 921 L 866 920 L 865 920 L 864 919 L 863 919 L 862 918 L 861 918 L 860 917 L 858 917 L 857 916 L 856 916 L 855 915 L 854 915 L 852 913 L 851 913 L 850 912 L 849 912 L 848 911 L 847 911 L 846 910 L 845 910 L 843 908 L 842 908 L 841 907 L 840 907 L 838 905 L 837 905 L 836 904 L 835 904 L 833 902 L 832 902 L 831 901 L 830 901 L 828 899 L 827 899 L 826 898 L 825 898 L 823 896 L 822 896 L 820 894 L 819 894 L 816 891 L 815 891 L 813 889 L 812 889 L 810 887 L 809 887 L 806 884 L 805 884 L 802 881 L 801 881 L 798 878 L 797 878 L 794 875 L 793 875 L 789 871 L 788 871 L 784 867 L 783 867 L 779 863 L 778 863 L 774 859 L 773 859 L 768 854 L 767 854 L 762 849 L 761 849 L 756 844 L 755 844 L 750 839 L 749 839 L 745 835 L 744 835 L 738 829 L 737 829 L 731 823 L 730 823 L 721 814 L 721 812 L 720 811 L 720 809 L 719 808 L 719 807 L 718 806 L 718 804 L 717 803 L 717 801 L 716 800 L 716 798 L 715 797 L 715 795 L 714 794 L 714 793 L 713 792 L 713 790 L 712 789 L 712 787 L 711 786 L 711 784 L 710 783 L 710 781 L 709 780 L 709 779 L 708 778 L 708 776 L 707 775 L 707 773 L 706 772 L 706 770 L 705 769 L 705 767 L 704 766 L 704 765 L 703 764 L 703 762 L 702 761 L 702 759 L 701 758 L 701 756 L 700 755 L 700 754 L 699 753 L 699 751 L 698 750 L 698 748 L 697 747 L 697 746 L 696 745 L 696 743 L 695 742 L 695 740 L 694 739 L 694 738 L 693 737 L 693 735 L 692 734 L 692 732 L 691 731 L 691 730 L 690 729 L 690 727 L 689 726 L 689 725 L 688 724 L 688 722 L 687 721 L 687 719 L 686 718 L 686 717 L 685 716 L 685 714 L 684 713 L 684 712 L 683 711 L 683 709 L 682 708 L 682 706 L 681 705 L 681 704 L 680 703 L 680 701 L 679 700 L 679 698 L 678 697 L 678 695 L 677 694 L 677 692 L 676 691 L 676 689 L 675 688 L 675 687 L 674 686 L 674 685 L 670 681 L 669 681 L 668 680 L 660 680 L 659 681 L 655 681 L 654 682 L 651 682 L 650 683 L 646 683 L 645 684 L 643 684 L 642 685 L 639 685 L 638 686 L 635 686 L 634 687 L 631 687 L 630 688 L 627 688 L 626 689 L 623 689 L 622 690 L 619 690 L 618 691 L 616 691 L 615 692 L 612 692 L 611 693 L 608 693 L 607 694 L 604 694 L 603 695 L 601 695 L 600 696 L 597 696 L 596 697 L 594 697 L 593 698 L 590 698 L 589 699 L 586 699 L 585 700 L 583 700 L 582 701 L 579 701 L 578 702 L 575 702 L 573 700 L 573 696 L 572 695 L 572 692 L 571 691 L 571 687 L 570 686 L 570 682 L 569 681 L 569 676 L 568 675 L 568 668 L 567 667 L 567 659 L 566 658 L 566 651 L 565 650 L 565 645 L 564 644 L 569 639 L 570 639 L 574 635 L 575 635 L 578 632 L 579 632 L 583 628 L 584 628 L 587 625 L 588 625 L 592 621 L 593 621 L 596 618 L 597 618 L 601 614 L 602 614 L 605 611 L 606 611 L 609 608 L 610 608 L 614 604 L 615 604 L 618 601 L 619 601 L 623 597 L 624 597 L 626 595 L 627 595 L 630 592 L 631 592 L 634 589 L 635 589 L 639 585 L 639 583 L 640 582 L 640 579 L 641 578 L 641 574 L 642 573 L 642 570 L 643 569 L 643 565 L 644 564 L 644 561 L 645 560 L 645 557 L 646 556 L 646 552 L 647 551 L 647 548 L 648 547 L 648 543 L 649 542 L 649 539 L 650 538 L 650 534 L 651 533 L 651 530 L 652 529 L 652 525 L 653 524 L 653 521 L 654 520 L 654 516 L 655 515 L 655 511 L 656 510 L 656 507 L 657 506 L 657 503 L 658 502 L 658 498 L 659 497 L 659 493 L 660 492 L 660 489 L 661 488 L 661 485 L 662 484 L 662 480 L 663 479 L 663 476 L 664 475 L 664 471 L 665 470 L 665 467 L 666 466 L 666 463 L 667 462 L 667 460 L 668 459 L 668 457 L 669 456 L 669 455 L 670 454 L 670 452 L 671 451 L 671 450 L 672 449 L 672 447 L 673 446 L 673 445 L 674 444 L 674 442 L 675 441 L 675 440 L 676 439 L 676 437 L 677 436 L 677 435 L 678 434 L 678 432 L 679 431 L 679 430 L 680 429 L 680 427 L 681 426 L 681 425 L 682 424 L 682 423 L 683 422 L 683 420 L 684 419 L 684 418 L 685 417 L 685 415 L 686 414 L 686 413 L 687 412 L 687 411 L 688 410 L 688 408 L 689 407 L 689 406 L 690 405 L 690 404 L 691 403 L 691 402 L 692 401 L 692 399 L 693 398 L 693 397 L 694 396 L 694 395 L 695 394 L 695 393 L 696 392 L 696 391 L 697 390 L 697 389 L 698 388 L 698 386 L 699 385 L 699 384 L 700 383 L 700 382 L 701 381 L 701 380 L 702 379 L 702 378 L 703 377 L 703 376 L 704 375 L 704 374 L 705 373 L 705 372 L 706 371 L 706 370 L 708 368 L 708 367 L 709 366 L 709 365 L 710 364 L 710 363 L 711 362 L 711 361 L 712 360 L 712 359 L 713 358 L 713 357 L 715 355 L 715 354 L 716 353 L 716 352 L 717 351 L 717 350 L 719 348 L 719 347 L 720 346 L 720 345 L 722 343 L 722 342 L 723 341 L 723 340 L 725 338 L 725 337 L 726 336 L 726 335 L 728 333 L 728 332 L 729 331 L 729 330 L 731 328 L 731 327 L 733 325 L 733 324 L 735 322 L 735 321 L 737 319 L 737 318 L 739 316 L 739 315 L 741 313 L 741 312 L 744 309 L 744 308 L 746 306 L 746 305 L 749 302 L 749 301 L 752 298 L 752 297 L 755 294 L 755 293 L 758 290 L 758 289 L 761 286 L 761 285 L 765 281 L 765 280 L 771 274 L 771 273 L 782 262 L 782 261 L 785 258 L 785 255 Z " fill="black"/>
</svg>