<svg xmlns="http://www.w3.org/2000/svg" viewBox="0 0 1024 1536" width="100" height="100">
  <path d="M 471 215 L 470 216 L 468 216 L 467 217 L 465 217 L 464 218 L 463 218 L 462 219 L 460 219 L 459 220 L 458 220 L 457 221 L 456 221 L 455 222 L 454 222 L 452 224 L 451 224 L 450 225 L 449 225 L 448 226 L 447 226 L 446 227 L 445 227 L 443 229 L 442 229 L 441 230 L 440 230 L 439 231 L 438 231 L 436 233 L 435 233 L 433 235 L 432 235 L 430 237 L 429 237 L 427 239 L 426 239 L 424 241 L 423 241 L 421 243 L 420 243 L 417 246 L 416 246 L 413 249 L 412 249 L 410 251 L 409 251 L 405 255 L 404 255 L 399 260 L 398 260 L 392 266 L 391 266 L 368 289 L 368 290 L 363 295 L 363 296 L 359 300 L 359 301 L 356 304 L 356 305 L 353 308 L 353 309 L 351 311 L 351 312 L 349 314 L 349 315 L 347 317 L 347 318 L 345 320 L 345 321 L 344 322 L 344 323 L 343 324 L 343 325 L 342 326 L 342 327 L 340 329 L 340 330 L 339 331 L 339 332 L 338 333 L 338 334 L 337 335 L 337 336 L 336 337 L 336 338 L 335 339 L 335 341 L 334 342 L 334 343 L 333 344 L 333 345 L 332 346 L 332 348 L 331 349 L 331 351 L 330 352 L 330 353 L 329 354 L 329 356 L 328 357 L 328 359 L 327 360 L 327 363 L 326 364 L 326 366 L 325 367 L 325 370 L 324 371 L 324 375 L 323 376 L 323 380 L 322 381 L 322 387 L 321 388 L 321 399 L 320 400 L 320 405 L 321 406 L 321 421 L 322 422 L 322 428 L 323 429 L 323 434 L 324 435 L 324 438 L 325 439 L 325 442 L 326 443 L 326 446 L 327 447 L 327 449 L 328 450 L 328 452 L 329 453 L 329 455 L 330 456 L 330 458 L 331 459 L 331 461 L 332 462 L 332 463 L 333 464 L 333 465 L 334 466 L 334 468 L 335 469 L 335 470 L 336 471 L 336 472 L 337 473 L 337 474 L 338 475 L 338 476 L 339 477 L 339 478 L 340 479 L 340 480 L 342 482 L 342 483 L 343 484 L 343 485 L 345 487 L 345 488 L 346 489 L 346 490 L 348 492 L 348 493 L 351 496 L 351 497 L 353 499 L 353 500 L 357 504 L 357 505 L 362 510 L 362 511 L 385 534 L 386 534 L 390 538 L 391 538 L 395 542 L 396 542 L 398 544 L 399 544 L 402 547 L 403 547 L 405 549 L 406 549 L 407 550 L 408 550 L 410 552 L 411 552 L 413 554 L 414 554 L 415 555 L 416 555 L 417 556 L 418 556 L 420 558 L 421 558 L 422 559 L 423 559 L 424 560 L 425 560 L 426 561 L 427 561 L 428 562 L 429 562 L 430 563 L 431 563 L 432 564 L 434 564 L 435 565 L 436 565 L 437 566 L 438 566 L 439 567 L 440 567 L 441 568 L 443 568 L 444 569 L 445 569 L 446 570 L 448 570 L 449 571 L 450 571 L 451 572 L 453 572 L 454 573 L 456 573 L 457 574 L 459 574 L 460 575 L 462 575 L 463 576 L 466 576 L 467 577 L 469 577 L 470 578 L 473 578 L 474 579 L 476 579 L 477 580 L 481 580 L 482 581 L 485 581 L 486 582 L 490 582 L 491 583 L 496 583 L 497 584 L 502 584 L 503 585 L 508 585 L 509 586 L 516 586 L 517 587 L 524 587 L 525 588 L 537 588 L 538 589 L 621 589 L 622 590 L 633 590 L 634 591 L 641 591 L 642 592 L 647 592 L 648 593 L 652 593 L 653 594 L 657 594 L 658 595 L 661 595 L 662 596 L 665 596 L 666 597 L 669 597 L 670 598 L 672 598 L 673 599 L 675 599 L 676 600 L 678 600 L 679 601 L 680 601 L 681 602 L 683 602 L 684 603 L 685 603 L 686 604 L 687 604 L 688 605 L 690 605 L 691 606 L 692 606 L 693 607 L 694 607 L 695 608 L 696 608 L 697 609 L 698 609 L 700 611 L 701 611 L 702 612 L 703 612 L 704 613 L 705 613 L 707 615 L 708 615 L 710 617 L 711 617 L 714 620 L 715 620 L 720 625 L 721 625 L 732 636 L 732 637 L 737 642 L 737 643 L 740 646 L 740 647 L 742 649 L 742 650 L 744 652 L 744 653 L 746 655 L 746 656 L 747 657 L 747 658 L 748 659 L 748 660 L 750 662 L 750 663 L 751 664 L 751 665 L 752 666 L 752 668 L 753 669 L 753 670 L 754 671 L 754 672 L 755 673 L 755 675 L 756 676 L 756 677 L 757 678 L 757 680 L 758 681 L 758 684 L 759 685 L 759 687 L 760 688 L 760 691 L 761 692 L 761 696 L 762 697 L 762 703 L 763 704 L 763 727 L 762 728 L 762 734 L 761 735 L 761 739 L 760 740 L 760 743 L 759 744 L 759 746 L 758 747 L 758 749 L 757 750 L 757 752 L 756 753 L 756 755 L 755 756 L 755 757 L 754 758 L 754 759 L 753 760 L 753 761 L 752 762 L 752 763 L 751 764 L 751 765 L 750 766 L 750 767 L 748 769 L 748 770 L 746 772 L 746 773 L 744 775 L 744 776 L 741 779 L 741 780 L 728 793 L 727 793 L 725 795 L 724 795 L 722 797 L 721 797 L 719 799 L 718 799 L 717 800 L 716 800 L 715 801 L 714 801 L 713 802 L 712 802 L 711 803 L 710 803 L 709 804 L 708 804 L 707 805 L 705 805 L 704 806 L 702 806 L 701 807 L 699 807 L 698 808 L 695 808 L 694 809 L 690 809 L 689 810 L 685 810 L 684 811 L 676 811 L 675 812 L 659 812 L 658 811 L 651 811 L 650 810 L 646 810 L 645 809 L 641 809 L 640 808 L 638 808 L 637 807 L 635 807 L 634 806 L 632 806 L 631 805 L 630 805 L 629 804 L 627 804 L 626 803 L 625 803 L 624 802 L 622 802 L 621 801 L 620 801 L 619 800 L 618 800 L 617 799 L 616 799 L 615 798 L 614 798 L 613 797 L 612 797 L 611 796 L 610 796 L 609 795 L 608 795 L 607 794 L 606 794 L 604 792 L 603 792 L 602 791 L 601 791 L 599 789 L 598 789 L 596 787 L 595 787 L 593 785 L 592 785 L 590 783 L 589 783 L 587 781 L 586 781 L 583 778 L 582 778 L 579 775 L 578 775 L 574 771 L 573 771 L 569 767 L 568 767 L 563 762 L 562 762 L 556 756 L 555 756 L 548 749 L 547 749 L 540 742 L 539 742 L 532 735 L 531 735 L 525 729 L 524 729 L 520 725 L 519 725 L 514 720 L 513 720 L 509 716 L 508 716 L 505 713 L 504 713 L 501 710 L 500 710 L 497 707 L 496 707 L 494 705 L 493 705 L 490 702 L 489 702 L 487 700 L 486 700 L 484 698 L 483 698 L 481 696 L 480 696 L 478 694 L 477 694 L 476 693 L 475 693 L 473 691 L 472 691 L 471 690 L 470 690 L 468 688 L 467 688 L 466 687 L 465 687 L 464 686 L 463 686 L 462 685 L 461 685 L 460 684 L 459 684 L 457 682 L 456 682 L 455 681 L 454 681 L 453 680 L 452 680 L 451 679 L 450 679 L 449 678 L 448 678 L 447 677 L 445 677 L 444 676 L 443 676 L 442 675 L 441 675 L 440 674 L 439 674 L 438 673 L 437 673 L 436 672 L 434 672 L 433 671 L 432 671 L 431 670 L 430 670 L 429 669 L 427 669 L 426 668 L 424 668 L 423 667 L 422 667 L 421 666 L 419 666 L 418 665 L 416 665 L 415 664 L 413 664 L 412 663 L 410 663 L 409 662 L 406 662 L 405 661 L 403 661 L 402 660 L 398 660 L 397 659 L 395 659 L 394 658 L 389 658 L 388 657 L 384 657 L 383 656 L 376 656 L 375 655 L 364 655 L 363 654 L 345 654 L 344 655 L 329 655 L 328 656 L 322 656 L 321 657 L 316 657 L 315 658 L 312 658 L 311 659 L 307 659 L 306 660 L 303 660 L 302 661 L 299 661 L 298 662 L 296 662 L 295 663 L 293 663 L 292 664 L 290 664 L 289 665 L 287 665 L 286 666 L 284 666 L 283 667 L 282 667 L 281 668 L 279 668 L 278 669 L 277 669 L 276 670 L 275 670 L 274 671 L 273 671 L 272 672 L 271 672 L 270 673 L 269 673 L 268 674 L 267 674 L 266 675 L 265 675 L 264 676 L 263 676 L 262 677 L 261 677 L 259 679 L 258 679 L 257 680 L 256 680 L 254 682 L 253 682 L 251 684 L 250 684 L 248 686 L 247 686 L 245 688 L 244 688 L 241 691 L 240 691 L 237 694 L 236 694 L 230 700 L 229 700 L 214 715 L 214 716 L 208 722 L 208 723 L 205 726 L 205 727 L 202 730 L 202 731 L 200 733 L 200 734 L 198 736 L 198 737 L 196 739 L 196 740 L 195 741 L 195 742 L 193 744 L 193 745 L 192 746 L 192 747 L 191 748 L 191 749 L 190 750 L 190 751 L 189 752 L 189 753 L 187 755 L 187 757 L 186 758 L 186 759 L 185 760 L 185 761 L 184 762 L 184 763 L 183 764 L 183 765 L 182 766 L 182 768 L 181 769 L 181 770 L 180 771 L 180 773 L 179 774 L 179 776 L 178 777 L 178 779 L 177 780 L 177 782 L 176 783 L 176 785 L 175 786 L 175 789 L 174 790 L 174 793 L 173 794 L 173 797 L 172 798 L 172 802 L 171 803 L 171 807 L 170 808 L 170 813 L 169 814 L 169 821 L 168 822 L 168 832 L 167 833 L 167 852 L 168 853 L 168 864 L 169 865 L 169 872 L 170 873 L 170 878 L 171 879 L 171 883 L 172 884 L 172 888 L 173 889 L 173 892 L 174 893 L 174 895 L 175 896 L 175 899 L 176 900 L 176 902 L 177 903 L 177 905 L 178 906 L 178 908 L 179 909 L 179 911 L 180 912 L 180 914 L 181 915 L 181 916 L 182 917 L 182 919 L 183 920 L 183 921 L 184 922 L 184 923 L 185 924 L 185 926 L 186 927 L 186 928 L 187 929 L 187 930 L 188 931 L 188 932 L 189 933 L 189 934 L 190 935 L 190 936 L 191 937 L 191 938 L 192 939 L 192 940 L 194 942 L 194 943 L 195 944 L 195 945 L 196 946 L 196 947 L 198 949 L 198 950 L 199 951 L 199 952 L 201 954 L 201 955 L 203 957 L 203 958 L 205 960 L 205 961 L 208 964 L 208 965 L 211 968 L 211 969 L 215 973 L 215 974 L 220 979 L 220 980 L 240 1000 L 241 1000 L 246 1005 L 247 1005 L 250 1008 L 251 1008 L 254 1011 L 255 1011 L 257 1013 L 258 1013 L 261 1016 L 262 1016 L 264 1018 L 265 1018 L 266 1019 L 267 1019 L 269 1021 L 270 1021 L 272 1023 L 273 1023 L 274 1024 L 275 1024 L 277 1026 L 278 1026 L 279 1027 L 280 1027 L 281 1028 L 282 1028 L 283 1029 L 284 1029 L 286 1031 L 287 1031 L 288 1032 L 289 1032 L 290 1033 L 291 1033 L 292 1034 L 293 1034 L 294 1035 L 295 1035 L 296 1036 L 298 1036 L 299 1037 L 300 1037 L 301 1038 L 302 1038 L 303 1039 L 304 1039 L 305 1040 L 306 1040 L 307 1041 L 309 1041 L 310 1042 L 311 1042 L 312 1043 L 314 1043 L 315 1044 L 316 1044 L 317 1045 L 319 1045 L 320 1046 L 322 1046 L 323 1047 L 324 1047 L 325 1048 L 327 1048 L 328 1049 L 330 1049 L 331 1050 L 333 1050 L 334 1051 L 336 1051 L 337 1052 L 339 1052 L 340 1053 L 343 1053 L 344 1054 L 346 1054 L 347 1055 L 349 1055 L 350 1056 L 353 1056 L 354 1057 L 357 1057 L 358 1058 L 361 1058 L 362 1059 L 365 1059 L 366 1060 L 370 1060 L 371 1061 L 375 1061 L 376 1062 L 379 1062 L 380 1063 L 385 1063 L 386 1064 L 390 1064 L 391 1065 L 396 1065 L 397 1066 L 402 1066 L 403 1067 L 408 1067 L 409 1068 L 415 1068 L 416 1069 L 422 1069 L 423 1070 L 430 1070 L 431 1071 L 438 1071 L 439 1072 L 447 1072 L 448 1073 L 456 1073 L 457 1074 L 467 1074 L 468 1075 L 481 1075 L 482 1076 L 494 1076 L 495 1077 L 505 1077 L 506 1078 L 514 1078 L 515 1079 L 521 1079 L 522 1080 L 528 1080 L 529 1081 L 534 1081 L 535 1082 L 539 1082 L 540 1083 L 544 1083 L 545 1084 L 548 1084 L 549 1085 L 552 1085 L 553 1086 L 556 1086 L 557 1087 L 559 1087 L 560 1088 L 562 1088 L 563 1089 L 565 1089 L 566 1090 L 568 1090 L 569 1091 L 571 1091 L 572 1092 L 573 1092 L 574 1093 L 576 1093 L 577 1094 L 578 1094 L 579 1095 L 580 1095 L 581 1096 L 582 1096 L 583 1097 L 584 1097 L 585 1098 L 586 1098 L 587 1099 L 588 1099 L 589 1100 L 590 1100 L 592 1102 L 593 1102 L 594 1103 L 595 1103 L 598 1106 L 599 1106 L 601 1108 L 602 1108 L 607 1113 L 608 1113 L 615 1120 L 615 1121 L 619 1125 L 619 1126 L 622 1129 L 622 1130 L 624 1132 L 624 1133 L 625 1134 L 625 1135 L 627 1137 L 627 1138 L 628 1139 L 628 1140 L 629 1141 L 629 1142 L 630 1143 L 630 1144 L 631 1145 L 631 1147 L 632 1148 L 632 1150 L 633 1151 L 633 1153 L 634 1154 L 634 1157 L 635 1158 L 635 1164 L 636 1165 L 636 1181 L 635 1182 L 635 1190 L 634 1191 L 634 1195 L 633 1196 L 633 1199 L 632 1200 L 632 1203 L 631 1204 L 631 1206 L 630 1207 L 630 1209 L 629 1210 L 629 1212 L 628 1213 L 628 1214 L 627 1215 L 627 1217 L 626 1218 L 626 1219 L 625 1220 L 625 1221 L 624 1222 L 624 1223 L 623 1224 L 623 1225 L 622 1226 L 622 1227 L 621 1228 L 621 1229 L 620 1230 L 620 1231 L 618 1233 L 618 1234 L 617 1235 L 617 1236 L 615 1238 L 615 1239 L 613 1241 L 613 1242 L 611 1244 L 611 1245 L 607 1249 L 607 1250 L 604 1253 L 604 1254 L 597 1261 L 597 1262 L 579 1280 L 578 1280 L 569 1289 L 568 1289 L 562 1295 L 561 1295 L 556 1300 L 555 1300 L 550 1305 L 549 1305 L 544 1310 L 544 1311 L 542 1313 L 542 1315 L 541 1316 L 541 1318 L 542 1319 L 542 1320 L 544 1322 L 546 1322 L 547 1323 L 554 1323 L 555 1322 L 558 1322 L 559 1321 L 562 1321 L 563 1320 L 565 1320 L 566 1319 L 568 1319 L 569 1318 L 571 1318 L 572 1317 L 574 1317 L 575 1316 L 577 1316 L 578 1315 L 580 1315 L 581 1314 L 583 1314 L 584 1313 L 585 1313 L 586 1312 L 588 1312 L 589 1311 L 590 1311 L 591 1310 L 593 1310 L 594 1309 L 595 1309 L 596 1308 L 598 1308 L 599 1307 L 600 1307 L 601 1306 L 602 1306 L 603 1305 L 604 1305 L 605 1304 L 606 1304 L 607 1303 L 608 1303 L 609 1302 L 610 1302 L 611 1301 L 612 1301 L 613 1300 L 614 1300 L 615 1299 L 616 1299 L 617 1298 L 618 1298 L 619 1297 L 620 1297 L 622 1295 L 623 1295 L 624 1294 L 625 1294 L 626 1293 L 627 1293 L 629 1291 L 630 1291 L 632 1289 L 633 1289 L 634 1288 L 635 1288 L 637 1286 L 638 1286 L 641 1283 L 642 1283 L 644 1281 L 645 1281 L 648 1278 L 649 1278 L 653 1274 L 654 1274 L 674 1254 L 674 1253 L 678 1249 L 678 1248 L 680 1246 L 680 1245 L 683 1242 L 683 1241 L 685 1239 L 685 1238 L 686 1237 L 686 1236 L 688 1234 L 688 1233 L 689 1232 L 689 1231 L 691 1229 L 691 1228 L 692 1227 L 692 1226 L 693 1225 L 693 1224 L 694 1223 L 694 1222 L 695 1221 L 695 1220 L 696 1219 L 696 1217 L 697 1216 L 697 1215 L 698 1214 L 698 1213 L 699 1212 L 699 1210 L 700 1209 L 700 1207 L 701 1206 L 701 1204 L 702 1203 L 702 1201 L 703 1200 L 703 1198 L 704 1197 L 704 1194 L 705 1193 L 705 1190 L 706 1189 L 706 1186 L 707 1185 L 707 1180 L 708 1179 L 708 1172 L 709 1171 L 709 1146 L 708 1145 L 708 1138 L 707 1137 L 707 1132 L 706 1131 L 706 1127 L 705 1126 L 705 1122 L 704 1121 L 704 1118 L 703 1117 L 703 1115 L 702 1114 L 702 1112 L 701 1111 L 701 1109 L 700 1108 L 700 1106 L 699 1105 L 699 1103 L 698 1102 L 698 1101 L 697 1100 L 697 1098 L 696 1097 L 696 1096 L 695 1095 L 695 1094 L 694 1093 L 694 1092 L 693 1091 L 693 1090 L 692 1089 L 692 1088 L 691 1087 L 691 1086 L 690 1085 L 690 1084 L 689 1083 L 689 1082 L 688 1081 L 688 1080 L 686 1078 L 686 1077 L 684 1075 L 684 1074 L 683 1073 L 683 1072 L 680 1069 L 680 1068 L 677 1065 L 677 1064 L 674 1061 L 674 1060 L 655 1041 L 654 1041 L 649 1036 L 648 1036 L 645 1033 L 644 1033 L 642 1031 L 641 1031 L 639 1029 L 638 1029 L 636 1027 L 635 1027 L 633 1025 L 632 1025 L 631 1024 L 630 1024 L 628 1022 L 627 1022 L 626 1021 L 625 1021 L 624 1020 L 623 1020 L 622 1019 L 621 1019 L 619 1017 L 618 1017 L 617 1016 L 616 1016 L 615 1015 L 614 1015 L 613 1014 L 612 1014 L 611 1013 L 609 1013 L 608 1012 L 607 1012 L 606 1011 L 605 1011 L 604 1010 L 603 1010 L 602 1009 L 601 1009 L 600 1008 L 598 1008 L 597 1007 L 596 1007 L 595 1006 L 593 1006 L 592 1005 L 591 1005 L 590 1004 L 588 1004 L 587 1003 L 585 1003 L 584 1002 L 582 1002 L 581 1001 L 579 1001 L 578 1000 L 576 1000 L 575 999 L 573 999 L 572 998 L 570 998 L 569 997 L 567 997 L 566 996 L 563 996 L 562 995 L 560 995 L 559 994 L 556 994 L 555 993 L 552 993 L 551 992 L 548 992 L 547 991 L 543 991 L 542 990 L 538 990 L 537 989 L 534 989 L 533 988 L 528 988 L 527 987 L 522 987 L 521 986 L 515 986 L 514 985 L 508 985 L 507 984 L 500 984 L 499 983 L 490 983 L 489 982 L 480 982 L 479 981 L 470 981 L 469 980 L 461 980 L 460 979 L 453 979 L 452 978 L 446 978 L 445 977 L 439 977 L 438 976 L 433 976 L 432 975 L 426 975 L 425 974 L 421 974 L 420 973 L 416 973 L 415 972 L 410 972 L 409 971 L 405 971 L 404 970 L 401 970 L 400 969 L 397 969 L 396 968 L 393 968 L 392 967 L 389 967 L 388 966 L 385 966 L 384 965 L 381 965 L 380 964 L 378 964 L 377 963 L 374 963 L 373 962 L 371 962 L 370 961 L 368 961 L 367 960 L 365 960 L 364 959 L 362 959 L 361 958 L 360 958 L 359 957 L 357 957 L 356 956 L 355 956 L 354 955 L 352 955 L 351 954 L 350 954 L 349 953 L 347 953 L 346 952 L 345 952 L 344 951 L 343 951 L 342 950 L 341 950 L 340 949 L 339 949 L 338 948 L 337 948 L 336 947 L 335 947 L 333 945 L 332 945 L 331 944 L 330 944 L 328 942 L 327 942 L 326 941 L 325 941 L 323 939 L 322 939 L 319 936 L 318 936 L 315 933 L 314 933 L 310 929 L 309 929 L 291 911 L 291 910 L 287 906 L 287 905 L 285 903 L 285 902 L 283 900 L 283 899 L 281 897 L 281 896 L 279 894 L 279 893 L 278 892 L 278 891 L 277 890 L 277 889 L 276 888 L 276 887 L 275 886 L 275 885 L 274 884 L 274 883 L 273 882 L 273 880 L 272 879 L 272 878 L 271 877 L 271 875 L 270 874 L 270 872 L 269 871 L 269 869 L 268 868 L 268 865 L 267 864 L 267 860 L 266 859 L 266 854 L 265 853 L 265 830 L 266 829 L 266 823 L 267 822 L 267 819 L 268 818 L 268 815 L 269 814 L 269 812 L 270 811 L 270 809 L 271 808 L 271 807 L 272 806 L 272 804 L 273 803 L 273 802 L 274 801 L 274 800 L 275 799 L 275 798 L 276 797 L 276 796 L 278 794 L 278 793 L 279 792 L 279 791 L 282 788 L 282 787 L 285 784 L 285 783 L 297 771 L 298 771 L 302 767 L 303 767 L 305 765 L 306 765 L 308 763 L 309 763 L 310 762 L 311 762 L 312 761 L 313 761 L 314 760 L 315 760 L 316 759 L 317 759 L 318 758 L 320 758 L 321 757 L 323 757 L 324 756 L 326 756 L 327 755 L 331 755 L 332 754 L 336 754 L 337 753 L 363 753 L 364 754 L 369 754 L 370 755 L 374 755 L 375 756 L 378 756 L 379 757 L 381 757 L 382 758 L 384 758 L 385 759 L 387 759 L 388 760 L 390 760 L 391 761 L 393 761 L 394 762 L 395 762 L 396 763 L 397 763 L 398 764 L 400 764 L 401 765 L 402 765 L 403 766 L 404 766 L 405 767 L 406 767 L 407 768 L 408 768 L 409 769 L 410 769 L 411 770 L 412 770 L 414 772 L 415 772 L 416 773 L 417 773 L 418 774 L 419 774 L 421 776 L 422 776 L 424 778 L 425 778 L 427 780 L 428 780 L 430 782 L 431 782 L 433 784 L 434 784 L 436 786 L 437 786 L 440 789 L 441 789 L 444 792 L 445 792 L 448 795 L 449 795 L 453 799 L 454 799 L 458 803 L 459 803 L 464 808 L 465 808 L 470 813 L 471 813 L 477 819 L 478 819 L 484 825 L 485 825 L 491 831 L 492 831 L 497 836 L 498 836 L 503 841 L 504 841 L 508 845 L 509 845 L 512 848 L 513 848 L 517 852 L 518 852 L 521 855 L 522 855 L 525 858 L 526 858 L 528 860 L 529 860 L 532 863 L 533 863 L 535 865 L 536 865 L 538 867 L 539 867 L 541 869 L 542 869 L 544 871 L 545 871 L 547 873 L 548 873 L 549 874 L 550 874 L 552 876 L 553 876 L 554 877 L 555 877 L 557 879 L 558 879 L 559 880 L 560 880 L 561 881 L 562 881 L 564 883 L 565 883 L 566 884 L 567 884 L 568 885 L 569 885 L 570 886 L 571 886 L 572 887 L 573 887 L 574 888 L 575 888 L 576 889 L 577 889 L 578 890 L 579 890 L 580 891 L 582 891 L 583 892 L 584 892 L 585 893 L 587 893 L 588 894 L 589 894 L 590 895 L 592 895 L 593 896 L 594 896 L 595 897 L 597 897 L 598 898 L 600 898 L 601 899 L 603 899 L 604 900 L 606 900 L 607 901 L 609 901 L 610 902 L 613 902 L 614 903 L 616 903 L 617 904 L 620 904 L 621 905 L 624 905 L 625 906 L 629 906 L 630 907 L 634 907 L 635 908 L 639 908 L 640 909 L 648 909 L 649 910 L 686 910 L 687 909 L 695 909 L 696 908 L 700 908 L 701 907 L 706 907 L 707 906 L 711 906 L 712 905 L 715 905 L 716 904 L 719 904 L 720 903 L 723 903 L 724 902 L 726 902 L 727 901 L 729 901 L 730 900 L 732 900 L 733 899 L 735 899 L 736 898 L 738 898 L 739 897 L 740 897 L 741 896 L 742 896 L 743 895 L 745 895 L 746 894 L 747 894 L 748 893 L 749 893 L 750 892 L 751 892 L 752 891 L 753 891 L 754 890 L 755 890 L 756 889 L 757 889 L 758 888 L 759 888 L 760 887 L 761 887 L 763 885 L 764 885 L 765 884 L 766 884 L 768 882 L 769 882 L 770 881 L 771 881 L 774 878 L 775 878 L 777 876 L 778 876 L 781 873 L 782 873 L 786 869 L 787 869 L 793 863 L 794 863 L 804 853 L 804 852 L 811 845 L 811 844 L 815 840 L 815 839 L 818 836 L 818 835 L 821 832 L 821 831 L 823 829 L 823 828 L 825 826 L 825 825 L 826 824 L 826 823 L 828 821 L 828 820 L 829 819 L 829 818 L 831 816 L 831 815 L 832 814 L 832 813 L 833 812 L 833 811 L 834 810 L 834 809 L 835 808 L 835 807 L 836 806 L 836 805 L 837 804 L 837 803 L 838 802 L 838 801 L 839 800 L 839 799 L 840 798 L 840 796 L 841 795 L 841 794 L 842 793 L 842 791 L 843 790 L 843 789 L 844 788 L 844 786 L 845 785 L 845 783 L 846 782 L 846 780 L 847 779 L 847 777 L 848 776 L 848 774 L 849 773 L 849 770 L 850 769 L 850 766 L 851 765 L 851 762 L 852 761 L 852 757 L 853 756 L 853 751 L 854 750 L 854 742 L 855 741 L 855 728 L 856 727 L 856 711 L 855 710 L 855 697 L 854 696 L 854 688 L 853 687 L 853 681 L 852 680 L 852 676 L 851 675 L 851 672 L 850 671 L 850 668 L 849 667 L 849 664 L 848 663 L 848 660 L 847 659 L 847 657 L 846 656 L 846 654 L 845 653 L 845 651 L 844 650 L 844 648 L 843 647 L 843 646 L 842 645 L 842 643 L 841 642 L 841 641 L 840 640 L 840 638 L 839 637 L 839 636 L 838 635 L 838 634 L 837 633 L 837 631 L 836 630 L 836 629 L 835 628 L 835 627 L 834 626 L 834 625 L 833 624 L 833 623 L 832 622 L 832 621 L 831 620 L 831 619 L 829 617 L 829 616 L 828 615 L 828 614 L 827 613 L 827 612 L 825 610 L 825 609 L 823 607 L 823 606 L 822 605 L 822 604 L 820 602 L 820 601 L 817 598 L 817 597 L 814 594 L 814 593 L 811 590 L 811 589 L 808 586 L 808 585 L 800 577 L 800 576 L 788 564 L 787 564 L 781 558 L 780 558 L 776 554 L 775 554 L 772 551 L 771 551 L 768 548 L 767 548 L 765 546 L 764 546 L 762 544 L 761 544 L 759 542 L 758 542 L 757 541 L 756 541 L 754 539 L 753 539 L 752 538 L 751 538 L 749 536 L 748 536 L 747 535 L 746 535 L 745 534 L 744 534 L 743 533 L 742 533 L 740 531 L 738 531 L 737 530 L 736 530 L 735 529 L 734 529 L 733 528 L 732 528 L 731 527 L 730 527 L 729 526 L 728 526 L 727 525 L 726 525 L 725 524 L 723 524 L 722 523 L 721 523 L 720 522 L 718 522 L 717 521 L 716 521 L 715 520 L 713 520 L 712 519 L 710 519 L 709 518 L 707 518 L 706 517 L 704 517 L 703 516 L 700 516 L 699 515 L 697 515 L 696 514 L 692 514 L 691 513 L 688 513 L 687 512 L 683 512 L 682 511 L 678 511 L 677 510 L 671 510 L 670 509 L 663 509 L 662 508 L 653 508 L 652 507 L 636 507 L 635 506 L 612 506 L 611 507 L 593 507 L 592 508 L 569 508 L 568 509 L 528 509 L 527 508 L 516 508 L 515 507 L 508 507 L 507 506 L 502 506 L 501 505 L 497 505 L 496 504 L 492 504 L 491 503 L 488 503 L 487 502 L 485 502 L 484 501 L 481 501 L 480 500 L 478 500 L 477 499 L 475 499 L 474 498 L 472 498 L 471 497 L 470 497 L 469 496 L 467 496 L 466 495 L 465 495 L 464 494 L 462 494 L 461 493 L 460 493 L 459 492 L 458 492 L 457 491 L 456 491 L 455 490 L 453 490 L 451 488 L 450 488 L 449 487 L 448 487 L 447 486 L 446 486 L 445 485 L 444 485 L 442 483 L 441 483 L 440 482 L 439 482 L 437 480 L 436 480 L 434 478 L 433 478 L 430 475 L 429 475 L 426 472 L 425 472 L 407 454 L 407 453 L 403 449 L 403 448 L 400 445 L 400 444 L 398 442 L 398 441 L 396 439 L 396 438 L 395 437 L 395 436 L 393 434 L 393 433 L 392 432 L 392 431 L 391 430 L 391 429 L 390 428 L 390 427 L 389 426 L 389 425 L 388 424 L 388 422 L 387 421 L 387 420 L 386 419 L 386 417 L 385 416 L 385 414 L 384 413 L 384 410 L 383 409 L 383 406 L 382 405 L 382 400 L 381 399 L 381 390 L 380 389 L 380 378 L 381 377 L 381 368 L 382 367 L 382 362 L 383 361 L 383 357 L 384 356 L 384 353 L 385 352 L 385 349 L 386 348 L 386 345 L 387 344 L 387 342 L 388 341 L 388 339 L 389 338 L 389 336 L 390 335 L 390 334 L 391 333 L 391 331 L 392 330 L 392 329 L 393 328 L 393 326 L 394 325 L 394 324 L 395 323 L 395 322 L 396 321 L 396 320 L 397 319 L 397 318 L 398 317 L 398 316 L 399 315 L 399 314 L 400 313 L 400 312 L 401 311 L 401 310 L 402 309 L 402 308 L 404 306 L 404 305 L 405 304 L 405 303 L 407 301 L 407 300 L 409 298 L 409 297 L 410 296 L 410 295 L 413 292 L 413 291 L 415 289 L 415 288 L 417 286 L 417 285 L 420 282 L 420 281 L 424 277 L 424 276 L 429 271 L 429 270 L 434 265 L 434 264 L 442 256 L 442 255 L 458 239 L 459 239 L 469 229 L 470 229 L 477 222 L 477 221 L 478 220 L 478 217 L 476 215 Z " fill="black"/>
</svg>