<svg xmlns="http://www.w3.org/2000/svg" viewBox="0 0 1024 1536" width="100" height="100">
  <path d="M 418 1095 L 417 1096 L 416 1096 L 414 1098 L 413 1098 L 410 1101 L 410 1102 L 407 1105 L 407 1106 L 405 1108 L 405 1109 L 404 1110 L 404 1111 L 403 1112 L 403 1113 L 402 1114 L 402 1115 L 401 1116 L 401 1117 L 400 1118 L 400 1119 L 399 1120 L 399 1121 L 398 1122 L 398 1123 L 397 1124 L 397 1126 L 396 1127 L 396 1129 L 395 1130 L 395 1132 L 394 1133 L 394 1135 L 393 1136 L 393 1139 L 392 1140 L 392 1144 L 391 1145 L 391 1150 L 390 1151 L 390 1176 L 391 1177 L 391 1182 L 392 1183 L 392 1187 L 393 1188 L 393 1191 L 394 1192 L 394 1194 L 395 1195 L 395 1197 L 396 1198 L 396 1200 L 397 1201 L 397 1202 L 398 1203 L 398 1204 L 399 1205 L 399 1207 L 400 1208 L 400 1209 L 401 1210 L 401 1211 L 403 1213 L 403 1214 L 404 1215 L 404 1216 L 406 1218 L 406 1219 L 408 1221 L 408 1222 L 411 1225 L 411 1226 L 426 1241 L 427 1241 L 430 1244 L 431 1244 L 433 1246 L 434 1246 L 436 1248 L 437 1248 L 439 1250 L 440 1250 L 441 1251 L 442 1251 L 443 1252 L 444 1252 L 445 1253 L 446 1253 L 447 1254 L 448 1254 L 449 1255 L 451 1255 L 452 1256 L 453 1256 L 454 1257 L 456 1257 L 457 1258 L 459 1258 L 460 1259 L 463 1259 L 464 1260 L 467 1260 L 468 1261 L 473 1261 L 474 1262 L 483 1262 L 484 1263 L 491 1263 L 492 1262 L 502 1262 L 503 1261 L 507 1261 L 508 1260 L 511 1260 L 512 1259 L 515 1259 L 516 1258 L 518 1258 L 519 1257 L 521 1257 L 522 1256 L 523 1256 L 524 1255 L 526 1255 L 527 1254 L 528 1254 L 529 1253 L 530 1253 L 531 1252 L 532 1252 L 533 1251 L 534 1251 L 536 1249 L 537 1249 L 538 1248 L 539 1248 L 541 1246 L 542 1246 L 545 1243 L 546 1243 L 550 1239 L 551 1239 L 560 1230 L 560 1229 L 564 1225 L 564 1224 L 567 1221 L 567 1220 L 568 1219 L 568 1218 L 570 1216 L 570 1215 L 571 1214 L 571 1213 L 572 1212 L 572 1211 L 573 1210 L 573 1209 L 574 1208 L 574 1207 L 575 1206 L 575 1205 L 576 1204 L 576 1203 L 577 1202 L 577 1200 L 578 1199 L 578 1197 L 579 1196 L 579 1194 L 580 1193 L 580 1190 L 581 1189 L 581 1186 L 582 1185 L 582 1181 L 583 1180 L 583 1173 L 584 1172 L 584 1160 L 583 1159 L 583 1151 L 582 1150 L 582 1145 L 581 1144 L 581 1141 L 580 1140 L 580 1137 L 579 1136 L 579 1133 L 578 1132 L 578 1131 L 577 1130 L 576 1131 L 575 1131 L 573 1133 L 572 1133 L 570 1135 L 569 1135 L 567 1137 L 566 1137 L 565 1138 L 564 1138 L 563 1139 L 562 1139 L 561 1140 L 560 1140 L 559 1141 L 558 1141 L 557 1142 L 555 1142 L 554 1143 L 553 1143 L 552 1144 L 550 1144 L 549 1145 L 547 1145 L 546 1146 L 543 1146 L 542 1147 L 539 1147 L 538 1148 L 535 1148 L 534 1149 L 529 1149 L 528 1150 L 520 1150 L 519 1151 L 508 1151 L 507 1150 L 499 1150 L 498 1149 L 493 1149 L 492 1148 L 489 1148 L 488 1147 L 486 1147 L 485 1146 L 483 1146 L 482 1145 L 479 1145 L 478 1144 L 477 1144 L 476 1143 L 474 1143 L 473 1142 L 472 1142 L 471 1141 L 470 1141 L 469 1140 L 468 1140 L 467 1139 L 466 1139 L 465 1138 L 464 1138 L 463 1137 L 462 1137 L 461 1136 L 460 1136 L 459 1135 L 458 1135 L 456 1133 L 455 1133 L 454 1132 L 453 1132 L 450 1129 L 449 1129 L 446 1126 L 445 1126 L 432 1113 L 432 1112 L 428 1108 L 428 1107 L 426 1105 L 426 1104 L 424 1102 L 424 1101 L 422 1099 L 422 1098 L 421 1097 L 421 1096 L 420 1095 Z M 713 1001 L 710 1004 L 709 1004 L 706 1007 L 705 1007 L 703 1009 L 702 1009 L 700 1011 L 699 1011 L 697 1013 L 696 1013 L 695 1014 L 694 1014 L 693 1015 L 692 1015 L 691 1016 L 690 1016 L 689 1017 L 688 1017 L 687 1018 L 686 1018 L 685 1019 L 684 1019 L 683 1020 L 681 1020 L 680 1021 L 678 1021 L 677 1022 L 676 1022 L 675 1023 L 673 1023 L 672 1024 L 670 1024 L 669 1025 L 666 1025 L 665 1026 L 661 1026 L 660 1027 L 654 1027 L 653 1028 L 626 1028 L 625 1029 L 625 1044 L 624 1045 L 624 1051 L 623 1052 L 623 1057 L 622 1058 L 622 1061 L 621 1062 L 621 1065 L 620 1066 L 620 1069 L 619 1070 L 619 1072 L 618 1073 L 618 1075 L 617 1076 L 617 1078 L 616 1079 L 616 1080 L 615 1081 L 615 1083 L 614 1084 L 614 1085 L 613 1086 L 613 1087 L 612 1088 L 612 1089 L 611 1090 L 611 1091 L 610 1092 L 610 1093 L 609 1094 L 609 1095 L 607 1097 L 607 1098 L 606 1099 L 606 1100 L 604 1102 L 604 1103 L 602 1105 L 602 1106 L 600 1108 L 600 1109 L 597 1112 L 597 1113 L 589 1121 L 589 1124 L 590 1125 L 590 1127 L 591 1128 L 591 1130 L 592 1131 L 592 1134 L 593 1135 L 593 1138 L 594 1139 L 594 1142 L 595 1143 L 595 1146 L 596 1147 L 596 1155 L 597 1156 L 597 1158 L 598 1159 L 599 1159 L 600 1160 L 602 1160 L 603 1161 L 605 1161 L 606 1162 L 609 1162 L 610 1163 L 614 1163 L 615 1164 L 619 1164 L 620 1165 L 628 1165 L 629 1166 L 644 1166 L 645 1165 L 652 1165 L 653 1164 L 657 1164 L 658 1163 L 662 1163 L 663 1162 L 665 1162 L 666 1161 L 668 1161 L 669 1160 L 671 1160 L 672 1159 L 674 1159 L 675 1158 L 676 1158 L 677 1157 L 679 1157 L 680 1156 L 681 1156 L 682 1155 L 683 1155 L 684 1154 L 685 1154 L 687 1152 L 688 1152 L 689 1151 L 690 1151 L 692 1149 L 693 1149 L 695 1147 L 696 1147 L 698 1145 L 699 1145 L 703 1141 L 704 1141 L 715 1130 L 715 1129 L 718 1126 L 718 1125 L 721 1122 L 721 1121 L 723 1119 L 723 1118 L 724 1117 L 724 1116 L 726 1114 L 726 1113 L 727 1112 L 727 1111 L 728 1110 L 728 1109 L 729 1108 L 729 1107 L 730 1106 L 730 1104 L 731 1103 L 731 1102 L 732 1101 L 732 1099 L 733 1098 L 733 1096 L 734 1095 L 734 1093 L 735 1092 L 735 1089 L 736 1088 L 736 1084 L 737 1083 L 737 1078 L 738 1077 L 738 1051 L 737 1050 L 737 1045 L 736 1044 L 736 1041 L 735 1040 L 735 1037 L 734 1036 L 734 1034 L 733 1033 L 733 1031 L 732 1030 L 732 1028 L 731 1027 L 731 1026 L 730 1025 L 730 1023 L 729 1022 L 729 1021 L 728 1020 L 728 1019 L 726 1017 L 726 1016 L 725 1015 L 725 1014 L 724 1013 L 724 1012 L 722 1010 L 722 1009 L 719 1006 L 719 1005 L 715 1001 Z M 527 945 L 526 946 L 525 946 L 524 947 L 523 947 L 522 948 L 521 948 L 520 949 L 519 949 L 518 950 L 517 950 L 516 951 L 515 951 L 514 952 L 512 952 L 511 953 L 510 953 L 509 954 L 507 954 L 506 955 L 504 955 L 503 956 L 500 956 L 499 957 L 497 957 L 496 958 L 492 958 L 491 959 L 486 959 L 485 960 L 478 960 L 477 961 L 477 963 L 478 964 L 478 966 L 479 967 L 479 971 L 480 972 L 480 977 L 481 978 L 481 986 L 482 987 L 482 999 L 481 1000 L 481 1008 L 480 1009 L 480 1015 L 479 1016 L 479 1019 L 478 1020 L 478 1023 L 477 1024 L 477 1027 L 476 1028 L 476 1030 L 475 1031 L 475 1033 L 474 1034 L 474 1035 L 473 1036 L 473 1038 L 472 1039 L 472 1040 L 471 1041 L 471 1042 L 470 1043 L 470 1044 L 469 1045 L 469 1046 L 468 1047 L 468 1048 L 467 1049 L 467 1050 L 465 1052 L 465 1053 L 464 1054 L 464 1055 L 462 1057 L 462 1058 L 459 1061 L 459 1062 L 454 1067 L 454 1068 L 444 1078 L 443 1078 L 438 1083 L 437 1083 L 435 1085 L 434 1085 L 432 1087 L 432 1089 L 433 1090 L 433 1091 L 434 1092 L 434 1093 L 436 1095 L 436 1096 L 438 1098 L 438 1099 L 441 1102 L 441 1103 L 454 1116 L 455 1116 L 458 1119 L 459 1119 L 461 1121 L 462 1121 L 464 1123 L 465 1123 L 466 1124 L 467 1124 L 469 1126 L 470 1126 L 471 1127 L 472 1127 L 473 1128 L 474 1128 L 475 1129 L 476 1129 L 477 1130 L 478 1130 L 479 1131 L 481 1131 L 482 1132 L 484 1132 L 485 1133 L 486 1133 L 487 1134 L 490 1134 L 491 1135 L 494 1135 L 495 1136 L 500 1136 L 501 1137 L 528 1137 L 529 1136 L 533 1136 L 534 1135 L 538 1135 L 539 1134 L 541 1134 L 542 1133 L 544 1133 L 545 1132 L 547 1132 L 548 1131 L 549 1131 L 550 1130 L 552 1130 L 553 1129 L 554 1129 L 555 1128 L 556 1128 L 558 1126 L 559 1126 L 560 1125 L 561 1125 L 562 1124 L 563 1124 L 565 1122 L 566 1122 L 567 1121 L 568 1121 L 571 1118 L 572 1118 L 576 1114 L 577 1114 L 587 1104 L 587 1103 L 591 1099 L 591 1098 L 593 1096 L 593 1095 L 595 1093 L 595 1092 L 597 1090 L 597 1089 L 598 1088 L 598 1087 L 599 1086 L 599 1085 L 600 1084 L 600 1083 L 601 1082 L 601 1081 L 602 1080 L 602 1079 L 603 1078 L 603 1077 L 604 1076 L 604 1074 L 605 1073 L 605 1071 L 606 1070 L 606 1068 L 607 1067 L 607 1065 L 608 1064 L 608 1061 L 609 1060 L 609 1057 L 610 1056 L 610 1052 L 611 1051 L 611 1044 L 612 1043 L 612 1029 L 611 1028 L 611 1025 L 609 1025 L 608 1024 L 606 1024 L 605 1023 L 604 1023 L 603 1022 L 601 1022 L 600 1021 L 599 1021 L 598 1020 L 597 1020 L 596 1019 L 594 1019 L 593 1018 L 592 1018 L 591 1017 L 590 1017 L 589 1016 L 588 1016 L 587 1015 L 586 1015 L 585 1014 L 584 1014 L 582 1012 L 581 1012 L 580 1011 L 579 1011 L 578 1010 L 577 1010 L 575 1008 L 574 1008 L 572 1006 L 571 1006 L 568 1003 L 567 1003 L 560 996 L 559 996 L 556 993 L 556 992 L 550 986 L 550 985 L 547 982 L 547 981 L 544 978 L 544 977 L 542 975 L 542 974 L 541 973 L 541 972 L 540 971 L 540 970 L 539 969 L 539 968 L 538 967 L 538 966 L 537 965 L 537 964 L 536 963 L 536 962 L 535 961 L 535 960 L 534 959 L 534 958 L 533 957 L 533 955 L 532 954 L 532 952 L 531 951 L 531 950 L 530 949 L 530 947 L 529 946 L 529 945 Z M 370 904 L 365 909 L 364 909 L 362 911 L 361 911 L 358 914 L 357 914 L 355 916 L 354 916 L 353 917 L 352 917 L 350 919 L 349 919 L 348 920 L 347 920 L 346 921 L 345 921 L 344 922 L 343 922 L 342 923 L 341 923 L 340 924 L 338 924 L 337 925 L 336 925 L 335 926 L 333 926 L 332 927 L 331 927 L 330 928 L 327 928 L 326 929 L 324 929 L 323 930 L 319 930 L 318 931 L 313 931 L 312 932 L 294 932 L 293 933 L 292 933 L 287 938 L 287 939 L 285 941 L 285 942 L 284 943 L 284 944 L 282 946 L 282 947 L 281 948 L 281 949 L 280 950 L 280 952 L 279 953 L 279 954 L 278 955 L 278 957 L 277 958 L 277 959 L 276 960 L 276 962 L 275 963 L 275 966 L 274 967 L 274 970 L 273 971 L 273 975 L 272 976 L 272 982 L 271 983 L 271 1002 L 272 1003 L 272 1010 L 273 1011 L 273 1015 L 274 1016 L 274 1020 L 275 1021 L 275 1023 L 276 1024 L 276 1026 L 277 1027 L 277 1029 L 278 1030 L 278 1032 L 279 1033 L 279 1034 L 280 1035 L 280 1036 L 281 1037 L 281 1038 L 282 1039 L 282 1040 L 283 1041 L 283 1042 L 284 1043 L 284 1044 L 285 1045 L 285 1046 L 287 1048 L 287 1049 L 289 1051 L 289 1052 L 292 1055 L 292 1056 L 296 1060 L 296 1061 L 301 1066 L 302 1066 L 307 1071 L 308 1071 L 311 1074 L 312 1074 L 314 1076 L 315 1076 L 317 1078 L 318 1078 L 320 1080 L 321 1080 L 322 1081 L 323 1081 L 324 1082 L 325 1082 L 326 1083 L 327 1083 L 328 1084 L 330 1084 L 331 1085 L 332 1085 L 333 1086 L 335 1086 L 336 1087 L 338 1087 L 339 1088 L 341 1088 L 342 1089 L 345 1089 L 346 1090 L 349 1090 L 350 1091 L 355 1091 L 356 1092 L 384 1092 L 385 1091 L 390 1091 L 391 1090 L 394 1090 L 395 1089 L 398 1089 L 399 1088 L 401 1088 L 402 1087 L 404 1087 L 405 1086 L 406 1086 L 407 1085 L 409 1085 L 410 1084 L 411 1084 L 412 1083 L 413 1083 L 414 1082 L 415 1082 L 416 1081 L 417 1081 L 418 1080 L 419 1080 L 420 1079 L 421 1079 L 423 1077 L 424 1077 L 426 1075 L 427 1075 L 429 1073 L 430 1073 L 435 1068 L 436 1068 L 446 1058 L 446 1057 L 449 1054 L 449 1053 L 451 1051 L 451 1050 L 453 1048 L 453 1047 L 455 1045 L 455 1044 L 456 1043 L 456 1042 L 457 1041 L 457 1040 L 458 1039 L 458 1038 L 459 1037 L 459 1036 L 460 1035 L 460 1033 L 461 1032 L 461 1031 L 462 1030 L 462 1028 L 463 1027 L 463 1025 L 464 1024 L 464 1022 L 465 1021 L 465 1018 L 466 1017 L 466 1014 L 467 1013 L 467 1007 L 468 1006 L 468 982 L 467 981 L 467 976 L 466 975 L 466 971 L 465 970 L 465 967 L 464 966 L 464 964 L 463 963 L 463 961 L 462 960 L 457 960 L 456 959 L 450 959 L 449 958 L 445 958 L 444 957 L 441 957 L 440 956 L 437 956 L 436 955 L 434 955 L 433 954 L 432 954 L 431 953 L 429 953 L 428 952 L 427 952 L 426 951 L 425 951 L 424 950 L 423 950 L 422 949 L 421 949 L 420 948 L 419 948 L 418 947 L 417 947 L 416 946 L 415 946 L 414 945 L 413 945 L 411 943 L 410 943 L 408 941 L 407 941 L 405 939 L 404 939 L 400 935 L 399 935 L 382 918 L 382 917 L 379 914 L 379 913 L 376 910 L 376 909 L 374 907 L 374 906 L 372 904 Z M 665 813 L 663 815 L 662 815 L 661 816 L 660 816 L 659 817 L 658 817 L 657 818 L 656 818 L 655 819 L 654 819 L 653 820 L 652 820 L 651 821 L 650 821 L 649 822 L 648 822 L 647 823 L 645 823 L 644 824 L 642 824 L 641 825 L 639 825 L 638 826 L 635 826 L 634 827 L 631 827 L 630 828 L 626 828 L 625 829 L 618 829 L 617 830 L 597 830 L 596 829 L 589 829 L 588 830 L 588 839 L 589 840 L 589 845 L 588 846 L 588 854 L 587 855 L 587 860 L 586 861 L 586 865 L 585 866 L 585 870 L 584 871 L 584 873 L 583 874 L 583 877 L 582 878 L 582 880 L 581 881 L 581 883 L 580 884 L 580 885 L 579 886 L 579 887 L 578 888 L 578 890 L 577 891 L 577 892 L 576 893 L 576 894 L 575 895 L 575 896 L 574 897 L 574 898 L 572 900 L 572 901 L 571 902 L 571 903 L 569 905 L 569 906 L 567 908 L 567 909 L 565 911 L 565 912 L 561 916 L 561 917 L 557 921 L 557 922 L 551 928 L 550 928 L 544 934 L 543 934 L 541 936 L 541 939 L 542 940 L 542 942 L 543 943 L 543 946 L 544 947 L 544 948 L 545 949 L 545 951 L 546 952 L 546 954 L 547 955 L 547 956 L 548 957 L 548 958 L 549 959 L 549 960 L 550 961 L 550 962 L 551 963 L 551 964 L 552 965 L 552 966 L 553 967 L 553 968 L 555 970 L 555 971 L 557 973 L 557 974 L 560 977 L 560 978 L 573 991 L 574 991 L 577 994 L 578 994 L 580 996 L 581 996 L 583 998 L 584 998 L 585 999 L 586 999 L 588 1001 L 589 1001 L 590 1002 L 591 1002 L 592 1003 L 593 1003 L 595 1005 L 596 1005 L 597 1006 L 598 1006 L 599 1007 L 601 1007 L 602 1008 L 603 1008 L 604 1009 L 606 1009 L 607 1010 L 608 1010 L 609 1011 L 612 1011 L 613 1012 L 615 1012 L 616 1013 L 620 1013 L 621 1014 L 627 1014 L 628 1015 L 649 1015 L 650 1014 L 657 1014 L 658 1013 L 662 1013 L 663 1012 L 666 1012 L 667 1011 L 669 1011 L 670 1010 L 672 1010 L 673 1009 L 675 1009 L 676 1008 L 678 1008 L 679 1007 L 680 1007 L 681 1006 L 682 1006 L 683 1005 L 684 1005 L 685 1004 L 686 1004 L 687 1003 L 688 1003 L 689 1002 L 690 1002 L 692 1000 L 693 1000 L 695 998 L 696 998 L 697 997 L 698 997 L 701 994 L 702 994 L 708 988 L 709 988 L 713 984 L 713 983 L 720 976 L 720 975 L 723 972 L 723 971 L 725 969 L 725 968 L 727 966 L 727 965 L 728 964 L 728 963 L 729 962 L 729 961 L 730 960 L 730 959 L 732 957 L 732 955 L 733 954 L 733 953 L 734 952 L 734 950 L 735 949 L 735 948 L 736 947 L 736 945 L 737 944 L 737 941 L 738 940 L 738 937 L 739 936 L 739 932 L 740 931 L 740 926 L 741 925 L 741 903 L 740 902 L 740 896 L 739 895 L 739 891 L 738 890 L 738 887 L 737 886 L 737 883 L 736 882 L 736 880 L 735 879 L 735 877 L 734 876 L 734 874 L 733 873 L 733 872 L 732 871 L 732 870 L 731 869 L 731 867 L 730 866 L 730 865 L 729 864 L 729 863 L 728 862 L 728 861 L 726 859 L 726 858 L 725 857 L 725 856 L 723 854 L 723 853 L 721 851 L 721 850 L 717 846 L 717 845 L 704 832 L 703 832 L 700 829 L 699 829 L 697 827 L 696 827 L 694 825 L 693 825 L 691 823 L 690 823 L 689 822 L 688 822 L 687 821 L 686 821 L 684 819 L 682 819 L 681 818 L 680 818 L 679 817 L 678 817 L 677 816 L 675 816 L 674 815 L 673 815 L 672 814 L 670 814 L 669 813 Z M 483 732 L 480 735 L 479 735 L 475 739 L 474 739 L 471 742 L 470 742 L 469 743 L 468 743 L 466 745 L 465 745 L 463 747 L 462 747 L 461 748 L 460 748 L 459 749 L 458 749 L 457 750 L 456 750 L 455 751 L 454 751 L 453 752 L 452 752 L 451 753 L 449 753 L 448 754 L 447 754 L 446 755 L 444 755 L 443 756 L 441 756 L 440 757 L 438 757 L 437 758 L 435 758 L 434 759 L 430 759 L 429 760 L 422 760 L 421 761 L 404 761 L 403 762 L 402 762 L 401 763 L 399 763 L 393 769 L 393 770 L 390 773 L 390 774 L 388 776 L 388 777 L 386 779 L 386 780 L 385 781 L 385 782 L 384 783 L 384 784 L 382 786 L 382 787 L 381 788 L 381 789 L 380 790 L 380 791 L 379 792 L 379 793 L 378 794 L 378 796 L 377 797 L 377 798 L 376 799 L 376 800 L 375 801 L 375 803 L 374 804 L 374 806 L 373 807 L 373 810 L 372 811 L 372 814 L 371 815 L 371 819 L 370 820 L 370 825 L 369 826 L 369 853 L 370 854 L 370 859 L 371 860 L 371 864 L 372 865 L 372 868 L 373 869 L 373 871 L 374 872 L 374 875 L 375 876 L 375 877 L 376 878 L 376 880 L 377 881 L 377 883 L 378 884 L 378 885 L 379 886 L 379 887 L 380 888 L 380 889 L 381 890 L 381 891 L 382 892 L 382 893 L 383 894 L 383 895 L 384 896 L 384 897 L 385 898 L 385 899 L 387 901 L 387 902 L 389 904 L 389 905 L 392 908 L 392 909 L 408 925 L 409 925 L 412 928 L 413 928 L 415 930 L 416 930 L 418 932 L 419 932 L 420 933 L 421 933 L 423 935 L 424 935 L 425 936 L 426 936 L 427 937 L 428 937 L 429 938 L 430 938 L 431 939 L 433 939 L 434 940 L 435 940 L 436 941 L 437 941 L 438 942 L 440 942 L 441 943 L 444 943 L 445 944 L 447 944 L 448 945 L 452 945 L 453 946 L 458 946 L 459 947 L 485 947 L 486 946 L 490 946 L 491 945 L 494 945 L 495 944 L 498 944 L 499 943 L 501 943 L 502 942 L 504 942 L 505 941 L 506 941 L 507 940 L 509 940 L 510 939 L 511 939 L 512 938 L 513 938 L 514 937 L 515 937 L 516 936 L 517 936 L 518 935 L 519 935 L 520 934 L 521 934 L 522 933 L 523 933 L 525 931 L 526 931 L 528 929 L 529 929 L 531 927 L 532 927 L 535 924 L 536 924 L 551 909 L 551 908 L 554 905 L 554 904 L 557 901 L 557 900 L 558 899 L 558 898 L 560 896 L 560 895 L 561 894 L 561 893 L 563 891 L 563 890 L 564 889 L 564 887 L 565 886 L 565 885 L 566 884 L 566 883 L 567 882 L 567 880 L 568 879 L 568 878 L 569 877 L 569 875 L 570 874 L 570 871 L 571 870 L 571 867 L 572 866 L 572 863 L 573 862 L 573 857 L 574 856 L 574 846 L 575 845 L 575 832 L 574 831 L 574 825 L 573 824 L 573 819 L 572 818 L 572 815 L 571 814 L 571 811 L 570 810 L 570 808 L 569 807 L 569 805 L 568 804 L 568 802 L 567 801 L 567 799 L 566 798 L 566 797 L 565 796 L 565 795 L 564 794 L 564 793 L 563 792 L 563 790 L 561 788 L 561 787 L 560 786 L 560 785 L 559 784 L 559 783 L 557 781 L 557 780 L 555 778 L 555 777 L 553 775 L 553 774 L 550 771 L 550 770 L 535 755 L 534 755 L 530 751 L 529 751 L 527 749 L 526 749 L 524 747 L 523 747 L 522 746 L 521 746 L 520 745 L 519 745 L 517 743 L 516 743 L 515 742 L 513 742 L 512 741 L 511 741 L 510 740 L 509 740 L 508 739 L 507 739 L 506 738 L 504 738 L 503 737 L 501 737 L 500 736 L 497 736 L 496 735 L 494 735 L 493 734 L 489 734 L 488 733 L 484 733 Z M 294 710 L 293 711 L 288 711 L 287 712 L 283 712 L 282 713 L 279 713 L 278 714 L 275 714 L 274 715 L 272 715 L 271 716 L 269 716 L 268 717 L 267 717 L 266 718 L 264 718 L 263 719 L 262 719 L 261 720 L 260 720 L 259 721 L 258 721 L 257 722 L 256 722 L 255 723 L 254 723 L 253 724 L 252 724 L 251 725 L 250 725 L 248 727 L 247 727 L 245 729 L 244 729 L 242 731 L 241 731 L 238 734 L 237 734 L 233 738 L 232 738 L 223 747 L 223 748 L 218 753 L 218 754 L 215 757 L 215 758 L 214 759 L 214 760 L 212 762 L 212 763 L 211 764 L 211 765 L 209 767 L 209 768 L 208 769 L 208 770 L 207 771 L 207 772 L 206 773 L 206 774 L 205 775 L 205 777 L 204 778 L 204 779 L 203 780 L 203 782 L 202 783 L 202 785 L 201 786 L 201 788 L 200 789 L 200 792 L 199 793 L 199 797 L 198 798 L 198 803 L 197 804 L 197 831 L 198 832 L 198 837 L 199 838 L 199 842 L 200 843 L 200 845 L 201 846 L 201 849 L 202 850 L 202 852 L 203 853 L 203 854 L 204 855 L 204 857 L 205 858 L 205 859 L 206 860 L 206 861 L 207 862 L 207 863 L 208 864 L 208 865 L 209 866 L 209 867 L 210 868 L 210 869 L 212 871 L 212 872 L 213 873 L 213 874 L 216 877 L 216 878 L 218 880 L 218 881 L 233 896 L 234 896 L 237 899 L 238 899 L 241 902 L 242 902 L 244 904 L 245 904 L 246 905 L 247 905 L 249 907 L 250 907 L 251 908 L 252 908 L 253 909 L 254 909 L 255 910 L 256 910 L 257 911 L 259 911 L 260 912 L 261 912 L 262 913 L 264 913 L 265 914 L 267 914 L 268 915 L 270 915 L 271 916 L 274 916 L 275 917 L 279 917 L 280 918 L 288 918 L 289 919 L 306 919 L 307 918 L 313 918 L 314 917 L 318 917 L 319 916 L 322 916 L 323 915 L 325 915 L 326 914 L 328 914 L 329 913 L 331 913 L 332 912 L 333 912 L 334 911 L 335 911 L 336 910 L 338 910 L 339 909 L 340 909 L 341 908 L 342 908 L 344 906 L 345 906 L 346 905 L 347 905 L 348 904 L 349 904 L 351 902 L 352 902 L 355 899 L 356 899 L 365 890 L 365 888 L 364 887 L 364 886 L 363 885 L 363 883 L 362 882 L 362 880 L 361 879 L 361 877 L 360 876 L 360 873 L 359 872 L 359 869 L 358 868 L 358 865 L 357 864 L 357 859 L 356 858 L 356 847 L 355 846 L 355 830 L 356 829 L 356 821 L 357 820 L 357 816 L 358 815 L 358 811 L 359 810 L 359 807 L 360 806 L 360 804 L 361 803 L 361 801 L 362 800 L 362 798 L 363 797 L 363 795 L 364 794 L 364 793 L 365 792 L 365 790 L 366 789 L 366 788 L 367 787 L 367 786 L 368 785 L 368 784 L 369 783 L 369 782 L 371 780 L 371 779 L 372 778 L 372 777 L 374 775 L 374 774 L 376 772 L 376 771 L 379 768 L 379 767 L 381 765 L 381 764 L 383 762 L 383 761 L 382 760 L 381 760 L 380 759 L 377 759 L 376 758 L 373 758 L 372 757 L 370 757 L 369 756 L 367 756 L 366 755 L 365 755 L 364 754 L 363 754 L 362 753 L 360 753 L 359 752 L 358 752 L 357 751 L 356 751 L 355 750 L 354 750 L 353 749 L 352 749 L 350 747 L 349 747 L 348 746 L 347 746 L 345 744 L 344 744 L 342 742 L 341 742 L 339 740 L 338 740 L 334 736 L 333 736 L 319 722 L 319 721 L 315 717 L 315 716 L 312 713 L 312 712 L 310 710 Z M 813 706 L 811 708 L 810 708 L 807 711 L 806 711 L 804 713 L 803 713 L 802 714 L 801 714 L 800 715 L 799 715 L 797 717 L 796 717 L 795 718 L 794 718 L 793 719 L 791 719 L 790 720 L 789 720 L 788 721 L 787 721 L 786 722 L 784 722 L 783 723 L 782 723 L 781 724 L 778 724 L 777 725 L 775 725 L 774 726 L 771 726 L 770 727 L 767 727 L 766 728 L 763 728 L 762 729 L 757 729 L 756 730 L 750 730 L 749 731 L 720 731 L 719 732 L 719 734 L 718 735 L 718 738 L 717 739 L 717 742 L 716 743 L 716 745 L 715 746 L 715 748 L 714 749 L 714 751 L 713 752 L 713 754 L 712 755 L 712 757 L 711 758 L 711 759 L 710 760 L 710 761 L 709 762 L 709 764 L 708 765 L 708 766 L 707 767 L 707 768 L 706 769 L 706 770 L 704 772 L 704 773 L 703 774 L 703 775 L 702 776 L 702 777 L 700 779 L 700 780 L 698 782 L 698 783 L 695 786 L 695 787 L 691 791 L 691 792 L 681 802 L 681 803 L 682 803 L 684 805 L 685 805 L 686 806 L 687 806 L 688 807 L 689 807 L 690 808 L 691 808 L 692 809 L 693 809 L 694 810 L 695 810 L 697 812 L 698 812 L 699 813 L 700 813 L 702 815 L 703 815 L 705 817 L 706 817 L 710 821 L 711 821 L 728 838 L 728 839 L 731 842 L 731 843 L 734 846 L 734 847 L 735 848 L 735 849 L 737 851 L 737 852 L 738 853 L 738 854 L 739 855 L 739 856 L 741 858 L 741 859 L 742 860 L 742 861 L 743 862 L 743 864 L 744 865 L 744 866 L 745 867 L 745 868 L 746 869 L 746 871 L 747 872 L 747 874 L 748 875 L 748 877 L 749 878 L 749 880 L 750 881 L 750 884 L 751 885 L 751 888 L 752 889 L 752 893 L 753 894 L 753 898 L 754 898 L 755 899 L 780 899 L 781 898 L 786 898 L 787 897 L 790 897 L 791 896 L 793 896 L 794 895 L 796 895 L 797 894 L 799 894 L 800 893 L 802 893 L 803 892 L 804 892 L 805 891 L 807 891 L 808 890 L 809 890 L 810 889 L 811 889 L 812 888 L 813 888 L 815 886 L 816 886 L 817 885 L 818 885 L 820 883 L 821 883 L 823 881 L 824 881 L 827 878 L 828 878 L 833 873 L 834 873 L 840 867 L 840 866 L 846 860 L 846 859 L 848 857 L 848 856 L 851 853 L 851 852 L 852 851 L 852 850 L 854 848 L 854 847 L 855 846 L 855 845 L 856 844 L 856 843 L 857 842 L 857 841 L 858 840 L 858 839 L 859 838 L 859 837 L 860 836 L 860 834 L 861 833 L 861 832 L 862 831 L 862 829 L 863 828 L 863 825 L 864 824 L 864 822 L 865 821 L 865 817 L 866 816 L 866 812 L 867 811 L 867 804 L 868 803 L 868 791 L 867 790 L 867 781 L 866 780 L 866 775 L 865 774 L 865 771 L 864 770 L 864 767 L 863 766 L 863 764 L 862 763 L 862 761 L 861 760 L 861 759 L 860 758 L 860 756 L 859 755 L 859 754 L 858 753 L 858 752 L 857 751 L 857 750 L 856 749 L 856 748 L 855 747 L 855 746 L 854 745 L 854 744 L 853 743 L 853 742 L 851 740 L 851 739 L 849 737 L 849 736 L 847 734 L 847 733 L 844 730 L 844 729 L 831 716 L 830 716 L 826 712 L 825 712 L 823 710 L 822 710 L 820 708 L 819 708 L 818 707 L 817 707 L 816 706 Z M 593 605 L 592 606 L 586 606 L 585 607 L 581 607 L 580 608 L 578 608 L 577 609 L 574 609 L 573 610 L 572 610 L 571 611 L 569 611 L 568 612 L 566 612 L 565 613 L 564 613 L 563 614 L 562 614 L 561 615 L 560 615 L 559 616 L 558 616 L 556 618 L 555 618 L 554 619 L 553 619 L 551 621 L 550 621 L 547 624 L 546 624 L 544 626 L 543 626 L 538 631 L 537 631 L 530 638 L 530 639 L 527 642 L 527 643 L 525 645 L 525 646 L 524 647 L 524 653 L 523 654 L 523 660 L 522 661 L 522 666 L 521 667 L 521 670 L 520 671 L 520 675 L 519 676 L 519 678 L 518 679 L 518 681 L 517 682 L 517 684 L 516 685 L 516 686 L 515 687 L 515 689 L 514 690 L 514 691 L 513 692 L 513 693 L 512 694 L 512 695 L 511 696 L 511 697 L 510 698 L 510 699 L 509 700 L 509 701 L 508 702 L 508 703 L 506 705 L 506 706 L 505 707 L 505 708 L 504 709 L 504 710 L 502 712 L 502 713 L 501 714 L 501 715 L 500 716 L 500 718 L 501 719 L 500 720 L 501 721 L 501 722 L 502 723 L 504 723 L 505 724 L 507 724 L 508 725 L 509 725 L 510 726 L 512 726 L 513 727 L 514 727 L 515 728 L 516 728 L 517 729 L 519 729 L 520 730 L 521 730 L 522 731 L 523 731 L 524 732 L 525 732 L 527 734 L 528 734 L 529 735 L 530 735 L 531 736 L 532 736 L 534 738 L 535 738 L 537 740 L 538 740 L 541 743 L 542 743 L 546 747 L 547 747 L 557 757 L 557 758 L 562 763 L 562 764 L 564 766 L 564 767 L 567 770 L 567 771 L 568 772 L 568 773 L 570 775 L 570 776 L 571 777 L 571 778 L 573 780 L 573 781 L 574 782 L 574 783 L 575 784 L 575 785 L 576 786 L 576 787 L 577 788 L 577 789 L 578 790 L 578 792 L 579 793 L 579 794 L 580 795 L 580 796 L 581 797 L 581 799 L 582 800 L 582 802 L 583 803 L 583 805 L 584 806 L 584 808 L 585 809 L 585 811 L 588 814 L 590 814 L 591 815 L 594 815 L 595 816 L 598 816 L 599 817 L 619 817 L 620 816 L 624 816 L 625 815 L 628 815 L 629 814 L 632 814 L 633 813 L 635 813 L 636 812 L 638 812 L 639 811 L 641 811 L 642 810 L 644 810 L 645 809 L 646 809 L 647 808 L 648 808 L 649 807 L 650 807 L 651 806 L 652 806 L 653 805 L 654 805 L 655 804 L 656 804 L 658 802 L 659 802 L 661 800 L 662 800 L 665 797 L 666 797 L 670 793 L 671 793 L 681 783 L 681 782 L 685 778 L 685 777 L 688 774 L 688 773 L 690 771 L 690 770 L 691 769 L 691 768 L 693 766 L 693 765 L 694 764 L 694 763 L 695 762 L 695 761 L 696 760 L 696 759 L 697 758 L 697 756 L 698 755 L 698 754 L 699 753 L 699 751 L 700 750 L 700 748 L 701 747 L 701 745 L 702 744 L 702 742 L 703 741 L 703 738 L 704 737 L 704 734 L 705 733 L 705 728 L 706 727 L 706 699 L 705 698 L 705 692 L 704 691 L 704 687 L 703 686 L 703 683 L 702 682 L 702 680 L 701 679 L 701 676 L 700 675 L 700 674 L 699 673 L 699 671 L 698 670 L 698 669 L 697 668 L 697 667 L 696 666 L 696 664 L 695 663 L 695 662 L 693 660 L 693 659 L 692 658 L 692 657 L 691 656 L 691 655 L 689 653 L 689 652 L 687 650 L 687 649 L 685 647 L 685 646 L 681 642 L 681 641 L 666 626 L 665 626 L 662 623 L 661 623 L 659 621 L 658 621 L 656 619 L 655 619 L 654 618 L 653 618 L 652 617 L 651 617 L 650 616 L 649 616 L 648 615 L 647 615 L 646 614 L 645 614 L 644 613 L 642 613 L 641 612 L 640 612 L 639 611 L 637 611 L 636 610 L 634 610 L 633 609 L 630 609 L 629 608 L 626 608 L 625 607 L 621 607 L 620 606 L 614 606 L 613 605 Z M 220 545 L 219 546 L 215 546 L 214 547 L 211 547 L 210 548 L 208 548 L 207 549 L 205 549 L 204 550 L 202 550 L 201 551 L 200 551 L 199 552 L 197 552 L 196 553 L 195 553 L 194 554 L 193 554 L 192 555 L 191 555 L 189 557 L 188 557 L 187 558 L 186 558 L 184 560 L 183 560 L 181 562 L 180 562 L 177 565 L 176 565 L 161 580 L 161 581 L 158 584 L 158 585 L 156 587 L 156 588 L 154 590 L 154 591 L 153 592 L 153 593 L 152 594 L 152 595 L 151 596 L 151 597 L 150 598 L 150 599 L 149 600 L 149 601 L 148 602 L 148 603 L 147 604 L 147 606 L 146 607 L 146 608 L 145 609 L 145 611 L 144 612 L 144 615 L 143 616 L 143 619 L 142 620 L 142 623 L 141 624 L 141 630 L 140 631 L 140 656 L 141 657 L 141 663 L 142 664 L 142 667 L 143 668 L 143 671 L 144 672 L 144 675 L 145 676 L 145 678 L 146 679 L 146 680 L 147 681 L 147 683 L 148 684 L 148 685 L 149 686 L 149 687 L 150 688 L 150 689 L 151 690 L 151 691 L 152 692 L 152 693 L 153 694 L 153 695 L 154 696 L 154 697 L 156 699 L 156 700 L 158 702 L 158 703 L 160 705 L 160 706 L 164 710 L 164 711 L 175 722 L 176 722 L 180 726 L 181 726 L 184 729 L 185 729 L 186 730 L 187 730 L 189 732 L 190 732 L 191 733 L 192 733 L 193 734 L 194 734 L 195 735 L 196 735 L 197 736 L 198 736 L 199 737 L 200 737 L 201 738 L 203 738 L 204 739 L 206 739 L 207 740 L 211 740 L 223 728 L 224 728 L 229 723 L 230 723 L 233 720 L 234 720 L 237 717 L 238 717 L 240 715 L 241 715 L 242 714 L 243 714 L 245 712 L 246 712 L 247 711 L 248 711 L 249 710 L 250 710 L 251 709 L 252 709 L 253 708 L 254 708 L 255 707 L 257 707 L 258 706 L 259 706 L 260 705 L 262 705 L 263 704 L 264 704 L 265 703 L 268 703 L 269 702 L 271 702 L 272 701 L 275 701 L 276 700 L 279 700 L 280 699 L 284 699 L 285 698 L 290 698 L 291 697 L 301 697 L 302 696 L 302 694 L 301 693 L 301 692 L 300 691 L 300 689 L 299 688 L 299 686 L 298 685 L 298 684 L 297 683 L 297 681 L 296 680 L 296 677 L 295 676 L 295 674 L 294 673 L 294 670 L 293 669 L 293 665 L 292 664 L 292 658 L 291 657 L 291 634 L 292 633 L 292 627 L 293 626 L 293 621 L 294 620 L 294 617 L 295 616 L 295 612 L 296 611 L 296 609 L 297 608 L 297 606 L 298 605 L 298 603 L 299 602 L 299 600 L 300 599 L 300 598 L 301 597 L 301 595 L 302 594 L 302 593 L 303 592 L 303 591 L 304 590 L 304 589 L 305 588 L 305 587 L 306 586 L 306 585 L 307 584 L 307 583 L 308 582 L 308 580 L 294 566 L 293 566 L 290 563 L 289 563 L 287 561 L 286 561 L 284 559 L 283 559 L 282 558 L 281 558 L 280 557 L 279 557 L 278 556 L 277 556 L 276 555 L 275 555 L 274 554 L 273 554 L 272 553 L 271 553 L 270 552 L 269 552 L 268 551 L 266 551 L 265 550 L 263 550 L 262 549 L 260 549 L 259 548 L 257 548 L 256 547 L 252 547 L 251 546 L 247 546 L 246 545 Z M 395 537 L 394 538 L 389 538 L 388 539 L 385 539 L 384 540 L 381 540 L 380 541 L 378 541 L 377 542 L 375 542 L 374 543 L 373 543 L 372 544 L 370 544 L 369 545 L 368 545 L 367 546 L 366 546 L 365 547 L 364 547 L 363 548 L 362 548 L 361 549 L 360 549 L 359 550 L 358 550 L 357 551 L 356 551 L 354 553 L 353 553 L 351 555 L 350 555 L 348 557 L 347 557 L 344 560 L 343 560 L 329 574 L 329 575 L 325 579 L 325 580 L 323 582 L 323 583 L 321 585 L 321 586 L 320 587 L 320 588 L 319 589 L 319 590 L 317 592 L 317 593 L 316 594 L 316 595 L 315 596 L 315 597 L 314 598 L 314 599 L 313 600 L 313 602 L 312 603 L 312 604 L 311 605 L 311 607 L 310 608 L 310 610 L 309 611 L 309 614 L 308 615 L 308 618 L 307 619 L 307 623 L 306 624 L 306 629 L 305 630 L 305 639 L 304 640 L 304 654 L 305 655 L 305 662 L 306 663 L 306 667 L 307 668 L 307 671 L 308 672 L 308 675 L 309 676 L 309 678 L 310 679 L 310 681 L 311 682 L 311 683 L 312 684 L 312 686 L 313 687 L 313 688 L 314 689 L 314 690 L 315 691 L 315 692 L 316 693 L 316 694 L 318 696 L 318 697 L 319 698 L 319 699 L 321 701 L 321 702 L 323 704 L 323 705 L 325 707 L 325 708 L 331 714 L 331 715 L 333 717 L 334 717 L 341 724 L 342 724 L 346 728 L 347 728 L 349 730 L 350 730 L 352 732 L 353 732 L 354 733 L 355 733 L 357 735 L 358 735 L 359 736 L 360 736 L 361 737 L 362 737 L 363 738 L 364 738 L 365 739 L 366 739 L 367 740 L 369 740 L 370 741 L 371 741 L 372 742 L 374 742 L 375 743 L 377 743 L 378 744 L 380 744 L 381 745 L 384 745 L 385 746 L 388 746 L 389 747 L 394 747 L 395 748 L 418 748 L 419 747 L 424 747 L 425 746 L 429 746 L 430 745 L 433 745 L 434 744 L 436 744 L 437 743 L 439 743 L 440 742 L 442 742 L 443 741 L 444 741 L 445 740 L 447 740 L 448 739 L 449 739 L 450 738 L 451 738 L 452 737 L 453 737 L 454 736 L 455 736 L 456 735 L 457 735 L 459 733 L 460 733 L 461 732 L 462 732 L 464 730 L 465 730 L 468 727 L 469 727 L 472 724 L 473 724 L 487 710 L 487 709 L 490 706 L 490 705 L 492 703 L 492 702 L 494 700 L 494 699 L 496 697 L 496 696 L 497 695 L 497 694 L 498 693 L 498 692 L 499 691 L 499 690 L 500 689 L 500 688 L 501 687 L 501 686 L 502 685 L 502 683 L 503 682 L 503 681 L 504 680 L 504 678 L 505 677 L 505 675 L 506 674 L 506 672 L 507 671 L 507 669 L 508 668 L 508 665 L 509 664 L 509 659 L 510 658 L 510 644 L 511 643 L 511 636 L 510 635 L 510 627 L 509 626 L 509 621 L 508 620 L 508 616 L 507 615 L 507 612 L 506 611 L 506 609 L 505 608 L 505 606 L 504 605 L 504 603 L 503 602 L 503 601 L 502 600 L 502 598 L 501 597 L 501 596 L 500 595 L 500 594 L 499 593 L 499 592 L 498 591 L 498 590 L 496 588 L 496 587 L 495 586 L 495 585 L 493 583 L 493 582 L 491 580 L 491 579 L 488 576 L 488 575 L 472 559 L 471 559 L 469 557 L 468 557 L 465 554 L 464 554 L 463 553 L 462 553 L 460 551 L 459 551 L 458 550 L 457 550 L 456 549 L 455 549 L 454 548 L 453 548 L 451 546 L 449 546 L 448 545 L 447 545 L 446 544 L 445 544 L 444 543 L 442 543 L 441 542 L 439 542 L 438 541 L 436 541 L 435 540 L 432 540 L 431 539 L 428 539 L 427 538 L 422 538 L 421 537 Z M 739 507 L 738 508 L 730 508 L 729 509 L 725 509 L 724 510 L 720 510 L 719 511 L 717 511 L 716 512 L 714 512 L 713 513 L 711 513 L 710 514 L 708 514 L 707 515 L 706 515 L 705 516 L 703 516 L 702 517 L 701 517 L 700 518 L 699 518 L 698 519 L 697 519 L 695 521 L 694 521 L 693 522 L 692 522 L 690 524 L 689 524 L 687 526 L 686 526 L 684 528 L 683 528 L 667 544 L 667 545 L 664 548 L 664 549 L 661 552 L 661 553 L 659 555 L 659 556 L 658 557 L 658 558 L 657 559 L 657 561 L 656 562 L 656 563 L 655 564 L 655 565 L 654 566 L 654 568 L 653 569 L 653 570 L 652 571 L 652 572 L 651 573 L 651 574 L 650 575 L 650 576 L 649 577 L 649 578 L 648 579 L 648 580 L 647 581 L 647 582 L 646 583 L 646 584 L 645 585 L 645 586 L 644 587 L 644 588 L 643 589 L 643 592 L 642 593 L 642 597 L 644 599 L 645 599 L 646 600 L 647 600 L 648 601 L 649 601 L 650 602 L 651 602 L 652 603 L 654 603 L 655 604 L 656 604 L 657 605 L 658 605 L 660 607 L 661 607 L 662 608 L 663 608 L 664 609 L 665 609 L 667 611 L 668 611 L 670 613 L 671 613 L 673 615 L 674 615 L 677 618 L 678 618 L 682 622 L 683 622 L 689 628 L 689 629 L 693 633 L 693 634 L 697 638 L 697 639 L 699 641 L 699 642 L 701 644 L 701 645 L 703 647 L 703 648 L 704 649 L 704 650 L 705 651 L 705 652 L 706 653 L 706 654 L 707 655 L 707 656 L 708 657 L 708 658 L 709 659 L 709 660 L 710 661 L 710 662 L 711 663 L 711 665 L 712 666 L 712 667 L 713 668 L 713 670 L 714 671 L 714 673 L 715 674 L 715 677 L 716 678 L 716 680 L 717 681 L 717 684 L 718 685 L 718 689 L 719 690 L 719 695 L 720 696 L 720 706 L 721 707 L 721 716 L 723 716 L 724 717 L 735 717 L 736 718 L 748 718 L 749 717 L 756 717 L 757 716 L 762 716 L 763 715 L 766 715 L 767 714 L 770 714 L 771 713 L 774 713 L 775 712 L 777 712 L 778 711 L 779 711 L 780 710 L 782 710 L 783 709 L 785 709 L 786 708 L 787 708 L 788 707 L 789 707 L 790 706 L 791 706 L 792 705 L 793 705 L 794 704 L 795 704 L 797 702 L 798 702 L 799 701 L 800 701 L 802 699 L 803 699 L 806 696 L 807 696 L 823 680 L 823 679 L 826 676 L 826 675 L 829 672 L 829 671 L 831 669 L 831 668 L 832 667 L 832 666 L 833 665 L 833 664 L 835 662 L 835 661 L 836 660 L 836 659 L 837 658 L 837 657 L 838 656 L 838 654 L 839 653 L 839 652 L 840 651 L 840 649 L 841 648 L 841 646 L 842 645 L 842 643 L 843 642 L 843 639 L 844 638 L 844 634 L 845 633 L 845 629 L 846 628 L 846 599 L 845 598 L 845 593 L 844 592 L 844 588 L 843 587 L 843 584 L 842 583 L 842 581 L 841 580 L 841 578 L 840 577 L 840 575 L 839 574 L 839 573 L 838 572 L 838 570 L 837 569 L 837 568 L 836 567 L 836 566 L 835 565 L 835 564 L 834 563 L 834 562 L 833 561 L 833 560 L 831 558 L 831 557 L 830 556 L 830 555 L 828 553 L 828 552 L 825 549 L 825 548 L 822 545 L 822 544 L 808 530 L 807 530 L 804 527 L 803 527 L 801 525 L 800 525 L 798 523 L 797 523 L 795 521 L 794 521 L 793 520 L 792 520 L 791 519 L 790 519 L 789 518 L 788 518 L 787 517 L 786 517 L 785 516 L 784 516 L 783 515 L 781 515 L 780 514 L 779 514 L 778 513 L 776 513 L 775 512 L 773 512 L 772 511 L 769 511 L 768 510 L 765 510 L 764 509 L 760 509 L 759 508 L 755 508 L 754 507 Z M 539 411 L 538 412 L 528 412 L 527 413 L 523 413 L 522 414 L 519 414 L 518 415 L 516 415 L 515 416 L 513 416 L 512 417 L 510 417 L 509 418 L 508 418 L 507 419 L 505 419 L 504 420 L 503 420 L 502 421 L 501 421 L 500 422 L 499 422 L 497 424 L 496 424 L 495 425 L 494 425 L 493 426 L 492 426 L 490 428 L 489 428 L 487 430 L 486 430 L 483 433 L 482 433 L 464 451 L 464 452 L 461 455 L 461 456 L 459 458 L 459 459 L 457 461 L 457 462 L 455 464 L 455 465 L 454 466 L 454 467 L 453 468 L 453 469 L 452 470 L 452 471 L 450 473 L 450 475 L 449 476 L 449 477 L 448 478 L 448 479 L 447 480 L 447 481 L 446 482 L 446 484 L 445 485 L 445 487 L 444 488 L 444 490 L 443 491 L 443 494 L 442 495 L 442 498 L 441 499 L 441 502 L 440 503 L 440 508 L 439 509 L 439 516 L 438 517 L 438 526 L 440 528 L 441 528 L 442 529 L 444 529 L 445 530 L 447 530 L 448 531 L 449 531 L 450 532 L 452 532 L 453 533 L 454 533 L 455 534 L 456 534 L 457 535 L 458 535 L 459 536 L 460 536 L 461 537 L 462 537 L 463 538 L 464 538 L 465 539 L 466 539 L 467 540 L 468 540 L 470 542 L 471 542 L 473 544 L 474 544 L 476 546 L 477 546 L 481 550 L 482 550 L 498 566 L 498 567 L 501 570 L 501 571 L 504 574 L 504 575 L 506 577 L 506 578 L 507 579 L 507 580 L 509 582 L 509 583 L 510 584 L 510 585 L 511 586 L 511 587 L 512 588 L 512 589 L 513 590 L 513 591 L 514 592 L 514 593 L 515 594 L 515 596 L 516 597 L 516 598 L 517 599 L 517 601 L 518 602 L 518 604 L 519 605 L 519 607 L 520 608 L 520 611 L 521 612 L 521 615 L 522 616 L 522 620 L 523 621 L 523 625 L 525 625 L 528 622 L 529 622 L 533 618 L 534 618 L 538 614 L 539 614 L 542 611 L 543 611 L 545 609 L 546 609 L 548 607 L 549 607 L 550 606 L 551 606 L 552 605 L 553 605 L 554 604 L 555 604 L 556 603 L 557 603 L 558 602 L 559 602 L 560 601 L 561 601 L 562 600 L 564 600 L 565 599 L 566 599 L 567 598 L 569 598 L 570 597 L 572 597 L 573 596 L 576 596 L 577 595 L 580 595 L 581 594 L 587 594 L 588 593 L 598 593 L 599 592 L 607 592 L 608 593 L 623 593 L 627 589 L 627 588 L 631 584 L 631 583 L 633 581 L 633 580 L 634 579 L 634 578 L 636 576 L 636 575 L 637 574 L 637 573 L 638 572 L 638 571 L 639 570 L 639 568 L 640 567 L 640 566 L 641 565 L 641 563 L 642 562 L 642 561 L 643 560 L 643 558 L 644 557 L 644 555 L 645 554 L 645 552 L 646 551 L 646 548 L 647 547 L 647 544 L 648 543 L 648 539 L 649 538 L 649 506 L 648 505 L 648 500 L 647 499 L 647 495 L 646 494 L 646 491 L 645 490 L 645 488 L 644 487 L 644 485 L 643 484 L 643 482 L 642 481 L 642 479 L 641 478 L 641 476 L 640 475 L 640 474 L 639 473 L 639 472 L 638 471 L 638 470 L 637 469 L 637 468 L 636 467 L 636 466 L 634 464 L 634 463 L 633 462 L 633 461 L 631 459 L 631 458 L 629 456 L 629 455 L 626 452 L 626 451 L 610 435 L 609 435 L 606 432 L 605 432 L 602 429 L 601 429 L 600 428 L 599 428 L 597 426 L 596 426 L 595 425 L 594 425 L 593 424 L 592 424 L 591 423 L 590 423 L 589 422 L 588 422 L 587 421 L 586 421 L 585 420 L 584 420 L 583 419 L 581 419 L 580 418 L 578 418 L 577 417 L 575 417 L 574 416 L 572 416 L 571 415 L 568 415 L 567 414 L 563 414 L 562 413 L 557 413 L 556 412 L 540 412 Z M 332 381 L 331 382 L 323 382 L 322 383 L 317 383 L 316 384 L 313 384 L 312 385 L 309 385 L 308 386 L 306 386 L 305 387 L 303 387 L 302 388 L 301 388 L 300 389 L 298 389 L 297 390 L 296 390 L 295 391 L 294 391 L 293 392 L 292 392 L 291 393 L 290 393 L 289 394 L 288 394 L 287 395 L 286 395 L 284 397 L 283 397 L 281 399 L 280 399 L 278 401 L 277 401 L 274 404 L 273 404 L 260 417 L 260 418 L 256 422 L 256 423 L 254 425 L 254 426 L 252 428 L 252 429 L 251 430 L 251 431 L 249 433 L 249 434 L 248 435 L 248 436 L 247 437 L 247 438 L 246 439 L 246 440 L 245 441 L 245 442 L 244 443 L 244 445 L 243 446 L 243 447 L 242 448 L 242 450 L 241 451 L 241 453 L 240 454 L 240 456 L 239 457 L 239 460 L 238 461 L 238 465 L 237 466 L 237 472 L 236 473 L 236 500 L 237 501 L 237 507 L 238 508 L 238 511 L 239 512 L 239 515 L 240 516 L 240 519 L 241 520 L 241 522 L 242 523 L 242 525 L 243 526 L 243 527 L 244 528 L 244 529 L 246 531 L 249 531 L 250 532 L 253 532 L 254 533 L 257 533 L 258 534 L 260 534 L 261 535 L 264 535 L 265 536 L 267 536 L 268 537 L 269 537 L 270 538 L 272 538 L 273 539 L 274 539 L 275 540 L 277 540 L 278 541 L 279 541 L 280 542 L 281 542 L 282 543 L 283 543 L 284 544 L 285 544 L 287 546 L 288 546 L 289 547 L 290 547 L 292 549 L 293 549 L 295 551 L 296 551 L 299 554 L 300 554 L 305 559 L 306 559 L 316 569 L 317 569 L 319 567 L 319 566 L 336 549 L 337 549 L 340 546 L 341 546 L 344 543 L 345 543 L 347 541 L 348 541 L 349 540 L 350 540 L 352 538 L 353 538 L 354 537 L 355 537 L 356 536 L 357 536 L 358 535 L 359 535 L 360 534 L 361 534 L 362 533 L 363 533 L 364 532 L 365 532 L 366 531 L 368 531 L 369 530 L 370 530 L 371 529 L 373 529 L 374 528 L 376 528 L 377 527 L 380 527 L 381 526 L 384 526 L 385 525 L 389 525 L 390 524 L 400 524 L 401 523 L 411 523 L 412 524 L 425 524 L 425 513 L 426 512 L 426 506 L 427 505 L 427 500 L 428 499 L 428 496 L 429 495 L 429 492 L 430 491 L 430 489 L 431 488 L 431 485 L 432 484 L 432 482 L 433 481 L 433 479 L 434 478 L 434 477 L 435 476 L 435 474 L 436 473 L 436 472 L 437 471 L 437 470 L 438 469 L 438 465 L 437 464 L 437 460 L 436 459 L 436 456 L 435 455 L 435 453 L 434 452 L 434 450 L 433 449 L 433 447 L 432 446 L 432 445 L 431 444 L 431 442 L 430 441 L 430 440 L 429 439 L 429 438 L 428 437 L 428 436 L 427 435 L 427 434 L 426 433 L 426 432 L 425 431 L 425 430 L 423 428 L 423 427 L 421 425 L 421 424 L 419 422 L 419 421 L 416 418 L 416 417 L 403 404 L 402 404 L 399 401 L 398 401 L 396 399 L 395 399 L 393 397 L 392 397 L 390 395 L 389 395 L 388 394 L 387 394 L 386 393 L 385 393 L 384 392 L 383 392 L 382 391 L 381 391 L 380 390 L 379 390 L 378 389 L 376 389 L 375 388 L 373 388 L 372 387 L 370 387 L 369 386 L 367 386 L 366 385 L 364 385 L 363 384 L 359 384 L 358 383 L 354 383 L 353 382 L 345 382 L 344 381 Z M 649 338 L 648 339 L 643 339 L 642 340 L 639 340 L 638 341 L 636 341 L 635 342 L 632 342 L 631 343 L 630 343 L 629 344 L 627 344 L 626 345 L 625 345 L 624 346 L 623 346 L 622 347 L 621 347 L 620 348 L 619 348 L 618 349 L 617 349 L 616 350 L 615 350 L 614 351 L 613 351 L 611 353 L 610 353 L 608 355 L 607 355 L 604 358 L 603 358 L 591 370 L 591 371 L 589 373 L 589 374 L 586 377 L 586 378 L 585 379 L 585 380 L 584 381 L 584 382 L 582 384 L 582 385 L 581 386 L 581 387 L 580 388 L 580 390 L 579 391 L 579 392 L 578 393 L 578 394 L 577 395 L 577 396 L 576 397 L 576 399 L 575 400 L 575 402 L 576 403 L 578 403 L 579 404 L 580 404 L 581 405 L 583 405 L 584 406 L 586 406 L 587 407 L 588 407 L 589 408 L 590 408 L 591 409 L 592 409 L 593 410 L 594 410 L 595 411 L 596 411 L 597 412 L 598 412 L 599 413 L 600 413 L 601 414 L 602 414 L 603 415 L 604 415 L 606 417 L 607 417 L 609 419 L 610 419 L 612 421 L 613 421 L 616 424 L 617 424 L 623 430 L 624 430 L 631 437 L 631 438 L 637 444 L 637 445 L 639 447 L 639 448 L 642 451 L 642 452 L 643 453 L 643 454 L 645 456 L 645 457 L 646 458 L 646 459 L 648 461 L 648 462 L 649 463 L 649 464 L 650 465 L 650 467 L 651 468 L 651 469 L 652 470 L 652 471 L 653 472 L 653 474 L 654 475 L 654 476 L 655 477 L 655 479 L 656 480 L 656 482 L 657 483 L 657 486 L 658 487 L 658 489 L 659 490 L 659 494 L 660 495 L 660 499 L 661 500 L 661 505 L 662 506 L 662 519 L 663 520 L 663 523 L 662 524 L 662 528 L 663 529 L 664 529 L 673 520 L 674 520 L 679 515 L 680 515 L 682 513 L 683 513 L 685 511 L 686 511 L 687 510 L 688 510 L 690 508 L 691 508 L 692 507 L 693 507 L 694 506 L 695 506 L 696 505 L 697 505 L 698 504 L 699 504 L 700 503 L 701 503 L 702 502 L 704 502 L 705 501 L 706 501 L 707 500 L 709 500 L 710 499 L 712 499 L 713 498 L 716 498 L 717 497 L 720 497 L 721 496 L 726 496 L 727 495 L 733 495 L 734 494 L 743 494 L 746 491 L 746 490 L 747 489 L 747 488 L 748 487 L 748 486 L 749 485 L 749 484 L 750 483 L 750 481 L 751 480 L 751 479 L 752 478 L 752 476 L 753 475 L 753 472 L 754 471 L 754 468 L 755 467 L 755 463 L 756 462 L 756 456 L 757 455 L 757 429 L 756 428 L 756 422 L 755 421 L 755 417 L 754 416 L 754 413 L 753 412 L 753 409 L 752 408 L 752 406 L 751 405 L 751 404 L 750 403 L 750 401 L 749 400 L 749 399 L 748 398 L 748 396 L 747 395 L 747 394 L 746 393 L 746 392 L 745 391 L 745 390 L 744 389 L 744 388 L 742 386 L 742 385 L 741 384 L 741 383 L 739 381 L 739 380 L 737 378 L 737 377 L 734 374 L 734 373 L 720 359 L 719 359 L 716 356 L 715 356 L 712 353 L 711 353 L 709 351 L 708 351 L 707 350 L 706 350 L 705 349 L 704 349 L 703 348 L 702 348 L 701 347 L 700 347 L 699 346 L 698 346 L 697 345 L 696 345 L 695 344 L 693 344 L 692 343 L 690 343 L 689 342 L 687 342 L 686 341 L 683 341 L 682 340 L 679 340 L 678 339 L 673 339 L 672 338 Z M 468 263 L 467 264 L 462 264 L 461 265 L 457 265 L 456 266 L 453 266 L 452 267 L 449 267 L 448 268 L 446 268 L 445 269 L 443 269 L 442 270 L 441 270 L 440 271 L 439 271 L 438 272 L 437 272 L 436 273 L 434 273 L 433 274 L 432 274 L 430 276 L 429 276 L 428 277 L 427 277 L 426 278 L 425 278 L 423 280 L 422 280 L 420 282 L 419 282 L 416 285 L 415 285 L 400 300 L 400 301 L 397 304 L 397 305 L 395 307 L 395 308 L 393 310 L 393 311 L 391 313 L 391 314 L 390 315 L 390 316 L 389 317 L 389 318 L 388 319 L 388 320 L 387 321 L 387 322 L 386 323 L 386 324 L 385 325 L 385 326 L 384 327 L 384 329 L 383 330 L 383 332 L 382 333 L 382 335 L 381 336 L 381 339 L 380 340 L 380 343 L 379 344 L 379 347 L 378 348 L 378 354 L 377 355 L 377 374 L 379 376 L 381 376 L 382 377 L 383 377 L 384 378 L 385 378 L 386 379 L 387 379 L 388 380 L 389 380 L 390 381 L 391 381 L 392 382 L 393 382 L 394 383 L 395 383 L 396 384 L 397 384 L 399 386 L 400 386 L 401 387 L 402 387 L 405 390 L 406 390 L 409 393 L 410 393 L 427 410 L 427 411 L 431 415 L 431 416 L 433 418 L 433 419 L 435 421 L 435 422 L 436 423 L 436 424 L 438 426 L 438 427 L 439 428 L 439 429 L 440 430 L 440 431 L 441 432 L 441 433 L 442 434 L 442 436 L 443 437 L 443 438 L 444 439 L 444 440 L 445 441 L 445 443 L 446 444 L 446 446 L 447 447 L 447 448 L 448 449 L 450 449 L 450 448 L 453 445 L 453 444 L 458 439 L 458 438 L 470 426 L 471 426 L 475 422 L 476 422 L 479 419 L 480 419 L 482 417 L 483 417 L 485 415 L 486 415 L 488 413 L 489 413 L 490 412 L 491 412 L 492 411 L 493 411 L 495 409 L 496 409 L 497 408 L 499 408 L 500 407 L 501 407 L 502 406 L 503 406 L 504 405 L 506 405 L 507 404 L 508 404 L 509 403 L 511 403 L 512 402 L 515 402 L 516 401 L 519 401 L 520 400 L 524 400 L 525 399 L 531 399 L 532 398 L 556 398 L 557 399 L 561 399 L 563 397 L 563 395 L 564 394 L 564 393 L 565 392 L 565 390 L 566 389 L 566 388 L 567 387 L 567 386 L 568 385 L 568 383 L 569 382 L 569 381 L 570 380 L 570 379 L 571 378 L 571 377 L 572 376 L 572 375 L 574 373 L 574 372 L 575 371 L 575 370 L 576 369 L 576 368 L 577 367 L 577 366 L 578 365 L 578 354 L 577 353 L 577 346 L 576 345 L 576 341 L 575 340 L 575 337 L 574 336 L 574 334 L 573 333 L 573 331 L 572 330 L 572 328 L 571 327 L 571 326 L 570 325 L 570 323 L 569 322 L 569 321 L 568 320 L 568 319 L 567 318 L 567 317 L 566 316 L 566 315 L 565 314 L 565 313 L 563 311 L 563 310 L 561 308 L 561 307 L 559 305 L 559 304 L 556 301 L 556 300 L 551 295 L 551 294 L 547 290 L 546 290 L 540 284 L 539 284 L 536 281 L 535 281 L 533 279 L 532 279 L 530 277 L 529 277 L 528 276 L 527 276 L 525 274 L 524 274 L 523 273 L 522 273 L 521 272 L 520 272 L 519 271 L 517 271 L 516 270 L 515 270 L 514 269 L 512 269 L 511 268 L 509 268 L 508 267 L 506 267 L 505 266 L 502 266 L 501 265 L 498 265 L 497 264 L 491 264 L 490 263 Z " fill="black"/>
</svg>