<svg xmlns="http://www.w3.org/2000/svg" viewBox="0 0 1024 1536" width="100" height="100">
  <path d="M 675 1455 L 676 1455 Z M 555 1455 L 556 1455 Z M 670 1454 L 671 1454 Z M 647 1454 L 648 1454 Z M 561 1454 L 560 1455 L 561 1455 Z M 434 1454 L 433 1455 L 431 1455 L 435 1455 Z M 664 1453 L 663 1454 Z M 659 1453 L 660 1454 L 659 1455 L 658 1455 L 659 1455 L 660 1454 Z M 621 1453 L 621 1454 L 622 1453 Z M 589 1453 L 589 1454 Z M 572 1453 L 573 1454 L 573 1455 L 574 1455 Z M 567 1453 L 567 1454 Z M 564 1453 L 563 1454 L 563 1455 L 563 1454 L 564 1453 L 565 1454 L 565 1455 L 565 1454 Z M 521 1453 L 520 1454 L 520 1455 L 520 1454 Z M 412 1453 L 412 1454 L 411 1455 L 410 1455 L 411 1455 L 412 1454 L 413 1455 L 414 1454 L 415 1455 L 416 1454 L 417 1455 L 418 1454 L 416 1454 L 415 1455 L 414 1454 L 414 1453 Z M 688 1452 L 689 1452 Z M 667 1452 L 667 1453 L 666 1454 L 667 1455 L 668 1455 L 667 1455 L 666 1454 L 667 1453 Z M 651 1452 L 652 1452 Z M 506 1452 L 508 1454 L 508 1455 L 509 1454 L 510 1455 L 511 1454 L 512 1455 L 517 1455 L 518 1454 L 518 1453 L 517 1452 L 515 1452 L 516 1453 L 517 1453 L 518 1454 L 517 1455 L 515 1455 L 514 1454 L 513 1455 L 512 1455 L 511 1454 L 511 1453 L 511 1454 L 510 1455 L 509 1454 L 508 1454 L 507 1453 L 508 1452 L 507 1453 Z M 465 1452 L 467 1454 L 467 1455 L 470 1455 L 471 1454 L 472 1455 L 473 1454 L 474 1454 L 475 1455 L 475 1454 L 472 1454 L 471 1453 L 472 1452 L 474 1452 L 472 1452 L 471 1453 L 469 1453 L 468 1452 L 467 1453 L 466 1453 Z M 420 1452 L 420 1454 L 421 1453 L 423 1453 L 424 1454 L 423 1455 L 429 1455 L 428 1454 L 429 1453 L 431 1453 L 429 1453 L 428 1452 L 425 1452 L 428 1452 L 429 1453 L 427 1455 L 426 1454 L 425 1455 L 423 1453 L 421 1453 Z M 416 1452 L 417 1452 Z M 691 1451 L 692 1452 Z M 674 1451 L 674 1452 L 673 1453 L 673 1454 L 673 1453 L 674 1452 L 675 1452 Z M 618 1451 L 619 1452 L 618 1453 L 620 1451 L 621 1451 L 620 1451 L 619 1452 Z M 569 1451 L 571 1451 Z M 555 1451 L 556 1452 L 556 1453 L 556 1452 Z M 545 1451 L 545 1452 L 546 1453 L 546 1454 L 545 1455 L 548 1455 L 549 1454 L 550 1454 L 551 1453 L 552 1454 L 552 1455 L 553 1454 L 552 1454 L 551 1453 L 549 1453 L 548 1452 L 549 1451 L 551 1451 L 547 1451 L 548 1452 L 547 1453 L 546 1453 L 545 1452 Z M 537 1451 L 535 1453 L 534 1453 L 534 1454 L 533 1455 L 532 1455 L 530 1453 L 528 1455 L 533 1455 L 535 1453 L 536 1453 L 537 1454 L 537 1455 L 541 1455 L 542 1454 L 543 1455 L 543 1453 L 541 1453 L 540 1452 L 541 1451 L 543 1451 L 539 1451 L 539 1453 L 538 1454 L 537 1454 L 536 1453 L 537 1452 Z M 526 1451 L 527 1451 Z M 491 1451 L 491 1452 L 492 1451 Z M 240 1382 L 240 1383 Z M 791 514 L 791 515 Z M 789 419 L 790 420 L 790 421 L 789 422 L 790 423 L 789 424 L 787 424 L 787 459 L 788 460 L 787 461 L 787 500 L 787 496 L 788 495 L 789 496 L 789 497 L 790 498 L 790 499 L 789 500 L 789 501 L 790 502 L 789 503 L 788 503 L 787 502 L 788 503 L 787 504 L 787 512 L 788 511 L 789 512 L 790 511 L 791 511 L 791 503 L 790 502 L 791 501 L 791 454 L 790 453 L 791 452 L 790 451 L 791 450 L 791 447 L 790 446 L 791 445 L 791 424 L 790 423 L 791 422 L 790 421 L 790 420 Z M 240 181 L 240 184 Z M 257 120 L 256 121 Z M 677 105 L 679 105 Z M 659 104 L 660 104 Z M 655 104 L 656 104 Z M 315 104 L 321 104 Z M 296 104 L 296 106 L 299 106 L 300 107 L 299 108 L 295 108 L 294 109 L 291 109 L 290 110 L 288 110 L 287 111 L 284 111 L 282 113 L 280 113 L 279 112 L 278 112 L 277 113 L 276 113 L 275 112 L 272 112 L 272 114 L 271 115 L 270 115 L 269 114 L 269 112 L 269 114 L 267 116 L 266 116 L 265 117 L 264 117 L 265 118 L 264 119 L 265 120 L 264 121 L 263 121 L 262 120 L 261 120 L 261 121 L 262 120 L 263 121 L 264 121 L 265 122 L 263 124 L 262 123 L 261 123 L 260 124 L 259 123 L 259 122 L 259 123 L 258 124 L 257 124 L 256 125 L 256 126 L 257 126 L 258 125 L 258 124 L 259 123 L 260 124 L 261 123 L 262 123 L 263 124 L 258 129 L 257 128 L 256 129 L 257 130 L 255 132 L 255 133 L 253 135 L 253 136 L 252 137 L 251 136 L 248 136 L 248 138 L 249 139 L 248 140 L 248 142 L 249 143 L 249 144 L 248 145 L 248 146 L 247 147 L 247 149 L 246 150 L 246 153 L 245 154 L 244 153 L 244 152 L 240 152 L 240 167 L 241 168 L 240 169 L 241 170 L 240 171 L 240 173 L 240 172 L 241 171 L 242 172 L 242 187 L 241 188 L 241 359 L 240 360 L 240 364 L 241 365 L 241 371 L 240 372 L 240 387 L 241 388 L 241 391 L 240 392 L 240 433 L 241 434 L 241 439 L 240 440 L 240 443 L 241 444 L 241 447 L 240 448 L 240 491 L 241 492 L 241 503 L 240 504 L 240 603 L 241 604 L 241 605 L 240 606 L 240 613 L 241 614 L 241 627 L 240 628 L 240 631 L 241 632 L 241 639 L 240 640 L 240 647 L 241 648 L 241 651 L 240 652 L 240 835 L 239 836 L 239 847 L 240 848 L 239 849 L 239 862 L 240 863 L 239 864 L 239 867 L 240 868 L 240 870 L 239 871 L 239 876 L 240 877 L 240 884 L 239 885 L 240 886 L 240 889 L 239 890 L 239 892 L 240 893 L 239 894 L 239 895 L 240 896 L 240 904 L 239 905 L 239 928 L 240 929 L 239 930 L 239 943 L 240 944 L 240 951 L 239 952 L 239 1001 L 240 1002 L 240 1007 L 239 1008 L 239 1047 L 238 1048 L 232 1048 L 232 1055 L 237 1055 L 238 1054 L 240 1056 L 240 1057 L 239 1058 L 239 1059 L 240 1060 L 240 1066 L 239 1067 L 239 1203 L 240 1204 L 239 1205 L 239 1250 L 240 1251 L 240 1255 L 239 1256 L 239 1259 L 240 1260 L 240 1347 L 241 1348 L 241 1380 L 242 1381 L 242 1387 L 241 1388 L 240 1387 L 240 1389 L 241 1390 L 241 1392 L 240 1393 L 240 1399 L 244 1399 L 246 1401 L 246 1402 L 247 1403 L 247 1404 L 248 1405 L 248 1406 L 249 1407 L 249 1408 L 248 1409 L 248 1410 L 249 1409 L 250 1410 L 250 1411 L 248 1413 L 248 1423 L 251 1423 L 252 1422 L 253 1422 L 254 1423 L 257 1423 L 258 1422 L 259 1423 L 259 1424 L 263 1428 L 264 1428 L 266 1430 L 265 1431 L 266 1430 L 268 1432 L 269 1432 L 271 1434 L 272 1434 L 273 1435 L 272 1436 L 274 1438 L 274 1439 L 277 1439 L 278 1438 L 279 1438 L 280 1439 L 281 1439 L 282 1440 L 283 1440 L 284 1441 L 285 1441 L 286 1442 L 288 1442 L 289 1443 L 288 1444 L 289 1444 L 290 1443 L 291 1443 L 292 1444 L 290 1446 L 289 1446 L 288 1447 L 289 1446 L 290 1447 L 293 1447 L 294 1446 L 295 1446 L 296 1447 L 299 1447 L 300 1446 L 304 1446 L 305 1447 L 310 1447 L 311 1448 L 319 1448 L 320 1449 L 320 1450 L 322 1450 L 323 1451 L 320 1454 L 320 1455 L 322 1455 L 323 1454 L 324 1455 L 327 1455 L 327 1453 L 326 1453 L 325 1452 L 325 1450 L 326 1449 L 337 1449 L 338 1450 L 337 1451 L 336 1451 L 337 1452 L 336 1453 L 336 1455 L 355 1455 L 355 1454 L 354 1454 L 352 1452 L 352 1454 L 351 1455 L 350 1455 L 349 1454 L 350 1453 L 342 1453 L 341 1452 L 342 1451 L 350 1451 L 344 1451 L 343 1450 L 344 1449 L 351 1449 L 352 1450 L 354 1450 L 355 1451 L 355 1452 L 357 1452 L 358 1453 L 357 1454 L 357 1455 L 357 1454 L 358 1453 L 359 1453 L 358 1453 L 357 1452 L 356 1452 L 355 1451 L 356 1450 L 359 1450 L 360 1449 L 364 1449 L 365 1450 L 394 1450 L 395 1451 L 394 1452 L 394 1454 L 393 1455 L 392 1455 L 391 1454 L 391 1453 L 392 1452 L 391 1453 L 390 1453 L 389 1452 L 388 1452 L 388 1453 L 387 1454 L 386 1453 L 386 1452 L 384 1452 L 383 1453 L 382 1453 L 381 1452 L 380 1453 L 379 1452 L 378 1453 L 377 1452 L 378 1453 L 376 1455 L 375 1454 L 375 1453 L 374 1452 L 368 1452 L 371 1452 L 372 1453 L 371 1454 L 370 1454 L 369 1455 L 368 1455 L 377 1455 L 378 1454 L 379 1455 L 381 1455 L 381 1454 L 382 1453 L 383 1453 L 384 1454 L 383 1455 L 387 1455 L 388 1454 L 389 1455 L 390 1454 L 391 1455 L 393 1455 L 394 1454 L 395 1455 L 394 1454 L 395 1453 L 396 1453 L 397 1454 L 397 1455 L 398 1455 L 399 1454 L 400 1455 L 404 1455 L 405 1454 L 406 1455 L 407 1454 L 408 1455 L 407 1454 L 406 1454 L 404 1452 L 400 1452 L 403 1452 L 405 1454 L 404 1455 L 403 1455 L 402 1454 L 401 1455 L 400 1455 L 398 1453 L 397 1454 L 395 1452 L 397 1450 L 457 1450 L 458 1451 L 457 1452 L 456 1452 L 455 1453 L 454 1453 L 453 1452 L 448 1452 L 449 1452 L 451 1454 L 450 1455 L 448 1455 L 445 1452 L 443 1452 L 442 1453 L 441 1452 L 440 1452 L 439 1453 L 437 1453 L 436 1452 L 439 1455 L 440 1454 L 441 1455 L 442 1455 L 442 1453 L 443 1452 L 445 1452 L 447 1454 L 447 1455 L 465 1455 L 464 1455 L 463 1454 L 463 1453 L 462 1453 L 461 1452 L 461 1451 L 462 1450 L 463 1450 L 464 1449 L 465 1450 L 467 1450 L 468 1449 L 469 1450 L 483 1450 L 484 1451 L 483 1452 L 480 1452 L 479 1453 L 478 1453 L 477 1452 L 476 1452 L 477 1452 L 478 1453 L 477 1454 L 478 1454 L 479 1455 L 488 1455 L 487 1454 L 487 1453 L 484 1453 L 483 1452 L 484 1451 L 487 1451 L 486 1451 L 485 1450 L 486 1449 L 497 1449 L 498 1450 L 496 1452 L 498 1452 L 499 1453 L 498 1454 L 492 1454 L 491 1455 L 503 1455 L 504 1454 L 505 1455 L 503 1453 L 501 1453 L 500 1452 L 501 1451 L 503 1451 L 503 1450 L 504 1449 L 565 1449 L 566 1450 L 567 1450 L 568 1449 L 595 1449 L 596 1450 L 596 1454 L 595 1455 L 594 1454 L 594 1453 L 593 1454 L 592 1454 L 592 1455 L 597 1455 L 598 1454 L 599 1455 L 600 1455 L 600 1454 L 601 1453 L 602 1454 L 602 1455 L 602 1454 L 603 1453 L 604 1453 L 605 1454 L 604 1455 L 605 1454 L 607 1454 L 608 1455 L 610 1455 L 611 1454 L 612 1455 L 616 1455 L 615 1454 L 615 1453 L 614 1452 L 615 1451 L 614 1452 L 613 1451 L 613 1450 L 614 1449 L 635 1449 L 636 1450 L 635 1451 L 633 1451 L 632 1452 L 631 1451 L 632 1452 L 632 1455 L 637 1455 L 638 1454 L 639 1455 L 640 1455 L 639 1454 L 640 1453 L 639 1453 L 638 1452 L 639 1451 L 639 1450 L 640 1449 L 696 1449 L 697 1450 L 698 1449 L 700 1449 L 701 1450 L 703 1448 L 704 1449 L 704 1450 L 705 1449 L 706 1449 L 707 1450 L 707 1451 L 708 1452 L 708 1453 L 709 1453 L 710 1454 L 710 1452 L 709 1453 L 707 1451 L 707 1450 L 706 1449 L 707 1448 L 717 1448 L 718 1447 L 724 1447 L 725 1446 L 727 1446 L 728 1447 L 741 1447 L 742 1446 L 743 1446 L 743 1444 L 744 1443 L 743 1442 L 744 1441 L 746 1441 L 747 1440 L 748 1440 L 749 1441 L 748 1442 L 749 1441 L 750 1442 L 748 1440 L 749 1439 L 750 1439 L 751 1438 L 752 1438 L 753 1439 L 759 1439 L 759 1436 L 761 1434 L 762 1435 L 762 1434 L 763 1433 L 762 1434 L 761 1434 L 760 1433 L 762 1431 L 763 1431 L 764 1430 L 765 1431 L 766 1431 L 766 1430 L 767 1429 L 766 1428 L 770 1424 L 770 1423 L 771 1422 L 772 1423 L 773 1423 L 774 1422 L 775 1423 L 775 1419 L 774 1418 L 775 1417 L 775 1416 L 776 1415 L 776 1414 L 777 1413 L 778 1414 L 778 1415 L 783 1415 L 783 1407 L 782 1406 L 783 1405 L 783 1401 L 782 1400 L 782 1399 L 783 1398 L 783 1395 L 784 1394 L 784 1388 L 785 1387 L 786 1388 L 786 1391 L 791 1391 L 791 1383 L 790 1382 L 791 1381 L 791 1379 L 790 1378 L 791 1377 L 791 1192 L 790 1191 L 791 1190 L 791 1187 L 790 1186 L 791 1185 L 791 1120 L 790 1119 L 791 1118 L 791 1117 L 790 1116 L 791 1115 L 790 1114 L 791 1113 L 791 1108 L 790 1107 L 791 1106 L 791 1024 L 790 1024 L 789 1023 L 790 1022 L 791 1022 L 791 1017 L 790 1016 L 791 1015 L 791 993 L 790 992 L 791 991 L 791 568 L 790 567 L 790 564 L 791 563 L 791 562 L 791 563 L 790 564 L 789 564 L 788 563 L 788 561 L 789 560 L 791 560 L 791 519 L 789 519 L 788 520 L 787 519 L 787 515 L 787 560 L 788 561 L 788 563 L 789 564 L 789 567 L 788 568 L 787 568 L 787 569 L 788 570 L 787 571 L 787 575 L 786 576 L 785 575 L 785 392 L 786 391 L 787 392 L 787 416 L 788 416 L 789 415 L 790 415 L 791 416 L 790 417 L 791 418 L 791 384 L 790 383 L 790 380 L 791 379 L 791 375 L 790 376 L 789 375 L 788 375 L 788 378 L 789 379 L 788 380 L 788 384 L 789 385 L 788 386 L 786 386 L 785 385 L 786 384 L 785 383 L 785 382 L 786 381 L 785 380 L 786 379 L 786 375 L 785 374 L 785 369 L 787 367 L 789 367 L 790 368 L 791 367 L 791 328 L 790 327 L 791 326 L 791 269 L 790 268 L 791 267 L 791 251 L 790 250 L 791 249 L 791 193 L 790 193 L 789 192 L 790 191 L 791 191 L 791 179 L 790 178 L 791 177 L 791 160 L 786 160 L 786 161 L 785 162 L 784 161 L 784 157 L 783 156 L 783 154 L 782 153 L 782 152 L 783 151 L 783 136 L 778 136 L 777 137 L 775 135 L 775 134 L 774 133 L 775 132 L 775 129 L 774 128 L 772 128 L 774 130 L 773 131 L 772 131 L 770 129 L 769 130 L 766 127 L 767 126 L 766 125 L 767 124 L 767 123 L 766 122 L 766 121 L 767 120 L 764 120 L 764 121 L 763 122 L 762 121 L 762 120 L 760 120 L 759 119 L 759 117 L 758 116 L 759 115 L 759 112 L 744 112 L 743 113 L 742 113 L 741 112 L 738 112 L 737 113 L 735 113 L 734 112 L 732 112 L 731 111 L 726 111 L 725 110 L 726 109 L 727 109 L 727 104 L 692 104 L 691 105 L 681 105 L 691 105 L 692 104 L 694 106 L 693 107 L 675 107 L 674 106 L 675 105 L 673 105 L 672 106 L 671 105 L 669 105 L 668 104 L 667 104 L 668 105 L 667 106 L 652 106 L 651 105 L 641 105 L 640 104 L 639 104 L 638 105 L 632 105 L 631 104 L 630 104 L 629 105 L 604 105 L 603 104 L 508 104 L 507 105 L 484 105 L 483 104 L 476 104 L 475 105 L 452 105 L 451 104 L 439 104 L 438 105 L 420 105 L 419 104 L 416 104 L 415 105 L 386 105 L 385 104 L 357 104 L 356 105 L 355 104 L 354 105 L 328 105 L 327 104 L 326 105 L 325 104 L 323 104 L 323 105 L 322 106 L 312 106 L 311 105 L 312 104 L 310 104 L 309 105 L 304 105 L 303 104 L 302 105 L 301 104 Z " fill="black"/>
</svg>