<svg xmlns="http://www.w3.org/2000/svg" viewBox="0 0 1024 1536" width="100" height="100">
  <path d="M 168 899 L 167 900 L 163 900 L 162 901 L 160 901 L 159 902 L 157 902 L 156 903 L 155 903 L 154 904 L 153 904 L 152 905 L 151 905 L 149 907 L 148 907 L 146 909 L 145 909 L 138 916 L 138 917 L 135 920 L 135 921 L 134 922 L 134 923 L 132 925 L 132 927 L 131 928 L 131 929 L 130 930 L 130 931 L 129 932 L 129 934 L 128 935 L 128 938 L 127 939 L 127 944 L 126 945 L 126 955 L 125 956 L 125 960 L 126 961 L 126 970 L 127 971 L 127 976 L 128 977 L 128 981 L 129 982 L 129 985 L 130 986 L 130 988 L 131 989 L 131 991 L 132 992 L 132 994 L 133 995 L 133 996 L 134 997 L 134 999 L 135 1000 L 135 1001 L 136 1002 L 136 1004 L 137 1005 L 137 1006 L 138 1007 L 138 1008 L 139 1009 L 139 1010 L 140 1011 L 140 1012 L 142 1014 L 142 1015 L 143 1016 L 143 1017 L 145 1019 L 145 1020 L 146 1021 L 146 1022 L 148 1024 L 148 1025 L 151 1028 L 151 1029 L 155 1033 L 155 1034 L 169 1048 L 170 1048 L 173 1051 L 174 1051 L 177 1054 L 178 1054 L 180 1056 L 181 1056 L 183 1058 L 184 1058 L 185 1059 L 186 1059 L 187 1060 L 188 1060 L 190 1062 L 191 1062 L 192 1063 L 194 1063 L 195 1064 L 196 1064 L 197 1065 L 198 1065 L 199 1066 L 201 1066 L 202 1067 L 203 1067 L 204 1068 L 207 1068 L 208 1069 L 210 1069 L 211 1070 L 215 1070 L 216 1071 L 222 1071 L 223 1072 L 228 1072 L 229 1073 L 231 1073 L 232 1074 L 233 1074 L 234 1075 L 235 1075 L 240 1080 L 240 1081 L 242 1083 L 242 1085 L 243 1086 L 243 1091 L 242 1092 L 242 1095 L 241 1096 L 241 1098 L 239 1100 L 239 1101 L 238 1102 L 238 1103 L 237 1104 L 237 1105 L 235 1107 L 235 1108 L 234 1109 L 234 1110 L 233 1111 L 233 1112 L 232 1113 L 232 1114 L 231 1115 L 231 1116 L 230 1117 L 230 1118 L 229 1119 L 229 1120 L 228 1121 L 228 1123 L 227 1124 L 227 1125 L 226 1126 L 226 1128 L 225 1129 L 225 1131 L 224 1132 L 224 1134 L 223 1135 L 223 1137 L 222 1138 L 222 1141 L 221 1142 L 221 1146 L 220 1147 L 220 1151 L 219 1152 L 219 1158 L 218 1159 L 218 1168 L 217 1169 L 217 1196 L 218 1197 L 218 1206 L 219 1207 L 219 1213 L 220 1214 L 220 1218 L 221 1219 L 221 1223 L 222 1224 L 222 1227 L 223 1228 L 223 1231 L 224 1232 L 224 1235 L 225 1236 L 225 1239 L 226 1240 L 226 1242 L 227 1243 L 227 1245 L 228 1246 L 228 1248 L 229 1249 L 229 1251 L 230 1252 L 230 1254 L 231 1255 L 231 1256 L 232 1257 L 232 1259 L 233 1260 L 233 1261 L 234 1262 L 234 1264 L 235 1265 L 235 1266 L 236 1267 L 236 1268 L 237 1269 L 237 1270 L 238 1271 L 238 1273 L 239 1274 L 239 1275 L 240 1276 L 240 1277 L 241 1278 L 241 1279 L 242 1280 L 242 1281 L 244 1283 L 244 1284 L 245 1285 L 245 1286 L 246 1287 L 246 1288 L 248 1290 L 248 1291 L 249 1292 L 249 1293 L 251 1295 L 251 1296 L 252 1297 L 252 1298 L 254 1300 L 254 1301 L 256 1303 L 256 1304 L 258 1306 L 258 1307 L 261 1310 L 261 1311 L 264 1314 L 264 1315 L 269 1320 L 269 1321 L 290 1342 L 291 1342 L 295 1346 L 296 1346 L 299 1349 L 300 1349 L 302 1351 L 303 1351 L 305 1353 L 306 1353 L 308 1355 L 309 1355 L 310 1356 L 311 1356 L 312 1357 L 313 1357 L 314 1358 L 315 1358 L 316 1359 L 317 1359 L 318 1360 L 319 1360 L 320 1361 L 321 1361 L 322 1362 L 324 1362 L 325 1363 L 326 1363 L 327 1364 L 329 1364 L 330 1365 L 333 1365 L 334 1366 L 337 1366 L 338 1367 L 342 1367 L 343 1368 L 351 1368 L 352 1369 L 357 1369 L 358 1368 L 368 1368 L 369 1367 L 372 1367 L 373 1366 L 376 1366 L 377 1365 L 379 1365 L 380 1364 L 381 1364 L 382 1363 L 384 1363 L 385 1362 L 386 1362 L 387 1361 L 388 1361 L 389 1360 L 390 1360 L 391 1359 L 392 1359 L 394 1357 L 395 1357 L 396 1356 L 397 1356 L 400 1353 L 401 1353 L 413 1341 L 413 1340 L 417 1336 L 417 1335 L 419 1333 L 419 1332 L 421 1330 L 421 1329 L 422 1328 L 422 1327 L 423 1326 L 423 1325 L 425 1323 L 425 1322 L 426 1321 L 426 1319 L 427 1318 L 427 1317 L 428 1316 L 428 1315 L 429 1314 L 429 1313 L 430 1312 L 430 1310 L 431 1309 L 431 1307 L 432 1306 L 432 1304 L 433 1303 L 433 1301 L 434 1300 L 434 1297 L 435 1296 L 435 1293 L 436 1292 L 436 1288 L 437 1287 L 437 1283 L 438 1282 L 438 1274 L 439 1273 L 439 1242 L 438 1241 L 438 1233 L 437 1232 L 437 1226 L 436 1225 L 436 1221 L 435 1220 L 435 1216 L 434 1215 L 434 1211 L 433 1210 L 433 1207 L 432 1206 L 432 1204 L 431 1203 L 431 1200 L 430 1199 L 430 1197 L 429 1196 L 429 1194 L 428 1193 L 428 1191 L 427 1190 L 427 1188 L 426 1187 L 426 1185 L 425 1184 L 425 1182 L 424 1181 L 424 1180 L 423 1179 L 423 1177 L 422 1176 L 422 1175 L 421 1174 L 421 1172 L 420 1171 L 420 1170 L 419 1169 L 419 1168 L 418 1167 L 418 1166 L 417 1165 L 417 1164 L 416 1163 L 416 1162 L 415 1161 L 415 1160 L 414 1159 L 414 1158 L 413 1157 L 413 1156 L 412 1155 L 412 1154 L 411 1153 L 411 1152 L 410 1151 L 410 1150 L 408 1148 L 408 1147 L 407 1146 L 407 1145 L 405 1143 L 405 1142 L 404 1141 L 404 1140 L 402 1138 L 402 1137 L 400 1135 L 400 1134 L 397 1131 L 397 1130 L 394 1127 L 394 1126 L 391 1123 L 391 1122 L 386 1117 L 386 1116 L 371 1101 L 370 1101 L 365 1096 L 364 1096 L 361 1093 L 360 1093 L 357 1090 L 356 1090 L 354 1088 L 353 1088 L 351 1086 L 350 1086 L 348 1084 L 347 1084 L 346 1083 L 345 1083 L 344 1082 L 343 1082 L 341 1080 L 340 1080 L 339 1079 L 338 1079 L 337 1078 L 335 1078 L 334 1077 L 333 1077 L 332 1076 L 331 1076 L 330 1075 L 328 1075 L 327 1074 L 325 1074 L 324 1073 L 322 1073 L 321 1072 L 318 1072 L 317 1071 L 314 1071 L 313 1070 L 308 1070 L 307 1069 L 291 1069 L 290 1068 L 285 1068 L 284 1067 L 283 1067 L 282 1066 L 281 1066 L 280 1065 L 279 1065 L 277 1063 L 276 1063 L 275 1062 L 275 1061 L 272 1058 L 272 1057 L 271 1056 L 271 1055 L 270 1054 L 270 1052 L 269 1051 L 269 1043 L 270 1042 L 270 1038 L 271 1037 L 271 1033 L 272 1032 L 272 1027 L 273 1026 L 273 1017 L 274 1016 L 274 1005 L 273 1004 L 273 996 L 272 995 L 272 991 L 271 990 L 271 986 L 270 985 L 270 983 L 269 982 L 269 980 L 268 979 L 268 977 L 267 976 L 267 974 L 266 973 L 266 971 L 265 970 L 265 969 L 264 968 L 264 967 L 263 966 L 263 965 L 262 964 L 262 963 L 261 962 L 261 961 L 260 960 L 260 959 L 259 958 L 259 957 L 258 956 L 258 955 L 257 954 L 257 953 L 255 951 L 255 950 L 253 948 L 253 947 L 251 945 L 251 944 L 249 942 L 249 941 L 245 937 L 245 936 L 228 919 L 227 919 L 224 916 L 223 916 L 221 914 L 220 914 L 218 912 L 217 912 L 215 910 L 214 910 L 213 909 L 212 909 L 211 908 L 210 908 L 209 907 L 208 907 L 207 906 L 206 906 L 205 905 L 204 905 L 203 904 L 201 904 L 200 903 L 198 903 L 197 902 L 195 902 L 194 901 L 192 901 L 191 900 L 187 900 L 186 899 Z M 150 503 L 149 504 L 146 504 L 145 505 L 143 505 L 142 506 L 140 506 L 139 507 L 138 507 L 137 508 L 136 508 L 135 509 L 134 509 L 133 510 L 132 510 L 129 513 L 128 513 L 120 521 L 120 522 L 118 524 L 118 525 L 117 526 L 117 527 L 115 529 L 115 530 L 114 531 L 114 533 L 113 534 L 113 535 L 112 536 L 112 538 L 111 539 L 111 541 L 110 542 L 110 546 L 109 547 L 109 554 L 108 555 L 108 567 L 109 568 L 109 576 L 110 577 L 110 581 L 111 582 L 111 585 L 112 586 L 112 588 L 113 589 L 113 591 L 114 592 L 114 594 L 115 595 L 115 597 L 116 598 L 116 600 L 117 601 L 117 602 L 118 603 L 118 604 L 119 605 L 119 606 L 120 607 L 120 608 L 121 609 L 121 610 L 122 611 L 122 612 L 123 613 L 123 614 L 124 615 L 124 616 L 126 618 L 126 619 L 127 620 L 127 621 L 129 623 L 129 624 L 131 626 L 131 627 L 133 629 L 133 630 L 137 634 L 137 635 L 142 640 L 142 641 L 151 650 L 152 650 L 156 654 L 157 654 L 161 658 L 162 658 L 164 660 L 165 660 L 167 662 L 168 662 L 169 663 L 170 663 L 172 665 L 173 665 L 174 666 L 175 666 L 176 667 L 177 667 L 178 668 L 179 668 L 180 669 L 181 669 L 182 670 L 183 670 L 184 671 L 185 671 L 186 672 L 188 672 L 189 673 L 190 673 L 191 674 L 193 674 L 194 675 L 196 675 L 197 676 L 199 676 L 200 677 L 203 677 L 204 678 L 209 678 L 210 679 L 217 679 L 218 680 L 236 680 L 237 681 L 239 681 L 241 683 L 242 683 L 247 688 L 247 689 L 248 690 L 248 692 L 249 693 L 249 701 L 248 702 L 248 705 L 247 706 L 247 708 L 246 709 L 246 711 L 245 712 L 245 715 L 244 716 L 244 720 L 243 721 L 243 725 L 242 726 L 242 748 L 243 749 L 243 756 L 244 757 L 244 761 L 245 762 L 245 766 L 246 767 L 246 770 L 247 771 L 247 774 L 248 775 L 248 777 L 249 778 L 249 780 L 250 781 L 250 783 L 251 784 L 251 786 L 252 787 L 252 788 L 253 789 L 253 791 L 254 792 L 254 793 L 255 794 L 255 795 L 256 796 L 256 797 L 257 798 L 257 800 L 258 801 L 258 802 L 260 804 L 260 805 L 261 806 L 261 807 L 262 808 L 262 809 L 263 810 L 263 811 L 265 813 L 265 814 L 267 816 L 267 817 L 269 819 L 269 820 L 271 822 L 271 823 L 274 826 L 274 827 L 279 832 L 279 833 L 296 850 L 297 850 L 302 855 L 303 855 L 306 858 L 307 858 L 310 861 L 311 861 L 313 863 L 314 863 L 316 865 L 317 865 L 319 867 L 320 867 L 321 868 L 322 868 L 323 869 L 324 869 L 326 871 L 327 871 L 328 872 L 329 872 L 330 873 L 332 873 L 333 874 L 334 874 L 335 875 L 336 875 L 337 876 L 339 876 L 340 877 L 341 877 L 342 878 L 344 878 L 345 879 L 347 879 L 348 880 L 351 880 L 352 881 L 355 881 L 356 882 L 358 882 L 359 883 L 364 883 L 365 884 L 389 884 L 390 883 L 394 883 L 395 882 L 398 882 L 399 881 L 401 881 L 402 880 L 403 880 L 404 879 L 406 879 L 407 878 L 408 878 L 409 877 L 410 877 L 411 876 L 412 876 L 414 874 L 415 874 L 417 872 L 418 872 L 431 859 L 431 858 L 433 856 L 433 855 L 435 853 L 435 852 L 436 851 L 436 850 L 437 849 L 437 848 L 438 847 L 438 846 L 439 845 L 439 844 L 440 843 L 440 842 L 441 841 L 441 839 L 442 838 L 442 836 L 443 835 L 443 833 L 444 832 L 444 829 L 445 828 L 445 824 L 446 823 L 446 817 L 447 816 L 447 795 L 446 794 L 446 787 L 445 786 L 445 782 L 444 781 L 444 778 L 443 777 L 443 774 L 442 773 L 442 771 L 441 770 L 441 767 L 440 766 L 440 764 L 439 763 L 439 762 L 438 761 L 438 759 L 437 758 L 437 756 L 436 755 L 436 754 L 435 753 L 435 752 L 434 751 L 434 750 L 433 749 L 433 747 L 432 746 L 432 745 L 431 744 L 431 743 L 430 742 L 430 741 L 428 739 L 428 738 L 427 737 L 427 736 L 426 735 L 426 734 L 424 732 L 424 731 L 423 730 L 423 729 L 421 727 L 421 726 L 419 724 L 419 723 L 416 720 L 416 719 L 413 716 L 413 715 L 409 711 L 409 710 L 388 689 L 387 689 L 383 685 L 382 685 L 379 682 L 378 682 L 376 680 L 375 680 L 373 678 L 372 678 L 371 677 L 370 677 L 368 675 L 367 675 L 366 674 L 365 674 L 364 673 L 363 673 L 362 672 L 361 672 L 360 671 L 359 671 L 358 670 L 357 670 L 356 669 L 355 669 L 354 668 L 353 668 L 352 667 L 350 667 L 349 666 L 347 666 L 346 665 L 344 665 L 343 664 L 341 664 L 340 663 L 338 663 L 337 662 L 334 662 L 333 661 L 329 661 L 328 660 L 318 660 L 317 659 L 312 659 L 311 660 L 302 660 L 301 661 L 297 661 L 296 662 L 293 662 L 292 663 L 283 663 L 282 662 L 280 662 L 279 661 L 278 661 L 277 660 L 276 660 L 273 657 L 273 656 L 272 655 L 272 654 L 271 653 L 271 651 L 270 650 L 270 645 L 271 644 L 271 638 L 272 637 L 272 612 L 271 611 L 271 606 L 270 605 L 270 602 L 269 601 L 269 598 L 268 597 L 268 594 L 267 593 L 267 591 L 266 590 L 266 588 L 265 587 L 265 586 L 264 585 L 264 583 L 263 582 L 263 581 L 262 580 L 262 579 L 261 578 L 261 577 L 260 576 L 260 575 L 259 574 L 259 573 L 258 572 L 258 571 L 257 570 L 257 569 L 256 568 L 256 567 L 254 565 L 254 564 L 253 563 L 253 562 L 251 560 L 251 559 L 249 557 L 249 556 L 247 554 L 247 553 L 243 549 L 243 548 L 238 543 L 238 542 L 229 533 L 228 533 L 222 527 L 221 527 L 218 524 L 217 524 L 214 521 L 213 521 L 211 519 L 210 519 L 209 518 L 208 518 L 206 516 L 205 516 L 204 515 L 203 515 L 202 514 L 201 514 L 200 513 L 199 513 L 198 512 L 197 512 L 196 511 L 195 511 L 194 510 L 193 510 L 192 509 L 190 509 L 189 508 L 188 508 L 187 507 L 185 507 L 184 506 L 181 506 L 180 505 L 178 505 L 177 504 L 172 504 L 171 503 Z M 823 457 L 822 458 L 817 458 L 816 459 L 812 459 L 811 460 L 809 460 L 808 461 L 805 461 L 804 462 L 803 462 L 802 463 L 800 463 L 799 464 L 798 464 L 797 465 L 796 465 L 795 466 L 794 466 L 793 467 L 792 467 L 791 468 L 790 468 L 788 470 L 787 470 L 785 472 L 784 472 L 782 474 L 781 474 L 777 478 L 776 478 L 763 491 L 763 492 L 759 496 L 759 497 L 756 500 L 756 501 L 754 503 L 754 504 L 751 507 L 751 508 L 750 509 L 750 510 L 748 512 L 748 513 L 747 514 L 747 515 L 746 516 L 746 517 L 744 519 L 744 520 L 743 521 L 743 522 L 742 523 L 742 524 L 741 525 L 741 527 L 740 528 L 740 529 L 739 530 L 739 531 L 738 532 L 738 534 L 737 535 L 737 536 L 736 537 L 736 539 L 735 540 L 735 542 L 734 543 L 734 545 L 733 546 L 733 548 L 732 549 L 732 552 L 731 553 L 731 556 L 730 557 L 730 561 L 729 562 L 729 568 L 728 569 L 728 582 L 727 583 L 727 591 L 728 592 L 728 601 L 729 602 L 729 607 L 730 608 L 730 612 L 731 613 L 731 616 L 732 617 L 732 619 L 733 620 L 733 622 L 734 623 L 734 626 L 735 627 L 735 629 L 736 630 L 736 640 L 735 641 L 735 643 L 734 644 L 734 645 L 732 647 L 732 648 L 724 656 L 723 656 L 722 657 L 721 657 L 720 658 L 718 658 L 717 659 L 712 659 L 711 660 L 710 659 L 685 659 L 684 660 L 678 660 L 677 661 L 673 661 L 672 662 L 669 662 L 668 663 L 665 663 L 664 664 L 662 664 L 661 665 L 659 665 L 658 666 L 656 666 L 655 667 L 653 667 L 652 668 L 651 668 L 650 669 L 649 669 L 648 670 L 646 670 L 645 671 L 644 671 L 643 672 L 642 672 L 641 673 L 640 673 L 639 674 L 638 674 L 637 675 L 636 675 L 634 677 L 633 677 L 632 678 L 631 678 L 630 679 L 629 679 L 627 681 L 626 681 L 624 683 L 623 683 L 621 685 L 620 685 L 618 687 L 617 687 L 614 690 L 613 690 L 610 693 L 609 693 L 604 698 L 603 698 L 581 720 L 581 721 L 577 725 L 577 726 L 573 730 L 573 731 L 570 734 L 570 735 L 568 737 L 568 738 L 566 740 L 566 741 L 564 743 L 564 744 L 562 746 L 562 747 L 560 749 L 560 750 L 559 751 L 559 752 L 558 753 L 558 754 L 556 756 L 556 757 L 555 758 L 555 759 L 554 760 L 554 761 L 553 762 L 553 763 L 552 764 L 552 765 L 551 766 L 551 767 L 550 768 L 550 769 L 549 770 L 549 771 L 548 772 L 548 773 L 547 774 L 547 776 L 546 777 L 546 778 L 545 779 L 545 780 L 544 781 L 544 783 L 543 784 L 543 785 L 542 786 L 542 788 L 541 789 L 541 791 L 540 792 L 540 794 L 539 795 L 539 797 L 538 798 L 538 800 L 537 801 L 537 804 L 536 805 L 536 807 L 535 808 L 535 812 L 534 813 L 534 816 L 533 817 L 533 821 L 532 822 L 532 827 L 531 828 L 531 834 L 530 835 L 530 844 L 529 845 L 529 866 L 530 867 L 530 875 L 531 876 L 531 881 L 532 882 L 532 886 L 533 887 L 533 890 L 534 891 L 534 894 L 535 895 L 535 897 L 536 898 L 536 900 L 537 901 L 537 903 L 538 904 L 538 906 L 539 907 L 539 908 L 540 909 L 540 910 L 541 911 L 541 912 L 542 913 L 542 914 L 543 915 L 543 916 L 544 917 L 544 918 L 545 919 L 545 920 L 546 921 L 546 922 L 548 924 L 548 925 L 550 927 L 550 928 L 553 931 L 553 932 L 557 936 L 557 937 L 562 942 L 562 943 L 564 945 L 564 946 L 565 947 L 565 948 L 566 949 L 566 950 L 567 951 L 567 954 L 568 955 L 568 963 L 567 964 L 567 969 L 566 970 L 566 972 L 565 973 L 565 975 L 564 976 L 564 978 L 563 979 L 563 980 L 561 982 L 561 983 L 560 984 L 560 985 L 553 992 L 552 992 L 551 993 L 550 993 L 549 994 L 548 994 L 547 995 L 546 995 L 545 996 L 543 996 L 542 997 L 539 997 L 538 998 L 536 998 L 535 999 L 533 999 L 532 1000 L 531 1000 L 530 1001 L 528 1001 L 527 1002 L 526 1002 L 525 1003 L 524 1003 L 523 1004 L 522 1004 L 521 1005 L 520 1005 L 518 1007 L 517 1007 L 515 1009 L 514 1009 L 512 1011 L 511 1011 L 507 1015 L 506 1015 L 498 1023 L 498 1024 L 495 1027 L 495 1028 L 492 1031 L 492 1032 L 490 1034 L 490 1035 L 489 1036 L 489 1037 L 487 1039 L 487 1040 L 486 1041 L 486 1042 L 485 1043 L 485 1044 L 484 1045 L 484 1047 L 483 1048 L 483 1049 L 482 1050 L 482 1051 L 481 1052 L 481 1054 L 480 1055 L 480 1057 L 479 1058 L 479 1060 L 478 1061 L 478 1063 L 477 1064 L 477 1066 L 476 1067 L 476 1070 L 475 1071 L 475 1074 L 474 1075 L 474 1079 L 473 1080 L 473 1084 L 472 1085 L 472 1090 L 471 1091 L 471 1100 L 470 1101 L 470 1134 L 471 1135 L 471 1144 L 472 1145 L 472 1151 L 473 1152 L 473 1157 L 474 1158 L 474 1162 L 475 1163 L 475 1167 L 476 1168 L 476 1171 L 477 1172 L 477 1175 L 478 1176 L 478 1179 L 479 1180 L 479 1182 L 480 1183 L 480 1185 L 481 1186 L 481 1188 L 482 1189 L 482 1192 L 483 1193 L 483 1195 L 484 1196 L 484 1197 L 485 1198 L 485 1200 L 486 1201 L 486 1203 L 487 1204 L 487 1205 L 488 1206 L 488 1208 L 489 1209 L 489 1210 L 490 1211 L 490 1212 L 491 1213 L 491 1215 L 492 1216 L 492 1217 L 493 1218 L 493 1219 L 494 1220 L 494 1221 L 495 1222 L 495 1223 L 496 1224 L 496 1225 L 497 1226 L 497 1227 L 498 1228 L 498 1229 L 499 1230 L 499 1231 L 500 1232 L 500 1233 L 501 1234 L 501 1235 L 502 1236 L 502 1237 L 504 1239 L 504 1240 L 505 1241 L 505 1242 L 506 1243 L 506 1244 L 508 1246 L 508 1247 L 509 1248 L 509 1249 L 511 1251 L 511 1252 L 513 1254 L 513 1255 L 515 1257 L 515 1258 L 518 1261 L 518 1262 L 520 1264 L 520 1265 L 523 1268 L 523 1269 L 526 1272 L 526 1273 L 530 1277 L 530 1278 L 535 1283 L 535 1284 L 558 1307 L 559 1307 L 564 1312 L 565 1312 L 568 1315 L 569 1315 L 572 1318 L 573 1318 L 576 1321 L 577 1321 L 579 1323 L 580 1323 L 582 1325 L 583 1325 L 585 1327 L 586 1327 L 587 1328 L 588 1328 L 590 1330 L 591 1330 L 592 1331 L 593 1331 L 595 1333 L 596 1333 L 597 1334 L 598 1334 L 599 1335 L 600 1335 L 601 1336 L 602 1336 L 603 1337 L 604 1337 L 605 1338 L 606 1338 L 607 1339 L 609 1339 L 610 1340 L 611 1340 L 612 1341 L 613 1341 L 614 1342 L 616 1342 L 617 1343 L 619 1343 L 620 1344 L 621 1344 L 622 1345 L 624 1345 L 625 1346 L 627 1346 L 628 1347 L 631 1347 L 632 1348 L 635 1348 L 636 1349 L 640 1349 L 641 1350 L 645 1350 L 646 1351 L 654 1351 L 655 1352 L 664 1352 L 665 1351 L 674 1351 L 675 1350 L 680 1350 L 681 1349 L 684 1349 L 685 1348 L 688 1348 L 689 1347 L 691 1347 L 692 1346 L 694 1346 L 695 1345 L 696 1345 L 697 1344 L 698 1344 L 699 1343 L 700 1343 L 701 1342 L 702 1342 L 703 1341 L 704 1341 L 705 1340 L 706 1340 L 707 1339 L 708 1339 L 710 1337 L 711 1337 L 713 1335 L 714 1335 L 717 1332 L 718 1332 L 730 1320 L 730 1319 L 734 1315 L 734 1314 L 736 1312 L 736 1311 L 738 1309 L 738 1308 L 740 1306 L 740 1305 L 741 1304 L 741 1303 L 742 1302 L 742 1301 L 743 1300 L 743 1299 L 744 1298 L 744 1297 L 745 1296 L 745 1295 L 746 1294 L 746 1293 L 747 1292 L 747 1290 L 748 1289 L 748 1288 L 749 1287 L 749 1285 L 750 1284 L 750 1282 L 751 1281 L 751 1279 L 752 1278 L 752 1276 L 753 1275 L 753 1272 L 754 1271 L 754 1268 L 755 1267 L 755 1262 L 756 1261 L 756 1257 L 757 1256 L 757 1248 L 758 1247 L 758 1214 L 757 1213 L 757 1205 L 756 1204 L 756 1198 L 755 1197 L 755 1192 L 754 1191 L 754 1186 L 753 1185 L 753 1181 L 752 1180 L 752 1177 L 751 1176 L 751 1173 L 750 1172 L 750 1169 L 749 1168 L 749 1166 L 748 1165 L 748 1162 L 747 1161 L 747 1159 L 746 1158 L 746 1155 L 745 1154 L 745 1152 L 744 1151 L 744 1149 L 743 1148 L 743 1146 L 742 1145 L 742 1143 L 741 1142 L 741 1138 L 740 1137 L 740 1133 L 741 1132 L 741 1129 L 742 1128 L 742 1127 L 743 1126 L 743 1125 L 744 1124 L 744 1123 L 753 1114 L 754 1114 L 756 1112 L 757 1112 L 758 1111 L 761 1111 L 762 1110 L 771 1110 L 772 1111 L 780 1111 L 781 1112 L 787 1112 L 788 1111 L 796 1111 L 797 1110 L 801 1110 L 802 1109 L 805 1109 L 806 1108 L 808 1108 L 809 1107 L 811 1107 L 812 1106 L 814 1106 L 815 1105 L 816 1105 L 817 1104 L 819 1104 L 820 1103 L 821 1103 L 822 1102 L 823 1102 L 824 1101 L 825 1101 L 826 1100 L 827 1100 L 829 1098 L 830 1098 L 831 1097 L 832 1097 L 834 1095 L 835 1095 L 837 1093 L 838 1093 L 841 1090 L 842 1090 L 846 1086 L 847 1086 L 861 1072 L 861 1071 L 865 1067 L 865 1066 L 868 1063 L 868 1062 L 870 1060 L 870 1059 L 872 1057 L 872 1056 L 873 1055 L 873 1054 L 875 1052 L 875 1051 L 876 1050 L 876 1049 L 877 1048 L 877 1047 L 878 1046 L 878 1045 L 879 1044 L 879 1043 L 880 1042 L 880 1041 L 881 1040 L 881 1039 L 882 1038 L 882 1036 L 883 1035 L 883 1033 L 884 1032 L 884 1031 L 885 1030 L 885 1028 L 886 1027 L 886 1024 L 887 1023 L 887 1021 L 888 1020 L 888 1017 L 889 1016 L 889 1011 L 890 1010 L 890 1002 L 891 1001 L 891 994 L 890 993 L 890 985 L 889 984 L 889 980 L 888 979 L 888 977 L 887 976 L 887 974 L 886 973 L 886 972 L 885 971 L 885 970 L 884 969 L 884 968 L 883 967 L 883 966 L 881 964 L 881 963 L 877 959 L 877 958 L 875 956 L 874 956 L 869 951 L 868 951 L 866 949 L 865 949 L 864 948 L 863 948 L 862 947 L 861 947 L 860 946 L 858 946 L 857 945 L 854 945 L 853 944 L 846 944 L 845 943 L 840 943 L 839 944 L 832 944 L 831 945 L 826 945 L 825 946 L 822 946 L 821 947 L 819 947 L 818 948 L 816 948 L 815 949 L 813 949 L 812 950 L 811 950 L 810 951 L 809 951 L 808 952 L 807 952 L 806 953 L 805 953 L 804 954 L 803 954 L 802 955 L 801 955 L 800 956 L 799 956 L 797 958 L 796 958 L 795 959 L 794 959 L 792 961 L 791 961 L 788 964 L 787 964 L 783 968 L 782 968 L 766 984 L 766 985 L 762 989 L 762 990 L 759 993 L 759 994 L 757 996 L 757 997 L 755 999 L 755 1000 L 754 1001 L 754 1002 L 752 1004 L 752 1005 L 751 1006 L 751 1007 L 750 1008 L 750 1009 L 749 1010 L 749 1011 L 748 1012 L 748 1013 L 747 1014 L 747 1015 L 746 1016 L 746 1018 L 745 1019 L 745 1020 L 744 1021 L 744 1022 L 743 1023 L 743 1025 L 742 1026 L 742 1028 L 741 1029 L 741 1031 L 740 1032 L 740 1035 L 739 1036 L 739 1039 L 738 1040 L 738 1043 L 737 1044 L 737 1049 L 736 1050 L 736 1071 L 735 1072 L 735 1075 L 734 1076 L 734 1077 L 733 1078 L 733 1079 L 726 1086 L 725 1086 L 724 1087 L 721 1087 L 720 1088 L 717 1088 L 716 1087 L 714 1087 L 713 1086 L 712 1086 L 711 1085 L 710 1085 L 706 1081 L 706 1080 L 704 1078 L 704 1077 L 702 1075 L 702 1074 L 700 1072 L 700 1071 L 697 1068 L 697 1067 L 694 1064 L 694 1063 L 689 1058 L 689 1057 L 668 1036 L 667 1036 L 662 1031 L 661 1031 L 658 1028 L 657 1028 L 654 1025 L 653 1025 L 651 1023 L 650 1023 L 648 1021 L 647 1021 L 645 1019 L 644 1019 L 642 1017 L 641 1017 L 640 1016 L 639 1016 L 637 1014 L 636 1014 L 635 1013 L 634 1013 L 632 1011 L 631 1011 L 630 1010 L 629 1010 L 628 1009 L 627 1009 L 626 1008 L 625 1008 L 624 1007 L 623 1007 L 622 1006 L 620 1006 L 619 1005 L 618 1005 L 617 1004 L 616 1004 L 614 1002 L 613 1002 L 609 998 L 609 997 L 608 996 L 608 995 L 607 994 L 607 992 L 606 991 L 606 983 L 607 982 L 607 980 L 608 979 L 608 978 L 609 977 L 609 976 L 616 969 L 617 969 L 618 968 L 619 968 L 620 967 L 621 967 L 622 966 L 626 966 L 627 965 L 634 965 L 635 964 L 639 964 L 640 963 L 643 963 L 644 962 L 647 962 L 648 961 L 651 961 L 652 960 L 655 960 L 656 959 L 658 959 L 659 958 L 660 958 L 661 957 L 663 957 L 664 956 L 665 956 L 666 955 L 668 955 L 669 954 L 670 954 L 671 953 L 672 953 L 673 952 L 674 952 L 675 951 L 676 951 L 677 950 L 678 950 L 679 949 L 680 949 L 681 948 L 682 948 L 684 946 L 685 946 L 686 945 L 687 945 L 688 944 L 689 944 L 691 942 L 692 942 L 694 940 L 695 940 L 697 938 L 698 938 L 701 935 L 702 935 L 704 933 L 705 933 L 709 929 L 710 929 L 715 924 L 716 924 L 739 901 L 739 900 L 744 895 L 744 894 L 747 891 L 747 890 L 750 887 L 750 886 L 752 884 L 752 883 L 754 881 L 754 880 L 756 878 L 756 877 L 758 875 L 758 874 L 760 872 L 760 871 L 761 870 L 761 869 L 763 867 L 763 866 L 764 865 L 764 864 L 765 863 L 765 862 L 766 861 L 766 860 L 768 858 L 768 857 L 769 856 L 769 855 L 770 854 L 770 853 L 771 852 L 771 851 L 772 850 L 772 848 L 773 847 L 773 846 L 774 845 L 774 844 L 775 843 L 775 842 L 776 841 L 776 839 L 777 838 L 777 837 L 778 836 L 778 834 L 779 833 L 779 832 L 780 831 L 780 829 L 781 828 L 781 826 L 782 825 L 782 823 L 783 822 L 783 820 L 784 819 L 784 816 L 785 815 L 785 813 L 786 812 L 786 809 L 787 808 L 787 804 L 788 803 L 788 800 L 789 799 L 789 793 L 790 792 L 790 786 L 791 785 L 791 772 L 792 771 L 792 765 L 791 764 L 791 750 L 790 749 L 790 743 L 789 742 L 789 737 L 788 736 L 788 733 L 787 732 L 787 729 L 786 728 L 786 725 L 785 724 L 785 722 L 784 721 L 784 719 L 783 718 L 783 716 L 782 715 L 782 714 L 781 713 L 781 711 L 780 710 L 780 709 L 779 708 L 779 707 L 778 706 L 778 705 L 777 704 L 777 703 L 776 702 L 776 701 L 774 699 L 774 698 L 773 697 L 773 696 L 772 695 L 772 694 L 770 692 L 770 691 L 769 690 L 769 689 L 768 688 L 768 687 L 767 686 L 767 685 L 766 684 L 766 681 L 765 680 L 765 671 L 766 670 L 766 668 L 767 667 L 767 665 L 768 664 L 768 663 L 769 662 L 769 661 L 772 658 L 772 657 L 776 653 L 777 653 L 779 651 L 780 651 L 781 650 L 782 650 L 783 649 L 785 649 L 786 648 L 789 648 L 790 647 L 792 647 L 793 646 L 795 646 L 796 645 L 797 645 L 798 644 L 800 644 L 801 643 L 802 643 L 803 642 L 804 642 L 805 641 L 806 641 L 807 640 L 808 640 L 809 639 L 810 639 L 812 637 L 813 637 L 814 636 L 815 636 L 817 634 L 818 634 L 821 631 L 822 631 L 826 627 L 827 627 L 842 612 L 842 611 L 846 607 L 846 606 L 849 603 L 849 602 L 851 600 L 851 599 L 853 597 L 853 596 L 854 595 L 854 594 L 856 592 L 856 591 L 857 590 L 857 589 L 858 588 L 858 587 L 859 586 L 859 585 L 860 584 L 860 583 L 861 582 L 861 581 L 862 580 L 862 579 L 863 578 L 863 577 L 864 576 L 864 575 L 865 574 L 865 572 L 866 571 L 866 570 L 867 569 L 867 567 L 868 566 L 868 564 L 869 563 L 869 561 L 870 560 L 870 557 L 871 556 L 871 554 L 872 553 L 872 550 L 873 549 L 873 546 L 874 545 L 874 541 L 875 540 L 875 534 L 876 533 L 876 506 L 875 505 L 875 501 L 874 500 L 874 497 L 873 496 L 873 494 L 872 493 L 872 491 L 871 490 L 871 489 L 870 488 L 870 487 L 869 486 L 869 485 L 868 484 L 868 483 L 867 482 L 867 481 L 865 479 L 865 478 L 853 466 L 852 466 L 850 464 L 849 464 L 848 463 L 847 463 L 846 462 L 845 462 L 844 461 L 843 461 L 842 460 L 840 460 L 839 459 L 837 459 L 836 458 L 831 458 L 830 457 Z M 718 143 L 717 144 L 712 144 L 711 145 L 708 145 L 707 146 L 704 146 L 703 147 L 701 147 L 700 148 L 698 148 L 697 149 L 696 149 L 695 150 L 694 150 L 693 151 L 691 151 L 690 152 L 689 152 L 688 153 L 687 153 L 686 154 L 685 154 L 683 156 L 682 156 L 681 157 L 680 157 L 678 159 L 677 159 L 675 161 L 674 161 L 672 163 L 671 163 L 668 166 L 667 166 L 663 170 L 662 170 L 643 189 L 643 190 L 639 194 L 639 195 L 636 198 L 636 199 L 633 202 L 633 203 L 631 205 L 631 206 L 629 208 L 629 209 L 628 210 L 628 211 L 626 213 L 626 214 L 625 215 L 625 216 L 624 217 L 624 218 L 623 219 L 623 220 L 622 221 L 622 222 L 621 223 L 621 224 L 620 225 L 620 226 L 619 227 L 619 228 L 618 229 L 618 230 L 617 231 L 617 233 L 616 234 L 616 235 L 615 236 L 615 238 L 614 239 L 614 241 L 613 242 L 613 244 L 612 245 L 612 247 L 611 248 L 611 251 L 610 252 L 610 256 L 609 257 L 609 261 L 608 262 L 608 270 L 607 271 L 607 293 L 608 294 L 608 301 L 609 302 L 609 308 L 610 309 L 610 318 L 609 319 L 609 321 L 608 322 L 608 324 L 607 325 L 607 326 L 605 328 L 605 329 L 600 334 L 599 334 L 597 336 L 595 336 L 594 337 L 592 337 L 591 338 L 588 338 L 587 337 L 581 337 L 580 336 L 574 336 L 573 335 L 546 335 L 545 336 L 539 336 L 538 337 L 534 337 L 533 338 L 530 338 L 529 339 L 526 339 L 525 340 L 522 340 L 521 341 L 519 341 L 518 342 L 516 342 L 515 343 L 513 343 L 512 344 L 511 344 L 510 345 L 508 345 L 507 346 L 506 346 L 505 347 L 504 347 L 503 348 L 501 348 L 500 349 L 499 349 L 498 350 L 497 350 L 496 351 L 495 351 L 494 352 L 493 352 L 491 354 L 490 354 L 489 355 L 488 355 L 486 357 L 485 357 L 484 358 L 483 358 L 481 360 L 480 360 L 479 361 L 478 361 L 476 363 L 475 363 L 474 364 L 472 364 L 471 365 L 468 365 L 467 366 L 462 366 L 461 365 L 458 365 L 457 364 L 456 364 L 455 363 L 454 363 L 452 361 L 451 361 L 447 357 L 447 356 L 445 354 L 445 353 L 444 352 L 444 350 L 443 349 L 443 342 L 444 341 L 444 336 L 445 335 L 445 308 L 444 307 L 444 301 L 443 300 L 443 295 L 442 294 L 442 291 L 441 290 L 441 287 L 440 286 L 440 284 L 439 283 L 439 281 L 438 280 L 438 278 L 437 277 L 437 275 L 436 274 L 436 273 L 435 272 L 435 271 L 434 270 L 434 268 L 433 267 L 433 266 L 432 265 L 432 264 L 431 263 L 431 262 L 430 261 L 430 260 L 429 259 L 429 258 L 428 257 L 428 256 L 426 254 L 426 253 L 425 252 L 425 251 L 423 249 L 423 248 L 421 246 L 421 245 L 419 243 L 419 242 L 416 239 L 416 238 L 412 234 L 412 233 L 404 225 L 404 224 L 399 219 L 398 219 L 390 211 L 389 211 L 386 208 L 385 208 L 382 205 L 381 205 L 379 203 L 378 203 L 376 201 L 375 201 L 373 199 L 372 199 L 371 198 L 370 198 L 368 196 L 367 196 L 366 195 L 365 195 L 364 194 L 363 194 L 362 193 L 361 193 L 360 192 L 359 192 L 358 191 L 356 191 L 355 190 L 354 190 L 353 189 L 351 189 L 350 188 L 348 188 L 347 187 L 345 187 L 344 186 L 341 186 L 340 185 L 337 185 L 336 184 L 330 184 L 329 183 L 307 183 L 306 184 L 302 184 L 301 185 L 298 185 L 297 186 L 295 186 L 294 187 L 293 187 L 292 188 L 290 188 L 289 189 L 288 189 L 287 190 L 286 190 L 284 192 L 283 192 L 281 194 L 280 194 L 276 198 L 275 198 L 272 201 L 272 202 L 268 206 L 268 207 L 266 209 L 266 210 L 265 211 L 265 212 L 263 214 L 263 215 L 262 216 L 262 218 L 261 219 L 261 220 L 260 221 L 260 223 L 259 224 L 259 227 L 258 228 L 258 232 L 257 233 L 257 240 L 256 241 L 256 251 L 257 252 L 257 260 L 258 261 L 258 266 L 259 267 L 259 270 L 260 271 L 260 274 L 261 275 L 261 277 L 262 278 L 262 280 L 263 281 L 263 283 L 264 284 L 264 286 L 265 287 L 265 288 L 266 289 L 266 291 L 267 292 L 267 293 L 268 294 L 268 295 L 269 296 L 269 297 L 270 298 L 270 299 L 271 300 L 271 301 L 272 302 L 272 303 L 273 304 L 273 305 L 274 306 L 274 307 L 276 309 L 276 310 L 277 311 L 277 312 L 279 314 L 279 315 L 281 317 L 281 318 L 284 321 L 284 322 L 287 325 L 287 326 L 292 331 L 292 332 L 307 347 L 308 347 L 313 352 L 314 352 L 317 355 L 318 355 L 321 358 L 322 358 L 324 360 L 325 360 L 327 362 L 328 362 L 329 363 L 330 363 L 332 365 L 333 365 L 334 366 L 335 366 L 336 367 L 337 367 L 338 368 L 339 368 L 340 369 L 341 369 L 342 370 L 343 370 L 344 371 L 345 371 L 346 372 L 347 372 L 348 373 L 349 373 L 350 374 L 352 374 L 353 375 L 354 375 L 355 376 L 357 376 L 358 377 L 360 377 L 361 378 L 364 378 L 365 379 L 368 379 L 369 380 L 373 380 L 374 381 L 379 381 L 380 382 L 403 382 L 404 383 L 406 383 L 407 384 L 409 384 L 411 386 L 412 386 L 417 391 L 417 392 L 419 394 L 419 395 L 420 396 L 420 397 L 421 398 L 421 401 L 422 402 L 422 407 L 421 408 L 421 411 L 420 412 L 420 414 L 419 415 L 419 416 L 418 417 L 418 418 L 416 420 L 416 421 L 414 423 L 414 424 L 412 426 L 412 427 L 410 429 L 410 430 L 409 431 L 409 432 L 407 434 L 407 435 L 406 436 L 406 437 L 405 438 L 405 439 L 404 440 L 404 441 L 403 442 L 403 443 L 402 444 L 402 445 L 401 446 L 401 447 L 400 448 L 400 449 L 399 450 L 399 451 L 398 452 L 398 453 L 397 454 L 397 455 L 396 456 L 396 457 L 395 458 L 395 460 L 394 461 L 394 462 L 393 463 L 393 465 L 392 466 L 392 468 L 391 469 L 391 471 L 390 472 L 390 474 L 389 475 L 389 477 L 388 478 L 388 480 L 387 481 L 387 484 L 386 485 L 386 489 L 385 490 L 385 493 L 384 494 L 384 498 L 383 499 L 383 505 L 382 506 L 382 514 L 381 515 L 381 541 L 382 542 L 382 549 L 383 550 L 383 555 L 384 556 L 384 559 L 385 560 L 385 563 L 386 564 L 386 567 L 387 568 L 387 570 L 388 571 L 388 573 L 389 574 L 389 576 L 390 577 L 390 578 L 391 579 L 391 581 L 392 582 L 392 583 L 393 584 L 393 585 L 394 586 L 394 587 L 395 588 L 395 589 L 397 591 L 397 592 L 399 594 L 399 595 L 402 598 L 402 599 L 416 613 L 417 613 L 419 615 L 420 615 L 423 618 L 424 618 L 425 619 L 426 619 L 427 620 L 428 620 L 430 622 L 431 622 L 432 623 L 433 623 L 434 624 L 436 624 L 437 625 L 438 625 L 439 626 L 441 626 L 442 627 L 444 627 L 445 628 L 447 628 L 448 629 L 451 629 L 452 630 L 456 630 L 457 631 L 462 631 L 463 632 L 486 632 L 487 631 L 493 631 L 494 630 L 499 630 L 500 629 L 504 629 L 505 628 L 508 628 L 509 627 L 511 627 L 512 626 L 514 626 L 515 625 L 517 625 L 518 624 L 520 624 L 521 623 L 523 623 L 524 622 L 525 622 L 526 621 L 528 621 L 529 620 L 530 620 L 531 619 L 532 619 L 533 618 L 535 618 L 536 617 L 537 617 L 538 616 L 539 616 L 540 615 L 541 615 L 542 614 L 543 614 L 545 612 L 546 612 L 547 611 L 548 611 L 549 610 L 550 610 L 552 608 L 553 608 L 554 607 L 555 607 L 557 605 L 558 605 L 560 603 L 561 603 L 563 601 L 564 601 L 567 598 L 568 598 L 571 595 L 572 595 L 576 591 L 577 591 L 583 585 L 584 585 L 604 565 L 604 564 L 609 559 L 609 558 L 613 554 L 613 553 L 616 550 L 616 549 L 618 547 L 618 546 L 621 543 L 621 542 L 623 540 L 623 539 L 624 538 L 624 537 L 626 535 L 626 534 L 628 532 L 628 531 L 629 530 L 629 529 L 630 528 L 630 527 L 632 525 L 632 524 L 633 523 L 633 522 L 634 521 L 634 520 L 635 519 L 635 518 L 636 517 L 636 516 L 637 515 L 637 514 L 638 513 L 638 512 L 639 511 L 639 510 L 640 509 L 640 508 L 641 507 L 641 505 L 642 504 L 642 503 L 643 502 L 643 501 L 644 500 L 644 498 L 645 497 L 645 495 L 646 494 L 646 492 L 647 491 L 647 489 L 648 488 L 648 486 L 649 485 L 649 483 L 650 482 L 650 479 L 651 478 L 651 476 L 652 475 L 652 471 L 653 470 L 653 466 L 654 465 L 654 460 L 655 459 L 655 452 L 656 451 L 656 428 L 655 427 L 655 420 L 654 419 L 654 415 L 653 414 L 653 410 L 652 409 L 652 406 L 651 405 L 651 403 L 650 402 L 650 399 L 649 398 L 649 397 L 648 396 L 648 394 L 647 393 L 647 391 L 646 390 L 646 388 L 645 387 L 645 386 L 644 385 L 644 383 L 643 382 L 643 380 L 642 379 L 642 376 L 641 375 L 641 365 L 642 364 L 642 362 L 643 361 L 643 360 L 644 359 L 644 358 L 645 357 L 645 356 L 652 349 L 653 349 L 654 348 L 655 348 L 656 347 L 657 347 L 658 346 L 660 346 L 661 345 L 665 345 L 666 344 L 670 344 L 671 343 L 675 343 L 676 342 L 678 342 L 679 341 L 681 341 L 682 340 L 684 340 L 685 339 L 687 339 L 688 338 L 690 338 L 691 337 L 692 337 L 693 336 L 694 336 L 695 335 L 696 335 L 697 334 L 698 334 L 699 333 L 700 333 L 701 332 L 702 332 L 703 331 L 704 331 L 705 330 L 706 330 L 708 328 L 709 328 L 710 327 L 711 327 L 713 325 L 714 325 L 717 322 L 718 322 L 721 319 L 722 319 L 728 313 L 729 313 L 742 300 L 742 299 L 747 294 L 747 293 L 750 290 L 750 289 L 753 286 L 753 285 L 755 283 L 755 282 L 757 280 L 757 279 L 759 277 L 759 276 L 760 275 L 760 274 L 761 273 L 761 272 L 763 270 L 763 269 L 764 268 L 764 267 L 765 266 L 765 265 L 766 264 L 766 263 L 767 262 L 767 261 L 768 260 L 768 259 L 769 258 L 769 256 L 770 255 L 770 254 L 771 253 L 771 251 L 772 250 L 772 249 L 773 248 L 773 246 L 774 245 L 774 243 L 775 242 L 775 239 L 776 238 L 776 236 L 777 235 L 777 232 L 778 231 L 778 227 L 779 226 L 779 222 L 780 221 L 780 212 L 781 211 L 781 200 L 780 199 L 780 191 L 779 190 L 779 186 L 778 185 L 778 183 L 777 182 L 777 180 L 776 179 L 776 177 L 775 176 L 775 175 L 774 174 L 774 173 L 773 172 L 773 171 L 772 170 L 772 169 L 770 167 L 770 166 L 768 164 L 768 163 L 758 153 L 757 153 L 755 151 L 754 151 L 752 149 L 751 149 L 750 148 L 749 148 L 748 147 L 746 147 L 745 146 L 743 146 L 742 145 L 740 145 L 739 144 L 735 144 L 734 143 Z " fill="black"/>
</svg>